<?xml version="1.0" encoding="UTF-8"?>
<svg width="52px" height="46px" viewBox="0 0 52 46" version="1.1" xmlns="http://www.w3.org/2000/svg" xmlns:xlink="http://www.w3.org/1999/xlink">
    <title>nominee</title>
    <g id="MF-Central" stroke="none" stroke-width="1" fill="none" fill-rule="evenodd">
        <g id="nominee" transform="translate(1.000000, 1.000000)" fill="#97144D" fill-rule="nonzero" stroke="#97144D" stroke-width="0.5">
            <path d="M11.489587,12.2546041 C13.1147226,12.2546041 14.6732456,11.6090491 15.8221148,10.4598298 C16.971334,9.31096066 17.6168891,7.75243761 17.6168891,6.12730205 C17.6168891,4.50216648 16.971334,2.94364344 15.8221148,1.7947743 C14.6732456,0.645555037 13.1147226,0 11.489587,0 C9.86445144,0 8.3059284,0.645555037 7.15705927,1.7947743 C6.00784,2.94364344 5.36228496,4.50216648 5.36228496,6.12730205 C5.36399457,7.75182488 6.01022965,9.30929753 7.15907252,10.4578165 C8.30759153,11.6066857 9.86506417,12.252941 11.489587,12.2546041 Z M11.489587,1.53182551 C12.70857,1.53182551 13.8772216,2.01598741 14.7392454,2.87764364 C15.6009016,3.73964124 16.0850635,4.90831907 16.0850635,6.12730205 C16.0850635,7.34628502 15.6009016,8.51493659 14.7392454,9.37696045 C13.8772478,10.2386167 12.70857,10.7227786 11.489587,10.7227786 C10.270604,10.7227786 9.10195247,10.2386167 8.2399286,9.37696045 C7.37827238,8.51496285 6.89411048,7.34628502 6.89411048,6.12730205 C6.89547818,4.90901933 7.37998802,3.74063037 8.24167926,2.8793943 C9.10298536,2.01773807 10.2713918,1.53322604 11.489587,1.53182551 Z" id="Shape"></path>
            <path d="M48.8658447,31.9448293 L47.4385542,30.5175388 C47.2224291,30.3056923 46.8684223,30.3014137 46.6538235,30.5161587 L45.9884754,31.1815069 L48.2289378,33.4219693 L48.8942859,32.757999 C49.1402195,32.5120654 49.0905375,32.1864893 48.867236,31.9448271 L48.8658447,31.9448293 Z M45.3175803,31.8523617 L37.6532868,39.5166552 L39.8937492,41.7571176 L47.5580427,34.0928241 L45.3175803,31.8523617 Z M36.9823564,40.1875856 L36.9297737,40.2401683 L36.3711243,43.0394214 L39.1703774,42.4807721 L39.2229601,42.4281893 L36.9823564,40.1875856 Z M48.1069408,29.8476966 L49.5641917,31.3034283 C50.1456294,31.884866 50.1456294,32.8473455 49.5641917,33.4287832 L39.7404845,43.2524904 C39.6764476,43.3165273 39.5926749,43.3633123 39.497448,43.3818079 L35.8650965,44.1082782 C35.5366303,44.1779751 35.2367396,43.8878746 35.3035147,43.5523846 L36.0270879,39.9285125 C36.0426832,39.834667 36.0868463,39.7437152 36.1593025,39.6726404 L45.9830097,29.8489332 C46.5644474,29.2674955 47.525549,29.2645984 48.1069867,29.8489332 L48.1069408,29.8476966 Z" id="Shape"></path>
            <path d="M37.5306207,12.2546041 C39.1557563,12.2546041 40.7142793,11.6090491 41.8631485,10.4598298 C43.0123677,9.31096066 43.6579228,7.75243761 43.6579228,6.12730205 C43.6579228,4.50216648 43.0123677,2.94364344 41.8631485,1.7947743 C40.7142793,0.645555037 39.1557563,0 37.5306207,0 C35.9054851,0 34.3469621,0.645555037 33.198093,1.7947743 C32.0488737,2.94364344 31.4033187,4.50216648 31.4033187,6.12730205 C31.4050283,7.75182488 32.0512633,9.30929753 33.2001062,10.4578165 C34.3486252,11.6066857 35.9060979,12.252941 37.5306207,12.2546041 Z M37.5306207,1.53182551 C38.7496037,1.53182551 39.9182552,2.01598741 40.7802791,2.87764364 C41.6419353,3.73964124 42.1260972,4.90831907 42.1260972,6.12730205 C42.1260972,7.34628502 41.6419353,8.51493659 40.7802791,9.37696045 C39.9182815,10.2386167 38.7496037,10.7227786 37.5306207,10.7227786 C36.3116377,10.7227786 35.1429862,10.2386167 34.2809623,9.37696045 C33.4193061,8.51496285 32.9351442,7.34628502 32.9351442,6.12730205 C32.9365119,4.90901933 33.4210217,3.74063037 34.282713,2.8793943 C35.1440191,2.01773807 36.3124255,1.53322604 37.5306207,1.53182551 Z" id="Shape"></path>
            <path d="M13.8687309,13.4039109 L16.2448111,13.4039109 C17.2333199,13.385789 18.2074734,13.6463332 19.0550544,14.1554595 C19.4875894,13.812847 19.9512161,13.5116114 20.4401748,13.2555339 C19.3169528,12.388757 17.9437369,11.9079651 16.5250914,11.8847689 C15.750968,12.5648557 14.8476111,13.0815185 13.8686433,13.4039021 L13.8687309,13.4039109 Z" id="Path"></path>
            <path d="M16.578749,24.8917269 L2.29163131,24.8917269 C1.8481547,24.8647151 1.50896476,24.484839 1.5322135,24.0410123 L1.5322135,19.1083591 C1.5322135,15.6422318 3.5745308,13.4029655 6.7349932,13.4029655 L9.11037313,13.4029655 C8.13140533,13.0805294 7.22806594,12.563884 6.4539251,11.8838323 C2.58365853,12.0182128 0.000387983657,14.8825339 0.000387983657,19.1083591 L0.000387983657,24.0410123 C-0.0108958807,24.6605788 0.224349627,25.259295 0.653803474,25.7058878 C1.08325732,26.1524456 1.67242367,26.4105975 2.29163131,26.4235874 L17.5284808,26.4235874 C17.1605714,25.9466032 16.8425819,25.4334154 16.5789241,24.8917619 L16.578749,24.8917269 Z" id="Path"></path>
            <path d="M32.7767096,13.4039109 L35.1520896,13.4039109 C34.1731218,13.0814748 33.2697824,12.5648294 32.4956415,11.8847776 C31.0769961,11.9083704 29.7041303,12.3891159 28.5805581,13.2558928 C29.0695081,13.5116551 29.5331785,13.8132322 29.9660287,14.1558184 C30.8136621,13.6463507 31.7877631,13.3858003 32.7766221,13.4039284 L32.7767096,13.4039109 Z" id="Path"></path>
            <path d="M42.5655123,11.884305 C41.791389,12.5644267 40.8880321,13.0810896 39.9090643,13.4034732 L42.2851445,13.4034732 C45.4452568,13.4034732 47.4872239,15.6427395 47.4872239,19.1088668 L47.4872239,24.04152 C47.5104744,24.485338 47.1712827,24.8652219 46.7278061,24.8922346 L32.4406884,24.8922346 C32.1770656,25.4338443 31.8590761,25.9470934 31.4911317,26.4240601 L46.7279812,26.4240601 C47.3472063,26.4110667 47.9363727,26.1529095 48.365809,25.7063605 C48.7952629,25.2598027 49.0305163,24.6611303 49.0192245,24.041485 L49.0192245,19.1088317 C49.0192245,14.8826565 46.435954,12.0183178 42.5656874,11.884305 L42.5655123,11.884305 Z" id="Path"></path>
            <path d="M17.2343703,21.0630384 C17.2343703,22.992876 18.0009659,24.8434087 19.3656211,26.2079589 C20.7302763,27.5725091 22.580704,28.3392096 24.5105415,28.3392096 C26.4403791,28.3392096 28.2909118,27.5726141 29.655462,26.2079589 C31.0200122,24.8433037 31.7867127,22.992876 31.7867127,21.0630384 C31.7867127,19.1332009 31.0201172,17.2826682 29.655462,15.918118 C28.2908068,14.5535678 26.4403791,13.7868673 24.5105415,13.7868673 C22.5814042,13.7889189 20.7319219,14.5562026 19.3679844,15.9204814 C18.0036969,17.2844188 17.2363836,19.1339012 17.2343703,21.0630384 Z M24.5105415,15.3186928 C26.0341389,15.3186928 27.4952379,15.9239039 28.5722425,17.0013375 C29.6496848,18.0784296 30.2548872,19.539441 30.2548872,21.0630384 C30.2548872,22.5866359 29.6496761,24.0477348 28.5722425,25.1247394 C27.4951503,26.2021817 26.0341389,26.8073841 24.5105415,26.8073841 C22.9869441,26.8073841 21.5258452,26.202173 20.4488405,25.1247394 C19.3713982,24.0476473 18.7661959,22.5866359 18.7661959,21.0630384 C18.7679055,19.5401413 19.3734553,18.0800927 20.4505037,17.0030006 C21.5275958,15.9259084 22.9875568,15.3203559 24.5105415,15.3186928 Z" id="Shape"></path>
            <path d="M24.0461796,29.8583429 C23.5353464,29.8309888 23.0275594,29.7591856 22.5294097,29.6432746 L21.4732379,36.9067535 C21.3689512,37.5837678 21.5802644,38.2713912 22.046307,38.7736549 L23.5110823,40.1885365 L23.5114242,40.1881946 C23.7832576,40.4463465 24.143648,40.5903031 24.5184025,40.5903031 C24.893157,40.5903031 25.2538801,40.4463553 25.525731,40.1881946 L26.9901561,38.773313 L26.9901561,38.773655 C27.4572229,38.2744462 27.6610169,37.5837329 27.5389436,36.9108676 L26.2779448,29.692118 C25.7756549,29.794015 25.2655395,29.8514541 24.753297,29.8644528 L26.0345159,37.1970826 C26.0557154,37.3632551 26.0170776,37.5314845 25.9257825,37.6720186 L24.5184288,39.0314918 L23.1114251,37.6727188 C23.008504,37.5178294 22.9640548,37.3311393 22.9862794,37.1464974 L24.0461796,29.8583429 Z" id="Path"></path>
            <path d="M30.6540372,42.8911143 L13.0327918,42.8911143 C12.6118812,42.8982947 12.264148,42.5638901 12.2555961,42.1426381 L12.2555961,34.8490479 C12.2555961,30.8943121 14.7998269,28.3387895 18.7374938,28.3387895 L19.5529852,28.3387895 C18.9320444,27.9137735 18.3675273,27.4111159 17.8734042,26.8439028 C13.5613591,27.2104468 10.723718,30.3342767 10.723718,34.8490479 L10.723718,42.1426381 C10.728163,42.751263 10.9740096,43.3329103 11.4068859,43.7602459 C11.8397623,44.1876514 12.4244557,44.4259772 13.0327218,44.4229256 L32.05887,44.4229256 C31.5165775,43.985573 31.0430508,43.4692253 30.6542297,42.8910706 L30.6540372,42.8911143 Z" id="Path"></path>
            <path d="M30.283773,28.338772 C33.2400212,28.338772 35.4102241,29.7800009 36.3081364,32.1720997 C36.3330973,32.1717577 36.3570314,32.1683385 36.38165,32.1683385 C36.9184717,32.1703901 37.4528775,32.235014 37.9743109,32.3615235 C37.1205239,29.2151539 34.6114725,27.137911 31.1467458,26.8435379 C30.6526664,27.4111362 30.088123,27.9138025 29.4671647,28.3387747 L30.283773,28.338772 Z" id="Path"></path>
        </g>
    </g>
</svg>