<svg width="48" height="48" viewBox="0 0 48 48" fill="none" xmlns="http://www.w3.org/2000/svg">
<path d="M11.7199 30.84C15.8 23.9195 19.92 16.96 24.0002 10L24.3601 10.08C25.8396 12.44 27.2001 14.8809 28.6401 17.2399C28.9601 17.72 29.4001 18.3598 29 18.9199C27.5999 21.4399 26.0799 23.9599 24.6801 26.5201C27.8807 26.5201 31.0813 26.4802 34.28 26.5201C36.1599 30 38.0401 33.4801 40 36.9201V37.2402C36.7599 37.2402 33.52 37.2402 30.2799 37.2801C28.1998 33.8802 26.4401 30.2802 24.3601 26.88C22.12 30.24 20.36 33.8802 18.16 37.2801C14.8 37.2402 11.3999 37.3199 8 37.04V36.96C9.35873 35.0007 10.44 32.8802 11.7199 30.84Z" fill="#AC265B" stroke="#AC265B" stroke-width="0.094"/>
</svg>
