<svg width="48" height="48" viewBox="0 0 48 48" fill="none" xmlns="http://www.w3.org/2000/svg">
<circle cx="24" cy="27.3877" r="16" fill="url(#paint0_linear_291_13579)"/>
<mask id="mask0_291_13579" style="mask-type:alpha" maskUnits="userSpaceOnUse" x="8" y="11" width="32" height="33">
<circle cx="24" cy="27.3877" r="16" fill="#EE3823"/>
</mask>
<g mask="url(#mask0_291_13579)">
<circle cx="13.6814" cy="19.1426" r="16" fill="url(#paint1_linear_291_13579)"/>
</g>
<path d="M24.0435 31.3262C18.463 27.3383 14.3433 14.9841 24.007 4.6123C29.0936 9.21259 33.9592 22.8471 24.0435 31.3262Z" fill="#FFCB08"/>
<path d="M24.033 31.3262C19.8104 28.3086 16.6931 18.9604 24.0055 11.1123C27.8544 14.5933 31.536 24.9102 24.033 31.3262Z" fill="#F26522"/>
<path d="M24.0445 31.3262C21.3788 29.4213 19.4109 23.5199 24.0271 18.5655C26.4569 20.763 28.781 27.2759 24.0445 31.3262Z" fill="white"/>
<defs>
<linearGradient id="paint0_linear_291_13579" x1="31.9129" y1="24.4284" x2="8" y2="44.3212" gradientUnits="userSpaceOnUse">
<stop stop-color="#E63626"/>
<stop offset="1" stop-color="#C3252F"/>
</linearGradient>
<linearGradient id="paint1_linear_291_13579" x1="19.9228" y1="34.1911" x2="11.0648" y2="14.9672" gradientUnits="userSpaceOnUse">
<stop stop-color="#991821"/>
<stop offset="1" stop-color="#EE3823"/>
</linearGradient>
</defs>
</svg>
