<?xml version="1.0" encoding="UTF-8"?>
<svg width="36px" height="36px" viewBox="0 0 36 36" version="1.1" xmlns="http://www.w3.org/2000/svg" xmlns:xlink="http://www.w3.org/1999/xlink">
    <title>equity Index Burgundy </title>
    <g id="Equity-Index-Fund-Aug-2023" stroke="none" stroke-width="1" fill="none" fill-rule="evenodd">
        <g id="equity-Index-Burgundy-" fill="#97144D" fill-rule="nonzero">
            <g id="Group">
                <path d="M13.7647059,10.1496563 L14.6042396,9.310122 C15.0177362,8.896626 15.6881462,8.896626 16.1016427,9.310122 C16.5151387,9.72361853 16.5151387,10.3940285 16.1016427,10.8075251 L13.4545839,13.4545839 C13.0410874,13.8680799 12.3706774,13.8680799 11.9571808,13.4545839 L9.310122,10.8075251 C8.896626,10.3940285 8.896626,9.72361853 9.310122,9.310122 C9.72361853,8.896626 10.3940285,8.896626 10.8075251,9.310122 L11.6470588,10.1496563 L11.6470588,5.29411765 C11.6470588,4.70934582 12.1211105,4.23529412 12.7058824,4.23529412 C13.2906542,4.23529412 13.7647059,4.70934582 13.7647059,5.29411765 L13.7647059,10.1496563 L13.7647059,10.1496563 Z M24.3529412,21.6150496 L23.5134074,22.4545839 C23.0999109,22.8680799 22.4295009,22.8680799 22.0160044,22.4545839 C21.6025084,22.0410874 21.6025084,21.3706774 22.0160044,20.9571808 L24.6630632,18.310122 C25.0765597,17.896626 25.7469697,17.896626 26.1604662,18.310122 L28.8075251,20.9571808 C29.2210211,21.3706774 29.2210211,22.0410874 28.8075251,22.4545839 C28.3940285,22.8680799 27.7236185,22.8680799 27.310122,22.4545839 L26.4705882,21.6150496 L26.4705882,26.4705882 C26.4705882,27.0553601 25.9965365,27.5294118 25.4117647,27.5294118 C24.8269929,27.5294118 24.3529412,27.0553601 24.3529412,26.4705882 L24.3529412,21.6150496 L24.3529412,21.6150496 Z M2.11764706,20.1176471 L8.47058824,20.1176471 C8.79224135,20.1176471 9.09645512,20.2638595 9.29739071,20.5150288 L12.6693307,24.7299538 L23.4991006,9.96208571 C23.7760147,9.58447535 24.2680786,9.43360253 24.7090622,9.59109671 L32.1208269,12.2381555 C32.6715311,12.4348357 32.9585246,13.0407104 32.7618445,13.5914151 C32.5651643,14.1421193 31.9592896,14.4291129 31.4085849,14.2324327 L24.740064,11.8508183 L13.5597229,27.0967378 C13.1476214,27.6586946 12.3144094,27.6761917 11.8790799,27.13203 L7.96169118,22.2352941 L2.11764706,22.2352941 L2.11764706,33.8823529 L34.9411765,33.8823529 C35.5259483,33.8823529 36,34.3564046 36,34.9411765 C36,35.5259483 35.5259483,36 34.9411765,36 L1.05882353,36 C0.474051706,36 0,35.5259483 0,34.9411765 L0,1.05882353 C0,0.474051706 0.474051706,0 1.05882353,0 C1.64359535,0 2.11764706,0.474051706 2.11764706,1.05882353 L2.11764706,20.1176471 Z" id="Shape"></path>
            </g>
        </g>
    </g>
</svg>