<svg width="48" height="48" viewBox="0 0 48 48" fill="none" xmlns="http://www.w3.org/2000/svg">
<g clip-path="url(#clip0_291_9839)">
<circle cx="24" cy="24" r="24" fill="#C82129"/>
<path d="M38 15H10V32.6965H38V15Z" fill="white" stroke="white"/>
<path d="M37.6717 26.0596L33.9786 27.7615L29.9242 22.7079L34.452 15.3284H37.6713L37.6717 26.0596Z" fill="#AB1F24"/>
<path d="M37.6717 32.3612V26.0592L33.9786 27.7611L37.6717 32.3612Z" fill="#EF7032"/>
<path d="M29.9242 22.7079L23.997 15.3284H34.4499L29.9242 22.7079Z" fill="#EF7032"/>
<path d="M28.2946 25.3627L29.9178 22.7145L23.997 15.335V24.1735H24.0367C25.5392 24.166 27.014 24.578 28.295 25.3631" fill="#FFD35D"/>
<path d="M24.0367 24.167H23.997V32.3613L28.2946 25.363C27.0126 24.5797 25.5391 24.1658 24.0367 24.167Z" fill="#AB1F24"/>
<path d="M31.4743 28.9178L33.9782 27.7612L29.9242 22.708L28.2947 25.363C29.6815 26.2092 30.7875 27.4459 31.4743 28.9182" fill="#EF7032"/>
<path d="M28.2946 25.3629L23.997 32.3679L31.475 28.9181C30.7882 27.4458 29.6821 26.2091 28.2954 25.3629" fill="#D31F26"/>
<path d="M33.979 27.7612L31.4751 28.9177C31.9781 29.9982 32.2383 31.1758 32.2374 32.3676H37.6718L33.979 27.7612Z" fill="#FFD35D"/>
<path d="M23.997 32.3611H32.2306C32.2324 31.1699 31.9747 29.9927 31.4754 28.9112L23.997 32.3611Z" fill="#AB1F24"/>
<path d="M10.3287 26.0596L14.0218 27.7615L18.0758 22.7083L13.5481 15.3284H10.3287V26.0596Z" fill="#AB1F24"/>
<path d="M10.3287 32.3612V26.0592L14.0218 27.7611L10.3287 32.3612Z" fill="#EF7032"/>
<path d="M18.0762 22.7079L23.9983 15.3284H13.5485L18.0762 22.7079Z" fill="#EF7032"/>
<path d="M19.6994 25.3627L18.0762 22.7145L23.9982 15.335V24.1735H23.9584C22.4562 24.1679 20.982 24.5797 19.7002 25.3631" fill="#D31F26"/>
<path d="M23.9585 24.167H23.9982V32.3613L19.7058 25.363C20.9858 24.5795 22.4577 24.1656 23.9585 24.167Z" fill="#EF7032"/>
<path d="M16.5258 28.9178L14.0218 27.7612L18.0758 22.708L19.699 25.3562C18.3133 26.2049 17.2091 27.4439 16.525 28.9178" fill="#EF7032"/>
<path d="M19.6994 25.3629L23.9975 32.3679L16.5254 28.9181C17.2079 27.4447 18.3126 26.2074 19.6994 25.3629Z" fill="#D31F26"/>
<path d="M14.0218 27.7612L16.5258 28.9177C16.0227 29.9982 15.7625 31.1758 15.7634 32.3676H10.3287L14.0218 27.7612Z" fill="#FFD35D"/>
<path d="M23.9966 32.3611H15.763C15.7603 31.169 16.0206 29.9911 16.5253 28.9112L23.9974 32.3611" fill="#AB1F24"/>
</g>
<defs>
<clipPath id="clip0_291_9839">
<rect width="48" height="48" fill="white"/>
</clipPath>
</defs>
</svg>
