<svg width="48" height="48" viewBox="0 0 48 48" fill="none" xmlns="http://www.w3.org/2000/svg">
<path d="M7.81452 16L4.30669 28.7957L10.2123 16.9339L5.31924 28.9271L13.981 17.392L5.9647 29.2603L17.3124 19.3883L6.52688 29.8433L16.8544 24.7836L7.0266 30.4471L16.5212 28.2816L7.27646 31.1342C11.5657 31.0925 13.3147 30.7594 14.3974 30.4471C15.4801 30.1348 18.2286 28.6773 18.3951 26.0954C18.5284 24.0299 16.3929 23.1019 15.3085 22.8961C16.4247 22.6304 18.7925 21.5568 19.3346 19.3883C19.8767 17.2198 17.9128 16.2259 16.8632 16H7.81452Z" fill="#EA4B2E"/>
<path d="M21.2885 19.4671C21.3838 18.1019 20.1079 16.7389 19.4399 16.5206C20.9647 16.6118 22.0551 17.0893 22.4243 17.3938C22.9882 17.6905 24.0055 18.7371 23.4785 20.5175C22.9515 22.298 21.0215 23.2416 20.0422 23.5443C21.9295 24.4345 22.1669 25.4316 22.3034 26.0191C22.4399 26.6067 22.3924 28.1806 21.1105 29.7759C19.8286 31.3712 17.5258 31.9233 16.5347 32H7.01929C8.63078 31.9327 12.247 31.7657 13.8199 31.6364C15.3928 31.5071 16.8549 30.7712 17.425 30.4524C18.4843 29.7432 20.3449 28.1201 20.2559 26.3752C20.1669 24.6304 18.3437 23.5421 17.603 23.2772C20.1482 22.4423 21.2113 20.5743 21.2885 19.4671Z" fill="#EA4B2E"/>
<rect x="28.2513" y="16.5" width="14.942" height="15" fill="url(#paint0_linear_431_21)" stroke="url(#paint1_linear_431_21)"/>
<path d="M36.9137 17.7043C38.8046 17.895 40.1248 18.5783 40.5485 18.8961C41.2326 18.7643 41.805 18.8412 42.0058 18.8961C41.6204 19.0534 41.3233 19.3926 41.2229 19.5426C41.2807 20.6121 40.7974 22.3407 40.5485 23.0714C40.5485 21.2986 40.2881 20.4955 40.1579 20.3156C39.2123 20.5555 38.1938 21.2212 37.8027 21.5241C37.9933 20.9737 38.5474 20.324 38.8006 20.068C38.4192 19.9567 36.7349 20.1143 35.9404 20.207C36.9256 19.4761 38.4563 19.2271 39.0985 19.194C38.5583 18.4631 37.4169 17.8963 36.9137 17.7043Z" fill="white"/>
<path d="M34.3818 20.6394C33.8762 20.856 33.2648 21.2471 33.0241 21.4628C32.1568 21.384 30.8691 21.6993 30.5275 21.9183L30.5308 21.9186C31.1321 21.9667 31.8747 22.0261 32.0099 22.0862C31.3117 22.8085 30.7031 24.0975 30.5275 24.5841C30.8285 23.922 31.9544 23.2291 32.4459 22.9783C32.5598 23.5652 33.0181 24.2279 33.2889 24.5841C33.2649 23.6692 33.4393 22.9413 33.5496 22.6454C34.1154 22.5371 35.6614 22.5075 36.3435 22.5527C35.5611 22.023 34.7068 21.692 34.2855 21.6117C34.2734 21.383 34.2966 20.8501 34.3818 20.6394Z" fill="white"/>
<path d="M30.257 27.1485C30.1808 26.5387 30.2887 25.7934 30.3522 25.497L30.9757 26.7612H32.1356L31.7852 27.6137C31.8139 27.7686 32.3699 28.3966 32.6903 28.7123C32.2943 28.609 31.6549 28.3632 31.3848 28.2532L31.3482 29.2815C31.1473 29.0348 30.6699 28.3125 30.5288 28.0471C30.3394 27.9668 29.7002 27.4938 29.3994 27.2756C29.6959 27.2925 30.0946 27.1979 30.257 27.1485Z" fill="white"/>
<path d="M33.9211 28.7305C34.187 28.7541 34.8691 28.6517 35.1769 28.5975L35.972 27.6309V28.2502C36.4076 28.1943 36.8984 27.9365 37.0893 27.8147C36.7888 28.1337 36.2666 28.4695 36.0431 28.5975V29.1442H35.3899C35.2743 29.2274 34.5054 29.5728 34.1353 29.7351C34.3717 29.5401 34.6081 29.2599 34.6967 29.1442C34.4958 29.1087 34.0959 28.8536 33.9211 28.7305Z" fill="white"/>
<defs>
<linearGradient id="paint0_linear_431_21" x1="35.7223" y1="16" x2="35.7223" y2="32" gradientUnits="userSpaceOnUse">
<stop stop-color="#64BD95"/>
<stop offset="0.212641" stop-color="#76C29D"/>
<stop offset="0.4996" stop-color="#2B8D56"/>
<stop offset="0.734384" stop-color="#25744C"/>
<stop offset="1" stop-color="#2B9969"/>
</linearGradient>
<linearGradient id="paint1_linear_431_21" x1="35.7223" y1="16" x2="35.7223" y2="32" gradientUnits="userSpaceOnUse">
<stop stop-color="#49BD97"/>
<stop offset="0.57" stop-color="#50B997"/>
<stop offset="1" stop-color="#099C6F"/>
</linearGradient>
</defs>
</svg>
