<svg width="48" height="48" viewBox="0 0 48 48" fill="none" xmlns="http://www.w3.org/2000/svg">
<path fill-rule="evenodd" clip-rule="evenodd" d="M23.9932 34.5648L13.8768 43.5082L19.5374 31.2795L8 24.6124L21.1855 26.0259L23.9932 5L26.8013 26.0259L40 24.6073L28.449 31.2795L34.1146 43.5338L23.9932 34.5648Z" fill="#1A1818"/>
<path fill-rule="evenodd" clip-rule="evenodd" d="M23.9936 34.3077L14.4392 42.7558L19.7862 31.2026L8.8855 24.9021L21.3519 26.2387L23.9936 6.4561L26.6352 26.2387L39.106 24.8987L28.2009 31.2033L33.5488 42.7631L23.9936 34.3077Z" fill="#E82717"/>
<path fill-rule="evenodd" clip-rule="evenodd" d="M26.6342 26.2374H21.3509L19.7931 31.2064L23.9935 34.3073L28.2006 31.2004L26.6342 26.2374Z" fill="#006CBB"/>
<path fill-rule="evenodd" clip-rule="evenodd" d="M23.9888 33.2473C23.3147 33.2475 22.6556 33.0478 22.095 32.6735C21.5344 32.2991 21.0974 31.7669 20.8393 31.1441C20.5812 30.5214 20.5136 29.8361 20.645 29.1749C20.7764 28.5137 21.101 27.9063 21.5776 27.4296C22.0543 26.9529 22.6616 26.6283 23.3228 26.4968C23.984 26.3653 24.6693 26.4329 25.2921 26.6909C25.9149 26.949 26.4471 27.3859 26.8215 27.9465C27.1959 28.5071 27.3957 29.1661 27.3955 29.8403C27.3945 30.7435 27.0353 31.6095 26.3966 32.2482C25.758 32.8869 24.892 33.2462 23.9888 33.2473Z" fill="#1A1818"/>
<path fill-rule="evenodd" clip-rule="evenodd" d="M23.9891 33.0548C23.3531 33.0551 22.7313 32.8668 22.2024 32.5137C21.6734 32.1606 21.261 31.6585 21.0174 31.071C20.7738 30.4835 20.7099 29.8369 20.8338 29.2131C20.9577 28.5893 21.2638 28.0162 21.7134 27.5664C22.163 27.1166 22.7359 26.8102 23.3597 26.686C23.9835 26.5618 24.63 26.6254 25.2177 26.8687C25.8053 27.112 26.3076 27.5241 26.6609 28.0529C27.0143 28.5817 27.2029 29.2034 27.2029 29.8394C27.202 30.6916 26.8632 31.5087 26.2607 32.1115C25.6583 32.7142 24.8414 33.0535 23.9891 33.0548Z" fill="white"/>
<path fill-rule="evenodd" clip-rule="evenodd" d="M23.8703 27.6318C23.8683 27.6336 23.8667 27.6358 23.8658 27.6382C23.8648 27.6407 23.8645 27.6434 23.8649 27.646C23.8649 27.6501 23.866 27.6541 23.8681 27.6577C23.8702 27.6612 23.8733 27.664 23.8769 27.6659C23.8599 27.6659 23.8433 27.6605 23.8296 27.6504C23.8348 27.6448 23.8411 27.6402 23.8481 27.637C23.8551 27.6338 23.8626 27.6321 23.8703 27.6318ZM23.9018 27.6318L23.9333 27.6429C23.9249 27.6546 23.9122 27.6625 23.898 27.6649C23.9039 27.6603 23.9079 27.6537 23.9091 27.6463C23.9091 27.6436 23.9086 27.6409 23.9074 27.6385C23.9063 27.636 23.9046 27.6338 23.9024 27.6322M23.8321 27.6741C23.8489 27.6811 23.8669 27.6844 23.8851 27.6839C23.902 27.6841 23.9187 27.6801 23.9337 27.6722C23.9487 27.6643 23.9614 27.6528 23.9708 27.6388C23.9721 27.6185 23.9659 27.5984 23.9533 27.5823C23.9408 27.5663 23.9228 27.5554 23.9027 27.5518C23.8837 27.5508 23.8648 27.5546 23.8476 27.5628C23.832 27.5721 23.8196 27.5859 23.8123 27.6025C23.8343 27.5959 23.8564 27.571 23.9068 27.5795C23.9321 27.5849 23.9598 27.618 23.9422 27.6246C23.9334 27.6172 23.9238 27.611 23.9135 27.606C23.8728 27.5905 23.8331 27.6214 23.8101 27.6375L23.7981 27.6344C23.8039 27.6504 23.815 27.664 23.8296 27.6728M24.0916 27.6309C24.0894 27.6325 24.0876 27.6347 24.0865 27.6371C24.0853 27.6396 24.0848 27.6423 24.085 27.6451C24.0851 27.6493 24.0865 27.6534 24.0888 27.6569C24.0911 27.6604 24.0944 27.6632 24.0982 27.6649C24.0817 27.6639 24.0657 27.6586 24.0519 27.6495C24.0569 27.6439 24.063 27.6394 24.0698 27.6362C24.0767 27.633 24.084 27.6312 24.0916 27.6309ZM24.1231 27.6309H24.1262C24.1329 27.6353 24.1417 27.634 24.1448 27.6385L24.1524 27.6416C24.1482 27.6477 24.1429 27.6529 24.1366 27.6568C24.1304 27.6608 24.1234 27.6634 24.1162 27.6646C24.1196 27.6625 24.1224 27.6596 24.1243 27.6561C24.1262 27.6527 24.1272 27.6487 24.1272 27.6448C24.1275 27.6422 24.1272 27.6397 24.1265 27.6372C24.1257 27.6348 24.1245 27.6325 24.1228 27.6306M23.9598 27.798C23.9652 27.8055 23.9718 27.798 23.9784 27.798C24.0014 27.798 24.0247 27.8121 24.0433 27.8046C24.0809 27.7869 24.0389 27.7374 24.0389 27.7034C24.0385 27.6892 24.0419 27.6752 24.0487 27.6627C24.0656 27.6736 24.0854 27.6787 24.1054 27.6776C24.1254 27.6764 24.1445 27.6689 24.16 27.6561C24.1653 27.6495 24.1754 27.6495 24.183 27.6441L24.1883 27.6366L24.1915 27.6233C24.1839 27.6233 24.1827 27.6366 24.1729 27.6299C24.1622 27.6216 24.15 27.6155 24.137 27.6119C24.124 27.6084 24.1103 27.6074 24.0969 27.6091C24.0781 27.6099 24.0598 27.6148 24.043 27.6233C24.0333 27.5694 24.1411 27.5603 24.1691 27.5981C24.1656 27.5863 24.1592 27.5754 24.1505 27.5666C24.1304 27.5557 24.1073 27.5515 24.0846 27.5547C24.0619 27.5578 24.0408 27.5682 24.0244 27.5842C24.0109 27.6264 24.006 27.6709 24.0102 27.7151C24.0102 27.7292 24.0244 27.7381 24.0235 27.7548C24.0239 27.7611 24.022 27.7674 24.0182 27.7724C24.0144 27.7774 24.0089 27.7809 24.0027 27.7822C23.9872 27.7854 23.951 27.7658 23.9598 27.7986M25.4638 31.9051C25.4263 31.8875 25.4196 31.8512 25.3944 31.8304C25.3913 31.8304 25.378 31.8184 25.3692 31.814L25.344 31.8008C25.3123 31.7879 25.2795 31.778 25.2459 31.7711C25.234 31.768 25.2217 31.768 25.2097 31.7658C25.1977 31.7636 25.181 31.7516 25.1678 31.7459C25.1149 31.7388 25.0616 31.7351 25.0083 31.7349C24.9279 31.7305 24.8506 31.7194 24.7763 31.7097C24.7404 31.7067 24.705 31.6997 24.6707 31.6889C24.6596 31.6835 24.6482 31.6787 24.6366 31.6747C24.6112 31.6692 24.5847 31.6715 24.5606 31.6813C24.5496 31.6844 24.5408 31.6945 24.531 31.6945C24.5212 31.6945 24.508 31.6703 24.4859 31.6769C24.4798 31.6813 24.4755 31.6877 24.4737 31.6949C24.4719 31.7022 24.4728 31.7099 24.4762 31.7166C24.4847 31.7261 24.4947 31.7343 24.5058 31.7409C24.5301 31.7506 24.5455 31.7355 24.5606 31.7333C24.6227 31.7265 24.6855 31.7336 24.7444 31.7541C24.8942 31.7623 25.0434 31.7796 25.1911 31.8058C25.2132 31.8124 25.2374 31.8146 25.256 31.8222C25.3063 31.8459 25.3545 31.8738 25.4001 31.9057C25.4246 31.9419 25.4613 31.9681 25.5035 31.9795C25.5278 31.9849 25.5628 31.9871 25.564 31.9543C25.564 31.9158 25.4947 31.9228 25.4638 31.9057M26.3174 31.733C26.3272 31.7418 26.3489 31.7645 26.3439 31.7803C26.3434 31.7842 26.3414 31.7877 26.3384 31.7902C26.3353 31.7927 26.3314 31.7939 26.3275 31.7935C26.3045 31.7935 26.3076 31.7383 26.2692 31.7418C26.2661 31.7418 26.2631 31.7427 26.2605 31.7444C26.258 31.7462 26.256 31.7487 26.255 31.7516C26.244 31.7831 26.3121 31.7967 26.2925 31.8462C26.2859 31.866 26.2629 31.8692 26.2332 31.8692C26.2332 31.8603 26.2443 31.855 26.2443 31.8439C26.2443 31.8124 26.1992 31.7809 26.1718 31.8077C26.1749 31.8329 26.2033 31.8484 26.1916 31.8758C26.1821 31.8837 26.17 31.8879 26.1576 31.8875C26.1453 31.8871 26.1335 31.8821 26.1245 31.8736C26.1289 31.8736 26.1421 31.878 26.151 31.8736C26.1598 31.8692 26.1598 31.867 26.1607 31.8638C26.163 31.8474 26.1497 31.8439 26.1365 31.8373C26.1257 31.83 26.1158 31.8215 26.1068 31.8121C26.1113 31.7551 26.0605 31.745 26.0022 31.7396C25.9076 31.733 25.802 31.721 25.715 31.7131C25.7204 31.6703 25.6797 31.6646 25.6435 31.657C25.5905 31.6472 25.5489 31.645 25.4937 31.6318C25.4729 31.6286 25.4376 31.6186 25.4367 31.6003C25.4357 31.582 25.4641 31.5688 25.4786 31.5574C25.5271 31.5237 25.5738 31.4873 25.6182 31.4483C25.7051 31.4682 25.7878 31.5032 25.8625 31.5517C25.8824 31.5615 25.9032 31.5694 25.9218 31.5804C25.9418 31.5918 25.9629 31.601 25.9848 31.6078C26.086 31.6365 26.2257 31.6078 26.3017 31.6573C26.3154 31.6653 26.327 31.6765 26.3356 31.6899C26.3442 31.7032 26.3495 31.7184 26.3511 31.7342C26.3313 31.7342 26.3313 31.6901 26.3114 31.6901C26.3067 31.6903 26.3022 31.6921 26.2988 31.6954C26.2953 31.6986 26.2932 31.7031 26.2928 31.7078C26.2928 31.7188 26.3061 31.7242 26.3171 31.732M26.052 31.8301C26.03 31.8232 26.0069 31.8203 25.9839 31.8213C25.9476 31.8181 25.9101 31.808 25.8726 31.8027C25.8351 31.7973 25.7957 31.7929 25.7626 31.7841C25.7954 31.7746 25.8298 31.7716 25.8638 31.7752C25.9309 31.7708 26.0397 31.7752 26.064 31.8127C26.0679 31.8205 26.0698 31.8292 26.0693 31.838L26.0517 31.8304M25.7349 31.8392C25.7446 31.8689 25.7733 31.8789 25.7702 31.924C25.7594 31.9384 25.7468 31.9513 25.7327 31.9625C25.7353 31.9532 25.7354 31.9434 25.7329 31.934C25.7304 31.9247 25.7254 31.9162 25.7185 31.9095C25.7119 31.9095 25.7163 31.9237 25.7097 31.9237C25.6977 31.9205 25.7008 31.9029 25.681 31.9051C25.6766 31.925 25.6951 31.9347 25.6974 31.9536C25.7005 31.9978 25.6699 32.0208 25.6271 32.0186C25.6315 31.9978 25.6586 32.0053 25.6633 31.9899C25.6699 31.9678 25.6491 31.9536 25.6368 31.9436C25.6249 31.9436 25.6324 31.9546 25.6236 31.9577C25.6081 31.9533 25.5993 31.9262 25.5763 31.9357C25.5838 31.9425 25.5888 31.9517 25.5904 31.9617C25.592 31.9717 25.5901 31.982 25.5851 31.9908C25.5657 32.0008 25.5439 32.0054 25.5221 32.0041C25.4895 32.0061 25.4573 31.9959 25.4319 31.9754C25.42 31.96 25.4155 31.9414 25.4045 31.9303C25.3935 31.9193 25.367 31.9183 25.3528 31.9038C25.3452 31.8972 25.3418 31.884 25.3329 31.8764C25.3154 31.8666 25.297 31.8581 25.2781 31.8512C25.2173 31.8247 25.1527 31.808 25.0868 31.8017C24.9723 31.7907 24.8503 31.7963 24.7425 31.7765C24.7041 31.7677 24.6656 31.7588 24.6294 31.7535C24.5931 31.7481 24.549 31.7632 24.514 31.7588C24.4998 31.7557 24.4867 31.7488 24.4763 31.7387C24.4658 31.7286 24.4583 31.7158 24.4547 31.7018C24.4493 31.6264 24.4295 31.5528 24.3964 31.4849C24.3849 31.4513 24.3823 31.4152 24.3888 31.3802C24.392 31.3538 24.4021 31.3241 24.4065 31.291C24.4109 31.2579 24.4109 31.2229 24.4163 31.1908C24.4202 31.1401 24.4386 31.0917 24.4692 31.0511C24.4825 31.0565 24.4944 31.0776 24.5033 31.0864C24.5333 31.101 24.5624 31.1176 24.5903 31.1359C24.601 31.145 24.6102 31.1556 24.6177 31.1675C24.6492 31.2226 24.6376 31.3115 24.6628 31.3799C24.6659 31.3897 24.676 31.3963 24.6738 31.4086C24.6353 31.413 24.5912 31.4118 24.5714 31.4351C24.5868 31.4616 24.6284 31.4405 24.6628 31.4405C24.6975 31.4408 24.7315 31.45 24.7618 31.4669C24.7804 31.4811 24.798 31.5098 24.8223 31.5177C24.8678 31.5307 24.9146 31.5381 24.9619 31.5398C25.0129 31.5431 25.0636 31.5493 25.1139 31.5583C25.1827 31.574 25.2495 31.5972 25.3131 31.6277C25.3242 31.631 25.3348 31.6357 25.3446 31.6419C25.3522 31.6463 25.3601 31.6551 25.3689 31.6605C25.3935 31.6697 25.4195 31.6749 25.4458 31.6759C25.4718 31.6816 25.4974 31.6885 25.5227 31.6967C25.5404 31.7087 25.5722 31.7144 25.5974 31.7283C25.6063 31.7314 25.6138 31.7424 25.6239 31.7469C25.6412 31.7464 25.6584 31.7472 25.6756 31.7491C25.6926 31.7555 25.7085 31.7644 25.7229 31.7755C25.7396 31.7833 25.7538 31.7955 25.7639 31.8109C25.774 31.8263 25.7795 31.8442 25.7799 31.8625C25.7667 31.8528 25.7636 31.8162 25.7336 31.8361M24.6082 31.9505C24.5732 31.9243 24.5343 31.9039 24.4929 31.89C24.4787 31.885 24.4637 31.8832 24.4487 31.8846C24.4456 31.9032 24.4708 31.901 24.4862 31.9023C24.5171 31.9074 24.5464 31.9195 24.572 31.9376C24.5818 31.9442 24.6035 31.9562 24.5972 31.9716C24.584 31.9968 24.5389 31.954 24.5367 31.9429C24.5247 31.9407 24.519 31.9275 24.5052 31.9221C24.4913 31.9168 24.4809 31.9221 24.4698 31.919C24.4579 31.9173 24.4464 31.9136 24.4358 31.9079C24.4304 31.9442 24.4919 31.93 24.5105 31.9464C24.5137 31.9508 24.5061 31.9552 24.5061 31.9618C24.5109 31.9684 24.5169 31.974 24.5238 31.9782C24.5238 31.976 24.5171 31.9694 24.5215 31.9618C24.5644 31.9543 24.5679 32.0025 24.5326 32.0126C24.4973 32.0227 24.4733 31.9949 24.4468 31.9883C24.4049 31.9808 24.3699 31.9927 24.3346 31.9839C24.2993 31.9751 24.2917 31.9565 24.2697 31.9376C24.2443 31.9188 24.215 31.906 24.1839 31.9001C24.1959 31.8666 24.2134 31.8354 24.2356 31.8077C24.2498 31.7945 24.317 31.7626 24.3523 31.7825C24.3699 31.79 24.3986 31.7967 24.4093 31.8023C24.4209 31.8075 24.4316 31.8145 24.4408 31.8231C24.4519 31.832 24.4607 31.8484 24.4705 31.8518C24.4948 31.8594 24.5354 31.8651 24.5619 31.8748C24.5695 31.878 24.584 31.8793 24.584 31.8903C24.584 31.8947 24.5818 31.9023 24.5742 31.9023C24.5666 31.9023 24.5622 31.8925 24.5565 31.8903C24.5357 31.8748 24.4935 31.8783 24.4673 31.866C24.4717 31.8704 24.4815 31.8736 24.485 31.878C24.5242 31.8876 24.5616 31.9032 24.5959 31.9243C24.6048 31.9275 24.6224 31.9407 24.6079 31.9508M24.1351 31.6438C24.1373 31.4458 24.1461 31.2412 24.1527 31.0407L24.1559 31.0376V31.0398C24.1647 31.0474 24.1625 31.0628 24.1625 31.0713C24.1745 31.1526 24.1855 31.2397 24.194 31.321C24.2137 31.4136 24.2285 31.5073 24.2382 31.6015C24.2168 31.6112 24.1948 31.6193 24.1723 31.6258C24.159 31.6312 24.1502 31.6435 24.1326 31.6422M24.3163 31.5398C24.2997 31.546 24.2823 31.5497 24.2646 31.5508C24.1883 31.2212 24.1521 30.8835 24.1568 30.5452C24.1623 30.5416 24.1684 30.5391 24.1749 30.538C24.1813 30.5368 24.188 30.537 24.1943 30.5386C24.2186 30.5496 24.2098 30.6287 24.2107 30.6647C24.2139 30.799 24.2227 30.9364 24.2337 31.0619C24.2413 31.1498 24.2514 31.2368 24.2653 31.3115C24.2772 31.3929 24.305 31.4666 24.317 31.5404M24.2719 31.0111C24.2585 30.8629 24.2567 30.7139 24.2665 30.5654C24.2659 30.5456 24.267 30.5257 24.2697 30.5061C24.2707 30.4735 24.281 30.4418 24.2993 30.4147C24.312 30.4037 24.3256 30.3938 24.34 30.3851C24.3526 30.3738 24.3644 30.3617 24.3753 30.3488C24.3797 30.328 24.3951 30.3015 24.3961 30.2858C24.3961 30.2791 24.3983 30.2858 24.3992 30.288C24.4004 30.5519 24.3802 30.8154 24.3387 31.076C24.3311 31.153 24.3255 31.2267 24.3166 31.3049C24.2916 31.2088 24.2768 31.1103 24.2719 31.0111ZM24.0604 30.5017C24.0383 30.5269 24.0153 30.5524 23.991 30.5808C23.9807 30.5949 23.9685 30.6075 23.9548 30.6183C24.0285 30.4071 24.1253 30.2057 24.1902 29.9813C24.2218 29.869 24.2533 29.7568 24.2848 29.6392C24.3149 29.5107 24.3307 29.3793 24.3321 29.2474L24.3365 29.2452H24.3387C24.3617 29.2562 24.3702 29.2849 24.3762 29.3082C24.4016 29.3885 24.4211 29.4704 24.4345 29.5535C24.4445 29.6132 24.4514 29.6734 24.4553 29.7338C24.4576 29.7612 24.462 29.7943 24.462 29.8284C24.4649 29.8613 24.4656 29.8943 24.4642 29.9273C24.4524 29.9634 24.4353 29.9975 24.4134 30.0285C24.3963 30.0605 24.3772 30.0913 24.3564 30.1209C24.3185 30.1814 24.2764 30.2392 24.2303 30.2936C24.1732 30.3617 24.1203 30.4333 24.061 30.5004M24.1073 30.694C24.1117 30.8592 24.0985 31.0165 24.0954 31.1804C24.09 31.3695 24.0745 31.5587 24.0638 31.7327C24.0298 31.7261 23.9945 31.7128 23.9548 31.7052C23.913 31.6988 23.8709 31.6955 23.8287 31.6955C23.8917 31.4852 23.9639 31.2731 24.009 31.0452C24.0377 30.9077 24.066 30.7712 24.096 30.6325L24.0982 30.6294C24.1114 30.625 24.107 30.6811 24.107 30.6943M23.8066 31.8408C23.8235 31.8069 23.8382 31.7719 23.8507 31.7361H23.8551C23.8445 31.7725 23.8316 31.8082 23.8167 31.843C23.8113 31.843 23.811 31.8399 23.8066 31.8408ZM23.9872 31.9354C23.974 31.9694 23.9762 32.0057 23.9399 32.0268C23.9333 32.0299 23.9236 32.0268 23.9179 32.0334C23.8882 32.0533 23.8905 32.1368 23.8321 32.1005C23.8189 32.0709 23.8574 32.063 23.8728 32.0807C23.8728 32.063 23.8529 32.0621 23.8321 32.0608C23.8353 32.0246 23.8608 32.0113 23.8816 31.9937C23.8794 31.9861 23.8838 31.9795 23.8816 31.976C23.8674 31.9618 23.8529 31.9826 23.8542 31.9981C23.8488 32.0079 23.829 32.0224 23.8189 32.0378C23.8088 32.0533 23.8079 32.0753 23.7874 32.0555C23.783 32.0069 23.8258 32.006 23.8347 31.9719C23.8347 31.9653 23.8315 31.9653 23.8293 31.9622C23.7978 31.959 23.8063 31.9984 23.7842 32.0063C23.7732 32.0249 23.77 32.0526 23.759 32.0712C23.7514 32.0734 23.7458 32.069 23.7404 32.0668C23.7436 32.0637 23.7373 32.057 23.7404 32.0526C23.7436 32.0482 23.748 32.046 23.7514 32.0438C23.7467 32.0293 23.747 32.0136 23.7522 31.9993C23.7574 31.985 23.7672 31.9728 23.7801 31.9647C23.7637 31.9332 23.7373 31.9912 23.7328 32.0066C23.7284 32.0221 23.7328 32.034 23.7218 32.034C23.7108 32.034 23.7187 31.9833 23.725 31.971C23.7316 31.9533 23.747 31.9502 23.7502 31.9369C23.7439 31.938 23.7378 31.9403 23.7324 31.9437C23.727 31.9471 23.7223 31.9516 23.7187 31.9568C23.7142 31.9622 23.7111 31.9745 23.7045 31.9754C23.6881 31.9754 23.7045 31.9502 23.7067 31.9458C23.7118 31.9382 23.7185 31.9317 23.7263 31.9268C23.734 31.9218 23.7427 31.9185 23.7518 31.9171C23.7606 31.9117 23.7637 31.8963 23.7748 31.8919C23.8112 31.8812 23.8496 31.879 23.887 31.8852C23.9068 31.8874 23.9289 31.8919 23.9475 31.8941C23.9661 31.8963 23.9916 31.8963 24.0005 31.9095C24.0005 31.9205 23.9916 31.925 23.9872 31.936M23.7704 32.0823L23.7801 32.0867C23.7794 32.0839 23.7797 32.0809 23.781 32.0783C23.7823 32.0757 23.7846 32.0736 23.7873 32.0725C23.79 32.0715 23.793 32.0714 23.7957 32.0724C23.7985 32.0734 23.8008 32.0753 23.8022 32.0778C23.8132 32.1119 23.759 32.1141 23.7704 32.0823ZM23.6055 31.9325C23.5317 31.9357 23.4592 31.9369 23.3899 31.9436C23.3713 31.8698 23.3536 31.8004 23.3382 31.7267C23.4156 31.7276 23.4928 31.7342 23.5692 31.7465C23.5774 31.7565 23.5848 31.767 23.5913 31.7781C23.6077 31.7925 23.6255 31.8053 23.6443 31.8165C23.6535 31.829 23.6641 31.8404 23.6758 31.8506L23.6944 31.8638C23.7064 31.8736 23.7187 31.8837 23.7328 31.8934C23.7218 31.9054 23.7032 31.9133 23.6922 31.925C23.6642 31.932 23.6351 31.9338 23.6064 31.9303M23.4085 32.0161L23.4053 32.0041C23.4127 31.9991 23.4209 31.9953 23.4296 31.9931C23.5021 31.9773 23.5761 31.9692 23.6502 31.9688C23.6569 31.9688 23.6711 31.9634 23.6733 31.9732C23.5897 31.9931 23.4955 31.9997 23.4085 32.0161ZM23.2991 32.0476C23.2473 32.0634 23.1937 32.0726 23.1396 32.075C23.1139 32.0759 23.0882 32.0752 23.0627 32.0728C23.0265 32.0737 22.9905 32.0669 22.9571 32.0529C22.9421 32.0454 22.9281 32.0362 22.9151 32.0255C22.9044 32.0162 22.8966 32.004 22.8925 31.9904C22.8885 31.9768 22.8883 31.9623 22.8921 31.9486L22.8965 31.941C22.896 31.9356 22.896 31.9301 22.8965 31.9246C22.9031 31.916 22.9072 31.9058 22.9085 31.895C22.9068 31.8805 22.8997 31.8671 22.8887 31.8575C22.8784 31.856 22.868 31.8574 22.8585 31.8614C22.8489 31.8655 22.8407 31.8721 22.8347 31.8805L22.8303 31.8903L22.8139 31.9023C22.8051 31.907 22.7953 31.9096 22.7853 31.9098C22.7675 31.9105 22.7498 31.9072 22.7336 31.9001C22.6997 31.8801 22.6717 31.8516 22.6522 31.8175C22.6442 31.7952 22.6401 31.7718 22.6402 31.7481C22.6414 31.7284 22.6462 31.709 22.6544 31.6911C22.6588 31.6791 22.6841 31.6526 22.673 31.6305C22.6699 31.6217 22.6576 31.6208 22.65 31.6141C22.6425 31.6075 22.6434 31.5965 22.6368 31.5877C22.6313 31.5855 22.6252 31.5852 22.6195 31.5868C22.6138 31.5884 22.6088 31.5918 22.6053 31.5965C22.5946 31.6234 22.5858 31.651 22.5788 31.6791C22.5769 31.7206 22.5794 31.7623 22.5863 31.8033C22.5895 31.8276 22.6072 31.8395 22.6116 31.8616C22.6283 31.8855 22.6479 31.9074 22.6699 31.9265L22.6752 31.9297C22.6907 31.9518 22.7336 31.9672 22.7455 31.989C22.7663 31.9965 22.7831 32.0076 22.8048 32.0176C22.8225 32.0407 22.8678 32.0397 22.8874 32.0605C22.9095 32.0673 22.9307 32.077 22.9504 32.0892C23.0308 32.1166 23.1002 32.1541 23.1793 32.1838C23.208 32.2014 23.2376 32.2191 23.2663 32.2333C23.2795 32.2519 23.2959 32.2648 23.3092 32.2805H23.306C23.2906 32.2739 23.2773 32.2519 23.2565 32.2629C23.2589 32.2713 23.2629 32.2791 23.2683 32.2859C23.2737 32.2927 23.2804 32.2984 23.288 32.3026C23.288 32.307 23.2903 32.307 23.288 32.3114C23.2956 32.307 23.3 32.3212 23.3066 32.3247C23.2934 32.3291 23.2836 32.3039 23.2704 32.2995C23.265 32.2897 23.2549 32.2774 23.2439 32.2787C23.2386 32.284 23.2505 32.2884 23.2471 32.2963L23.2329 32.2821C23.2209 32.2932 23.2417 32.3073 23.2471 32.3162C23.2382 32.314 23.2285 32.2998 23.2155 32.2932C23.208 32.2998 23.2155 32.3051 23.2155 32.3152C23.208 32.3152 23.208 32.302 23.2023 32.3042C23.1957 32.313 23.2023 32.325 23.2077 32.3338C23.2136 32.3436 23.2181 32.3542 23.2209 32.3653C23.2285 32.4104 23.2055 32.4634 23.2285 32.5018C23.201 32.4722 23.2196 32.4126 23.2152 32.3757C23.2097 32.3515 23.2008 32.3282 23.1888 32.3064C23.1167 32.2176 23.0167 32.1559 22.905 32.1314C22.8739 32.117 22.8409 32.107 22.807 32.1018C22.7345 32.081 22.6617 32.0466 22.5901 32.0183C22.5575 31.9953 22.528 31.9683 22.5022 31.9379C22.4865 31.9182 22.4724 31.8973 22.4599 31.8755C22.449 31.8558 22.4413 31.8345 22.4369 31.8124C22.4323 31.793 22.4297 31.7731 22.4294 31.7532C22.4251 31.7266 22.4236 31.6997 22.4249 31.6728C22.432 31.6137 22.4511 31.5568 22.4811 31.5054C22.5049 31.4689 22.531 31.4339 22.5592 31.4007C22.5908 31.3654 22.6242 31.3349 22.6538 31.2951C22.6797 31.2472 22.7123 31.2031 22.7506 31.1643C22.7748 31.1475 22.8002 31.1325 22.8266 31.1192C22.9096 31.0756 22.9998 31.0473 23.0929 31.0357C23.1424 31.2151 23.1875 31.402 23.2348 31.5814C23.243 31.6066 23.247 31.633 23.2468 31.6595C23.2181 31.652 23.1389 31.628 23.1103 31.6441C23.0816 31.6602 23.1156 31.7002 23.1443 31.7002C23.1412 31.7046 23.1323 31.7046 23.1267 31.7068C23.1137 31.7149 23.1001 31.7218 23.086 31.7276C23.0806 31.7308 23.0727 31.7298 23.0683 31.732C23.0524 31.7398 23.0399 31.7532 23.033 31.7696C23.022 31.7926 23.0406 31.8181 23.0693 31.8011C23.0857 31.7923 23.109 31.767 23.1244 31.7592C23.1706 31.7406 23.22 31.7316 23.2698 31.7327C23.2906 31.8074 23.3104 31.8834 23.3259 31.9637C23.2754 31.9736 23.2235 31.9736 23.173 31.9637C23.1604 31.9577 23.1463 31.9552 23.1324 31.9566C23.1184 31.9579 23.1051 31.963 23.0939 31.9713C23.0992 31.9789 23.1036 31.9823 23.1036 31.9934C23.1036 32.0249 23.0573 32.0154 23.0507 31.9902C23.0419 32.0299 23.0904 32.0596 23.1276 32.0649C23.1337 32.066 23.14 32.066 23.1462 32.0649C23.213 32.0592 23.279 32.0466 23.3432 32.0274C23.3454 32.0482 23.318 32.046 23.3035 32.0517M23.2562 32.3058C23.2733 32.3242 23.2857 32.3465 23.2925 32.3707C23.2791 32.3498 23.267 32.3281 23.2562 32.3058ZM23.0198 30.4289C22.9813 30.2659 22.9451 30.0998 22.9009 29.9371C22.8899 29.8974 22.8823 29.8545 22.8713 29.8161C22.8603 29.7776 22.8483 29.7335 22.8398 29.6928C22.7859 29.4454 22.7209 29.1998 22.6626 28.9545V28.9501C22.6967 28.9643 22.7484 28.959 22.7802 28.97C22.7758 29.004 22.7856 29.033 22.8288 29.0293C22.8327 29.0441 22.8382 29.0585 22.8452 29.0721C22.8684 29.0772 22.8927 29.0732 22.9132 29.0611C23.0559 29.1324 23.2066 29.1864 23.3621 29.2219C23.3697 29.3924 23.3479 29.5762 23.3435 29.7653C23.3435 29.8284 23.3347 29.8886 23.3325 29.9522C23.3307 30.0715 23.3222 30.1905 23.3073 30.3088C23.2953 30.3945 23.2852 30.4815 23.2786 30.5641C23.2764 30.5956 23.2764 30.6272 23.2742 30.6587C23.2671 30.6874 23.2679 30.7174 23.2764 30.7457C23.2813 30.7532 23.2882 30.7593 23.2962 30.7633C23.3325 30.7908 23.3965 30.8119 23.4349 30.838C23.436 30.8501 23.436 30.8622 23.4349 30.8743C23.3347 30.8841 23.2414 30.903 23.1434 30.9162C23.1027 30.7533 23.0586 30.5928 23.0201 30.4276M22.6362 28.8556C22.6406 28.8445 22.6626 28.8414 22.6636 28.824C22.6645 28.8067 22.6516 28.8032 22.6503 28.7887C22.6645 28.7919 22.6724 28.8108 22.6856 28.824C22.6932 28.8316 22.7172 28.8556 22.7298 28.8556C22.7424 28.8556 22.7695 28.848 22.7613 28.8303C22.7449 28.8228 22.726 28.8272 22.7128 28.8171C22.6936 28.7984 22.6792 28.7754 22.6708 28.75C22.6743 28.7423 22.6747 28.7337 22.6721 28.7258C22.6694 28.7178 22.6639 28.7112 22.6566 28.7071C22.6587 28.6968 22.6583 28.6861 22.6554 28.676C22.6526 28.6658 22.6474 28.6565 22.6402 28.6488V28.6456H22.6425C22.6686 28.6567 22.694 28.6695 22.7184 28.6841C22.7429 28.6972 22.7638 28.7161 22.7793 28.7391C22.7948 28.7621 22.8046 28.7886 22.8076 28.8162C22.8253 28.8281 22.8483 28.8338 22.8606 28.8477C22.8591 28.8668 22.8536 28.8854 22.8445 28.9023C22.8354 28.9192 22.8228 28.934 22.8076 28.9457C22.7878 28.9347 22.7714 28.9183 22.7506 28.9051C22.7339 28.913 22.7154 28.9165 22.6969 28.9154C22.6785 28.9142 22.6606 28.9084 22.645 28.8984C22.6362 28.8847 22.6323 28.8683 22.6339 28.8521M22.5756 28.8269C22.5614 28.8291 22.5592 28.8411 22.5514 28.8556C22.5306 28.848 22.5151 28.807 22.5447 28.7925C22.5744 28.778 22.6472 28.7969 22.6472 28.8168C22.6472 28.842 22.5955 28.8221 22.5756 28.8256M22.5097 28.7519C22.5306 28.7288 22.5791 28.7408 22.6043 28.7519C22.6163 28.755 22.6406 28.7629 22.6317 28.7815C22.5964 28.7846 22.5504 28.7651 22.5217 28.7947C22.5157 28.7896 22.5112 28.7828 22.5088 28.7752C22.5065 28.7676 22.5064 28.7595 22.5085 28.7519M22.5019 28.6888C22.5085 28.6822 22.5293 28.6812 22.5372 28.679C22.5516 28.6783 22.566 28.6805 22.5796 28.6854C22.5932 28.6904 22.6057 28.6979 22.6163 28.7077C22.6305 28.7165 22.6548 28.7219 22.6538 28.7342C22.6529 28.7465 22.6418 28.7462 22.6264 28.744C22.5999 28.7396 22.5725 28.7188 22.5416 28.7263C22.5283 28.7285 22.5186 28.7383 22.5101 28.7374C22.4902 28.7342 22.4937 28.6998 22.5034 28.6888M22.6387 28.692C22.621 28.6964 22.6112 28.6778 22.598 28.6712C22.5648 28.6622 22.5295 28.6645 22.4978 28.6778C22.4792 28.5898 22.6554 28.6292 22.6387 28.692ZM22.5198 28.5577C22.5287 28.5577 22.534 28.5696 22.5384 28.5753C22.5566 28.5885 22.5736 28.6033 22.5892 28.6195C22.5684 28.6106 22.5406 28.6195 22.5242 28.6097C22.5145 28.6021 22.4978 28.5599 22.5198 28.5577ZM22.8928 28.8363C22.8928 28.8297 22.9038 28.831 22.9091 28.8341C22.9155 28.8667 22.9092 28.9006 22.8915 28.9287C22.8804 28.9573 22.8614 28.9821 22.8366 29.0003C22.8234 29.0056 22.8013 29.0056 22.8013 28.9883C22.8013 28.9807 22.8221 28.9675 22.83 28.9568C22.861 28.9221 22.8827 28.8801 22.8931 28.8348M22.9426 28.859C22.947 28.8559 22.9558 28.8515 22.9602 28.859C22.9492 28.8644 22.9287 28.8906 22.9492 28.9019C22.9404 28.9117 22.9284 28.9161 22.9315 28.9372C22.9258 28.9395 22.9211 28.9437 22.9183 28.9491C22.9154 28.9546 22.9147 28.9609 22.9161 28.9668C22.9107 28.9735 22.9028 28.9788 22.8975 28.9867C22.8975 28.9911 22.9019 28.9921 22.8997 28.9965C22.882 29.0009 22.8811 29.0217 22.8634 29.028C22.8568 29.0258 22.8568 29.016 22.8546 29.0103C22.8967 28.9687 22.927 28.9167 22.9426 28.8597M22.9668 28.9741C22.9712 28.9675 22.97 28.9586 22.9734 28.952C22.9769 28.9454 22.9845 28.9366 22.9854 28.9268C22.9864 28.917 22.9854 28.9025 22.9987 28.8953C23.084 28.9079 23.1683 28.9266 23.2509 28.9514C23.2685 28.9559 23.2858 28.9618 23.3025 28.969C23.3167 28.9766 23.3268 28.9943 23.341 29.0006C23.3542 29.0028 23.3609 29.0072 23.3697 29.0006C23.3993 28.9731 23.3587 28.9312 23.3246 28.9312C23.326 28.919 23.3282 28.9069 23.3312 28.895C23.3443 28.8916 23.3579 28.8916 23.371 28.895C23.4207 28.9047 23.4683 28.9229 23.5119 28.9489C23.4945 29.0023 23.4728 29.0541 23.4469 29.104C23.4261 29.1248 23.4195 29.167 23.3839 29.1711C23.356 29.1705 23.3282 29.1664 23.3013 29.1591C23.2739 29.1516 23.2464 29.1472 23.2244 29.1405C23.2023 29.1339 23.1771 29.1229 23.155 29.1153C23.0825 29.0888 23.0065 29.0523 22.9381 29.0252C22.9381 29.0031 22.958 28.9936 22.9656 28.9735M23.3486 28.8348C23.4155 28.8379 23.4806 28.8579 23.5377 28.8931L23.5324 28.9063C23.4715 28.8806 23.4081 28.8614 23.3432 28.8493C23.3432 28.8417 23.3454 28.8373 23.3508 28.8351M23.3905 28.657C23.4015 28.5788 23.4148 28.4994 23.4346 28.4171C23.4464 28.3526 23.466 28.2899 23.4929 28.2301C23.5016 28.2156 23.5122 28.2022 23.5245 28.1904C23.5298 28.1851 23.532 28.1762 23.5377 28.1718C23.5541 28.1564 23.5752 28.1453 23.5948 28.1267H23.6045C23.6287 28.113 23.6542 28.1016 23.6805 28.0927H23.6859C23.6862 28.15 23.6924 28.2072 23.7045 28.2632C23.7111 28.2929 23.7221 28.3184 23.7265 28.348C23.6859 28.3767 23.643 28.4064 23.6023 28.436C23.5913 28.424 23.5979 28.4019 23.5815 28.3963C23.5749 28.4095 23.5629 28.4183 23.5629 28.436C23.5629 28.4458 23.5762 28.47 23.5749 28.4789C23.5736 28.4877 23.5793 28.5637 23.5749 28.5911C23.5749 28.6043 23.5607 28.6746 23.5595 28.7099C23.5584 28.7257 23.5584 28.7415 23.5595 28.7572C23.4994 28.7411 23.4382 28.7297 23.3763 28.7232C23.38 28.7039 23.3847 28.6849 23.3905 28.6661M23.7316 28.3966C23.7436 28.4152 23.7855 28.4152 23.7713 28.4483C23.7542 28.4726 23.7317 28.4926 23.7054 28.5066C23.6988 28.5066 23.69 28.5066 23.6878 28.5066C23.6878 28.4858 23.6997 28.4814 23.7086 28.4669C23.7125 28.4587 23.7142 28.4495 23.7135 28.4404C23.7127 28.4313 23.7095 28.4226 23.7042 28.4152C23.7108 28.4054 23.724 28.4032 23.7316 28.3966ZM23.7975 28.0546V28.0568C23.8063 28.116 23.8107 28.1734 23.8217 28.2251C23.8302 28.2424 23.8354 28.2611 23.8372 28.2803C23.8197 28.2956 23.8001 28.3083 23.7789 28.3178C23.7505 28.2408 23.7377 28.1589 23.7414 28.0769C23.759 28.0694 23.7789 28.0612 23.7975 28.0546ZM23.7842 27.5675C23.7871 27.5441 23.7934 27.5211 23.8028 27.4994C23.8082 27.4884 23.8148 27.4796 23.8214 27.4679C23.866 27.4254 23.92 27.394 23.979 27.3765C23.9822 27.3623 23.9822 27.3478 23.9844 27.3358C23.9884 27.3491 23.9909 27.3627 23.992 27.3765C24.0357 27.386 24.0757 27.4079 24.1073 27.4395C24.1453 27.4672 24.1725 27.5072 24.1843 27.5527C24.1865 27.5749 24.1902 27.5969 24.1953 27.6186C24.2089 27.637 24.2168 27.6589 24.2183 27.6816C24.2165 27.7334 24.2045 27.7843 24.1828 27.8313C24.1612 27.8783 24.1304 27.9206 24.0922 27.9556C24.057 27.985 24.0118 27.9996 23.9661 27.9962C23.9237 27.9864 23.8847 27.9655 23.8529 27.9357C23.8271 27.9089 23.8052 27.8786 23.788 27.8456C23.7576 27.7968 23.743 27.7399 23.7461 27.6826C23.7483 27.6375 23.7757 27.6123 23.7845 27.5672M24.1713 28.0984C24.1779 28.0754 24.1789 28.0643 24.1855 28.0467C24.201 28.0533 24.217 28.0599 24.235 28.0675C24.2186 28.0851 24.1887 28.0861 24.172 28.099M24.1313 27.9912C24.1313 27.9836 24.1367 27.9682 24.1379 27.9549C24.1392 27.9417 24.1326 27.9297 24.1401 27.9209C24.137 27.9616 24.1578 27.9956 24.1556 28.0322C24.1509 28.065 24.1393 28.0965 24.1215 28.1245C24.0433 28.1622 23.9673 28.2043 23.8939 28.2506C23.871 28.2005 23.8551 28.1475 23.8466 28.093C23.8425 28.0706 23.8411 28.0477 23.8422 28.0249C23.8422 28.0095 23.8533 27.9953 23.8533 27.9776C23.8675 27.9882 23.8808 28 23.893 28.013C23.9226 28.0444 23.9631 28.0633 24.0061 28.0659C24.0225 28.0653 24.0388 28.063 24.0547 28.0593C24.0733 28.0593 24.0954 28.0659 24.113 28.0549C24.1198 28.0496 24.1252 28.043 24.1291 28.0353C24.1329 28.0277 24.1349 28.0193 24.1351 28.0107C24.1351 28.0032 24.1319 27.9988 24.1319 27.9921M24.2895 28.1813C24.2614 28.2133 24.2288 28.2412 24.1928 28.2639C24.1225 28.3178 24.0541 28.3663 23.9838 28.4246C23.9675 28.4385 23.952 28.4532 23.9374 28.4688C23.9144 28.4918 23.8835 28.5085 23.8946 28.5492C23.9198 28.546 23.9365 28.5227 23.9529 28.5072C24.009 28.4587 24.0619 28.406 24.119 28.3553L24.13 28.3455V28.3449C24.1641 28.3162 24.2003 28.291 24.2369 28.2614C24.2562 28.2455 24.2764 28.2308 24.2974 28.2172L24.3094 28.2097H24.3062C24.3246 28.1979 24.3436 28.1874 24.3633 28.1781C24.3748 28.1736 24.3866 28.17 24.3986 28.1671C24.4207 28.1595 24.4547 28.1356 24.4733 28.1617C24.451 28.1763 24.4278 28.1895 24.404 28.2015C24.3699 28.2257 24.3409 28.2443 24.3094 28.2708C24.2999 28.2804 24.2893 28.2888 24.2779 28.296C24.2361 28.3331 24.1975 28.3736 24.1625 28.4171C24.1417 28.4423 24.1218 28.4644 24.1042 28.4886C24.0657 28.5381 24.0304 28.5889 23.9951 28.6393C23.9311 28.7448 23.8562 28.8432 23.7716 28.9331C23.7486 28.9561 23.6802 28.9892 23.6692 28.93C23.6836 28.9299 23.698 28.9281 23.712 28.9246C23.7396 28.9064 23.7632 28.8828 23.7814 28.8552C23.7934 28.8376 23.8129 28.8177 23.8057 28.8013C23.7814 28.7991 23.7704 28.8266 23.7571 28.8398C23.7378 28.855 23.7145 28.8642 23.69 28.8663C23.6269 28.8663 23.5932 28.83 23.5954 28.7572C23.5931 28.7183 23.5945 28.6792 23.5998 28.6406C23.6135 28.6126 23.6338 28.5885 23.6591 28.5703C23.7054 28.5388 23.7417 28.5072 23.7852 28.4757C23.7991 28.4661 23.8124 28.4556 23.8249 28.4442C23.8536 28.4234 23.8842 28.4057 23.9128 28.3859C23.9832 28.34 24.0559 28.2979 24.1307 28.2598V28.2629C24.1622 28.2453 24.1978 28.2314 24.2309 28.2122H24.2255C24.2476 28.2024 24.2684 28.1914 24.2905 28.1807M24.2807 29.0828V29.0542L24.2785 29.0255L24.2807 29.01L24.2829 29.0056H24.2883C24.291 29.0253 24.2925 29.045 24.2927 29.0649C24.2933 29.0756 24.2918 29.0863 24.2883 29.0964C24.2829 29.0942 24.2807 29.0876 24.2807 29.08M23.9012 30.6145C23.8848 30.6499 23.8627 30.6817 23.8441 30.7148C23.8274 30.7478 23.8055 30.778 23.7792 30.804C23.7319 30.8592 23.6846 30.9162 23.6405 30.9714C23.5998 31.0209 23.5591 31.0704 23.5216 31.1243C23.5172 31.1309 23.5141 31.1429 23.503 31.1429C23.4965 31.1155 23.4928 31.0875 23.492 31.0593C23.483 30.9683 23.48 30.8768 23.4832 30.7854C23.486 30.731 23.5019 30.6782 23.5295 30.6313C23.5361 30.6149 23.5415 30.5997 23.5481 30.5827C23.5796 30.5089 23.6162 30.4251 23.6537 30.3605C23.6833 30.3022 23.7209 30.2505 23.754 30.1975C23.822 30.0906 23.8927 29.9863 23.9532 29.8719C24.0005 29.7839 24.038 29.696 24.0831 29.6068C24.1117 29.5497 24.1436 29.4901 24.171 29.4331C24.1924 29.3897 24.2206 29.35 24.2545 29.3155C24.256 29.3141 24.2578 29.3131 24.2597 29.3125C24.2616 29.312 24.2636 29.3119 24.2656 29.3123C24.2798 29.3155 24.2687 29.3609 24.2678 29.3706C24.2668 29.3804 24.2545 29.4179 24.2536 29.4268C24.2063 29.6159 24.1502 29.7909 24.0884 29.9671C24.0774 30.0024 24.061 30.0364 24.05 30.0695C24.0389 30.1026 24.0292 30.1442 24.0147 30.1751C24.008 30.1893 23.997 30.2025 23.9904 30.2158C23.9806 30.2291 23.9725 30.2435 23.9661 30.2587C23.9488 30.2863 23.934 30.3154 23.922 30.3457C23.9091 30.3614 23.8973 30.3779 23.8867 30.3951C23.8636 30.4286 23.8457 30.4654 23.8337 30.5042C23.8293 30.5219 23.8205 30.555 23.8369 30.5625C23.8533 30.5701 23.8766 30.531 23.8864 30.5184C23.9018 30.4954 23.9106 30.4755 23.9217 30.4554C23.988 30.3223 24.0464 30.1855 24.0966 30.0456C24.1505 29.9002 24.1956 29.754 24.2375 29.602C24.2473 29.5636 24.2596 29.5261 24.269 29.4854C24.2713 29.4756 24.269 29.4567 24.2832 29.4513C24.2832 29.4986 24.2735 29.5428 24.269 29.5888C24.2646 29.6348 24.2504 29.6736 24.2404 29.7149C24.2183 29.7984 24.1962 29.881 24.1732 29.9614C24.1303 30.1152 24.074 30.265 24.0049 30.409C23.99 30.4456 23.973 30.4812 23.9541 30.5159C23.9365 30.5474 23.9179 30.5805 23.9012 30.6145ZM23.5446 31.3806C23.5545 31.3554 23.5671 31.3314 23.5822 31.309C23.5944 31.2851 23.608 31.262 23.6228 31.2397C23.6657 31.1716 23.7098 31.1098 23.7571 31.0448C23.7735 31.0228 23.7886 31.0042 23.8044 30.9818C23.8259 30.9486 23.8498 30.917 23.876 30.8872C23.8835 30.8775 23.8879 30.863 23.899 30.8576C23.9087 30.8708 23.899 30.8891 23.8958 30.9039C23.8821 30.982 23.861 31.0587 23.8328 31.1328C23.8306 31.1381 23.7899 31.2053 23.8142 31.2154C23.8296 31.222 23.8457 31.1801 23.8517 31.169C23.8774 31.108 23.8998 31.0456 23.9188 30.9821C23.9362 30.9169 23.9579 30.853 23.9838 30.7908C23.9935 30.77 23.9992 30.7466 24.009 30.7302C24.0178 30.7205 24.032 30.7138 24.0364 30.7016L24.0386 30.7038C24.0379 30.744 24.0334 30.7841 24.0254 30.8235C24.0121 30.8841 24.0011 30.9446 23.9891 31.0039C23.9737 31.0754 23.9551 31.1426 23.9352 31.2084C23.9254 31.2437 23.9188 31.2765 23.9078 31.3074C23.8763 31.3988 23.8384 31.4966 23.8044 31.5911L23.7858 31.6362C23.776 31.6583 23.7716 31.6848 23.7518 31.6892C23.7351 31.6919 23.7181 31.6904 23.7023 31.6848C23.6502 31.6745 23.6012 31.6523 23.5591 31.6198C23.551 31.5862 23.5458 31.5519 23.5437 31.5174C23.5322 31.4714 23.533 31.4233 23.5459 31.3777M23.4435 30.9774C23.4488 31.0521 23.451 31.1293 23.4545 31.2072C23.3899 31.194 23.3233 31.194 23.2587 31.2072L23.2389 31.2226C23.2386 31.2331 23.2407 31.2436 23.2451 31.2531C23.2495 31.2627 23.256 31.2711 23.2641 31.2778C23.2751 31.2793 23.2857 31.2826 23.2956 31.2876C23.3195 31.2802 23.3447 31.2784 23.3694 31.2822C23.3782 31.2844 23.3892 31.2954 23.399 31.2986C23.4099 31.3014 23.4205 31.3054 23.4305 31.3106C23.4535 31.326 23.4646 31.3547 23.4822 31.3689C23.4947 31.4289 23.5039 31.4895 23.5097 31.5505C23.5161 31.5979 23.5266 31.6446 23.5412 31.6901C23.5315 31.6874 23.5216 31.6859 23.5115 31.6857C23.4775 31.6825 23.4422 31.6835 23.4113 31.6781C23.387 31.6759 23.3561 31.6737 23.3265 31.6728C23.2704 31.4572 23.2174 31.2371 23.1626 31.0193C23.1905 31.0068 23.2202 30.9987 23.2505 30.995C23.3 30.9884 23.3539 30.9808 23.4034 30.9752C23.4163 30.9725 23.4296 30.9736 23.4419 30.9783M23.8072 29.1377C23.7852 29.1453 23.7886 29.12 23.7842 29.0936C23.7798 29.0671 23.7656 29.0352 23.7953 29.0375C23.8039 29.0701 23.8079 29.1039 23.8072 29.1377ZM23.8104 28.9958C23.8035 29.0035 23.7943 29.0087 23.7842 29.0107C23.7741 29.0127 23.7636 29.0114 23.7543 29.0069C23.7587 28.9883 23.7785 28.9848 23.7883 28.9772C23.7981 28.9697 23.8126 28.9574 23.8258 28.9498C23.8517 28.9448 23.8762 28.934 23.8974 28.9183C23.9018 28.9183 23.9018 28.9214 23.904 28.9214C23.8762 28.9505 23.8444 28.9754 23.8094 28.9952M23.8842 29.1213C23.8794 29.1079 23.8774 29.0937 23.8781 29.0796C23.8789 29.0654 23.8824 29.0515 23.8886 29.0387C23.8983 29.0247 23.9111 29.0131 23.9259 29.0047C23.9407 28.9963 23.9573 28.9913 23.9743 28.9902C23.9973 28.986 24.0211 28.9884 24.0428 28.9969C24.0646 29.0055 24.0835 29.02 24.0976 29.0387C24.1068 29.0615 24.1078 29.0869 24.1003 29.1103C24.0929 29.1338 24.0776 29.154 24.0569 29.1673C24.0273 29.1814 23.9936 29.1845 23.962 29.176C23.9303 29.1675 23.9027 29.148 23.8842 29.121M23.73 29.9658C23.6985 29.9734 23.6915 30.0077 23.6783 30.0317C23.6531 30.0846 23.631 30.1341 23.608 30.1925C23.5595 30.3135 23.5134 30.4446 23.4649 30.5707C23.4595 30.5818 23.4583 30.5982 23.4463 30.606C23.4414 30.5885 23.4399 30.5702 23.4419 30.5521C23.4397 30.4576 23.4397 30.3551 23.4441 30.2618C23.4485 30.2265 23.4539 30.1925 23.4551 30.1571C23.4573 30.1297 23.4551 30.101 23.4551 30.0768C23.4572 30.0543 23.462 30.0322 23.4693 30.0109C23.4734 29.9896 23.4785 29.9686 23.4848 29.9478C23.4879 29.9359 23.4936 29.927 23.4967 29.9163C23.5265 29.8302 23.569 29.749 23.6228 29.6755C23.6667 29.6124 23.7145 29.5522 23.7659 29.4952C23.829 29.4233 23.8998 29.3587 23.9771 29.3026C24.0241 29.2701 24.0679 29.2333 24.108 29.1925C24.1199 29.1784 24.1278 29.161 24.1433 29.1528C24.1442 29.1613 24.1434 29.1698 24.141 29.1779C24.1386 29.186 24.1345 29.1936 24.1291 29.2001C24.1033 29.2383 24.0754 29.275 24.0455 29.3101C23.9885 29.3835 23.9359 29.4603 23.8879 29.5399C23.8637 29.5806 23.8394 29.6213 23.8154 29.6641C23.7429 29.7852 23.6811 29.9163 23.6074 30.0405C23.583 30.0833 23.5635 30.1287 23.5491 30.1757C23.5623 30.1726 23.5655 30.1571 23.5733 30.1461C23.6723 29.9809 23.7681 29.8085 23.8715 29.6455C23.9248 29.5575 23.984 29.4733 24.0487 29.3933C24.0957 29.3332 24.1387 29.27 24.1773 29.2042C24.1892 29.1813 24.2028 29.1593 24.218 29.1383C24.2334 29.1273 24.2432 29.1657 24.24 29.1891C24.2351 29.2043 24.2289 29.2191 24.2214 29.2332C24.2006 29.2773 24.1861 29.3212 24.1653 29.364C24.1357 29.4192 24.107 29.474 24.0818 29.5257C24.0279 29.6424 23.9652 29.7436 23.9068 29.847C23.8772 29.8987 23.8463 29.9526 23.8176 30.0046C23.7363 30.1499 23.6537 30.294 23.5746 30.4424C23.5692 30.4522 23.5626 30.4721 23.5481 30.4721C23.5519 30.4556 23.5578 30.4397 23.5658 30.4248C23.5973 30.3479 23.6351 30.2672 23.6714 30.1906C23.6971 30.1392 23.7173 30.0853 23.7319 30.0298C23.7373 30.0077 23.7495 29.9768 23.7319 29.9627M24.1512 28.9151C24.1754 28.9032 24.1962 28.901 24.2142 28.8921H24.2196V28.8965C24.2196 28.9032 24.212 28.9054 24.2076 28.912C24.1899 28.9394 24.1868 28.9823 24.1612 28.9955C24.1448 29.0053 24.125 28.9999 24.1007 29.0021C24.0738 28.982 24.0418 28.9699 24.0084 28.9672C23.9749 28.9645 23.9414 28.9712 23.9116 28.9867C23.8961 28.9955 23.8801 29.0132 23.8523 29.0053C23.8589 28.9854 23.8788 28.9766 23.893 28.9656C23.9249 28.9451 23.958 28.9264 23.992 28.9095C24.009 28.8997 24.0285 28.8951 24.0481 28.8962C24.0525 28.9237 24.0635 28.9435 24.1029 28.9347C24.1117 28.932 24.1202 28.9283 24.1281 28.9237C24.1357 28.9214 24.1423 28.917 24.1512 28.9139M23.6859 29.1393C23.6881 29.0996 23.6837 29.0633 23.6859 29.0261H23.6881C23.6907 29.0635 23.6899 29.1011 23.6859 29.1383M23.5175 29.1163C23.5177 29.1041 23.5184 29.092 23.5197 29.08C23.5269 29.0555 23.5375 29.0321 23.5513 29.0107C23.5576 29.0332 23.5605 29.0566 23.5601 29.08C23.5645 29.1141 23.5711 29.1547 23.5733 29.1891C23.5773 29.2135 23.5734 29.2385 23.5623 29.2606C23.5513 29.2814 23.538 29.3035 23.526 29.3237C23.5157 29.2553 23.5132 29.1859 23.5185 29.1169M23.55 29.3577C23.5576 29.3401 23.5664 29.3215 23.5765 29.3038C23.5929 29.2668 23.6141 29.232 23.6395 29.2004C23.6528 29.1823 23.6675 29.1653 23.6837 29.1497C23.7335 29.1584 23.7838 29.1636 23.8343 29.1651C23.8498 29.1673 23.8706 29.1651 23.8851 29.1683C23.8996 29.1714 23.9138 29.1881 23.9346 29.1935C23.9586 29.1974 23.9828 29.1999 24.0071 29.2011C23.9858 29.2313 23.9598 29.258 23.9302 29.2802C23.9029 29.3038 23.8772 29.3292 23.8533 29.3561C23.8024 29.4087 23.7543 29.4638 23.7092 29.5213C23.6629 29.5806 23.62 29.6389 23.5762 29.6972C23.5446 29.7436 23.5179 29.7953 23.4882 29.8448C23.4815 29.8614 23.4714 29.8764 23.4586 29.8889C23.4583 29.7931 23.4664 29.6974 23.4829 29.603C23.4903 29.5609 23.5008 29.5193 23.5144 29.4788C23.5254 29.4381 23.5352 29.393 23.5484 29.3577M23.3855 30.3324C23.3855 30.4106 23.3788 30.49 23.3766 30.5679C23.3773 30.5995 23.3762 30.631 23.3735 30.6625C23.3738 30.692 23.3713 30.7214 23.3659 30.7504C23.3605 30.7462 23.3543 30.7432 23.3477 30.7415C23.3411 30.7398 23.3342 30.7395 23.3275 30.7406C23.3461 30.5887 23.3628 30.4371 23.3804 30.2829H23.3848C23.3882 30.2989 23.3882 30.3155 23.3848 30.3315M23.4163 30.2467C23.4008 30.2424 23.385 30.2391 23.3691 30.2369C23.3722 30.0588 23.3691 29.8901 23.3788 29.7373C23.382 29.6966 23.382 29.6547 23.382 29.6131C23.382 29.5715 23.3851 29.5361 23.3873 29.4964C23.3905 29.4041 23.3905 29.3139 23.3962 29.2149C23.4175 29.2028 23.4378 29.1887 23.4567 29.173H23.4589C23.4667 29.2203 23.4689 29.2683 23.4655 29.3161C23.4718 29.3635 23.4743 29.4114 23.4731 29.4592C23.4702 29.4766 23.4654 29.4936 23.4589 29.51C23.4575 29.5254 23.453 29.5405 23.4457 29.5541C23.4453 29.5793 23.4408 29.6042 23.4324 29.6279C23.4324 29.6345 23.4346 29.6411 23.4324 29.6455L23.4302 29.6566C23.4128 29.8527 23.4081 30.0497 23.416 30.2464M24.5074 28.2374C24.5129 28.2495 24.5174 28.262 24.5206 28.2749C24.537 28.3344 24.5488 28.3951 24.5559 28.4565C24.5625 28.4861 24.5691 28.5195 24.5736 28.5488C24.578 28.5782 24.5877 28.6072 24.5944 28.6368C24.5824 28.6377 24.5706 28.6399 24.5591 28.6434C24.4861 28.6479 24.4136 28.6578 24.3422 28.673V28.662L24.339 28.6488C24.3356 28.6358 24.3341 28.6224 24.3346 28.6091C24.3346 28.5927 24.3346 28.5684 24.328 28.5715C24.3258 28.5495 24.2984 28.5085 24.2927 28.54C24.2909 28.5498 24.2909 28.5599 24.2927 28.5696C24.2993 28.6204 24.2949 28.6191 24.2993 28.6743C24.3024 28.7201 24.3017 28.7661 24.2971 28.8117C24.2868 28.814 24.2761 28.8147 24.2656 28.814C24.2514 28.8193 24.2341 28.825 24.2192 28.8294C24.1972 28.8362 24.1741 28.8388 24.1512 28.837C24.1287 28.8332 24.1066 28.8273 24.0853 28.8193C24.0684 28.809 24.0507 28.8001 24.0323 28.7928C23.9793 28.7752 23.9753 28.8281 23.9169 28.8181C23.9389 28.7689 23.9659 28.7221 23.9973 28.6784C24.0349 28.616 24.0771 28.5565 24.1234 28.5003V28.5025C24.1433 28.4795 24.1619 28.4562 24.1827 28.4344C24.2089 28.408 24.2367 28.3831 24.2659 28.36C24.2744 28.3502 24.2853 28.3426 24.2974 28.338C24.2907 28.382 24.2683 28.4222 24.2344 28.4511C24.2224 28.4609 24.2136 28.4732 24.2047 28.4798C24.1959 28.4864 24.1805 28.4896 24.1773 28.5028V28.5094C24.1773 28.5359 24.2088 28.541 24.2281 28.5293C24.252 28.5055 24.2714 28.4775 24.2851 28.4467C24.3305 28.357 24.3938 28.2776 24.4711 28.2134C24.4875 28.2024 24.5026 28.2333 24.5096 28.245M24.6205 28.7232C24.6051 28.7263 24.5865 28.7263 24.5676 28.7307L24.5587 28.6888C24.5713 28.6811 24.586 28.6776 24.6007 28.679C24.6024 28.6955 24.6094 28.7109 24.6205 28.7232ZM24.6316 28.7474C24.6338 28.7519 24.6435 28.7474 24.6435 28.7563C24.6435 28.7651 24.5963 28.7739 24.5865 28.7771C24.5221 28.7968 24.4601 28.8238 24.4018 28.8575C24.3863 28.8685 24.3787 28.8839 24.362 28.8761C24.3665 28.8652 24.3742 28.8559 24.3841 28.8496C24.3941 28.8432 24.4047 28.8377 24.4156 28.8332C24.4599 28.809 24.5058 28.7879 24.5531 28.7701C24.5792 28.7643 24.6049 28.7566 24.63 28.7471L24.6316 28.7474ZM24.6492 29.1963C24.6923 29.3191 24.728 29.4444 24.7561 29.5715C24.7651 29.5923 24.77 29.6146 24.7703 29.6373C24.7658 29.6572 24.711 29.6714 24.6877 29.6748C24.6729 29.677 24.6579 29.6759 24.6435 29.6717C24.6338 29.6663 24.6249 29.6342 24.6183 29.6187C24.5755 29.5308 24.4875 29.2666 24.45 29.173C24.442 29.1393 24.4365 29.1051 24.4336 29.0705C24.4292 29.0463 24.4336 29.0242 24.4314 28.953C24.4822 28.9312 24.5369 28.9196 24.5922 28.9189C24.5997 28.9564 24.6019 28.9596 24.6086 28.9958L24.6139 29.0444L24.6205 29.0961C24.621 29.1099 24.6233 29.1235 24.6271 29.1367C24.6332 29.157 24.6406 29.1771 24.6492 29.1963ZM24.8034 29.6405H24.8078C24.821 29.6547 24.8012 29.6767 24.7901 29.6856C24.746 29.7088 24.6969 29.7212 24.647 29.7218C24.6271 29.7218 24.5918 29.7218 24.6051 29.6944C24.6811 29.713 24.7766 29.6975 24.803 29.6405M24.8163 29.69C24.8234 29.6895 24.8304 29.6918 24.8359 29.6963C24.8414 29.7008 24.845 29.7072 24.8459 29.7143C24.8428 29.7319 24.8239 29.724 24.804 29.7306C24.7952 29.7328 24.7898 29.7448 24.7766 29.7483C24.7734 29.7505 24.7646 29.7461 24.7589 29.7483C24.75 29.7506 24.7415 29.7544 24.7337 29.7593C24.7271 29.7593 24.7183 29.7562 24.7116 29.7593C24.705 29.7625 24.6974 29.7669 24.6886 29.7726C24.671 29.7637 24.6643 29.7792 24.6502 29.7823C24.636 29.7855 24.6073 29.7669 24.6215 29.7508C24.629 29.7388 24.6656 29.7398 24.6845 29.7388C24.7059 29.7352 24.7269 29.73 24.7476 29.7234C24.7791 29.7136 24.8005 29.6919 24.8179 29.6919M24.8541 29.7549C24.9266 29.7726 24.996 29.8079 25.0688 29.8287C25.1121 29.8388 25.1539 29.8547 25.193 29.876C25.1997 29.8811 25.2066 29.8858 25.2138 29.8901C25.228 29.8977 25.239 29.9021 25.2513 29.91C25.2557 29.9132 25.2645 29.9122 25.2623 29.921C25.2504 29.9277 25.2415 29.9135 25.2308 29.9091C25.1669 29.8691 25.096 29.8419 25.0218 29.8287C25.0306 29.8407 25.047 29.8407 25.0603 29.8429C25.1335 29.8663 25.2025 29.9012 25.2649 29.9463C25.2746 29.9516 25.2901 29.9573 25.2901 29.9715C25.2781 29.979 25.2649 29.9693 25.2586 29.9639C25.1889 29.9059 25.1063 29.8655 25.0177 29.8463C25.0102 29.8662 25.0363 29.8662 25.0474 29.8693C25.0958 29.8796 25.1418 29.8995 25.1826 29.9277C25.1946 29.9343 25.2078 29.9453 25.2201 29.9529C25.2324 29.9604 25.2516 29.9661 25.2608 29.9803C25.2387 29.9967 25.2069 29.9803 25.1848 29.9671C25.1627 29.9538 25.1495 29.9463 25.1296 29.9374C25.0865 29.9225 25.0424 29.9107 24.9975 29.9021C24.9733 29.8977 24.9481 29.8977 24.926 29.8924C24.9039 29.887 24.8885 29.8716 24.8677 29.8738C24.8491 29.8946 24.8819 29.8924 24.903 29.9012L24.9127 29.9087C24.9392 29.9163 24.9786 29.9154 25.0117 29.9207C25.0338 29.9239 25.0748 29.9362 25.0748 29.9482C25.0748 29.9712 24.9922 29.9535 24.9679 29.9526C24.9224 29.9539 24.8768 29.9524 24.8314 29.9482C24.7972 29.9462 24.7646 29.9326 24.7391 29.9097C24.7327 29.901 24.7286 29.8908 24.7271 29.8801C24.7249 29.8703 24.7302 29.8558 24.7271 29.8403C24.7239 29.8249 24.7129 29.8262 24.7173 29.8139C24.7217 29.8016 24.7261 29.8107 24.7403 29.8072L24.7523 29.7997C24.7604 29.8002 24.7685 29.8002 24.7766 29.7997C24.7885 29.7965 24.7908 29.7811 24.8106 29.7855C24.8242 29.773 24.8393 29.7624 24.8557 29.754M25.1826 29.8441C25.1936 29.8366 25.2113 29.8485 25.2299 29.8561C25.244 29.8595 25.2577 29.8647 25.2705 29.8716C25.2905 29.8881 25.3077 29.9078 25.3213 29.9299C25.3252 29.9403 25.3264 29.9515 25.3249 29.9625C25.3233 29.9735 25.3191 29.984 25.3125 29.9929C25.2909 30.0087 25.2676 30.022 25.2431 30.0326C25.2321 30.0393 25.2245 30.0393 25.2166 30.0459C25.2024 30.0512 25.1968 30.0701 25.1804 30.0689C25.1782 30.0569 25.1892 30.049 25.1946 30.0393C25.1999 30.0295 25.2078 30.0216 25.2154 30.014C25.2441 30.0074 25.3046 29.9976 25.3068 29.9677C25.3068 29.9545 25.2926 29.9478 25.2847 29.9337C25.2809 29.9275 25.2779 29.9208 25.2759 29.9138C25.2599 29.9019 25.2429 29.8914 25.2251 29.8823L25.1999 29.8659C25.1924 29.8615 25.1801 29.8561 25.1801 29.846H25.1823M25.321 29.8756C25.3525 29.8712 25.3585 29.9031 25.384 29.9132C25.4017 29.9185 25.4247 29.91 25.4471 29.9163C25.4694 29.9226 25.4713 29.9384 25.4855 29.9548C25.4887 29.9592 25.5019 29.968 25.4988 29.9768C25.4956 29.9857 25.4833 29.9844 25.4745 29.9866C25.4522 30.0015 25.4312 30.018 25.4114 30.0361C25.3885 30.0561 25.3602 30.0691 25.3301 30.0736C25.3147 30.0736 25.2948 30.0705 25.2762 30.0705C25.2576 30.0705 25.2447 30.0802 25.2277 30.0705C25.2387 30.0563 25.2592 30.055 25.2762 30.0484C25.3077 30.0342 25.362 30.0109 25.3575 29.9582C25.3544 29.9308 25.3301 29.9053 25.3235 29.8769L25.321 29.8756ZM25.5224 30.0153C25.5354 30.0155 25.5481 30.0191 25.5592 30.0259C25.5703 30.0327 25.5794 30.0423 25.5854 30.0538C25.6225 30.1355 25.6502 30.2212 25.668 30.3091C25.6756 30.3267 25.6823 30.3447 25.6879 30.363C25.7006 30.4271 25.7054 30.4925 25.7021 30.5578C25.6999 30.6272 25.6967 30.6997 25.6967 30.769C25.6999 30.8834 25.7232 30.9881 25.7197 31.1101C25.7197 31.1243 25.7242 31.1416 25.7153 31.1552C25.7056 31.153 25.7056 31.1397 25.7033 31.1322C25.6927 31.1048 25.685 31.0764 25.6803 31.0474C25.6791 31.0246 25.6802 31.0018 25.6835 30.9793C25.6876 30.9158 25.6775 30.8523 25.6539 30.7933C25.6485 30.7823 25.6308 30.7618 25.6308 30.7536C25.6308 30.7454 25.6397 30.7337 25.6419 30.722C25.6583 30.6473 25.6012 30.5934 25.6034 30.5197C25.6034 30.49 25.6078 30.4626 25.6066 30.4349C25.6048 30.3635 25.5796 30.2948 25.535 30.2391C25.5492 30.2193 25.5769 30.2051 25.5845 30.172C25.5927 30.141 25.5927 30.1084 25.5845 30.0774C25.58 30.0596 25.5717 30.0431 25.5602 30.0289C25.5437 30.0221 25.5258 30.0197 25.5081 30.0218C25.4904 30.0239 25.4735 30.0304 25.459 30.0408L25.4436 30.0585C25.4337 30.0648 25.4231 30.07 25.4121 30.0739C25.4474 30.0497 25.4751 30.0169 25.5252 30.0147M25.3062 31.4783C25.3266 31.4396 25.3358 31.3959 25.3326 31.3522C25.3242 31.3114 25.3213 31.2696 25.3238 31.228C25.3376 31.1838 25.3568 31.1414 25.3809 31.1019C25.3991 31.073 25.4118 31.0409 25.4184 31.0073C25.4211 30.987 25.4192 30.9663 25.413 30.9468C25.4077 30.9247 25.391 30.9061 25.3878 30.8838C25.3888 30.8651 25.3958 30.8473 25.4077 30.833C25.4165 30.8198 25.4307 30.8109 25.4392 30.7968L25.448 30.7769C25.4577 30.7569 25.4647 30.7357 25.4688 30.7138L25.4742 30.7107L25.4773 30.7129C25.4839 30.758 25.4587 30.8163 25.4729 30.8604C25.4761 30.869 25.4798 30.8774 25.4839 30.8856L25.4959 30.9087C25.5092 30.9329 25.5322 30.9484 25.5388 30.9812C25.5437 30.9988 25.5437 31.0174 25.5388 31.0351C25.532 31.0482 25.5275 31.0623 25.5256 31.077C25.5233 31.1044 25.5353 31.1255 25.5287 31.1517C25.5243 31.1703 25.5066 31.1813 25.5013 31.2066C25.4985 31.2336 25.4985 31.2608 25.5013 31.2879C25.4989 31.305 25.4952 31.322 25.4902 31.3386C25.4827 31.3815 25.4814 31.4234 25.4518 31.4455C25.443 31.4516 25.4339 31.4571 25.4244 31.4619C25.4155 31.4672 25.4089 31.4783 25.3957 31.4795C25.3859 31.4698 25.3925 31.4543 25.3957 31.4442C25.4121 31.3935 25.4792 31.3254 25.4272 31.2705C25.4298 31.3037 25.4241 31.3369 25.4108 31.3673C25.4042 31.3793 25.3856 31.3916 25.3793 31.4048C25.3751 31.41 25.372 31.416 25.3705 31.4225C25.3674 31.4543 25.3622 31.4859 25.355 31.5171C25.3415 31.5375 25.3211 31.5525 25.2976 31.5594C25.274 31.5662 25.2488 31.5645 25.2264 31.5546C25.2583 31.5357 25.2852 31.5093 25.3046 31.4777M25.0492 31.1255C25.0448 31.141 25.0272 31.152 25.0328 31.1706C25.0064 31.1391 25.0284 31.0946 25.0275 31.0445C25.0253 30.9994 24.9789 30.9632 25.001 30.9124C25.0136 30.9227 25.0222 30.9371 25.0253 30.9531C25.0281 30.9602 25.0318 30.9669 25.0363 30.973C25.0365 30.9813 25.0383 30.9896 25.0417 30.9972C25.047 31.0114 25.0559 31.0215 25.0581 31.0288C25.0612 31.0464 25.0439 31.065 25.0439 31.0871C25.0439 31.0981 25.0514 31.1158 25.0492 31.1255ZM24.9194 31.3213C24.9216 31.2898 24.9358 31.2583 24.9392 31.2267C24.9414 31.2033 24.9414 31.1798 24.9392 31.1564C24.9326 31.0871 24.8711 31.0303 24.8907 30.9462C24.9039 30.943 24.8907 30.967 24.9005 30.9682C24.9102 30.9695 24.9146 30.9616 24.9247 30.9594C24.9433 30.8891 24.8784 30.844 24.9027 30.7703C24.9137 30.7823 24.9213 30.7968 24.9389 30.8018C24.9469 30.8222 24.9532 30.8433 24.9575 30.8648C24.9575 30.8803 24.9477 30.8935 24.9477 30.9099C24.9477 30.9506 24.973 30.973 24.9906 31.0045C24.9861 31.0658 24.9913 31.1274 25.0061 31.187C25.0187 31.2133 25.0354 31.2375 25.0555 31.2586C25.0744 31.2862 25.0833 31.3194 25.0809 31.3528C25.0785 31.3861 25.0649 31.4177 25.0423 31.4423C25.0281 31.4534 25.0108 31.4578 24.9994 31.4698C24.9881 31.4817 24.9884 31.4972 24.9774 31.506C24.9685 31.495 24.9774 31.4676 24.973 31.4509C24.97 31.4388 24.9653 31.4273 24.9588 31.4168C24.9349 31.39 24.9209 31.3559 24.9191 31.32M24.8964 31.4026C24.8964 31.3982 24.8995 31.3982 24.903 31.3982C24.9243 31.4297 24.9353 31.467 24.9345 31.5051C24.9181 31.5051 24.903 31.5019 24.885 31.4997C24.8922 31.4679 24.8961 31.4353 24.8964 31.4026ZM24.8491 31.2639C24.8336 31.222 24.8623 31.1627 24.8588 31.1098C24.8568 31.0769 24.8482 31.0448 24.8336 31.0152C24.8081 30.9759 24.7898 30.9324 24.7797 30.8866C24.7744 30.8207 24.8194 30.7832 24.8336 30.729C24.8405 30.7049 24.8449 30.6802 24.8469 30.6552L24.8491 30.6521C24.8588 30.6499 24.8557 30.6609 24.8579 30.6751C24.861 30.6913 24.8657 30.7071 24.8721 30.7224C24.8759 30.7293 24.8789 30.7367 24.8809 30.7444C24.8831 30.763 24.8711 30.7841 24.8699 30.8015C24.8705 30.8265 24.873 30.8515 24.8774 30.8762C24.8758 30.891 24.8733 30.9058 24.8699 30.9203C24.8619 30.9557 24.8593 30.992 24.8623 31.0281C24.8672 31.0486 24.8731 31.0688 24.88 31.0887C24.8941 31.1267 24.9008 31.167 24.8998 31.2075C24.8998 31.245 24.8778 31.2822 24.8768 31.3207C24.868 31.2986 24.856 31.2809 24.8494 31.2636M24.7031 31.2043C24.7046 31.1849 24.7038 31.1653 24.7009 31.146C24.7009 31.1385 24.6921 31.1284 24.6933 31.1208C24.6946 31.1132 24.7031 31.1088 24.7044 31.0987C24.723 31.0426 24.6729 31.0042 24.6495 30.9701C24.6251 30.9392 24.6078 30.9032 24.5989 30.8648C24.59 30.8264 24.5896 30.7865 24.5978 30.7479L24.6 30.7425C24.6217 30.7722 24.6452 30.8005 24.6703 30.8273C24.6616 30.876 24.6678 30.9262 24.688 30.9714C24.6973 30.989 24.7078 31.006 24.7195 31.0221C24.7322 31.0384 24.7428 31.0562 24.751 31.0751C24.7577 31.1066 24.7391 31.1268 24.7312 31.1511C24.721 31.1799 24.717 31.2106 24.7195 31.2412C24.7219 31.2717 24.7307 31.3013 24.7454 31.3282C24.7586 31.3446 24.7917 31.3569 24.7904 31.379C24.7892 31.401 24.7652 31.4077 24.7529 31.4241C24.727 31.4044 24.7069 31.3782 24.6946 31.3481C24.6852 31.3273 24.6797 31.305 24.6782 31.2822C24.6804 31.2557 24.699 31.2327 24.7025 31.2053M24.7498 30.0074C24.742 30.02 24.7386 30.0347 24.74 30.0493C24.7259 30.0654 24.7151 30.0842 24.7085 30.1045C24.6895 30.1064 24.6714 30.1136 24.6562 30.1252C24.6411 30.1369 24.6295 30.1525 24.6227 30.1704C24.6172 30.1909 24.6161 30.2124 24.6196 30.2334C24.622 30.2438 24.6238 30.2544 24.6249 30.265C24.6232 30.2951 24.6157 30.3246 24.6029 30.352C24.5868 30.378 24.5691 30.4029 24.5499 30.4267C24.5438 30.4346 24.5383 30.4431 24.5335 30.4519C24.5274 30.4706 24.5251 30.4904 24.5268 30.5101C24.5285 30.5297 24.5341 30.5489 24.5433 30.5663C24.5524 30.5754 24.5605 30.5853 24.5676 30.596C24.569 30.6064 24.5697 30.6169 24.5698 30.6275C24.5716 30.6379 24.5727 30.6484 24.5729 30.659C24.5695 30.6887 24.564 30.718 24.5565 30.7469C24.5554 30.7652 24.5554 30.7835 24.5565 30.8018C24.5615 30.8607 24.5791 30.9178 24.6082 30.9692C24.6155 30.9799 24.6218 30.9913 24.6268 31.0032C24.5935 30.9897 24.5651 30.9663 24.5455 30.9361C24.5314 30.8928 24.5258 30.8472 24.5291 30.8018C24.5204 30.7561 24.509 30.711 24.4951 30.6666C24.4902 30.6422 24.4869 30.6176 24.4853 30.5928C24.4858 30.5673 24.4883 30.5419 24.4929 30.5168C24.5013 30.4448 24.5161 30.3737 24.537 30.3044C24.5505 30.2623 24.5667 30.2211 24.5855 30.1811C24.6199 30.1125 24.6673 30.0512 24.7252 30.0008C24.7372 30.0008 24.745 29.9932 24.7567 29.991C24.7611 29.9964 24.7523 29.9998 24.7491 30.0052M24.792 30.1943C24.7923 30.1893 24.7938 30.1845 24.7964 30.1802H24.7986C24.7832 30.2196 24.7703 30.2601 24.7602 30.3012C24.7574 30.2926 24.7574 30.2833 24.7602 30.2747C24.7655 30.2483 24.7756 30.2054 24.7917 30.1934M24.6224 30.4982C24.63 30.4762 24.6454 30.4607 24.6539 30.4399C24.6704 30.4019 24.6804 30.3614 24.6836 30.3201V30.3151L24.6867 30.3173C24.7182 30.4241 24.6552 30.5209 24.6552 30.6155C24.6565 30.6468 24.6643 30.6775 24.6782 30.7057C24.6854 30.7165 24.69 30.7289 24.6917 30.7419C24.6934 30.7548 24.6921 30.768 24.688 30.7804C24.6649 30.7611 24.6467 30.7365 24.635 30.7088C24.6277 30.6991 24.6218 30.6885 24.6174 30.6773C24.6022 30.6187 24.6038 30.557 24.6218 30.4992M24.6659 30.1877C24.6792 30.1802 24.6902 30.1657 24.7101 30.1701C24.6933 30.2081 24.6854 30.2495 24.687 30.2911C24.6804 30.2867 24.6716 30.2836 24.664 30.2779C24.6552 30.2644 24.6507 30.2486 24.6511 30.2325C24.6515 30.2164 24.6565 30.2008 24.6659 30.1877ZM24.5717 30.444H24.5811C24.6103 30.3999 24.6336 30.3523 24.6505 30.3022L24.6615 30.3088C24.6615 30.4112 24.5789 30.455 24.5669 30.5465C24.5602 30.5339 24.5569 30.5198 24.5573 30.5055C24.5577 30.4912 24.5618 30.4773 24.5691 30.4651V30.4695C24.5767 30.4695 24.566 30.4443 24.5745 30.4585C24.5789 30.4554 24.5701 30.4519 24.5745 30.4443M24.7495 30.4081C24.7511 30.4383 24.7489 30.4686 24.7428 30.4982C24.7362 30.5279 24.7113 30.5468 24.7088 30.5818C24.7077 30.5872 24.7077 30.5927 24.7088 30.5982L24.7012 30.6168C24.6996 30.6458 24.7007 30.6749 24.7044 30.7038C24.6794 30.656 24.6736 30.6006 24.688 30.5487C24.7007 30.5128 24.7106 30.476 24.7176 30.4387C24.7174 30.3669 24.7211 30.2953 24.7287 30.224C24.7402 30.1915 24.7569 30.161 24.7781 30.1338C24.7914 30.1294 24.7958 30.114 24.8097 30.1162C24.8097 30.1108 24.8021 30.1162 24.8043 30.1108C24.8301 30.0898 24.8603 30.075 24.8927 30.0673C24.9251 30.0597 24.9588 30.0595 24.9912 30.0667C24.9682 30.0689 24.9351 30.0711 24.9099 30.072C24.8446 30.0927 24.7898 30.1379 24.757 30.1981L24.7526 30.2047C24.7434 30.2299 24.7379 30.2562 24.7362 30.2829C24.7367 30.3246 24.7407 30.3661 24.7482 30.4071M25.3928 30.3069C25.4032 30.3753 25.3937 30.4452 25.3654 30.5083C25.3468 30.5446 25.3225 30.5742 25.3005 30.6095C25.3078 30.6263 25.3086 30.6452 25.3027 30.6625C25.276 30.6591 25.2501 30.6505 25.2267 30.6372C25.2321 30.6748 25.2708 30.6779 25.2961 30.6934C25.2961 30.6987 25.2946 30.704 25.2917 30.7084C25.2888 30.7129 25.2846 30.7165 25.2797 30.7186C25.2708 30.7186 25.239 30.6956 25.2267 30.6912C25.2223 30.688 25.2192 30.6792 25.2135 30.6779C25.2135 30.7142 25.2422 30.7242 25.2586 30.7428C25.2532 30.7539 25.2431 30.7681 25.2311 30.7681C25.2024 30.7734 25.1883 30.7195 25.1794 30.6956C25.1608 30.7009 25.1662 30.7296 25.1596 30.7463C25.1145 30.7321 25.0965 30.6858 25.1003 30.6331C25.1113 30.5925 25.1895 30.6016 25.2006 30.5584C25.2017 30.5445 25.1994 30.5306 25.1939 30.5178C25.1895 30.5067 25.1864 30.4935 25.1753 30.4913C25.1665 30.5055 25.1895 30.5253 25.1753 30.542C25.1665 30.5465 25.1589 30.542 25.1501 30.542C25.1205 30.5389 25.0931 30.554 25.0653 30.5509C25.0517 30.5467 25.0376 30.5441 25.0234 30.5433C25.0126 30.5443 25.0017 30.5424 24.9919 30.5379C24.9875 30.5225 25.0016 30.5039 24.9843 30.4973C24.9735 30.513 24.9692 30.5323 24.9723 30.5512C24.9778 30.568 24.989 30.5823 25.0038 30.5919C25.0281 30.606 25.0669 30.606 25.0776 30.6281C25.0821 30.6419 25.0829 30.6567 25.0798 30.671C25.0767 30.6911 25.0678 30.7099 25.0541 30.7249C25.0404 30.74 25.0226 30.7507 25.0029 30.7558C25.0083 30.7416 25.0117 30.7019 24.9953 30.7028C24.9856 30.7028 24.9812 30.7343 24.9711 30.7457C24.9578 30.7678 24.9282 30.7854 24.908 30.751C24.9323 30.7347 24.9588 30.7214 24.9685 30.688C24.9502 30.6904 24.9323 30.6956 24.9156 30.7034C24.8957 30.7132 24.8803 30.7255 24.8803 30.688C24.8961 30.6863 24.9113 30.6808 24.9245 30.672C24.9377 30.6631 24.9486 30.6512 24.9562 30.6372C24.9315 30.6485 24.904 30.6523 24.8771 30.6483C24.874 30.6439 24.8793 30.6372 24.8771 30.6328C24.8203 30.5666 24.7887 30.4824 24.7879 30.3951C24.7878 30.3325 24.8002 30.2705 24.8242 30.2126C24.8317 30.1947 24.8405 30.1775 24.8506 30.1609C24.8603 30.1418 24.8765 30.1267 24.8964 30.1184C24.9273 30.1052 24.9609 30.0996 24.9944 30.102C25.0267 30.1083 25.0583 30.1175 25.089 30.1294C25.1287 30.1404 25.1561 30.1118 25.1902 30.1086C25.2312 30.1038 25.2726 30.1151 25.3055 30.1401C25.3153 30.1467 25.3232 30.1609 25.3352 30.1717C25.3672 30.2102 25.3875 30.2571 25.3935 30.3069M25.3683 30.9175C25.3756 30.9258 25.3822 30.9346 25.3881 30.944C25.3969 30.9638 25.3969 31.0341 25.3771 31.042C25.3815 30.955 25.298 30.9159 25.32 30.8242C25.3242 30.8038 25.3304 30.784 25.3386 30.7649C25.3601 30.7186 25.3681 30.6671 25.3616 30.6164C25.3616 30.6133 25.3528 30.6045 25.3528 30.5978C25.3609 30.5741 25.3728 30.5518 25.3881 30.532C25.4001 30.5386 25.3991 30.5562 25.4036 30.5673C25.4186 30.6025 25.4292 30.6394 25.4351 30.6773C25.4337 30.715 25.4229 30.7517 25.4036 30.7841C25.385 30.8138 25.3541 30.8349 25.3585 30.8822C25.3603 30.8946 25.3636 30.9068 25.3683 30.9184M25.3998 30.2274V30.2221L25.4042 30.2243C25.4221 30.2371 25.4367 30.2541 25.4465 30.2738C25.4562 30.2936 25.461 30.3154 25.4603 30.3375C25.4603 30.3737 25.4449 30.4112 25.4439 30.4421C25.4412 30.4574 25.4416 30.473 25.445 30.4881C25.4484 30.5032 25.4548 30.5175 25.4638 30.5301C25.4726 30.5411 25.4934 30.5509 25.4934 30.5729C25.4934 30.595 25.4748 30.6082 25.4726 30.6268C25.462 30.6083 25.4543 30.5884 25.4496 30.5676C25.4436 30.5463 25.4392 30.5246 25.4363 30.5026C25.4359 30.4831 25.4377 30.4635 25.4417 30.4443C25.4448 30.3698 25.4304 30.2955 25.3998 30.2274ZM25.6022 30.6861C25.6016 30.7081 25.596 30.7297 25.5858 30.7492C25.5716 30.7756 25.5451 30.7807 25.5363 30.8122C25.5265 30.8497 25.5527 30.8847 25.5473 30.9191C25.5353 30.9191 25.5297 30.9058 25.5265 30.896C25.5198 30.8873 25.5142 30.8776 25.5101 30.8674C25.4959 30.8166 25.5309 30.7432 25.5155 30.6893C25.5133 30.6773 25.5035 30.664 25.5022 30.6577C25.5022 30.6303 25.5265 30.6092 25.5243 30.5742C25.5243 30.5534 25.5101 30.5446 25.4991 30.5279C25.488 30.5112 25.4783 30.5071 25.4783 30.4894C25.4783 30.4598 25.4969 30.4377 25.5035 30.4081C25.5127 30.3631 25.5057 30.3163 25.4836 30.276H25.489C25.5115 30.2986 25.5297 30.3251 25.5429 30.3542C25.558 30.3864 25.567 30.4211 25.5694 30.4566C25.5716 30.5017 25.5552 30.549 25.5605 30.5953C25.5659 30.6294 25.6003 30.6502 25.6025 30.6921M25.4858 30.0802C25.4783 30.0771 25.4934 30.0727 25.4934 30.0648C25.5142 30.0471 25.5429 30.0692 25.5495 30.0869C25.5577 30.1163 25.5541 30.1478 25.5396 30.1747C25.525 30.2016 25.5005 30.2217 25.4713 30.2309C25.4527 30.2331 25.4206 30.2278 25.4184 30.2111C25.4228 30.2044 25.4282 30.2088 25.4338 30.2079C25.4684 30.2029 25.5002 30.1862 25.524 30.1606C25.5372 30.1222 25.5199 30.0802 25.4858 30.0802ZM25.4723 30.0846C25.4723 30.0957 25.4635 30.1032 25.4647 30.1162C25.4669 30.1228 25.4745 30.1272 25.4745 30.1326C25.4745 30.1379 25.4449 30.1568 25.4326 30.1612C25.4171 30.1672 25.4004 30.1688 25.3841 30.166C25.3678 30.1631 25.3526 30.1558 25.3402 30.1449C25.3891 30.1386 25.4351 30.118 25.4723 30.0856M25.0782 29.9841C25.0782 29.9677 25.099 29.9743 25.1025 29.9633C25.1388 29.9677 25.095 29.9986 25.0782 29.9841ZM25.1145 30.0093C25.1388 30.0049 25.146 29.9806 25.1716 29.9819C25.187 30.0071 25.1517 30.0203 25.1429 30.037C25.1333 30.0446 25.1224 30.0501 25.1107 30.0533C25.099 30.0565 25.0868 30.0573 25.0748 30.0556C25.0521 30.0507 25.0302 30.0425 25.0098 30.0314C24.9579 30.0156 24.9021 30.0187 24.8522 30.0402C24.8171 30.0579 24.7851 30.0814 24.7577 30.1096C24.7656 30.0772 24.783 30.0479 24.8078 30.0255C24.8325 30.0032 24.8633 29.9887 24.8964 29.9841C24.9225 29.9832 24.9487 29.985 24.9745 29.9894C25.024 29.9948 25.0735 30.021 25.1132 30.0115M24.4235 28.9016C24.4257 28.8906 24.4421 28.8874 24.455 28.8852C24.4961 28.8725 24.5383 28.864 24.5811 28.86C24.5853 28.8653 24.5876 28.8718 24.5877 28.8786V28.8817C24.5604 28.8893 24.5324 28.8945 24.5042 28.8972C24.4785 28.9032 24.4524 28.9069 24.426 28.9082L24.4229 28.9016M24.316 28.9962C24.3139 28.9897 24.3105 28.9837 24.3062 28.9785C24.3293 28.9621 24.346 28.9344 24.3693 28.9255H24.3724C24.3739 28.9503 24.3772 28.975 24.3822 28.9993L24.3932 29.0564C24.3986 29.0816 24.4052 29.1421 24.4118 29.1676C24.4194 29.2061 24.4434 29.3041 24.4582 29.3413C24.4994 29.4512 24.5464 29.5589 24.5991 29.6638C24.5947 29.678 24.5814 29.6903 24.5849 29.7079C24.5884 29.7256 24.5991 29.7221 24.6048 29.7322C24.6004 29.7486 24.5915 29.7552 24.595 29.7707C24.5981 29.8022 24.6467 29.8113 24.6741 29.8135C24.683 29.8288 24.69 29.8451 24.6949 29.8621C24.6993 29.8741 24.7157 29.9018 24.7126 29.916C24.7094 29.9302 24.6883 29.9368 24.6811 29.9456C24.6626 29.9651 24.6461 29.9862 24.6316 30.0087C24.5908 30.0626 24.5568 30.1214 24.5304 30.1836C24.5268 30.1971 24.5208 30.2098 24.5127 30.2211C24.5483 29.8453 24.481 29.4668 24.3179 29.1263C24.3185 29.1158 24.3185 29.1053 24.3179 29.0948H24.3201V29.0463C24.3209 29.0292 24.3194 29.0122 24.3157 28.9955M24.4279 30.8131C24.4204 30.81 24.4279 30.7977 24.4279 30.7911C24.4333 30.7681 24.439 30.7394 24.4421 30.7142C24.4419 30.6998 24.4458 30.6858 24.4531 30.6735H24.4598C24.4517 30.7035 24.4462 30.734 24.4434 30.7649C24.4413 30.7816 24.4357 30.7978 24.427 30.8122M24.4698 30.7287L24.4721 30.7242H24.4765C24.508 30.8002 24.4862 30.8992 24.5272 30.9619C24.5583 31.0023 24.6032 31.0297 24.6533 31.0388C24.6754 31.0565 24.6609 31.0817 24.6631 31.1069C24.6631 31.1224 24.6773 31.1366 24.6795 31.1577C24.6802 31.1767 24.6776 31.1957 24.6719 31.2138C24.6621 31.2062 24.6609 31.1873 24.6555 31.1731C24.6456 31.154 24.6337 31.136 24.6202 31.1192C24.5887 31.0852 24.5354 31.0786 24.5036 31.0411C24.4655 30.9958 24.4433 30.9393 24.4405 30.8803C24.4405 30.8251 24.4702 30.7857 24.4702 30.7283M24.7926 31.2983C24.7873 31.3058 24.7958 31.3226 24.7873 31.3235C24.774 31.3191 24.7709 31.3036 24.7665 31.2939C24.7525 31.2579 24.7491 31.2186 24.7567 31.1807C24.7778 31.135 24.7833 31.0836 24.7722 31.0344C24.7611 31.011 24.7486 30.9882 24.7346 30.9663C24.7217 30.9495 24.7123 30.9302 24.7069 30.9096C24.7015 30.889 24.7002 30.8676 24.7031 30.8466C24.7127 30.8049 24.72 30.7629 24.7252 30.7205C24.723 30.6758 24.7267 30.6311 24.7362 30.5874C24.7441 30.5655 24.754 30.5444 24.7658 30.5244C24.7747 30.5212 24.7791 30.543 24.7822 30.554C24.7958 30.5946 24.7991 30.6379 24.792 30.6801C24.7838 30.7063 24.7733 30.7318 24.7605 30.7561C24.7476 30.8007 24.7445 30.8476 24.7517 30.8935C24.7568 30.9127 24.7634 30.9315 24.7715 30.9496C24.7949 30.9874 24.813 31.0281 24.8254 31.0707C24.83 31.0914 24.83 31.113 24.8254 31.1337C24.8223 31.1735 24.8002 31.204 24.8122 31.2513C24.8214 31.2736 24.8319 31.2953 24.8437 31.3163C24.8573 31.3438 24.8643 31.3741 24.8643 31.4048C24.8643 31.4355 24.8573 31.4659 24.8437 31.4934C24.8216 31.489 24.8141 31.4669 24.8008 31.4527C24.8141 31.4296 24.8203 31.4032 24.8187 31.3766C24.8171 31.35 24.8079 31.3244 24.792 31.303M25.1902 31.1854C25.1902 31.1779 25.1933 31.1668 25.1933 31.1567C25.1933 31.1391 25.1813 31.1214 25.1845 31.1006C25.1876 31.0798 25.2009 31.0644 25.2043 31.0423C25.2078 31.0203 25.1924 31.0061 25.1924 30.9818C25.1928 30.966 25.1943 30.9502 25.1968 30.9345C25.1968 30.9269 25.187 30.8674 25.176 30.8664C25.1649 30.8655 25.1539 30.9017 25.153 30.9194C25.1512 30.9318 25.1512 30.9444 25.153 30.9569C25.1552 30.9745 25.1693 30.9856 25.1738 31.0032C25.1826 31.0348 25.1605 31.0663 25.1605 31.0924C25.1605 31.1066 25.1693 31.1211 25.1693 31.1331C25.1693 31.1574 25.1539 31.1816 25.1552 31.2047C25.1564 31.2277 25.1772 31.2409 25.1826 31.2608C25.2024 31.3355 25.153 31.3869 25.1287 31.4357C25.1167 31.449 25.0972 31.4534 25.0779 31.4732C25.0587 31.4931 25.0571 31.5382 25.012 31.5152C25.0174 31.4966 25.0395 31.4944 25.0474 31.4777C25.0735 31.462 25.0936 31.438 25.1044 31.4096C25.1097 31.3561 25.1089 31.3021 25.1022 31.2488C25.1035 31.2244 25.1095 31.2006 25.1199 31.1785C25.1282 31.1554 25.1337 31.1314 25.1362 31.1069C25.1416 31.0552 25.112 31.0102 25.1176 30.9717C25.1221 30.9518 25.1419 30.9377 25.1441 30.9187C25.1427 30.9064 25.1382 30.8947 25.1309 30.8847C25.1123 30.8913 25.0845 30.8847 25.0678 30.8913C25.0635 30.9012 25.0616 30.9121 25.0625 30.9228C25.0647 30.9348 25.0757 30.9414 25.0789 30.9525C25.0851 30.9711 25.0899 30.9902 25.0931 31.0095C25.0993 31.0278 25.1037 31.0466 25.1063 31.0656C25.1085 31.1218 25.0688 31.1703 25.0748 31.233C25.0674 31.2266 25.062 31.2182 25.0593 31.2088C25.0552 31.1988 25.0534 31.188 25.054 31.1772C25.0562 31.1608 25.0716 31.1485 25.0726 31.1331C25.0735 31.1177 25.0682 31.1044 25.0726 31.089C25.0757 31.0682 25.0924 31.0515 25.0924 31.0338C25.0924 31.0162 25.0814 31.0095 25.076 30.9985C25.076 30.961 25.0552 30.9424 25.0574 30.9039C25.0552 30.8995 25.0508 30.8964 25.0508 30.8897C25.03 30.8787 25.0045 30.8866 24.9878 30.8743C24.9711 30.862 24.9745 30.8182 24.9603 30.8018C24.9736 30.7908 24.99 30.793 25.0076 30.7876C25.0213 30.7814 25.0353 30.7759 25.0496 30.7712C25.0637 30.769 25.0811 30.78 25.0959 30.78C25.1107 30.78 25.1202 30.769 25.1299 30.769C25.1397 30.769 25.1615 30.7845 25.1763 30.7854C25.1829 30.7876 25.1883 30.7854 25.1927 30.7854C25.2107 30.7899 25.2269 30.8 25.239 30.8141C25.2797 30.7999 25.2973 30.7611 25.3172 30.7249C25.3106 30.7766 25.2787 30.8097 25.2857 30.868C25.291 30.9175 25.3263 30.9493 25.3386 30.989L25.343 31.0332C25.3506 31.1069 25.3144 31.1432 25.2913 31.1971C25.2823 31.1912 25.2747 31.1832 25.2692 31.1739C25.2638 31.1645 25.2605 31.154 25.2598 31.1432C25.2598 31.1136 25.2913 31.0871 25.2951 31.0562C25.2979 31.0127 25.2892 30.9692 25.2699 30.9301C25.2665 30.9127 25.2614 30.8957 25.2545 30.8793C25.2489 30.8723 25.2438 30.8649 25.239 30.8573C25.2302 30.844 25.2337 30.8276 25.2182 30.821C25.2134 30.8233 25.2094 30.8269 25.2065 30.8313C25.2036 30.8358 25.202 30.8409 25.2018 30.8462C25.2018 30.8778 25.2415 30.9112 25.2513 30.9386C25.2557 30.9484 25.2589 30.9651 25.2645 30.9815C25.2747 31.0018 25.2786 31.0248 25.2756 31.0474C25.2702 31.076 25.2371 31.0969 25.2337 31.1277C25.2335 31.1496 25.2384 31.1711 25.2478 31.1908C25.2545 31.2028 25.2664 31.2129 25.2743 31.2248C25.282 31.2436 25.2875 31.2632 25.2907 31.2832C25.2973 31.3038 25.3025 31.3248 25.3062 31.3462C25.3065 31.3698 25.3043 31.3934 25.2995 31.4165C25.2948 31.4378 25.2845 31.4574 25.2699 31.4736C25.2598 31.4913 25.2443 31.5056 25.2258 31.5142C25.2094 31.5218 25.1917 31.5252 25.1697 31.5328C25.1599 31.535 25.1511 31.5404 25.141 31.5426C25.1233 31.547 25.1095 31.5316 25.0893 31.5328C25.0959 31.4767 25.1432 31.4698 25.1728 31.4382C25.1893 31.4185 25.2016 31.3957 25.2092 31.3711C25.2168 31.3465 25.2194 31.3207 25.2169 31.2951C25.2069 31.2605 25.1996 31.2252 25.1949 31.1895M25.6791 31.2964C25.6755 31.3065 25.6707 31.3161 25.6649 31.3251C25.6541 31.3528 25.6392 31.3787 25.6208 31.402C25.5778 31.4429 25.5306 31.4791 25.4798 31.5098C25.4651 31.5225 25.4511 31.5361 25.4379 31.5505C25.4249 31.5657 25.4092 31.5785 25.3916 31.588C25.3882 31.5909 25.384 31.5929 25.3796 31.5937C25.3751 31.5945 25.3706 31.594 25.3664 31.5924C25.3597 31.5782 25.3761 31.5769 25.385 31.5747C25.3916 31.5659 25.4058 31.5628 25.4092 31.5527C25.4124 31.5483 25.4114 31.5372 25.4159 31.5306C25.43 31.5019 25.4653 31.4855 25.4874 31.4559C25.4956 31.4413 25.5018 31.4257 25.506 31.4096C25.5082 31.402 25.506 31.391 25.5114 31.3843C25.5224 31.368 25.5429 31.3623 25.5542 31.3503C25.5641 31.3383 25.5732 31.3258 25.5817 31.3128C25.5906 31.2953 25.5972 31.2768 25.6015 31.2576C25.6126 31.1984 25.5861 31.152 25.5962 31.076C25.5741 31.1013 25.5842 31.1564 25.5842 31.198C25.5835 31.2207 25.5779 31.2429 25.5679 31.2632C25.5578 31.2835 25.5435 31.3014 25.5259 31.3156C25.5247 31.2975 25.5221 31.2795 25.5183 31.2617C25.5205 31.2387 25.5382 31.2242 25.5498 31.2078C25.5675 31.1763 25.553 31.134 25.5587 31.0978C25.5618 31.0792 25.5719 31.0638 25.575 31.047C25.5778 31.0288 25.5778 31.0102 25.575 30.9919C25.5696 30.9799 25.5656 30.9673 25.5631 30.9544C25.5631 30.9402 25.5773 30.9257 25.5773 30.9036C25.575 30.8882 25.5662 30.874 25.5653 30.8595C25.5638 30.8371 25.5701 30.8148 25.5829 30.7964C25.5873 30.792 25.5949 30.792 25.5993 30.7889C25.6037 30.7857 25.6104 30.7681 25.617 30.7703C25.6356 30.7791 25.6485 30.8428 25.6523 30.8693C25.6566 30.9081 25.6559 30.9473 25.6501 30.9859C25.6479 31.0124 25.6469 31.0429 25.6469 31.0672C25.6501 31.1224 25.6766 31.1618 25.6784 31.2091C25.6827 31.2372 25.682 31.266 25.6762 31.2939M22.4224 27.8881C22.4401 27.8789 22.4571 27.8684 22.4732 27.8566C22.4685 27.8662 22.4617 27.8745 22.4533 27.881C22.4449 27.8875 22.4351 27.892 22.4246 27.8941L22.4224 27.8888M22.384 28.123C22.3751 28.0832 22.3707 28.0328 22.3632 27.9969C22.3707 28.0199 22.3796 28.0476 22.3874 28.076C22.3954 28.1035 22.3987 28.1322 22.3972 28.1608C22.3889 28.15 22.3842 28.1366 22.384 28.123ZM22.3266 27.8988C22.3288 27.8891 22.3442 27.8847 22.3518 27.8812C22.355 27.8865 22.3442 27.8888 22.342 27.8932C22.3496 27.9206 22.3496 27.9562 22.3707 27.9723C22.361 27.9723 22.3565 27.9799 22.3477 27.9821C22.3477 27.9644 22.3212 27.9162 22.3269 27.8985M22.3159 27.815C22.2952 27.7754 22.272 27.7372 22.2465 27.7006C22.2571 27.6579 22.2641 27.6145 22.2673 27.5707C22.274 27.5707 22.2705 27.5805 22.2727 27.5883C22.2815 27.6199 22.3112 27.6608 22.2771 27.6741C22.2881 27.7292 22.3124 27.7765 22.3234 27.8317C22.3181 27.8295 22.319 27.8207 22.3159 27.8162M22.2844 27.9758C22.2572 27.9796 22.2295 27.9778 22.203 27.9704C22.1879 27.9626 22.1738 27.953 22.1611 27.9417C22.1383 27.8705 22.133 27.7948 22.1457 27.721C22.1516 27.7628 22.1546 27.805 22.1545 27.8471C22.155 27.8719 22.1595 27.8963 22.1677 27.9196C22.1755 27.9321 22.1859 27.9426 22.1983 27.9504C22.2107 27.9582 22.2247 27.9631 22.2393 27.9647C22.2541 27.9658 22.2689 27.9647 22.2834 27.9616C22.291 27.9616 22.3033 27.954 22.3086 27.9616C22.3086 27.9713 22.2932 27.9713 22.2844 27.9726M26.2588 31.6135C26.2468 31.6091 26.2323 31.6059 26.2191 31.6015C26.1916 31.5971 26.156 31.5971 26.1267 31.5949C26.0982 31.5943 26.0698 31.591 26.0419 31.5851C26.0123 31.5798 25.9836 31.5763 25.9562 31.5688C25.9331 31.5584 25.911 31.5458 25.8903 31.5312C25.8104 31.4897 25.7281 31.453 25.6438 31.4212C25.6636 31.3916 25.6835 31.3695 25.6989 31.343C25.7133 31.3006 25.7229 31.2568 25.7276 31.2122C25.733 31.1807 25.7409 31.1492 25.7431 31.1243C25.7472 31.0682 25.7457 31.0118 25.7387 30.9559C25.7232 30.7876 25.7409 30.6224 25.732 30.4673C25.7273 30.4008 25.7144 30.335 25.6936 30.2716C25.6728 30.2111 25.6583 30.1455 25.6362 30.09C25.6279 30.0695 25.6173 30.0499 25.6047 30.0317C25.5927 30.0184 25.5732 30.0074 25.565 29.992C25.5628 29.9853 25.565 29.98 25.5628 29.969C25.5552 29.9469 25.5287 29.9393 25.5111 29.9283C25.4991 29.9185 25.4912 29.9075 25.4795 29.8996C25.467 29.8917 25.4537 29.885 25.4398 29.8797C25.4291 29.8776 25.4186 29.8747 25.4083 29.8709C25.3973 29.8656 25.3928 29.8555 25.3862 29.8523C25.3509 29.8293 25.3159 29.8403 25.2708 29.8303C25.2633 29.8278 25.2559 29.8248 25.2488 29.8214C25.1905 29.8038 25.1091 29.8183 25.0464 29.7994C24.9761 29.7817 24.9203 29.7442 24.8626 29.7269C24.8658 29.6953 24.8406 29.6862 24.8229 29.6752C24.8251 29.6575 24.8371 29.6257 24.8153 29.6146H24.7901C24.7586 29.5056 24.7406 29.3956 24.7132 29.2912C24.699 29.2373 24.6747 29.1866 24.6659 29.1371C24.6596 29.1081 24.6552 29.0787 24.6527 29.0491C24.6505 29.0204 24.6416 28.9921 24.6385 28.9621C24.6319 28.917 24.6331 28.8764 24.6297 28.83C24.6439 28.8114 24.6782 28.7881 24.677 28.7553C24.6779 28.7498 24.6771 28.744 24.6747 28.7389C24.667 28.7184 24.6574 28.6985 24.6461 28.6797C24.6207 28.6107 24.6029 28.5391 24.5931 28.4663C24.5822 28.3935 24.5656 28.3218 24.5436 28.2516C24.5335 28.2311 24.5247 28.2101 24.5171 28.1885V28.1854C24.5083 28.139 24.4907 28.116 24.4478 28.1085C24.4418 28.0934 24.4336 28.0793 24.4235 28.0665C24.4138 28.0536 24.4056 28.0395 24.3992 28.0246C24.3961 27.9994 24.4036 27.9805 24.3961 27.9641C24.3929 27.9553 24.3819 27.9509 24.3784 27.9411C24.375 27.9313 24.3816 27.9225 24.3816 27.9137C24.3816 27.9048 24.3661 27.8995 24.363 27.8872C24.3682 27.8746 24.3695 27.8608 24.3668 27.8474C24.364 27.8341 24.3573 27.8219 24.3475 27.8125C24.3608 27.7917 24.3453 27.7683 24.3356 27.7541C24.351 27.7321 24.3324 27.7069 24.3223 27.6911C24.3268 27.68 24.3278 27.6678 24.325 27.6562C24.3222 27.6445 24.3159 27.634 24.3069 27.6262C24.3211 27.5946 24.3015 27.5691 24.298 27.5502C24.2975 27.5436 24.2975 27.5369 24.298 27.5303C24.2948 27.521 24.2903 27.5121 24.2848 27.5039C24.2846 27.4941 24.2828 27.4844 24.2794 27.4752L24.2659 27.4405C24.2643 27.386 24.2441 27.3336 24.2088 27.292C24.1811 27.2632 24.1475 27.2407 24.1103 27.2259C24.0731 27.2111 24.0332 27.2044 23.9932 27.2063H23.991C23.9148 27.2027 23.8396 27.2249 23.7776 27.2693C23.7378 27.2964 23.7087 27.3364 23.695 27.3825L23.6874 27.3967C23.6685 27.4292 23.6577 27.4659 23.6559 27.5035C23.6471 27.5288 23.6405 27.5543 23.6329 27.576C23.6298 27.588 23.6307 27.6013 23.6276 27.6145C23.6276 27.6199 23.6209 27.6277 23.62 27.6344C23.619 27.641 23.6231 27.6498 23.6231 27.6586C23.6023 27.6719 23.6067 27.7006 23.609 27.728C23.605 27.7316 23.6018 27.7359 23.5996 27.7407C23.5974 27.7455 23.5961 27.7507 23.5959 27.756C23.5957 27.7614 23.5965 27.7667 23.5984 27.7716C23.6003 27.7766 23.6031 27.7812 23.6067 27.785C23.5962 27.7961 23.5898 27.8104 23.5886 27.8256C23.5874 27.8408 23.5915 27.856 23.6001 27.8686C23.597 27.8828 23.5869 27.8872 23.5869 27.9001C23.5869 27.913 23.5967 27.92 23.5967 27.9297C23.5967 27.9395 23.5834 27.9483 23.5803 27.9594C23.5764 27.9751 23.5788 27.9917 23.5869 28.0057C23.5785 28.015 23.5725 28.0261 23.5692 28.0381C23.566 28.0502 23.5657 28.0628 23.5683 28.0751C23.5639 28.0839 23.5563 28.087 23.5528 28.0981C23.5494 28.1091 23.5528 28.1122 23.5506 28.1211C23.5453 28.1353 23.5264 28.1463 23.5166 28.1595C23.5076 28.1722 23.4995 28.1855 23.4923 28.1993C23.4665 28.2404 23.4471 28.2853 23.4349 28.3323C23.3965 28.4962 23.3624 28.6822 23.3183 28.8404C23.3125 28.8733 23.3019 28.9052 23.2868 28.935C23.201 28.9054 23.0976 28.8921 23.0053 28.8701C23.0009 28.8524 23.0031 28.8348 22.9911 28.8259C22.9734 28.8171 22.9526 28.8313 22.934 28.8357C22.9312 28.8299 22.9272 28.8247 22.9222 28.8206C22.9172 28.8165 22.9114 28.8135 22.9051 28.8118C22.8989 28.8101 22.8924 28.8098 22.886 28.8109C22.8796 28.812 22.8735 28.8144 22.8682 28.8181C22.857 28.8121 22.8465 28.8051 22.8366 28.7972C22.8267 28.7549 22.8031 28.717 22.7695 28.6894C22.754 28.6784 22.7342 28.6708 22.7156 28.6579C22.6878 28.6412 22.6587 28.6269 22.6286 28.615C22.61 28.6075 22.5655 28.5835 22.5592 28.5643C22.5566 28.5563 22.5544 28.5482 22.5526 28.54C22.5252 28.4322 22.4978 28.3298 22.4722 28.2197C22.4663 28.2034 22.4626 28.1863 22.4612 28.169C22.4612 28.1614 22.4688 28.158 22.471 28.1504C22.4699 28.1358 22.467 28.1214 22.4621 28.1075C22.4511 28.0634 22.4369 28.0227 22.4306 27.9789C22.4745 27.9721 22.5153 27.9526 22.5482 27.9228C22.5703 27.8947 22.5815 27.8595 22.5797 27.8238C22.57 27.705 22.4773 27.617 22.4707 27.4894C22.4684 27.4607 22.4773 27.4342 22.4653 27.4134C22.4511 27.4134 22.4432 27.4342 22.4388 27.4474C22.4073 27.5464 22.4618 27.6366 22.4773 27.7226C22.4819 27.7412 22.4818 27.7607 22.4772 27.7793C22.4726 27.7979 22.4635 27.8152 22.4508 27.8295C22.4376 27.8405 22.4123 27.861 22.3959 27.8547C22.3805 27.8114 22.376 27.765 22.3827 27.7195C22.3685 27.6987 22.3959 27.6766 22.3903 27.6514C22.3828 27.6398 22.3739 27.6292 22.3638 27.6199C22.3562 27.6079 22.3461 27.5968 22.3408 27.5883C22.308 27.5349 22.2786 27.4794 22.2528 27.4222C22.2453 27.4046 22.2409 27.3781 22.2188 27.3715C22.2055 27.3812 22.2134 27.3967 22.2144 27.4077C22.222 27.4494 22.2268 27.4915 22.2286 27.5338C22.2301 27.5759 22.2279 27.6181 22.2219 27.6599C22.2188 27.6709 22.2087 27.6842 22.2109 27.6974C22.2141 27.705 22.2251 27.7106 22.2295 27.716C22.2339 27.7214 22.2405 27.7368 22.2472 27.7475C22.2746 27.7853 22.2965 27.8268 22.3121 27.8708C22.3065 27.8732 22.302 27.8775 22.2992 27.8829C22.2964 27.8883 22.2955 27.8945 22.2966 27.9004C22.2308 27.9269 22.1933 27.8806 22.1866 27.8244C22.1822 27.775 22.1866 27.7188 22.18 27.6668C22.1722 27.6127 22.1505 27.5615 22.117 27.5184C22.1072 27.5073 22.0927 27.4887 22.0741 27.4963C22.0791 27.5113 22.0858 27.5257 22.094 27.5392C22.1153 27.6585 22.122 27.7801 22.1138 27.901C22.1137 27.9226 22.119 27.9438 22.1294 27.9627C22.1398 27.9815 22.1548 27.9974 22.1731 28.0089C22.2223 28.0276 22.2767 28.0276 22.326 28.0089C22.3419 28.0557 22.3547 28.1035 22.3644 28.152C22.3688 28.163 22.3688 28.174 22.372 28.1794C22.3751 28.1848 22.3862 28.1882 22.3896 28.1926C22.3969 28.2102 22.4014 28.2288 22.4029 28.2478C22.4344 28.372 22.47 28.5041 22.4975 28.6261C22.4952 28.6358 22.4864 28.6403 22.4833 28.6481C22.4778 28.6666 22.4763 28.6861 22.4789 28.7052C22.4789 28.7162 22.4757 28.7238 22.4766 28.7317C22.4776 28.7396 22.4886 28.7525 22.4921 28.7632C22.4975 28.7862 22.4921 28.8083 22.512 28.8215C22.5123 28.8449 22.5212 28.8674 22.5372 28.8846C22.5482 28.8965 22.5624 28.9 22.5687 28.9088C22.5772 28.929 22.5832 28.9502 22.5863 28.9719C22.5908 28.9939 22.5961 29.0182 22.6018 29.0368C22.6333 29.1654 22.6623 29.289 22.6964 29.4151C22.8042 29.8397 22.9088 30.2612 23.0088 30.6848C23.0325 30.7692 23.0519 30.8548 23.0671 30.9411C23.0479 30.9458 23.0291 30.9521 23.011 30.9597C22.9813 30.973 22.9526 30.9849 22.923 30.996C22.8761 31.0166 22.8309 31.0408 22.7878 31.0685C22.7792 31.072 22.7711 31.0765 22.7635 31.0817C22.6554 31.1693 22.5666 31.2784 22.5028 31.402C22.4918 31.4206 22.4785 31.4382 22.4713 31.4527C22.4659 31.465 22.4612 31.4775 22.4571 31.4903C22.4503 31.5004 22.4441 31.5109 22.4385 31.5218C22.4147 31.5735 22.3988 31.6284 22.3912 31.6848C22.3808 31.7538 22.3888 31.8243 22.4142 31.8893C22.3827 31.8871 22.3118 31.9004 22.3096 31.9313C22.3074 31.9489 22.3294 31.9666 22.3348 31.9776C22.3173 31.9843 22.2983 31.9858 22.2799 31.982C22.2379 31.975 22.1949 31.9773 22.1538 31.9886C22.1406 31.994 22.1242 32.0072 22.1252 32.0227C22.1283 32.0523 22.191 32.0589 22.2197 32.0589C22.2303 32.0581 22.2408 32.0566 22.2513 32.0545C22.2768 32.0519 22.3027 32.0545 22.3272 32.0621C22.3331 32.0647 22.3383 32.0684 22.3427 32.0731C22.3507 32.072 22.3589 32.072 22.3669 32.0731C22.3747 32.0742 22.3824 32.0756 22.39 32.0775C22.4164 32.0775 22.4483 32.0775 22.4713 32.0775C22.4645 32.086 22.4567 32.0937 22.4483 32.1005C22.4497 32.111 22.4504 32.1215 22.4505 32.1321C22.4573 32.1431 22.4666 32.1524 22.4775 32.1595C22.4884 32.1665 22.5007 32.171 22.5135 32.1727C22.5684 32.1882 22.616 32.1585 22.6711 32.1652C22.712 32.1776 22.7546 32.1831 22.7972 32.1816C22.7864 32.1927 22.7791 32.2068 22.7763 32.2221C22.7736 32.2373 22.7755 32.2531 22.7818 32.2673C22.7916 32.2793 22.8061 32.2783 22.8171 32.2881C22.859 32.2921 22.9012 32.2929 22.9432 32.2903C22.9719 32.2881 23.0245 32.2717 23.051 32.2903C23.0586 32.2957 23.0642 32.3133 23.0731 32.3244L23.0917 32.3398C23.0961 32.343 23.1014 32.3518 23.1071 32.3553C23.1248 32.3663 23.1787 32.3761 23.1884 32.395C23.1884 32.3981 23.184 32.4016 23.1884 32.4025C23.1841 32.4478 23.1921 32.4934 23.2114 32.5346C23.2234 32.5501 23.2411 32.5567 23.249 32.5743C23.2754 32.5876 23.2985 32.6084 23.3259 32.626C23.3435 32.6371 23.3643 32.6402 23.3842 32.6513C23.4022 32.6639 23.4185 32.6787 23.4327 32.6954L23.4349 32.6922H23.4381C23.4293 32.6954 23.4293 32.6768 23.4293 32.667C23.4323 32.6424 23.4378 32.6181 23.4457 32.5945C23.4552 32.5322 23.4486 32.4684 23.4265 32.4093C23.4045 32.3502 23.3676 32.2977 23.3196 32.2569C23.3091 32.2488 23.2998 32.2391 23.2921 32.2282C23.3243 32.2189 23.3548 32.2044 23.3823 32.1853C23.3943 32.2392 23.4053 32.2976 23.4176 32.3559C23.422 32.3735 23.4252 32.4 23.4384 32.4054C23.4472 32.4071 23.4563 32.4069 23.4651 32.4049C23.4738 32.4028 23.4821 32.3989 23.4892 32.3934C23.5034 32.3726 23.486 32.3351 23.4803 32.3121C23.4715 32.2701 23.4639 32.2383 23.4529 32.1954C23.4498 32.1812 23.4365 32.1481 23.4419 32.1362C23.4472 32.1176 23.5049 32.1154 23.5365 32.1176C23.5594 32.1211 23.5826 32.1233 23.6058 32.1242C23.6323 32.122 23.6543 32.1012 23.6871 32.1122C23.6991 32.122 23.7079 32.1374 23.7224 32.1409C23.7711 32.1541 23.8223 32.1541 23.8709 32.1409C23.8917 32.1355 23.9138 32.1299 23.9358 32.1232C23.9662 32.1197 23.9959 32.1115 24.0238 32.099C24.0446 32.0946 24.0897 32.0857 24.0919 32.0674C24.0919 32.0555 24.0764 32.0586 24.0821 32.0432C24.1 32.0358 24.1189 32.0313 24.1382 32.0299C24.1657 32.0299 24.1943 32.0388 24.2196 32.0388C24.235 32.0388 24.2536 32.0299 24.2668 32.0334C24.3005 32.0429 24.3353 32.0473 24.3702 32.0466C24.3876 32.0407 24.4054 32.0362 24.4235 32.0331C24.4468 32.0334 24.47 32.036 24.4929 32.0407C24.5244 32.0417 24.556 32.0407 24.5874 32.0375C24.6291 32.0343 24.67 32.0243 24.7085 32.0079C24.716 32.0047 24.7305 31.9915 24.7381 31.9902C24.7542 31.9911 24.7701 31.994 24.7854 31.999C24.804 31.999 24.8239 32.0022 24.8384 32.0022C24.8529 32.0022 24.8878 32 24.8891 31.988C24.8904 31.976 24.8737 31.9593 24.8661 31.9565C24.8094 31.9328 24.7469 31.9266 24.6867 31.9388C24.6747 31.9432 24.6552 31.9499 24.6461 31.9388C24.6483 31.9234 24.6669 31.9269 24.6776 31.9202C24.6883 31.9136 24.6908 31.907 24.6984 31.9004C24.7479 31.9088 24.7984 31.9096 24.8481 31.9026C24.8769 31.9191 24.9095 31.9278 24.9427 31.9278C24.9458 31.9354 24.9405 31.9442 24.9458 31.9499C24.9741 31.9674 25.0073 31.9751 25.0404 31.9719C25.135 31.9773 25.2396 31.9949 25.3307 32.0006C25.367 32.0321 25.4439 32.0236 25.4947 32.0413C25.4824 32.0471 25.4709 32.0545 25.4606 32.0633C25.3917 32.0485 25.32 32.0515 25.2526 32.0722C25.2467 32.0736 25.2414 32.0767 25.2373 32.081C25.2331 32.0854 25.2303 32.0908 25.2291 32.0967C25.228 32.1026 25.2285 32.1087 25.2307 32.1143C25.2329 32.1199 25.2367 32.1248 25.2415 32.1283C25.2741 32.1474 25.3117 32.1562 25.3493 32.1535C25.3896 32.1573 25.4301 32.1573 25.4704 32.1535C25.4879 32.1495 25.5044 32.142 25.5189 32.1314C25.5287 32.1261 25.53 32.1138 25.5322 32.1028C25.5706 32.1028 25.6806 32.1094 25.6851 32.0687C25.6851 32.0545 25.6753 32.0511 25.6731 32.0435C25.6929 32.0466 25.6974 32.0214 25.7137 32.0148H25.7412C25.7542 32.0117 25.7669 32.0072 25.779 32.0016C25.7954 31.9918 25.7989 31.9795 25.813 31.9653C25.8361 31.9696 25.8597 31.9688 25.8824 31.9631C25.9067 31.9543 25.9243 31.9278 25.9505 31.9212C25.9768 31.9188 26.0033 31.9213 26.0287 31.9287C26.0548 31.937 26.0817 31.9421 26.109 31.9442C26.1373 31.9478 26.166 31.9432 26.1916 31.931C26.2058 31.9256 26.2169 31.9111 26.2323 31.9057C26.2575 31.8982 26.2897 31.9004 26.3061 31.877C26.3092 31.8717 26.3061 31.8629 26.3092 31.8584C26.3335 31.8488 26.3534 31.8308 26.3653 31.8076C26.3773 31.7844 26.3804 31.7577 26.3742 31.7324C26.3706 31.7026 26.3574 31.6749 26.3366 31.6534C26.3157 31.632 26.2884 31.6179 26.2588 31.6135ZM24.8065 32.058C24.7923 32.0602 24.7769 32.07 24.7658 32.069C24.756 32.0658 24.7464 32.0618 24.7372 32.057C24.7164 32.0494 24.6944 32.0453 24.6722 32.0451C24.6448 32.0451 24.5622 32.057 24.6029 32.0901C24.6246 32.1012 24.6481 32.1087 24.6722 32.1122C24.6702 32.1144 24.6687 32.117 24.6678 32.1199C24.6669 32.1227 24.6665 32.1257 24.6668 32.1287C24.6671 32.1316 24.6681 32.1345 24.6695 32.1371C24.671 32.1397 24.673 32.142 24.6754 32.1437C24.7019 32.1645 24.7766 32.1623 24.8163 32.169C24.8514 32.1656 24.8868 32.1656 24.9219 32.169C24.9339 32.1712 24.9559 32.1822 24.9704 32.1844C24.9869 32.187 25.0038 32.1863 25.02 32.1824C25.0363 32.1784 25.0516 32.1713 25.065 32.1614C25.0814 32.1516 25.0965 32.1406 25.0871 32.1185C25.0462 32.0975 25.0009 32.0867 24.955 32.087C24.9373 32.0451 24.8547 32.0463 24.8075 32.0583M24.6183 31.5379C24.6338 31.5224 24.6602 31.5202 24.6766 31.5092C24.647 31.4777 24.5569 31.4827 24.5613 31.5432C24.5657 31.5675 24.6243 31.5747 24.6183 31.5379ZM25.0496 30.7952C25.0496 30.8041 25.0527 30.8128 25.0585 30.8197C25.0643 30.8265 25.0723 30.8311 25.0811 30.8327C25.0856 30.8331 25.0902 30.8325 25.0945 30.8309C25.0989 30.8293 25.1028 30.8268 25.106 30.8236C25.1092 30.8203 25.1117 30.8164 25.1133 30.8121C25.1149 30.8078 25.1155 30.8032 25.1151 30.7986C25.0943 30.791 25.0716 30.7899 25.0502 30.7955M24.9241 30.3302C24.9449 30.3214 24.9726 30.34 24.9506 30.3532C24.9479 30.3543 24.9449 30.3544 24.9421 30.3536C24.9393 30.3528 24.9369 30.3511 24.9351 30.3488C24.9383 30.374 24.9736 30.3718 24.989 30.3598C24.9934 30.3643 24.9979 30.3643 24.9966 30.3718C24.9651 30.3829 24.914 30.3721 24.9241 30.3302ZM24.9739 30.2993C24.9364 30.2785 24.8979 30.3047 24.8639 30.2971C24.8563 30.2949 24.8506 30.2861 24.8431 30.2861C24.8422 30.2924 24.8427 30.2988 24.8446 30.3049C24.8464 30.311 24.8495 30.3166 24.8537 30.3214C24.8578 30.3262 24.863 30.3301 24.8688 30.3328C24.8746 30.3354 24.8808 30.3368 24.8872 30.3368C24.9014 30.381 24.9465 30.3951 25.0092 30.3929C25.0158 30.3974 25.0124 30.404 25.0224 30.4062C25.0325 30.4084 25.0379 30.3951 25.0379 30.3863C25.0362 30.3722 25.0314 30.3586 25.0237 30.3466C25.0112 30.3271 24.9942 30.3109 24.9742 30.2993M25.2217 30.3586C25.2163 30.3586 25.2141 30.3652 25.2084 30.3617C25.2084 30.352 25.216 30.3564 25.2195 30.3507C25.2195 30.333 25.227 30.3192 25.2447 30.3192C25.2475 30.3213 25.2498 30.324 25.2513 30.3272C25.2529 30.3303 25.2537 30.3338 25.2537 30.3373C25.2537 30.3408 25.2529 30.3443 25.2513 30.3474C25.2498 30.3506 25.2475 30.3533 25.2447 30.3554C25.269 30.3608 25.2822 30.34 25.2844 30.3179C25.2932 30.3179 25.2942 30.3223 25.2999 30.3267C25.2975 30.3345 25.2935 30.3416 25.288 30.3476C25.2826 30.3536 25.2759 30.3583 25.2684 30.3613C25.2608 30.3644 25.2527 30.3657 25.2447 30.3651C25.2366 30.3646 25.2287 30.3626 25.2217 30.3586ZM25.3184 30.2902C25.2942 30.2933 25.269 30.2738 25.2447 30.2782C25.2245 30.2823 25.2065 30.2935 25.1939 30.3097C25.1793 30.3312 25.1708 30.3563 25.1697 30.3822C25.1697 30.3855 25.1706 30.3886 25.1723 30.3914C25.174 30.3941 25.1765 30.3963 25.1794 30.3977C25.1883 30.4021 25.187 30.3844 25.1936 30.3822C25.2293 30.3904 25.2667 30.3857 25.2992 30.369C25.3139 30.3542 25.3248 30.336 25.3307 30.316C25.3374 30.3028 25.3528 30.2886 25.3484 30.2697H25.344C25.3352 30.2763 25.3298 30.2883 25.3188 30.2895M25.1195 30.2842C25.1148 30.2813 25.1107 30.2774 25.1075 30.2728C25.1043 30.2683 25.1021 30.2631 25.1009 30.2577C25.0992 30.2667 25.0946 30.2748 25.0878 30.2809C25.081 30.287 25.0725 30.2908 25.0634 30.2918C25.0502 30.2962 25.0426 30.2851 25.0338 30.2851C25.0284 30.3214 25.0909 30.3116 25.1031 30.2927C25.1142 30.3059 25.1583 30.3214 25.1615 30.2883C25.1547 30.2914 25.1473 30.2927 25.1399 30.2919C25.1325 30.2911 25.1255 30.2887 25.1195 30.2842ZM24.0027 29.133C23.9907 29.1462 23.9828 29.1462 23.973 29.1298C23.9651 29.1215 23.959 29.1116 23.9552 29.1007C23.9514 29.0898 23.9499 29.0782 23.951 29.0668C23.9564 29.0425 23.971 29.0213 23.9916 29.0075L23.9948 29.0097C24.0043 29.0165 24.0122 29.0254 24.0179 29.0356C24.0235 29.0459 24.0269 29.0572 24.0276 29.0689C24.0283 29.0806 24.0264 29.0923 24.0221 29.1032C24.0177 29.114 24.011 29.1238 24.0024 29.1317M23.9847 29.0018C23.97 29.002 23.9556 29.0057 23.9427 29.0128C23.9298 29.0199 23.9189 29.0301 23.9109 29.0425C23.9056 29.053 23.9025 29.0644 23.902 29.0762C23.9014 29.0879 23.9034 29.0997 23.9078 29.1106C23.9162 29.1249 23.9279 29.137 23.9418 29.146C23.9558 29.155 23.9717 29.1605 23.9882 29.1623C24.0045 29.1613 24.0203 29.1565 24.0345 29.1483C24.0486 29.1401 24.0606 29.1287 24.0695 29.115C24.0758 29.1019 24.0784 29.0872 24.077 29.0727C24.0755 29.0582 24.0701 29.0444 24.0614 29.0327C24.0527 29.021 24.0409 29.012 24.0274 29.0066C24.0139 29.0011 23.9991 28.9995 23.9847 29.0018ZM23.9793 27.8809V27.8742C23.9828 27.8732 23.9865 27.8729 23.9901 27.8734C23.9937 27.874 23.9972 27.8753 24.0002 27.8774C24.0024 27.885 23.9825 27.8821 23.9793 27.8809ZM24.0651 27.8298C24.0597 27.8298 24.0563 27.8364 24.0519 27.8364C24.0474 27.8364 24.0355 27.8311 24.0266 27.8311C24.0175 27.831 24.0085 27.8328 24.0002 27.8364C23.9771 27.8188 23.956 27.844 23.9396 27.8408C23.9286 27.8408 23.9286 27.8333 23.9176 27.8333C23.9149 27.8365 23.9135 27.8406 23.9135 27.8448C23.9135 27.849 23.9149 27.853 23.9176 27.8563C23.9264 27.8607 23.9384 27.8563 23.9463 27.8585C23.9538 27.8705 23.9538 27.89 23.9705 27.8992C23.9885 27.9035 24.0074 27.9035 24.0254 27.8992C24.0319 27.8947 24.0373 27.8888 24.0411 27.8819C24.045 27.875 24.0471 27.8673 24.0474 27.8594C24.0574 27.8549 24.0681 27.8524 24.079 27.8519C24.0834 27.8377 24.0768 27.8289 24.0635 27.8298" fill="#1A1818"/>
<path fill-rule="evenodd" clip-rule="evenodd" d="M23.9935 7.91342L21.6214 25.7312L23.9967 24.4649L23.9935 7.91342Z" fill="#F36A10"/>
<path fill-rule="evenodd" clip-rule="evenodd" d="M18.9199 28.1792L9.76971 25.1902L19.4492 30.7669L18.9199 28.1792Z" fill="#F36A10"/>
<path fill-rule="evenodd" clip-rule="evenodd" d="M38.236 25.1809L27.1928 26.3759L29.0807 28.1693L38.236 25.1809Z" fill="#F36A10"/>
<path fill-rule="evenodd" clip-rule="evenodd" d="M27.1632 34.1145L32.9877 42.0028L28.2381 31.7786L27.1632 34.1145Z" fill="#F36A10"/>
<path fill-rule="evenodd" clip-rule="evenodd" d="M15.0003 42.0026L23.4696 34.497L20.8217 34.1096L15.0003 42.0026Z" fill="#F36A10"/>
<path fill-rule="evenodd" clip-rule="evenodd" d="M24.3223 34.3038L27.0144 33.9199L28.1114 31.5071L24.3223 34.3038Z" fill="#F36A10"/>
<path fill-rule="evenodd" clip-rule="evenodd" d="M19.881 31.5123L20.9591 33.9172L23.6635 34.3046L19.881 31.5123Z" fill="#F36A10"/>
<path fill-rule="evenodd" clip-rule="evenodd" d="M21.0827 26.4526L19.1598 28.257L19.6957 30.8712L21.0827 26.4526Z" fill="#F36A10"/>
<path fill-rule="evenodd" clip-rule="evenodd" d="M26.9037 26.4517L28.8267 28.2561L28.2908 30.8703L26.9037 26.4517Z" fill="#F36A10"/>
<path fill-rule="evenodd" clip-rule="evenodd" d="M26.3949 26.0459L23.9963 24.7466L21.5927 26.0459H26.3949Z" fill="#F36A10"/>
</svg>
