<svg width="48" height="48" viewBox="0 0 48 48" fill="none" xmlns="http://www.w3.org/2000/svg">
<path fill-rule="evenodd" clip-rule="evenodd" d="M7.15459 27.8497H8.42851C9.0205 27.8497 9.40553 27.524 9.40553 27.0209V26.9913C9.40553 26.4583 9.0504 26.1624 8.39888 26.1624H7.15537V27.85L7.15459 27.8497ZM9.34548 30.603L8.16125 28.8267H7.12495V30.603H6V25.1558H8.48675C9.16765 25.1558 9.70062 25.3333 10.0558 25.7184C10.3716 26.0541 10.5419 26.5011 10.5294 26.9619V26.9913C10.5455 27.356 10.4412 27.7159 10.2326 28.0155C10.0239 28.3151 9.72254 28.5378 9.37486 28.6492L9.31558 28.6788L10.6477 30.6328H9.34522L9.34548 30.603Z" fill="black"/>
<path fill-rule="evenodd" clip-rule="evenodd" d="M14.2007 26.1038C13.9701 26.1034 13.7418 26.1495 13.5294 26.2394C13.3171 26.3293 13.1251 26.4611 12.9649 26.6269C12.8047 26.7927 12.6796 26.9892 12.5971 27.2045C12.5146 27.4199 12.4764 27.6496 12.4848 27.88C12.4764 28.1105 12.5146 28.3402 12.5971 28.5556C12.6796 28.7709 12.8047 28.9673 12.9649 29.1332C13.1251 29.299 13.3171 29.4308 13.5294 29.5207C13.7418 29.6106 13.9701 29.6567 14.2007 29.6563C14.4299 29.6562 14.6566 29.6096 14.8672 29.5192C15.0778 29.4288 15.2678 29.2965 15.4257 29.1303C15.5835 28.9642 15.7059 28.7677 15.7854 28.5527C15.865 28.3378 15.8999 28.1089 15.8882 27.88C15.9025 27.6506 15.8693 27.4206 15.7906 27.2046C15.712 26.9885 15.5897 26.791 15.4314 26.6243C15.273 26.4576 15.082 26.3254 14.8703 26.2358C14.6585 26.1463 14.4306 26.1014 14.2007 26.1038ZM14.2007 30.6926C12.5428 30.6926 11.2993 29.4787 11.2993 27.9107V27.8811C11.3016 27.5048 11.3788 27.1328 11.5266 26.7867C11.6743 26.4406 11.8895 26.1275 12.1596 25.8655C12.4298 25.6036 12.7494 25.3981 13.0998 25.2611C13.4503 25.1241 13.8245 25.0583 14.2007 25.0675C14.5765 25.0538 14.9512 25.1166 15.3019 25.2523C15.6527 25.388 15.9721 25.5937 16.2408 25.8569C16.5095 26.12 16.7217 26.4351 16.8647 26.7829C17.0077 27.1307 17.0784 27.504 17.0725 27.88C17.0759 28.2554 17.0035 28.6275 16.8596 28.9742C16.7158 29.3209 16.5034 29.6349 16.2352 29.8976C15.9671 30.1602 15.6486 30.366 15.299 30.5026C14.9494 30.6392 14.5759 30.7038 14.2007 30.6926Z" fill="black"/>
<path fill-rule="evenodd" clip-rule="evenodd" d="M19.5294 27.4062H20.684C21.4538 27.4062 21.6017 27.0511 21.6017 26.7846V26.755C21.6017 26.3702 21.3056 26.1334 20.7729 26.1334H19.5294V27.4073V27.4062ZM19.5294 29.6265H21.0097C21.7499 29.6265 21.9275 29.2714 21.9275 28.9753V28.9456C21.9275 28.6495 21.7795 28.2944 20.9801 28.2944H19.5294V29.6265ZM18.4341 30.6038V25.1563H20.9504C21.4669 25.1294 21.9745 25.2986 22.3715 25.63C22.4909 25.7502 22.584 25.8938 22.6452 26.0517C22.7063 26.2097 22.734 26.3786 22.7267 26.5478V26.5774C22.7306 26.8176 22.6659 27.0539 22.54 27.2585C22.4141 27.463 22.2323 27.6273 22.0161 27.732L21.9272 27.7913L22.0161 27.8209C22.7267 28.0874 23.0228 28.4722 23.0228 29.1531C23.0228 30.1005 22.2826 30.6334 21.0097 30.6334H18.4341V30.6038Z" fill="black"/>
<path fill-rule="evenodd" clip-rule="evenodd" d="M24.6216 30.603V27.3761H28.7069V28.3531H25.7465V29.5964H28.7069V30.603H24.6216Z" fill="black"/>
<path fill-rule="evenodd" clip-rule="evenodd" d="M32.9988 30.6922C32.629 30.6992 32.2616 30.6309 31.919 30.4916C31.5763 30.3523 31.2655 30.1449 31.0054 29.8819C30.7453 29.619 30.5413 29.3059 30.4058 28.9617C30.2702 28.6176 30.206 28.2495 30.217 27.8797C30.2102 27.506 30.2793 27.1348 30.4201 26.7885C30.5609 26.4423 30.7705 26.1282 31.0362 25.8652C31.3019 25.6023 31.6181 25.396 31.9659 25.2589C32.3136 25.1217 32.6855 25.0565 33.0591 25.0672C33.4503 25.0472 33.8414 25.1078 34.2082 25.2453C34.5749 25.3828 34.9095 25.5944 35.191 25.8667L34.4807 26.6955C34.1007 26.3229 33.5918 26.111 33.0597 26.1035C32.1123 26.1035 31.4017 26.8733 31.4017 27.8797C31.4017 28.8864 32.1123 29.6559 33.0597 29.6559C33.3307 29.6539 33.5985 29.5979 33.8476 29.4912C34.0967 29.3845 34.322 29.2292 34.5104 29.0343L35.2209 29.7449C34.945 30.0589 34.6021 30.3071 34.2175 30.471C33.8329 30.635 33.4165 30.7106 32.9988 30.6922Z" fill="black"/>
<path fill-rule="evenodd" clip-rule="evenodd" d="M39.0688 26.1039C38.8396 26.1039 38.6129 26.1506 38.4023 26.241C38.1917 26.3314 38.0017 26.4637 37.8438 26.6299C37.686 26.796 37.5636 26.9925 37.484 27.2075C37.4045 27.4224 37.3695 27.6513 37.3813 27.8801C37.3754 28.1099 37.4153 28.3386 37.4987 28.5528C37.5821 28.767 37.7073 28.9625 37.867 29.1278C38.0267 29.2931 38.2177 29.425 38.4289 29.5157C38.6401 29.6065 38.8673 29.6543 39.0971 29.6564C39.3263 29.6563 39.5531 29.6097 39.7637 29.5193C39.9743 29.4289 40.1643 29.2966 40.3221 29.1304C40.48 28.9643 40.6024 28.7678 40.6819 28.5528C40.7614 28.3379 40.7964 28.109 40.7847 27.8801C40.7931 27.6497 40.7549 27.42 40.6724 27.2046C40.5899 26.9893 40.4648 26.7928 40.3046 26.627C40.1444 26.4612 39.9524 26.3294 39.74 26.2395C39.5277 26.1496 39.2994 26.1035 39.0688 26.1039ZM39.0688 30.6927C37.4109 30.6927 36.197 29.4788 36.197 27.9108V27.8812C36.1993 27.5049 36.2766 27.1329 36.4243 26.7868C36.572 26.4407 36.7873 26.1276 37.0574 25.8656C37.3275 25.6037 37.6471 25.3982 37.9976 25.2612C38.348 25.1242 38.7223 25.0584 39.0984 25.0676C40.7564 25.0676 41.9999 26.2815 41.9999 27.8801C41.9941 28.2579 41.9134 28.6307 41.7626 28.977C41.6117 29.3234 41.3937 29.6364 41.1211 29.8979C40.8486 30.1595 40.5268 30.3644 40.1746 30.5008C39.8223 30.6372 39.4464 30.7024 39.0688 30.6927Z" fill="black"/>
<path d="M28.7069 25.1558H24.6216V26.1624H28.7069V25.1558Z" fill="#009AB6"/>
<path fill-rule="evenodd" clip-rule="evenodd" d="M9.04256 22.6288C8.67503 22.6365 8.30973 22.5699 7.96864 22.4327C7.62755 22.2956 7.31774 22.0909 7.05784 21.8309C6.79795 21.5709 6.59335 21.261 6.45636 20.9199C6.31937 20.5788 6.25283 20.2134 6.26073 19.8459V19.8163C6.25393 19.4425 6.32302 19.0713 6.46383 18.725C6.60463 18.3788 6.81422 18.0647 7.07992 17.8018C7.34561 17.5388 7.66188 17.3326 8.0096 17.1954C8.35731 17.0582 8.72924 16.993 9.10288 17.0037C9.49406 16.9837 9.88518 17.0443 10.2519 17.1818C10.6187 17.3194 10.9532 17.5309 11.2348 17.8032L10.5245 18.632C10.1444 18.2595 9.63555 18.0475 9.1034 18.04C8.87728 18.0458 8.65457 18.0966 8.44828 18.1893C8.24199 18.2821 8.05625 18.4151 7.9019 18.5804C7.74756 18.7458 7.62771 18.9402 7.54934 19.1524C7.47098 19.3646 7.43567 19.5903 7.44548 19.8163V19.8459C7.44548 20.8526 8.15602 21.6221 9.1034 21.6221C9.37438 21.6201 9.64225 21.5641 9.89134 21.4573C10.1404 21.3506 10.3657 21.1953 10.5541 21.0005L11.2646 21.711C10.9786 22.0103 10.6332 22.2466 10.2506 22.4046C9.8679 22.5627 9.45644 22.639 9.04256 22.6288Z" fill="#009AB6"/>
<path fill-rule="evenodd" clip-rule="evenodd" d="M13.9284 20.2895H15.5271L14.7279 18.3355L13.9284 20.2895ZM16.4152 22.5098L15.9118 21.2665H13.514L13.0107 22.51H11.8561L14.1959 17.033H15.2619L17.6017 22.5098H16.4152Z" fill="#009AB6"/>
<path fill-rule="evenodd" clip-rule="evenodd" d="M22.4249 22.5101L19.6717 18.9278V22.5101H18.5468V17.0923H19.6127L22.277 20.5561V17.0923H23.3723V22.5101H22.4249Z" fill="#009AB6"/>
<path fill-rule="evenodd" clip-rule="evenodd" d="M26.3922 20.2895H27.9908L27.1916 18.3355L26.3922 20.2895ZM28.9085 22.5098L28.4052 21.2665H26.0074L25.504 22.51H24.3495L26.6893 17.033H27.7553L30.0951 22.5098H28.9085Z" fill="#009AB6"/>
<path fill-rule="evenodd" clip-rule="evenodd" d="M31.8396 19.7576H33.1135C33.7055 19.7576 34.0906 19.4319 34.0906 18.9288C34.0906 18.3958 33.7354 18.1 33.1135 18.1H31.8693V19.7579L31.8396 19.7576ZM34.0599 22.5109L32.8756 20.7347H31.8396V22.5109H30.7147V17.0931H33.2014C33.4852 17.0733 33.7701 17.1103 34.0395 17.2018C34.3089 17.2933 34.5574 17.4375 34.7704 17.626C35.0863 17.9617 35.2566 18.4088 35.2441 18.8695V18.8992C35.2602 19.2639 35.1559 19.6238 34.9472 19.9234C34.7386 20.223 34.4372 20.4457 34.0895 20.5571L34.0302 20.5867L35.3624 22.5408H34.0599V22.5109Z" fill="#009AB6"/>
<path fill-rule="evenodd" clip-rule="evenodd" d="M38.027 20.2895H39.6256L38.8264 18.3355L38.027 20.2895ZM40.5433 22.5098L40.04 21.2665H37.6419L37.1386 22.51H35.9843L38.3241 17.033H39.39L41.7299 22.5098H40.5433Z" fill="#009AB6"/>
</svg>
