<?xml version="1.0" encoding="UTF-8"?>
<svg width="36px" height="37px" viewBox="0 0 36 37" version="1.1" xmlns="http://www.w3.org/2000/svg" xmlns:xlink="http://www.w3.org/1999/xlink">
    <title>FCFEA8C7-6904-473F-A4E4-F8EE65EBEBAB</title>
    <g id="Dropdown" stroke="none" stroke-width="1" fill="none" fill-rule="evenodd">
        <g id="Set5_Our-Schemes-Dropdown" transform="translate(-920.000000, -254.000000)" fill="#97144D">
            <g id="Dropdown" transform="translate(0.000000, 107.000000)">
                <g id="Group-3" transform="translate(920.000000, 147.000000)">
                    <g id="noun_Scale_1143318" transform="translate(0.000000, 7.436047)" fill-rule="nonzero">
                        <path d="M35.1446557,15.565377 C35.1457897,15.5370492 35.1474098,15.5106885 35.143082,15.4823607 C35.1336393,15.4064262 35.1080656,15.3340328 35.0687213,15.264 C35.0620328,15.250623 35.0628197,15.2352787 35.0557377,15.223082 C35.053377,15.2203279 35.0498361,15.219541 35.0482623,15.2163934 C35.0451148,15.2128525 35.0451148,15.2077377 35.0423607,15.2041967 L28.7358689,6.24944262 C28.7256393,6.23488525 28.7095082,6.22740984 28.6977049,6.21363934 C28.6740984,6.18570492 28.6497049,6.16091803 28.6217705,6.13691803 C28.608,6.12511475 28.5997377,6.10898361 28.5851803,6.09796721 C28.5792787,6.09442623 28.5737705,6.09442623 28.5686557,6.0904918 C28.549377,6.07829508 28.528918,6.07081967 28.5088525,6.06059016 C28.477377,6.04445902 28.4459016,6.03265574 28.4116721,6.02163934 C28.3896393,6.01495082 28.3687869,6.0027541 28.3459672,5.99842623 C28.3223607,5.99409836 28.299541,5.99606557 28.2759344,5.99488525 C28.2582295,5.99331148 28.2436721,5.98465574 28.2263607,5.98465574 L20.605377,5.98465574 C20.3618361,4.848 19.4651803,3.95134426 18.3277377,3.70740984 L18.3277377,0.824262295 C18.3277377,0.480393443 18.0487869,0.201442623 17.7041311,0.201442623 C17.3610492,0.201442623 17.0813115,0.48 17.0813115,0.824262295 L17.0813115,3.70740984 C15.9438689,3.95134426 15.048,4.84681967 14.8032787,5.98465574 L7.18347541,5.98465574 C7.16459016,5.98465574 7.1492459,5.99331148 7.13154098,5.99488525 C7.1095082,5.99685246 7.08786885,5.99409836 7.06662295,5.99763934 C7.04183607,6.0027541 7.01980328,6.01416393 6.99659016,6.02242623 C6.96236066,6.03344262 6.93088525,6.0452459 6.89862295,6.06177049 C6.8797377,6.07121311 6.86006557,6.07790164 6.84157377,6.09009836 C6.83567213,6.09363934 6.82977049,6.09363934 6.82386885,6.09757377 C6.80852459,6.10859016 6.80144262,6.12472131 6.78727869,6.13731148 C6.75895082,6.16052459 6.73495082,6.18531148 6.71134426,6.2132459 C6.69954098,6.22701639 6.68380328,6.2344918 6.67318033,6.24904918 L0.36747541,15.2045902 C0.364721311,15.2081311 0.364721311,15.2128525 0.36157377,15.216 C0.36,15.2191475 0.355672131,15.2207213 0.354098361,15.2234754 C0.344655738,15.2372459 0.345836066,15.2549508 0.337967213,15.2695082 C0.301377049,15.3375738 0.275803279,15.4076066 0.266360656,15.4811803 C0.262032787,15.511082 0.264393443,15.5382295 0.264393443,15.5681311 C0.265180328,15.6354098 0.276196721,15.6987541 0.297836066,15.7620984 C0.303737705,15.7798033 0.299409836,15.7986885 0.307278689,15.8163934 C0.318295082,15.8419672 0.335213115,15.8647869 0.347016393,15.8903607 C0.347016393,15.8911475 0.347409836,15.8927213 0.348196721,15.8942951 C1.57416393,18.5661639 4.24406557,20.290623 7.18268852,20.290623 C10.1205246,20.290623 12.7892459,18.5669508 14.0156066,15.8970492 C14.0183607,15.8927213 14.0199344,15.8876066 14.023082,15.8832787 C14.0333115,15.8596721 14.0478689,15.8403934 14.0580984,15.8167869 C14.0655738,15.8014426 14.0608525,15.7841311 14.0667541,15.768 C14.0899672,15.7007213 14.1017705,15.6342295 14.1017705,15.5634098 C14.1017705,15.5362623 14.1033443,15.5114754 14.1005902,15.4847213 C14.0903607,15.4056393 14.064,15.3304918 14.023082,15.2577049 C14.0171803,15.2474754 14.0179672,15.2340984 14.0112787,15.2238689 C14.0097049,15.2215082 14.0069508,15.2211148 14.005377,15.2187541 C14.0022295,15.2140328 14.0022295,15.2093115 13.9994754,15.2049836 L8.38386885,7.23108197 L14.8032787,7.23108197 C15.048,8.36852459 15.9438689,9.26439344 17.0813115,9.50832787 L17.0813115,24.6413115 L10.3361311,24.6413115 C9.9922623,24.6413115 9.71331148,24.9202623 9.71331148,25.2641311 L9.71331148,27.5024262 C9.71331148,27.8462951 9.9922623,28.1252459 10.3361311,28.1252459 L25.0733115,28.1252459 C25.4171803,28.1252459 25.6961311,27.8462951 25.6961311,27.5024262 L25.6961311,25.2641311 C25.6961311,24.9202623 25.4171803,24.6413115 25.0733115,24.6413115 L18.3277377,24.6413115 L18.3277377,9.50832787 C19.4651803,9.26439344 20.3618361,8.36813115 20.605377,7.23108197 L27.0259672,7.23108197 L21.4099672,15.2045902 C21.4072131,15.2081311 21.4072131,15.2132459 21.4040656,15.2175738 C21.4024918,15.2199344 21.3989508,15.2211148 21.397377,15.2234754 C21.3891148,15.2352787 21.3906885,15.2502295 21.3836066,15.2624262 C21.3438689,15.3332459 21.3186885,15.4068197 21.3092459,15.483541 C21.3057049,15.511082 21.3076721,15.5366557 21.3076721,15.5649836 C21.3076721,15.634623 21.3186885,15.699541 21.3415082,15.764459 C21.3474098,15.7821639 21.343082,15.7994754 21.3501639,15.8163934 C21.3615738,15.8407869 21.3761311,15.8624262 21.3879344,15.8868197 C21.3895082,15.8895738 21.391082,15.8927213 21.3926557,15.895082 C22.6182295,18.5665574 25.2873443,20.2902295 28.2263607,20.2902295 C31.1649836,20.2902295 33.8340984,18.5665574 35.0596721,15.895082 C35.0612459,15.8923279 35.0628197,15.8891803 35.0643934,15.8868197 C35.0758033,15.8624262 35.0911475,15.8407869 35.1021639,15.8163934 C35.1096393,15.7994754 35.1053115,15.781377 35.1108197,15.764459 C35.1336393,15.6991475 35.1446557,15.6342295 35.1446557,15.565377 Z M24.4497049,26.8796066 L10.9597377,26.8796066 L10.9597377,25.8869508 L24.4497049,25.8869508 L24.4497049,26.8796066 Z M33.332459,14.9401967 L23.1202623,14.9401967 L28.2267541,7.69022951 L33.332459,14.9401967 Z M7.18347541,7.69022951 L12.2899672,14.9401967 L2.07737705,14.9401967 L7.18347541,7.69022951 Z M7.18268852,19.0445902 C5.04157377,19.0445902 3.06845902,17.9488525 1.92157377,16.1854426 L12.4438033,16.1854426 C11.296918,17.9488525 9.32419672,19.0445902 7.18268852,19.0445902 Z M17.7041311,8.33114754 C16.7543607,8.33114754 15.9820328,7.55803279 15.9820328,6.6082623 C15.9820328,5.6584918 16.7543607,4.88537705 17.7041311,4.88537705 C18.6546885,4.88537705 19.4274098,5.6584918 19.4274098,6.6082623 C19.4274098,7.55803279 18.6546885,8.33114754 17.7041311,8.33114754 Z M28.2263607,19.0445902 C26.0848525,19.0445902 24.1113443,17.9488525 22.9652459,16.1854426 L33.487082,16.1854426 C32.3409836,17.9488525 30.3678689,19.0445902 28.2263607,19.0445902 Z" id="Shape"></path>
                    </g>
                    <path d="M16.1704835,5.24170871e-16 L16.1704835,0.826229508 L17.017691,0.834491803 C17.7896868,0.842754098 18.181237,1.20067672 18.3215886,1.65427672 L16.1704918,1.65427672 L16.1704918,2.48050623 L18.3215886,2.48050623 C18.1804025,2.93311475 17.787993,3.29863869 17.017691,3.29863869 L16.7272218,3.29863869 L16.717307,3.29863869 L16.1702522,3.29863869 L16.1702522,3.85857443 L16.1702522,3.90980066 L16.1706488,4.13114754 L16.3901119,4.13114754 L18.9345683,6.61124066 L19.5122845,6.02056918 L17.5209474,4.0744682 C18.4256026,3.89088 19.0070121,3.22014689 19.1669453,2.48009311 L20.3016393,2.48009311 L20.3016393,1.65386361 L19.1669453,1.65386361 C19.1029951,1.35691672 18.965304,1.0753377 18.7715862,0.827634098 L20.3016393,0.827634098 L20.3016393,0.00140459016 C18.9297596,0.00107409836 16.1704835,0.00140459016 16.1704835,0.00140459016 L16.1704835,5.24170871e-16 Z" id="Path"></path>
                </g>
            </g>
        </g>
    </g>
</svg>