<?xml version="1.0" encoding="UTF-8"?>
<svg width="38px" height="33px" viewBox="0 0 38 33" version="1.1" xmlns="http://www.w3.org/2000/svg" xmlns:xlink="http://www.w3.org/1999/xlink">
    <title>EED0CC7D-8B64-48FE-B9B9-41133EA52BFF</title>
    <g id="Custom-Goal" stroke="none" stroke-width="1" fill="none" fill-rule="evenodd">
        <g id="12.2-custom-goal" transform="translate(-931, -317)" fill="#97144d" fill-rule="nonzero" stroke="#FFFFFF" stroke-width="0.3">
            <g id="Group-18" transform="translate(613.9043, 158)">
                <g id="Group-17" transform="translate(0, 0)">
                    <g id="Retierment" transform="translate(300, 139.2326)">
                        <path d="M43.4097641,42.7784224 L38.0756374,45.858039 C37.9934897,44.997635 37.2721725,44.3398038 36.4078602,44.3370497 L30.6178967,44.3370497 C30.5063439,44.2424481 30.3862199,44.1584453 30.2590821,44.0861303 L27.6967775,42.617834 C27.3471604,42.4180461 26.9510737,42.3139039 26.5484034,42.3158664 L22.716447,42.3397318 C22.5845429,42.3403835 22.4583899,42.3938161 22.3661455,42.4881034 C22.2739011,42.5823907 22.2232442,42.7096837 22.2254104,42.8415705 L22.3007573,49.8786031 C22.303973,50.1515124 22.5275909,50.370265 22.800505,50.3674775 L24.8358789,50.3448948 C24.9486285,50.343964 25.0610422,50.3573132 25.170438,50.3846237 L33.1647279,52.4204159 C33.2046079,52.4307513 33.2456445,52.4358898 33.286842,52.4358898 C33.3735724,52.4357399 33.4587632,52.4129647 33.5339975,52.3698138 L45.0934328,45.6953596 C45.6215415,45.3981144 45.9492219,44.8400464 45.9514887,44.2340361 C45.953732,43.6280258 45.6302141,43.0675346 45.1043322,42.7663672 C44.5784503,42.4651999 43.931308,42.4698037 43.4097641,42.7784224 L43.4097641,42.7784224 Z M44.5995399,44.8393065 L33.2136572,51.413393 L25.4146662,49.4231845 C25.2221034,49.3744128 25.0240585,49.3506587 24.825424,49.3525089 L23.2839429,49.3700732 L23.2191221,43.3233356 L26.5542581,43.3028438 C26.7827116,43.3000177 27.0076844,43.3589701 27.2053938,43.473469 L28.7401837,44.3541958 C28.5060308,44.3926507 28.3335544,44.5940792 28.3316034,44.8313607 C28.3316034,45.1041302 28.5527268,45.3252536 28.8254963,45.3252536 L36.4078602,45.3252536 C36.7125422,45.3250139 36.9819059,45.5231221 37.0724517,45.814039 C37.1629976,46.1049558 37.0536409,46.4209381 36.80264,46.5936508 L36.7967852,46.5969964 C36.6695781,46.6713139 36.5258358,46.7127117 36.3785863,46.7174377 L28.8254963,46.7174377 C28.5582072,46.7252147 28.3455615,46.9441375 28.3455615,47.2115397 C28.3455615,47.4789418 28.5582072,47.6978647 28.8254963,47.7056417 L30.2682824,47.7056417 L36.2221799,47.712751 C36.2966193,47.712751 36.3698041,47.7098236 36.4078602,47.7056417 C36.5101884,47.7045547 36.6122154,47.694338 36.7127272,47.6751131 C36.7407465,47.6696766 36.7675113,47.6629854 36.796367,47.6567124 C36.8735137,47.6386017 36.9492625,47.6149826 37.0230308,47.5860368 C37.0431043,47.578091 37.0648507,47.5713998 37.0836696,47.5626176 C37.1712399,47.5258064 37.2552343,47.4810094 37.3345889,47.428794 L37.3722268,47.4074659 L43.9040752,43.6340573 C44.1195266,43.5072632 44.3864343,43.50578 44.6032816,43.6301718 C44.8201288,43.7545637 44.9535894,43.9857135 44.9529049,44.2357047 C44.9522151,44.4856959 44.8174859,44.7161086 44.5999581,44.8393065 L44.5995399,44.8393065 Z M20.7831136,42.338059 L18.744394,42.338059 C18.3333324,42.3389804 18.0004598,42.672227 18,43.0832894 L18,49.6189015 C18.0004604,50.0298959 18.3334,50.3630225 18.744394,50.3637138 L20.7831136,50.3637138 C21.1941076,50.3630225 21.5270471,50.0298959 21.5275076,49.6189015 L21.5275076,43.0832894 C21.5270478,42.672227 21.1941752,42.3389804 20.7831136,42.338059 L20.7831136,42.338059 Z M20.5388854,49.3755098 L18.9886222,49.3755098 L18.9886222,43.3287722 L20.5388854,43.3287722 L20.5388854,49.3755098 Z M53.1165784,33.348874 L53.9508852,31.5874203 C54.0232233,31.4343371 54.0121777,31.2548806 53.921612,31.1118242 C53.8310464,30.9687678 53.6735628,30.8820177 53.5042488,30.8819188 L48.1567396,30.8819188 C47.9802753,30.8817558 47.8171543,30.9758334 47.7289222,31.1286561 L46.6779884,32.9440575 L44.6062311,32.9440575 C44.3365792,27.8418196 40.2456254,23.7734617 35.1419722,23.5320734 C34.4592416,21.5570321 32.6694064,20.1755749 30.5858323,20.0154859 C28.5022583,19.8553969 26.5223919,20.9472135 25.5459561,22.7947746 C24.5695202,24.6423358 24.7827723,26.8932152 26.0888028,28.5245317 C24.0552837,32.0878769 24.4260112,36.5355333 27.0214039,39.7130427 C29.6167966,42.8905522 33.9009037,44.1417564 37.798491,42.8605684 C41.6960783,41.5793804 44.4022908,38.0303665 44.6062311,33.9326797 L46.685516,33.9326797 L47.734777,35.6544045 C47.8244067,35.8016722 47.984341,35.8915461 48.1567396,35.8915232 L53.5059215,35.8915232 C53.6738542,35.8914438 53.8302603,35.80611 53.9212164,35.6649421 C54.0121725,35.5237742 54.0252362,35.3460833 53.9559035,35.1931311 L53.1165784,33.348874 Z M43.6038084,32.9440575 L41.353062,32.9440575 C41.1054223,29.6552306 38.4939742,27.0396965 35.2055384,26.7869153 C35.4319142,26.0620291 35.4922314,25.2954863 35.3820184,24.5441147 C39.8362499,24.8975484 43.3466919,28.4833264 43.6054812,32.9440575 L43.6038084,32.9440575 Z M38.0936199,32.9440575 C37.8344535,31.1615715 36.2425992,29.8818917 34.4460626,30.0118133 C32.649526,30.1417349 31.2583598,31.6371403 31.2583598,33.4383686 C31.2583598,35.2395969 32.649526,36.7350023 34.4460626,36.8649239 C36.2425992,36.9948455 37.8344535,35.7151656 38.0936199,33.9326797 L40.3623489,33.9326797 C40.161257,36.2722852 38.5429831,38.2477729 36.2887412,38.9054855 C34.0344994,39.563198 31.607802,38.7678979 30.1801259,36.9035125 C28.7524497,35.0391271 28.6173505,32.4890074 29.8400468,30.4842117 C29.9546333,30.4917392 30.0688016,30.501776 30.185479,30.501776 C32.1107317,30.50054 33.8811579,29.4465314 34.7998855,27.7546276 C37.7073572,27.8095655 40.1058371,30.0473652 40.3619307,32.9440575 L38.0936199,32.9440575 Z M34.6982632,33.9326797 L37.0945428,33.9326797 C36.8409757,35.1619792 35.6983635,36.0000473 34.4496713,35.8726052 C33.2009791,35.745163 32.2512291,34.6935473 32.2512291,33.4383686 C32.2512291,32.1831898 33.2009791,31.1315742 34.4496713,31.004132 C35.6983635,30.8766898 36.8409757,31.7147579 37.0945428,32.9440575 L34.6982632,32.9440575 C34.4252627,32.9440575 34.2039522,33.1653681 34.2039522,33.4383686 C34.2039522,33.711369 34.4252627,33.9326796 34.6982632,33.9326797 L34.6982632,33.9326797 Z M30.1871518,20.991097 C31.9107842,20.9909279 33.4647906,22.0290888 34.1245133,23.6214688 C34.784236,25.2138489 34.419748,27.0468416 33.2010157,28.2656936 C31.9822834,29.4845455 30.1493264,29.8492134 28.5568816,29.1896469 C26.9644368,28.5300805 25.9261234,26.976176 25.9261234,25.2525436 C25.9284283,22.9001303 27.8347387,20.9936328 30.1871518,20.991097 L30.1871518,20.991097 Z M34.699936,42.3690057 C31.5683954,42.368023 28.6660202,40.7273394 27.0503522,38.0447726 C25.4346843,35.3622058 25.341661,32.0294935 26.8051775,29.2609799 C27.3872834,29.7521145 28.0694471,30.1104646 28.8041681,30.3110773 C27.5301743,32.7103922 27.8377814,35.6425139 29.5819783,37.7251923 C31.3261752,39.8078707 34.1587838,40.6253596 36.7444661,39.7922815 C39.3301485,38.9592033 41.1527482,36.6418579 41.353062,33.9326797 L43.6063176,33.9326797 C43.3425401,38.6607887 39.4353917,42.361728 34.699936,42.3690057 Z M48.4340055,34.9033193 L47.8426723,33.9326797 L49.4025541,33.9326797 C49.6755546,33.9326797 49.8968652,33.711369 49.8968652,33.4383686 C49.8968652,33.1653681 49.6755546,32.9440575 49.4025541,32.9440575 L47.8196713,32.9440575 L48.4415331,31.8701228 L52.7251442,31.8701228 L52.1267016,33.1330834 C52.0640729,33.2652237 52.0630015,33.4182782 52.1237742,33.5512823 L52.7385266,34.9054103 L48.4340055,34.9033193 Z M27.8586205,27.9942555 C27.820893,28.1827663 27.895886,28.3760516 28.0508823,28.4897873 C28.2058786,28.603523 28.4127589,28.6170753 28.5812681,28.5245317 L30.2055526,27.6199675 L31.7892718,28.5245317 C31.9572404,28.620003 32.1654366,28.6088628 32.3222583,28.4960123 C32.4790799,28.3831619 32.5557795,28.1892883 32.5186106,27.9996921 L32.1606324,26.1750904 L33.5080692,24.9476767 C33.6509966,24.8176001 33.7049262,24.6161116 33.646085,24.4320305 C33.5872439,24.2479494 33.4264434,24.1150989 33.2345671,24.0920417 L31.3890554,23.8687235 L30.6362974,22.2080558 C30.5570542,22.0311275 30.3818468,21.9167197 30.1879882,21.9153166 L30.1879882,21.9153166 C29.9955264,21.9153873 29.8206042,22.0271612 29.739679,22.2017828 L28.9576471,23.8879607 L27.1464278,24.0895325 C26.9542401,24.1106405 26.792042,24.2419496 26.7313876,24.4255326 C26.6707333,24.6091155 26.7227778,24.8112088 26.8645617,24.9426583 L28.2262173,26.2077099 L27.8586205,27.9942555 Z M29.3444811,24.8406177 C29.5161666,24.8216221 29.6654227,24.7142401 29.7380062,24.5574971 L30.1833881,23.5956397 L30.6053507,24.5286414 C30.6764581,24.6859663 30.824556,24.7947406 30.9959485,24.8155258 L32.0473005,24.9409855 L31.2916151,25.6293408 C31.1640435,25.7455899 31.1063428,25.9199601 31.1393907,26.0893596 L31.3434718,27.129002 L30.4547991,26.6229814 C30.3047603,26.5375554 30.1210219,26.5366042 29.9701066,26.6204722 L29.0450507,27.1356932 L29.2516409,26.1341069 C29.2859078,25.9655219 29.2299832,25.7912527 29.1040167,25.6740881 L28.3261668,24.9539496 L29.3444811,24.8406177 Z" id="custom-goal"></path>
                    </g>
                </g>
            </g>
        </g>
    </g>
</svg>