<?xml version="1.0" encoding="UTF-8"?>
<svg width="33px" height="36px" viewBox="0 0 33 36" version="1.1" xmlns="http://www.w3.org/2000/svg" xmlns:xlink="http://www.w3.org/1999/xlink">
    <!-- Generator: sketchtool 57.1 (101010) - https://sketch.com -->
    <title>32B185D2-8EF0-465D-ADD2-308A07ABD792@2x</title>
    <desc>Created with sketchtool.</desc>
    <g id="Dropdown" stroke="none" stroke-width="1" fill="none" fill-rule="evenodd">
        <g id="Set5Dropdown_Easy-Services_drop_down" transform="translate(-519.000000, -401.000000)" fill="#97144D" fill-rule="nonzero">
            <g id="Start-SIP-Copy-2" transform="translate(519.000000, 401.000000)">
                <g id="noun_digital_3194287">
                    <g id="Group">
                        <path d="M28.0875,24.6 C27.5625,24.5625 27.075,24.75 26.6625,24.975 C26.2125,24.0375 25.275,23.4 24.1875,23.4 C23.6625,23.4 23.175,23.55 22.7625,23.775 C22.65,23.5125 22.4625,23.25 22.2375,23.025 C21.7125,22.5 21.0375,22.2 20.2875,22.2 C19.875,22.1625 19.5,22.275 19.1625,22.425 L19.2,16.7625 C19.2,16.0125 18.9375,15.3375 18.4125,14.8125 C17.8875,14.2875 17.2125,13.9875 16.4625,13.9875 C14.9625,14.025 13.725,15.225 13.6875,16.725 L13.6125,29.6625 L12.075,28.125 C11.1375,27.1875 9.675,27.0375 8.55,27.7875 C7.9125,28.2375 7.4625,28.9125 7.35,29.7 C7.2375,30.4875 7.4625,31.275 7.95,31.875 L10.9125,35.4 C11.2125,35.7375 11.7,35.775 12.0375,35.5125 C12.375,35.2125 12.4125,34.725 12.15,34.3875 L9.225,30.8625 C9,30.6 8.925,30.3 8.9625,29.9625 C9,29.625 9.1875,29.3625 9.45,29.175 C9.9,28.875 10.5375,28.9125 10.9125,29.325 L13.05,31.4625 C13.425,31.8375 13.95,31.95 14.4375,31.725 C14.925,31.5375 15.225,31.0875 15.225,30.5625 L15.3,16.8 C15.3,16.1625 15.825,15.675 16.425,15.675 C16.425,15.675 16.425,15.675 16.425,15.675 C16.725,15.675 17.025,15.7875 17.2125,16.0125 C17.4,16.2375 17.625,16.5 17.625,16.8 L17.5875,24.975 C17.5875,24.975 17.5875,24.975 17.5875,25.0125 L17.5875,26.2875 C17.5875,26.7375 17.9625,27.1125 18.375,27.1125 C18.375,27.1125 18.375,27.1125 18.375,27.1125 C18.825,27.1125 19.1625,26.7375 19.2,26.325 L19.2,25.0125 C19.2,24.7125 19.3125,24.45 19.5375,24.225 C19.7625,24 20.025,23.8875 20.325,23.8875 C20.325,23.8875 20.325,23.8875 20.325,23.8875 C20.625,23.8875 20.925,24 21.1125,24.225 C21.3375,24.45 21.45,24.7125 21.45,25.0125 L21.45,27.4875 C21.45,27.9375 21.825,28.3125 22.2375,28.3125 C22.2375,28.3125 22.2375,28.3125 22.2375,28.3125 C22.6875,28.3125 23.025,27.9375 23.0625,27.525 L23.0625,26.25 C23.0625,25.6125 23.5875,25.125 24.1875,25.125 C24.1875,25.125 24.1875,25.125 24.1875,25.125 C24.825,25.125 25.3125,25.65 25.3125,26.25 L25.3125,27.375 C25.3125,27.375 25.3125,27.375 25.3125,27.4125 L25.3125,28.6875 C25.3125,29.1375 25.6875,29.5125 26.1,29.5125 C26.1,29.5125 26.1,29.5125 26.1,29.5125 C26.55,29.5125 26.8875,29.1375 26.925,28.725 L26.925,27.525 C26.925,27.4875 26.925,27.45 26.925,27.45 C26.925,26.8125 27.45,26.325 28.05,26.325 C28.05,26.325 28.05,26.325 28.05,26.325 C28.6875,26.325 29.175,26.85 29.175,27.45 L29.1375,35.1 C29.1375,35.55 29.5125,35.925 29.925,35.925 C29.925,35.925 29.925,35.925 29.925,35.925 C30.375,35.925 30.7125,35.55 30.75,35.1375 L30.825,27.375 C30.8625,25.875 29.625,24.6 28.0875,24.6 Z" id="Path"></path>
                        <path d="M9.3375,17.5125 C9.7875,17.5125 10.1625,17.1375 10.1625,16.6875 C10.1625,16.2375 9.7875,15.8625 9.3375,15.8625 L5.175,15.8625 C4.8375,14.775 3.825,13.9875 2.6625,13.9875 C1.2,13.9875 1.77635684e-15,15.1875 1.77635684e-15,16.65 C1.77635684e-15,18.1125 1.2,19.3125 2.6625,19.3125 C3.8625,19.3125 4.8375,18.525 5.175,17.4375 L9.3375,17.4375 L9.3375,17.5125 Z M2.6625,17.7375 C2.1,17.7375 1.6125,17.25 1.6125,16.6875 C1.6125,16.125 2.1,15.6375 2.6625,15.6375 C3.225,15.6375 3.7125,16.125 3.7125,16.6875 C3.7125,17.2875 3.225,17.7375 2.6625,17.7375 Z" id="Shape"></path>
                        <path d="M30.3375,14.025 C29.1375,14.025 28.1625,14.8125 27.825,15.9 L23.6625,15.9 C23.2125,15.9 22.8375,16.275 22.8375,16.725 C22.8375,17.175 23.2125,17.55 23.6625,17.55 L27.825,17.55 C28.1625,18.6375 29.175,19.425 30.3375,19.425 C31.8,19.425 33,18.225 33,16.7625 C33,15.3 31.8,14.025 30.3375,14.025 Z M30.3375,17.7375 C29.775,17.7375 29.2875,17.25 29.2875,16.6875 C29.2875,16.125 29.775,15.6375 30.3375,15.6375 C30.9,15.6375 31.3875,16.125 31.3875,16.6875 C31.3875,17.2875 30.9375,17.7375 30.3375,17.7375 Z" id="Shape"></path>
                        <path d="M15.675,5.3625 L15.675,9.525 C15.675,9.975 16.05,10.35 16.5,10.35 C16.95,10.35 17.325,9.975 17.325,9.525 L17.325,5.3625 C18.4125,5.025 19.2,4.0125 19.2,2.85 C19.2,1.3875 18,0.1875 16.5375,0.1875 C15.075,0.1875 13.875,1.3875 13.875,2.85 C13.8375,4.05 14.625,5.025 15.675,5.3625 Z M16.5,1.8 C17.0625,1.8 17.55,2.2875 17.55,2.85 C17.55,3.4125 17.0625,3.9 16.5,3.9 C15.9375,3.9 15.45,3.4125 15.45,2.85 C15.45,2.2875 15.9375,1.8 16.5,1.8 Z" id="Shape"></path>
                        <path d="M6.7125,9.5625 C7.1625,9.5625 7.575,9.45 7.9125,9.2625 L10.875,12.225 C11.025,12.375 11.25,12.45 11.4375,12.45 C11.6625,12.45 11.85,12.375 12,12.225 C12.3,11.925 12.3,11.4 12,11.1 L9.0375,8.1375 C9.225,7.7625 9.3375,7.35 9.3375,6.9375 C9.3375,5.475 8.1375,4.275 6.675,4.275 C5.2125,4.275 4.0125,5.475 4.0125,6.9375 C4.0125,8.4 5.25,9.5625 6.7125,9.5625 Z M6.7125,5.85 C7.275,5.85 7.7625,6.3375 7.7625,6.9 C7.7625,7.4625 7.275,7.95 6.7125,7.95 C6.15,7.95 5.6625,7.4625 5.6625,6.9 C5.6625,6.3375 6.15,5.85 6.7125,5.85 Z" id="Shape"></path>
                        <path d="M21.5625,12.45 C21.7875,12.45 21.975,12.375 22.125,12.225 L25.0875,9.2625 C25.4625,9.45 25.875,9.5625 26.2875,9.5625 C27.75,9.5625 28.95,8.3625 28.95,6.9 C28.95,5.4375 27.75,4.2375 26.2875,4.2375 C24.825,4.2375 23.625,5.4375 23.625,6.9 C23.625,7.35 23.7375,7.7625 23.925,8.1 L21,11.0625 C20.7,11.3625 20.7,11.8875 21,12.1875 C21.15,12.375 21.3375,12.45 21.5625,12.45 Z M26.2875,5.85 C26.85,5.85 27.3375,6.3375 27.3375,6.9 C27.3375,7.4625 26.85,7.95 26.2875,7.95 C25.725,7.95 25.2375,7.4625 25.2375,6.9 C25.2375,6.3375 25.725,5.85 26.2875,5.85 Z" id="Shape"></path>
                    </g>
                </g>
            </g>
        </g>
    </g>
</svg>