<?xml version="1.0" encoding="UTF-8"?>
<svg width="34px" height="34px" viewBox="0 0 34 34" version="1.1" xmlns="http://www.w3.org/2000/svg" xmlns:xlink="http://www.w3.org/1999/xlink">
    <!-- Generator: sketchtool 57.1 (101010) - https://sketch.com -->
    <title>3797BA93-B52E-44C6-B01F-C83A73DE4713@2x</title>
    <desc>Created with sketchtool.</desc>
    <g id="Dropdown" stroke="none" stroke-width="1" fill="none" fill-rule="evenodd">
        <g id="Our-Schemes-Dropdown_FOF&amp;Solution-Oriented" transform="translate(-875.000000, -332.000000)" fill="#97144D" fill-rule="nonzero">
            <g id="Dropdown" transform="translate(0.000000, 107.000000)">
                <g id="Regular-Income-Copy" transform="translate(875.000000, 225.000000)">
                    <path d="M22.1,11.05 C22.1,4.9572 17.1428,0 11.05,0 C4.9572,0 0,4.9572 0,11.05 C0,17.1428 4.9572,22.1 11.05,22.1 C17.1428,22.1 22.1,17.1428 22.1,11.05 Z M1.7,11.05 C1.7,5.89475 5.89475,1.7 11.05,1.7 C16.20525,1.7 20.4,5.89475 20.4,11.05 C20.4,16.20525 16.20525,20.4 11.05,20.4 C5.89475,20.4 1.7,16.20525 1.7,11.05 Z M22.95,11.9 C29.0428,11.9 34,16.8572 34,22.95 C34,29.0428 29.0428,34 22.95,34 C16.8572,34 11.9,29.0428 11.9,22.95 L13.6,22.95 C13.6,28.10525 17.79475,32.3 22.95,32.3 C28.10525,32.3 32.3,28.10525 32.3,22.95 C32.3,17.79475 28.10525,13.6 22.95,13.6 L22.95,11.9 Z M20.6267935,18.702167 C20.6267935,18.702167 23.7544481,18.7017924 25.9809493,18.7020065 L27.0004519,18.702167 L27.0004519,19.9768962 L24.6398448,19.9768962 C24.9387177,20.3590599 25.1511513,20.7934876 25.2498154,21.2516253 L25.2498154,21.2516253 L27.0004519,21.2516253 L27.0004519,22.5263544 L25.2498154,22.5263544 C25.0030661,23.6681293 24.1060519,24.7029544 22.7103255,24.9861992 L22.7103255,24.9861992 L25.7826139,27.9886962 L24.8912978,28.9 L20.965642,25.0736456 L20.6270485,25.0736456 L20.6264366,24.7321457 L20.6264366,23.7892285 L21.933888,23.7892285 C23.1223307,23.7892285 23.7277506,23.2252884 23.9455763,22.5269918 L23.9455763,22.5269918 L20.6268063,22.5269918 L20.6268063,21.2522626 L23.9455763,21.2522626 C23.729038,20.5524364 23.1249439,20.0002237 21.933888,19.9874764 L21.933888,19.9874764 L20.6267935,19.9747291 Z M14.5337852,6.23550037 L14.5337852,7.51022949 L12.1731781,7.51022949 C12.4222389,7.82869932 12.6112724,8.18346351 12.7244624,8.55799781 L12.7831487,8.78495861 L14.5337852,8.78495861 L14.5337852,10.0596877 L12.7831487,10.0596877 C12.5493862,11.1413692 11.7320065,12.1270625 10.4598702,12.4686578 L10.2436589,12.5195325 L13.3159472,15.5220295 L12.4246312,16.4333333 L8.49897535,12.6069789 L8.1603818,12.6069789 L8.15976993,12.265479 L8.15976993,11.3225619 L9.46722135,11.3225619 C10.5857557,11.3225619 11.1878407,10.8230163 11.4364065,10.1820718 L11.4789096,10.0603251 L8.1601396,10.0603251 L8.1601396,8.78559598 L11.4789096,8.78559598 C11.2751089,8.12693594 10.7280061,7.599034 9.67135524,7.52857949 L9.46722135,7.52080974 L8.16012686,7.50806245 L8.16012686,6.23550037 L14.5337852,6.23550037 Z M8.2093,25.7108 L11.9,28.9391 L11.9,30.56005 L8.2093,33.7892 L7.0907,32.50995 L9.2735,30.6 L5.1,30.6 C4.16245,30.6 3.4,29.83755 3.4,28.9 L3.4,22.1 L5.1,22.1 L5.1,28.9 L9.2735,28.9 L7.0907,26.9892 L8.2093,25.7108 Z M25.7907,8.2892 L22.1,5.0609 L22.1,3.4391 L25.7907,0.20995 L26.9093,1.4892 L24.7265,3.4 L28.9,3.4 C29.83755,3.4 30.6,4.16245 30.6,5.1 L30.6,11.9 L28.9,11.9 L28.9,5.1 L24.7265,5.1 L26.9093,7.0108 L25.7907,8.2892 Z" id="Shape"></path>
                </g>
            </g>
        </g>
    </g>
</svg>