<svg width="48" height="48" viewBox="0 0 48 48" fill="none" xmlns="http://www.w3.org/2000/svg">
<path d="M41.1718 30.9456H6V33.8463H41.1718V30.9456Z" fill="#30BBAC"/>
<path d="M6.82437 28.0453V27.6489H7.18906C7.37088 27.6697 7.55502 27.6522 7.72968 27.5976C7.90435 27.543 8.06567 27.4525 8.20332 27.3319C8.41864 26.9867 8.51345 26.5798 8.47293 26.1749V17.0767C8.48322 16.7892 8.45625 16.5015 8.39269 16.2209C8.34283 16.0529 8.23637 15.9073 8.09138 15.8089C7.81575 15.6393 7.49552 15.5564 7.17221 15.571H6.80832V15.1746H12.6888C13.5779 15.1473 14.4657 15.2597 15.3199 15.5076C16.4194 15.8727 17.3887 16.5501 18.1095 17.457C19.029 18.6541 19.5051 20.1329 19.4568 21.6416C19.4793 22.8988 19.1558 24.1379 18.5216 25.2236C17.8093 26.3936 16.6835 27.2535 15.3673 27.6328C14.5019 27.9099 13.597 28.0438 12.6884 28.0292H6.82437V28.0453ZM11.3099 15.904V25.4459C11.3014 25.8268 11.3174 26.208 11.3576 26.5869C11.3697 26.7551 11.4431 26.913 11.5638 27.0306C11.8572 27.2424 12.2183 27.3384 12.5781 27.3002C13.2699 27.3188 13.9524 27.1377 14.544 26.7787C15.2506 26.2838 15.7479 25.5437 15.939 24.7024C16.2072 23.7216 16.3352 22.7077 16.3193 21.691C16.3193 19.7098 15.9546 18.188 15.2256 17.1104C14.9875 16.7641 14.6711 16.4789 14.302 16.2778C13.933 16.0768 13.5217 15.9656 13.1017 15.9533C12.8164 15.9216 12.2142 15.9056 11.3107 15.9056M29.1555 15.0321C29.1395 15.5537 28.9493 15.8089 28.5537 15.8089C28.424 15.8137 28.2946 15.7922 28.1734 15.7455C27.5843 15.5084 26.9814 15.3075 26.368 15.1437C25.9309 15.0458 25.4842 14.9979 25.0364 15.0009C23.9474 14.9799 22.8862 15.3449 22.0405 16.0311C21.6551 16.3459 21.3484 16.7461 21.1448 17.2002C20.9413 17.6542 20.8464 18.1495 20.8678 18.6466C20.8666 19.1823 20.9801 19.712 21.2008 20.2001C21.4016 20.6678 21.7179 21.0768 22.12 21.3889C22.3781 21.605 22.66 21.7912 22.9601 21.9437C23.198 22.0549 23.8636 22.3241 24.926 22.7361C25.7139 23.0174 26.4864 23.3402 27.2402 23.703C27.539 23.883 27.7892 24.1332 27.9692 24.432C28.1407 24.7315 28.2335 25.0695 28.2388 25.4146C28.2499 25.6977 28.1905 25.9792 28.066 26.2337C27.9415 26.4882 27.7558 26.7079 27.5254 26.873C27.0028 27.255 26.367 27.4504 25.72 27.4278C25.0893 27.4263 24.4648 27.3025 23.8813 27.0631C23.3357 26.8512 22.8471 26.5147 22.4546 26.0806C21.7939 25.3997 21.3959 24.5067 21.3312 23.5602H20.8201V28.1881H21.3272C21.47 27.681 21.7392 27.4258 22.1513 27.4258C22.4142 27.4463 22.6718 27.5106 22.9136 27.616C23.7967 27.9944 24.7429 28.2041 25.7032 28.2343C26.8831 28.2627 28.0384 27.8944 28.9842 27.1883C29.4176 26.8579 29.764 26.4269 29.9932 25.9325C30.2224 25.4381 30.3277 24.8952 30.2998 24.351C30.313 23.6461 30.1304 22.9513 29.7721 22.344C29.4139 21.7368 28.8942 21.2408 28.2709 20.9114C28.0873 20.8038 27.8967 20.7085 27.7004 20.6262C27.5102 20.5459 26.9236 20.3409 25.9567 19.9762C25.1963 19.7224 24.4548 19.4152 23.7376 19.057C23.4699 18.9055 23.2459 18.6871 23.0877 18.4231C22.932 18.159 22.8499 17.858 22.8498 17.5513C22.8425 17.2899 22.9012 17.0309 23.0204 16.7982C23.1396 16.5655 23.3155 16.3666 23.5318 16.2197C24.049 15.867 24.6656 15.6893 25.2911 15.7126C25.8439 15.7003 26.3927 15.8088 26.8992 16.0305C27.4057 16.2523 27.8576 16.5819 28.2235 16.9965C28.7401 17.5742 29.0762 18.2905 29.1905 19.057H29.6502V15.0321H29.1555ZM35.5749 22.182V26.1765C35.5619 26.458 35.5832 26.7401 35.6382 27.0166C35.6888 27.1801 35.7955 27.3205 35.9396 27.413C36.2152 27.5826 36.5354 27.6655 36.8587 27.6509H37.4926V28.0473H31.091V27.6509H31.4396C31.6214 27.6702 31.8051 27.652 31.9796 27.5975C32.154 27.543 32.3154 27.4533 32.4539 27.3339C32.6807 26.9932 32.7816 26.584 32.7391 26.1769V17.0466C32.7544 16.7598 32.7331 16.4722 32.6757 16.1908C32.6209 16.0383 32.5215 15.9058 32.3905 15.8105C32.1148 15.6409 31.7946 15.558 31.4713 15.5726H31.091V15.1762H37.4946C38.4285 15.1332 39.3588 15.3181 40.2052 15.715C40.7642 15.9711 41.2336 16.3888 41.5529 16.9143C41.8721 17.4398 42.0265 18.0489 41.9962 18.6631C42.0158 19.461 41.7327 20.2367 41.2038 20.8344C40.7497 21.3375 40.1613 21.7003 39.5079 21.8803C38.5985 22.1215 37.6586 22.2283 36.7183 22.1973C36.4964 22.1973 36.1165 22.1973 35.5773 22.1816M35.5773 21.4049C35.9259 21.421 36.1955 21.421 36.4174 21.421C37.2415 21.421 37.8441 21.2308 38.2228 20.8344C38.6666 20.3907 38.8884 19.6773 38.8884 18.6787C38.8965 18.1628 38.8216 17.649 38.6666 17.1569C38.5697 16.794 38.3515 16.4752 38.0483 16.2534C37.605 16.0025 37.0981 15.8868 36.5899 15.9204C36.2886 15.9204 35.956 15.9361 35.5596 15.9521V21.4045L35.5773 21.4049Z" fill="black"/>
</svg>
