<svg id="SvgjsSvg1051" width="288" height="288" xmlns="http://www.w3.org/2000/svg" version="1.1" xmlns:xlink="http://www.w3.org/1999/xlink" xmlns:svgjs="http://svgjs.com/svgjs"><defs id="SvgjsDefs1052"></defs><g id="SvgjsG1053"><svg xmlns="http://www.w3.org/2000/svg" width="288" height="288" viewBox="0 0 54 58"><g fill="#97144d" fill-rule="evenodd" transform="translate(1)" class="color97144D svgShape"><path fill-rule="nonzero" stroke="#97144d" stroke-width=".5" d="M49.9492537,41.3791045 C49.1701493,41.0328358 48.3910448,41.0328358 47.6119403,41.3791045 L36.7910448,46.2268657 C36.7910448,46.0537313 36.8776119,45.9671642 36.8776119,45.7940299 C36.8776119,44.2358209 35.6656716,43.0238806 34.1074627,42.9373134 L34.1074627,42.9373134 L34.1074627,42.9373134 C34.1074627,42.9373134 34.1074627,42.9373134 34.0208955,42.9373134 L34.0208955,42.9373134 L26.4895522,42.9373134 L20.7761194,40.2537313 C19.5641791,39.7343284 18.2656716,39.3880597 16.880597,39.3880597 L12.4656716,39.3880597 L12.4656716,37.3970149 L0.0865671642,37.3970149 L0.0865671642,38.6955224 L11.080597,38.6955224 L11.080597,54.2776119 L2.25074627,54.2776119 L2.25074627,55.5761194 L12.3791045,55.5761194 L12.3791045,53.5850746 L15.6686567,53.5850746 L26.2298507,57.1343284 C26.9223881,57.3940299 27.7014925,57.480597 28.3940299,57.480597 C29.519403,57.480597 30.6447761,57.2208955 31.5970149,56.7014925 L49.9492537,47.0925373 C51.5074627,46.4865672 52.2,44.6686567 51.5940299,43.1104478 C51.2477612,42.2447761 50.641791,41.638806 49.9492537,41.3791045 Z M49.4298507,45.7940299 L30.9910448,55.4029851 C29.6059701,56.0955224 28.0477612,56.1820896 26.5761194,55.7492537 L15.9283582,52.2 L12.2925373,52.2 L12.2925373,40.6865672 L16.7074627,40.6865672 C17.8328358,40.6865672 18.958209,40.9462687 19.9970149,41.3791045 L26.0567164,44.1492537 L33.9343284,44.1492537 C34.8,44.1492537 35.4059701,44.841791 35.4059701,45.7074627 C35.4059701,46.5731343 34.7134328,47.2656716 33.8477612,47.2656716 L24.758209,47.2656716 L24.6716418,47.2656716 C23.8059701,47.438806 22.161194,48.1313433 22.161194,49.8626866 L23.4597015,49.8626866 C23.4597015,48.9104478 24.5850746,48.6507463 24.8447761,48.5641791 L34.0208955,48.5641791 L34.0208955,48.5641791 C34.4537313,48.5641791 34.8865672,48.3910448 35.319403,48.2179104 L35.319403,48.2179104 L48.1313433,42.5044776 C48.5641791,42.3313433 48.9970149,42.3313433 49.4298507,42.5044776 C49.8626866,42.6776119 50.2089552,43.0238806 50.3820896,43.4567164 C50.7283582,44.4089552 50.2955224,45.4477612 49.4298507,45.7940299 Z" fill="#97144d" class="color000 svgShape colorStrokeB9BBC1 svgStroke"></path><rect width="1.299" height="1.299" x="5.021" y="50.728" fill-rule="nonzero" fill="#97144d" class="color000 svgShape"></rect><rect width="1.299" height="1.299" x="7.791" y="50.728" fill-rule="nonzero" fill="#97144d" class="color000 svgShape"></rect><path fill-rule="nonzero" stroke="#97144d" stroke-width=".5" d="M43.7164179,0.692537313 C38.5223881,0.692537313 34.7134328,2.51044776 34.7134328,4.84776119 L34.7134328,19.9104478 C34.4537313,19.9104478 34.280597,19.9104478 34.0208955,19.9104478 C33.5014925,19.9104478 32.9820896,19.9970149 32.4626866,20.0835821 L32.4626866,15.7552239 C32.4626866,13.4179104 28.7402985,11.6 23.8925373,11.6 C18.958209,11.6 15.3223881,13.4179104 15.3223881,15.7552239 L15.3223881,32.7223881 C15.3223881,35.0597015 19.0447761,36.8776119 23.8925373,36.8776119 C26.1432836,36.8776119 28.3074627,36.4447761 29.8656716,35.7522388 C31.0776119,36.4447761 32.5492537,36.8776119 34.0208955,36.8776119 C35.4059701,36.8776119 36.7044776,36.5313433 37.9164179,35.9253731 C39.561194,36.5313433 41.5522388,36.8776119 43.7164179,36.8776119 C48.9104478,36.8776119 52.719403,35.0597015 52.719403,32.7223881 L52.719403,4.76119403 C52.719403,2.4238806 48.8238806,0.692537313 43.7164179,0.692537313 Z M43.7164179,1.99104478 C48.1313433,1.99104478 51.4208955,3.46268657 51.4208955,4.84776119 C51.4208955,6.14626866 48.1313433,7.70447761 43.7164179,7.70447761 C39.3014925,7.70447761 36.0119403,6.23283582 36.0119403,4.84776119 C35.9253731,3.46268657 39.3014925,1.99104478 43.7164179,1.99104478 Z M23.8059701,12.8985075 C28.1343284,12.8985075 31.0776119,14.3701493 31.0776119,15.7552239 C31.0776119,17.0537313 28.0477612,18.6119403 23.8059701,18.6119403 C19.4776119,18.6119403 16.5343284,17.1402985 16.5343284,15.7552239 C16.5343284,14.3701493 19.5641791,12.8985075 23.8059701,12.8985075 Z M16.5343284,17.919403 C18.0059701,19.0447761 20.6895522,19.8238806 23.8059701,19.8238806 C26.9223881,19.8238806 29.6059701,19.0447761 31.0776119,17.919403 L31.0776119,20.3432836 C29.3462687,20.9492537 27.7880597,22.161194 26.8358209,23.719403 C25.8835821,23.8925373 24.8447761,23.9791045 23.8059701,23.9791045 C19.4776119,23.9791045 16.5343284,22.5074627 16.5343284,21.1223881 L16.5343284,17.919403 Z M16.5343284,23.5462687 C18.0059701,24.6716418 20.6895522,25.4507463 23.8059701,25.4507463 C24.5850746,25.4507463 25.3641791,25.3641791 26.1432836,25.2776119 C25.7970149,26.2298507 25.5373134,27.2686567 25.5373134,28.3940299 C25.5373134,28.8268657 25.6238806,29.2597015 25.6238806,29.7791045 C25.0179104,29.8656716 24.4119403,29.8656716 23.8059701,29.8656716 C19.4776119,29.8656716 16.5343284,28.3940299 16.5343284,27.0089552 L16.5343284,23.5462687 Z M23.8059701,35.4925373 C19.4776119,35.4925373 16.5343284,34.0208955 16.5343284,32.6358209 L16.5343284,29.1731343 C18.0059701,30.2985075 20.6895522,31.0776119 23.8059701,31.0776119 C24.4985075,31.0776119 25.2776119,30.9910448 25.9701493,30.9044776 C26.4895522,32.3761194 27.3552239,33.761194 28.5671642,34.7134328 C27.1820896,35.2328358 25.5373134,35.4925373 23.8059701,35.4925373 Z M26.8358209,28.3074627 C26.8358209,24.3253731 30.038806,21.1223881 34.0208955,21.1223881 C38.0029851,21.1223881 41.2059701,24.3253731 41.2059701,28.3074627 C41.2059701,32.2895522 38.0029851,35.4925373 34.0208955,35.4925373 C30.038806,35.4925373 26.8358209,32.2895522 26.8358209,28.3074627 Z M43.7164179,35.4925373 C42.0716418,35.4925373 40.6,35.319403 39.3014925,34.9731343 C40.4268657,34.1074627 41.2925373,32.8955224 41.8985075,31.5104478 C42.5044776,31.5970149 43.1104478,31.5970149 43.8029851,31.5970149 C47.1791045,31.5970149 49.9492537,30.8179104 51.5074627,29.6925373 L51.5074627,32.7223881 C51.4208955,34.0208955 48.1313433,35.4925373 43.7164179,35.4925373 Z M43.7164179,30.2985075 C43.1970149,30.2985075 42.7641791,30.2985075 42.2447761,30.2119403 C42.4179104,29.6059701 42.4179104,29 42.4179104,28.3074627 C42.4179104,27.441791 42.2447761,26.5761194 41.9850746,25.7970149 C42.5044776,25.8835821 43.1104478,25.8835821 43.6298507,25.8835821 C47.0059701,25.8835821 49.7761194,25.1044776 51.3343284,23.9791045 L51.3343284,27.5283582 C51.4208955,28.7402985 48.1313433,30.2985075 43.7164179,30.2985075 Z M43.7164179,24.5850746 C42.9373134,24.5850746 42.2447761,24.4985075 41.4656716,24.4119403 C40.3402985,22.2477612 38.3492537,20.6895522 35.9253731,20.0835821 L35.9253731,18.1791045 C37.4835821,19.3910448 40.3402985,20.0835821 43.6298507,20.0835821 C47.0059701,20.0835821 49.7761194,19.3044776 51.3343284,18.1791045 L51.3343284,21.7283582 C51.4208955,23.1134328 48.1313433,24.5850746 43.7164179,24.5850746 Z M43.7164179,18.8716418 C39.3014925,18.8716418 36.0119403,17.4 36.0119403,16.0149254 L36.0119403,12.4656716 C37.5701493,13.6776119 40.4268657,14.3701493 43.7164179,14.3701493 C47.0925373,14.3701493 49.8626866,13.5910448 51.4208955,12.4656716 L51.4208955,16.0149254 C51.4208955,17.4 48.1313433,18.8716418 43.7164179,18.8716418 Z M43.7164179,13.158209 C39.3014925,13.158209 36.0119403,11.6865672 36.0119403,10.3014925 L36.0119403,7.0119403 C37.5701493,8.2238806 40.4268657,8.91641791 43.7164179,8.91641791 C47.0925373,8.91641791 49.8626866,8.13731343 51.4208955,7.0119403 L51.4208955,10.3880597 C51.4208955,11.6865672 48.1313433,13.158209 43.7164179,13.158209 Z" fill="#97144d" class="color000 svgShape colorStrokeB9BBC1 svgStroke"></path><path d="M31.1901834,24.238806 L31.1901834,24.2493737 L31.1641791,24.2493737 L31.1641791,25.3314632 L32.4076784,25.3314632 C33.5385401,25.3314632 34.1080881,25.8090261 34.3131183,26.4029851 L31.1901834,26.4029851 L31.1901834,27.4850746 L34.3131183,27.4850746 C34.1075361,28.0781679 33.5373986,28.5565976 32.4076784,28.5565976 L32.0152439,28.5565976 L32.0128788,28.5565976 L32.0105149,28.5565976 L31.1641791,28.5565976 L31.1641791,29.3237818 L31.1641791,29.6386871 L31.5211524,29.6386871 L35.213829,32.8955224 L36.0648938,32.1241105 L33.1618166,29.5668288 C34.4764598,29.3220601 35.3214859,28.449541 35.5542549,27.4850746 L37.2067386,27.4850746 L37.2067386,26.4029851 L35.5542549,26.4029851 C35.4607028,26.0138657 35.2587821,25.6454142 34.9750576,25.3208955 L37.2067386,25.3208955 L37.2067386,24.238806 L31.1901834,24.238806 Z" fill="#97144d" class="color000 svgShape"></path></g></svg></g></svg>