<svg width="48" height="48" viewBox="0 0 48 48" fill="none" xmlns="http://www.w3.org/2000/svg">
<g clip-path="url(#clip0_291_9868)">
<circle cx="24" cy="24" r="24" fill="#173884"/>
<path d="M21.577 40.439C18.2839 39.8027 15.2576 38.1927 12.8898 35.8172C12.021 34.9618 11.2426 34.0193 10.5668 33.0046C9.94565 32.0644 9.43849 31.0537 9.05595 29.9937C8.33543 28.0009 8 25.7161 8 22.8073C8.03645 21.1639 8.36911 19.5406 8.98199 18.0154C9.55234 16.5171 10.3324 15.1073 11.2988 13.8281C12.1282 12.7523 13.0737 11.7713 14.1183 10.9029C15.103 10.0872 16.1755 9.38375 17.316 8.80563C19.4955 7.70147 21.8892 7.0853 24.3309 7H25.4966C28.3952 7.09644 31.2204 7.9358 33.7015 9.43761C34.964 10.2046 36.1187 11.1364 37.1349 12.2086C38.1961 13.3309 39.0994 14.5926 39.8201 15.9587L40 16.2983H37.3999L37.3304 16.1941C36.7036 15.2319 35.9907 14.3285 35.2005 13.4951C34.4106 12.6701 33.5076 11.9615 32.5184 11.3905C30.1699 10.0369 27.5079 9.32223 24.7973 9.31746C23.7327 9.31711 22.6712 9.43061 21.6308 9.65602C20.5701 9.88665 19.5383 10.2343 18.5543 10.6925C16.7066 11.5537 15.8132 12.4047 14.4659 13.6916L12.9655 15.4122C12.1992 16.5088 11.5729 17.6969 11.1012 18.9488C10.6302 20.1833 10.3684 21.4877 10.3265 22.8083H18.9862C18.5233 22.5246 18.1228 22.1498 17.8091 21.7065C17.658 21.4981 17.5527 21.2602 17.4999 21.0083C17.4471 20.7564 17.4481 20.4962 17.5028 20.2447C17.6093 19.836 17.8583 19.4789 18.205 19.2377C18.5511 18.9908 18.9653 18.8573 19.3904 18.8557C21.1447 18.8557 21.9683 19.946 22.6951 20.9086C23.0193 21.4099 23.4384 21.8429 23.9288 22.1833C23.8375 21.8687 23.7205 21.5131 23.6017 21.1437C23.2628 20.102 22.8788 18.9214 22.8788 18.1574C22.8431 17.4687 23.0531 16.7896 23.4715 16.2414C23.6403 16.0396 23.8515 15.8776 24.0901 15.7668C24.3287 15.656 24.5887 15.5992 24.8518 15.6004C25.1382 15.605 25.4207 15.6678 25.6821 15.7851C25.9434 15.9024 26.1782 16.0717 26.372 16.2827C26.5901 16.5161 26.7602 16.79 26.8727 17.089C27.0003 17.4306 27.0641 17.7928 27.0609 18.1574C27.0609 18.5463 26.447 20.3957 26.4407 20.4145C26.3754 20.6061 26.3116 20.7777 26.2553 20.9291C26.1027 21.2929 25.9955 21.6741 25.9362 22.0642C26.232 21.7961 26.555 21.4478 26.8904 21.0867C27.8606 20.0415 28.9603 18.8568 30.085 18.8568C30.5991 18.8478 31.1086 18.9556 31.575 19.1721C31.8263 19.2858 32.039 19.4704 32.187 19.7033C32.3351 19.9361 32.412 20.207 32.4084 20.4829C32.4202 20.9663 32.2932 21.4431 32.0424 21.8565C31.8065 22.2173 31.4842 22.5135 31.1048 22.718C30.2991 23.1109 29.4383 23.3791 28.5519 23.5132C28.0372 23.6054 27.5295 23.733 27.0324 23.8952L30.1596 24.665C30.8638 24.8342 31.4933 25.2289 31.9524 25.789C32.1203 26.0073 32.2436 26.2565 32.3151 26.5224C32.3866 26.7883 32.4049 27.0657 32.3691 27.3387C32.3036 27.8115 32.0727 28.2458 31.7173 28.5645C31.332 28.9068 30.8323 29.0922 30.3169 29.0843C29.112 29.0843 27.9738 27.8287 26.9692 26.7206C26.6095 26.3238 26.2633 25.9421 25.9445 25.6512C26.0456 26.2047 26.1993 26.7474 26.4036 27.2717C26.614 27.8276 26.7819 28.3987 26.9057 28.9801C26.9805 29.322 27.0057 29.6728 26.9807 30.0218C26.946 30.4081 26.8261 30.7819 26.6296 31.1163C26.4487 31.4388 26.1828 31.7054 25.8608 31.8872C25.4869 32.0946 25.0565 32.1772 24.6323 32.1231C24.2081 32.0689 23.8123 31.8808 23.5024 31.5861C23.2959 31.3808 23.1338 31.1351 23.0263 30.8645C22.9188 30.5938 22.8681 30.3039 22.8774 30.0128C22.9001 28.9227 23.1182 27.8455 23.5215 26.8325C23.6423 26.4776 23.7646 26.1147 23.8799 25.7192C23.4433 26.1047 23.032 26.518 22.6486 26.9564C22.2756 27.3771 21.8815 27.7787 21.4679 28.1596C20.9407 28.6824 20.2392 28.9925 19.4977 29.0305C19.0849 29.032 18.6818 28.9052 18.3442 28.6676C18.0249 28.4407 17.7768 28.1275 17.6292 27.7646C17.4816 27.4017 17.4405 27.0043 17.5108 26.6189C17.5964 26.1903 17.8107 25.7981 18.1251 25.4946L18.1397 25.4803L18.6453 25.1331H10.3265C10.3519 26.1338 10.512 27.1266 10.8026 28.0846C11.1163 29.1148 11.5533 30.1034 12.104 31.0288C13.2081 32.8715 14.6565 34.4844 16.3702 35.7797C16.9725 36.2139 17.6176 36.5853 18.2956 36.8881L18.5588 37.0166C19.588 37.5529 20.6864 37.9443 21.8228 38.1798C22.8518 38.3495 23.8948 38.4193 24.9372 38.3882C25.1455 38.3882 25.3629 38.3882 25.5914 38.3882C25.839 38.3882 26.0949 38.3882 26.3643 38.3882C27.4153 38.3696 28.4562 38.1797 29.4461 37.826C30.55 37.4443 31.6057 36.9356 32.592 36.31C33.5941 35.6849 34.5226 34.9491 35.3602 34.1165C36.1374 33.3584 36.7975 32.489 37.319 31.5368L37.3843 31.4139H39.9174L39.8396 31.7049C39.5953 32.3597 39.2541 32.9741 38.8274 33.5275C38.4305 34.0911 37.9918 34.6241 37.5152 35.1221C37.2957 35.3398 37.0957 35.5439 36.9026 35.7415C36.1971 36.5139 35.404 37.2014 34.5393 37.7902C33.0827 38.7587 31.4916 39.5074 29.8169 40.0125C28.1963 40.5014 26.5129 40.7504 24.8202 40.7515C23.7316 40.7509 22.6456 40.6462 21.577 40.439Z" fill="white"/>
</g>
<defs>
<clipPath id="clip0_291_9868">
<rect width="48" height="48" fill="white"/>
</clipPath>
</defs>
</svg>
