<?xml version="1.0" encoding="UTF-8"?>
<svg width="36px" height="33px" viewBox="0 0 36 33" version="1.1" xmlns="http://www.w3.org/2000/svg" xmlns:xlink="http://www.w3.org/1999/xlink">
    <title>B3381E19-71C2-49EA-8741-3DA7A760B3AC</title>
    <g id="Dropdown" stroke="none" stroke-width="1" fill="none" fill-rule="evenodd">
        <g id="Set5_Our-Schemes-Dropdown" transform="translate(-920.000000, -155.000000)" fill="#97144D">
            <g id="Dropdown" transform="translate(0.000000, 107.000000)">
                <g id="Group" transform="translate(920.000000, 48.000000)">
                    <circle id="Oval" fill-rule="nonzero" cx="14.8125" cy="30.1965" r="1"></circle>
                    <circle id="Oval" fill-rule="nonzero" cx="21.1875" cy="30.1965" r="1"></circle>
                    <path d="M32.6865,5.493 C31.02,5.493 29.6625,6.849 29.6625,8.5155 L29.6625,13.5705 C29.6295,13.569 29.598,13.56 29.5665,13.5585 C28.9515,13.527 28.3485,13.7775 27.9,14.208 L21.519,20.3595 C21.4605,20.418 20.082,21.825 20.0055,24.2475 L20.0055,27.4185 L19.2465,27.4185 C18.915,27.4185 18.6465,27.6885 18.6465,28.0185 L18.6465,32.373 C18.6465,32.7045 18.915,32.973 19.2465,32.973 L30.5385,32.973 C30.87,32.973 31.1385,32.703 31.1385,32.373 L31.1385,28.02 C31.1385,27.6885 30.8685,27.42 30.5385,27.42 L29.7375,27.42 C30.2955,25.9275 32.856,23.214 34.779,21.5175 C35.379,20.94 35.7105,20.1675 35.7105,19.3395 L35.7105,8.5155 C35.7105,6.8475 34.353,5.493 32.6865,5.493 Z M29.937,31.7745 L19.845,31.7745 L19.845,28.62 L29.937,28.62 L29.937,31.7745 Z M34.509,19.3395 C34.509,19.8375 34.3095,20.304 33.966,20.6355 C33.0975,21.399 29.082,25.0455 28.5075,27.4185 L21.207,27.4185 L21.2055,24.2655 C21.2655,22.3545 22.3605,21.2175 22.362,21.2145 L28.731,15.075 C28.95,14.8635 29.2215,14.745 29.5425,14.7585 C29.847,14.7645 30.132,14.8905 30.342,15.111 C30.5535,15.33 30.666,15.6195 30.6585,15.924 C30.6525,16.2285 30.528,16.512 30.309,16.722 L26.196,20.6475 C25.956,20.874 25.944,21.2535 26.1705,21.495 C26.3955,21.735 26.7765,21.7485 27.018,21.5205 L31.137,17.589 C32.07,16.6965 32.1015,15.2115 31.209,14.2785 C31.1025,14.1675 30.987,14.07 30.8655,13.983 L30.8655,8.5155 C30.8655,7.5105 31.683,6.693 32.688,6.693 C33.693,6.693 34.5105,7.5105 34.5105,8.5155 L34.5105,19.3395 L34.509,19.3395 Z" id="Shape" fill-rule="nonzero"></path>
                    <path d="M16.7535,27.4185 L15.993,27.4185 L15.993,24.228 C15.918,21.8235 14.5395,20.418 14.4735,20.3535 L8.1,14.208 C7.65,13.7775 7.083,13.569 6.432,13.56 C6.399,13.56 6.369,13.569 6.3375,13.572 L6.3375,8.517 C6.3375,6.8505 4.9815,5.4945 3.3135,5.4945 C1.6455,5.4945 0.291,6.8475 0.291,8.5155 L0.291,19.3395 C0.291,20.1675 0.621,20.94 1.2405,21.5355 C3.147,23.2155 5.7045,25.926 6.2625,27.42 L5.463,27.42 C5.1315,27.42 4.863,27.69 4.863,28.02 L4.863,32.3745 C4.863,32.706 5.1315,32.9745 5.463,32.9745 L16.755,32.9745 C17.0865,32.9745 17.355,32.7045 17.355,32.3745 L17.355,28.02 C17.3535,27.6885 17.085,27.4185 16.7535,27.4185 Z M2.0535,20.6535 C1.6905,20.304 1.491,19.8375 1.491,19.3395 L1.491,8.5155 C1.491,7.5105 2.3085,6.693 3.3135,6.693 C4.3185,6.693 5.1375,7.5105 5.1375,8.5155 L5.1375,13.986 C5.0145,14.073 4.899,14.1705 4.794,14.2815 C4.3605,14.733 4.131,15.3255 4.143,15.9495 C4.1565,16.575 4.4115,17.157 4.863,17.5905 L8.9835,21.522 C9.2265,21.75 9.6045,21.738 9.831,21.4965 C10.059,21.255 10.047,20.8755 9.8055,20.649 L5.6925,16.7235 C5.238,16.2885 5.223,15.5655 5.6595,15.111 C5.8695,14.8905 6.1545,14.766 6.459,14.76 C6.726,14.7495 7.0515,14.865 7.272,15.0765 L13.632,21.207 C13.6425,21.219 14.736,22.356 14.7945,24.2475 L14.7945,27.4185 L7.4925,27.4185 C6.918,25.047 2.904,21.4005 2.0535,20.6535 Z M16.155,31.7745 L6.063,31.7745 L6.063,28.62 L16.155,28.62 L16.155,31.7745 Z" id="Shape" fill-rule="nonzero"></path>
                    <path d="M16.4399916,9.24001932 L16.4399916,10.0800193 L17.3013192,10.0884193 C18.0861816,10.0968193 18.4842576,10.4607073 18.6269484,10.9218673 L16.44,10.9218673 L16.44,11.7618673 L18.6269484,11.7618673 C18.4834092,12.2220193 18.0844596,12.5936353 17.3013192,12.5936353 L17.0060088,12.5936353 L16.9959288,12.5936353 L16.4397564,12.5936353 L16.4397564,13.1629033 L16.4397564,13.2149833 L16.4401596,13.4400193 L16.6632804,13.4400193 L19.2501444,15.9614473 L19.8374892,15.3609313 L17.8129632,13.3823953 C18.732696,13.1957473 19.3237956,12.5138353 19.4863944,11.7614473 L20.64,11.7614473 L20.64,10.9214473 L19.4863944,10.9214473 C19.4213784,10.6195513 19.2813924,10.3332793 19.084446,10.0814473 L20.64,10.0814473 L20.64,9.24144732 C19.2452556,9.24111132 16.4399916,9.24144732 16.4399916,9.24144732 L16.4399916,9.24001932 Z" id="Path"></path>
                    <path d="M25.044,13.494 C25.044,10.1835 22.7505,5.5575 19.809,4.287 L20.3775,0.72 C20.406,0.546 20.355,0.3705 20.2425,0.2355 C20.1285,0.102 19.9605,0.0255 19.785,0.0255 L16.5855,0.0255 C16.41,0.0255 16.242,0.102 16.1295,0.2355 C16.0155,0.369 15.966,0.546 15.993,0.72 L16.5615,4.287 C13.6215,5.5575 11.3295,10.182 11.3295,13.494 C11.3295,17.2755 14.4045,20.3505 18.186,20.3505 C21.969,20.3505 25.044,17.2755 25.044,13.494 Z M19.0845,1.2255 L18.63,4.0755 L17.745,4.0755 L17.2905,1.2255 L19.0845,1.2255 Z M18.1875,19.1505 C15.069,19.1505 12.531,16.614 12.531,13.494 C12.531,10.449 14.7405,6.096 17.3355,5.2755 L19.041,5.2755 C21.636,6.096 23.8455,10.449 23.8455,13.494 C23.844,16.6125 21.306,19.1505 18.1875,19.1505 Z" id="Shape" fill-rule="nonzero"></path>
                </g>
            </g>
        </g>
    </g>
</svg>