<?xml version="1.0" encoding="UTF-8"?>
<svg width="33px" height="38px" viewBox="0 0 33 38" version="1.1" xmlns="http://www.w3.org/2000/svg" xmlns:xlink="http://www.w3.org/1999/xlink">
    <title>FOF Domestic</title>
    <g id="Page-1" stroke="none" stroke-width="1" fill="none" fill-rule="evenodd">
        <g id="FOF-Domestic" transform="translate(0.422, 1)" fill="#95134C">
            <path d="M12.2951821,28.8592939 C12.5769303,28.8592939 12.8053315,29.1508288 12.8053315,29.5104567 L12.8053315,32.2081311 C12.8053315,32.567759 12.5769303,32.8592939 12.2951821,32.8592939 L0.51014934,32.8592939 C0.228401147,32.8592939 0,32.567759 0,32.2081311 L0,29.5104567 C0,29.1508288 0.228474026,28.8592939 0.51014934,28.8592939 L12.2951821,28.8592939 Z M11.7851057,29.8795926 L1.02029868,29.8795926 L1.02029868,31.8795926 L11.7851057,31.8795926 L11.7851057,29.8795926 Z" id="Combined-Shape" stroke="#95144C" stroke-width="0.4" fill-rule="nonzero"></path>
            <path d="M3.63459541,20.8576015 C3.91634361,20.8576015 4.14474475,21.0860027 4.14474475,21.3677509 L4.14474475,26.4541584 C4.14474475,26.7359066 3.91634361,26.9643078 3.63459541,26.9643078 L0.51014934,26.9643078 C0.228401147,26.9643078 0,26.7359066 0,26.4541584 L0,21.3677509 C7.28784772e-05,21.0860027 0.228474026,20.8576015 0.51014934,20.8576015 L3.63459541,20.8576015 Z M3.12444607,21.8779002 L1.02029868,21.8779002 L1.02029868,25.944082 L3.12444607,25.944082 L3.12444607,21.8779002 Z" id="Combined-Shape" stroke="#95134C" stroke-width="0.4" fill-rule="nonzero"></path>
            <path d="M9.46939205,16.2768248 C9.75114024,16.2768248 9.97954139,16.505226 9.97954139,16.7869742 L9.97954139,26.4540855 C9.97954139,26.7358337 9.75114024,26.9642349 9.46939205,26.9642349 L6.34501886,26.9642349 C6.06327066,26.9642349 5.83486952,26.7358337 5.83486952,26.4540855 L5.83486952,16.7869742 C5.83486952,16.505226 6.06327066,16.2768248 6.34501886,16.2768248 L9.46939205,16.2768248 Z M8.95924271,17.2971235 L6.85509532,17.2971235 L6.85509532,25.9440091 L8.95924271,25.9440091 L8.95924271,17.2971235 Z" id="Combined-Shape" stroke="#95134C" stroke-width="0.4" fill-rule="nonzero"></path>
            <path d="M21.299901,9.81614785 C21.5816492,9.81614785 21.8100503,10.044549 21.8100503,10.3262972 L21.8100503,18.1062204 C27.2123132,17.3804236 32.0050205,21.57458 32.0050205,27.012772 C32.0050205,31.9761606 27.9811812,36 23.0177925,36 C18.0369858,36 14.0053485,31.9499244 14.0308559,26.9643078 L12.2370251,26.9643078 C11.9552769,26.9643078 11.7268758,26.7359066 11.7268758,26.4541584 L11.7268758,13.8993832 C11.7268758,13.617635 11.9552769,13.3892338 12.2370251,13.3892338 L15.3614712,13.3892338 C15.6432194,13.3892338 15.8716205,13.617635 15.8716205,13.8993832 L15.8716205,21.5621906 C16.3842477,20.8911256 16.9871714,20.2962915 17.6653056,19.7927741 L17.6653056,10.3262972 C17.6653056,10.044549 17.8937067,9.81614785 18.1754549,9.81614785 L21.299901,9.81614785 Z M28.6512988,21.3791928 C25.5401166,18.2679377 20.4953955,18.2680106 17.3842133,21.3791928 C14.2729582,24.4904479 14.2730311,29.535096 17.3842133,32.6462782 C20.4954684,35.7574604 25.5400437,35.7575333 28.6512988,32.6462782 C31.7624809,29.5350232 31.7625538,24.4904479 28.6512988,21.3791928 Z M14.8513218,14.4095325 L12.7471744,14.4095325 L12.7471744,25.9440091 L14.0935314,25.9440091 C14.2060558,24.9946212 14.4665964,24.0906365 14.8513218,23.2556678 L14.8513218,14.4095325 Z M20.7896788,10.8364465 L18.6855314,10.8364465 L18.6855314,19.1368678 C19.3412919,18.7753906 20.0469742,18.4934237 20.7896788,18.3039397 L20.7896788,10.8364465 Z" id="Combined-Shape" stroke="#95134C" stroke-width="0.4" fill-rule="nonzero"></path>
            <path d="M10.5240894,0 L17.5401004,0.56473532 C17.8207554,0.586671741 18.0304268,0.832053574 18.0084175,1.11270859 L17.4436821,8.12871959 C17.4086276,8.57036316 16.8377705,8.79453735 16.5181984,8.38153502 L14.8887085,6.46679879 L0.839049908,18.4233146 C0.508473135,18.7046256 0.0025507467,18.4653655 0.00276938213,18.0367672 L7.28784772e-05,13.0265905 C7.28784772e-05,12.8522652 0.0875270511,12.6984187 0.220894664,12.6063732 L11.7580677,2.78803902 L10.0976774,0.83700931 C9.80463305,0.492585627 10.0774172,-0.0327224362 10.5239436,0.00225923279 Z M11.6668968,1.11467631 L12.8601361,2.51678533 C13.0417492,2.73024639 13.0158774,3.0505473 12.8023434,3.23216046 L1.02029868,13.2588542 L1.02029868,16.9362293 L14.6175277,5.36480334 C14.8309887,5.18319017 15.1512896,5.20906203 15.3329028,5.42259597 L16.5259964,6.82455924 L16.951388,1.5399951 L11.6668968,1.11467631 Z" id="Combined-Shape" stroke="#95144C" stroke-width="0.4" fill-rule="nonzero"></path>
            <path d="M23.659383,32.8135577 C23.9514906,32.8137611 24.2130508,32.584858 24.3155044,32.2392182 C24.417958,31.8935783 24.3397589,31.5038902 24.1193426,31.2616891 L22.1495155,29.099854 C23.4338772,29.0475804 24.5376947,27.9330911 24.8613774,26.3617737 L25.3501345,26.3617737 C25.7366999,26.3617737 26.0500731,25.9658175 26.0500731,25.4773808 C26.0500731,24.9889442 25.7366999,24.592988 25.3501345,24.592988 L24.8601775,24.592988 C24.7856333,24.2415327 24.6787821,23.9023123 24.5418055,23.5822533 L25.3498345,23.5822533 C25.7363999,23.5822533 26.0497731,23.1862971 26.0497731,22.6978605 C26.0497731,22.2094238 25.7363999,21.8134676 25.3498345,21.8134676 L20.2787798,21.8134676 C19.8922144,21.8134676 19.5788412,22.2094238 19.5788412,22.6978605 C19.5788412,23.1862971 19.8922144,23.5822533 20.2787798,23.5822533 L22.0795217,23.5822533 C22.627957,23.575825 23.1302036,23.9693774 23.3694084,24.592988 L20.2796797,24.592988 C19.8931143,24.592988 19.5797412,24.9889442 19.5797412,25.4773808 C19.5797412,25.9658175 19.8931143,26.3617737 20.2796797,26.3617737 L23.3715082,26.3617737 C23.1319093,26.9856457 22.6292133,27.3791843 22.0804216,27.3725084 L20.2787798,27.3725084 C19.9891954,27.3626352 19.7262426,27.5848787 19.6229151,27.9268347 C19.5195877,28.2687906 19.5984116,28.6559106 19.8195201,28.8924007 L23.2004233,32.601797 C23.3279928,32.7404239 23.491133,32.8156465 23.659383,32.8135577 Z" id="Path"></path>
        </g>
    </g>
</svg>