<?xml version="1.0" encoding="UTF-8"?>
<svg width="64px" height="58px" viewBox="0 0 64 58" version="1.1" xmlns="http://www.w3.org/2000/svg" xmlns:xlink="http://www.w3.org/1999/xlink">
    <title>231A1EA3-2664-47B5-9A38-331CD9163218@2x</title>
    <g id="ELSS" stroke="none" stroke-width="1" fill="none" fill-rule="evenodd">
        <g id="02_ELSS" transform="translate(-605.000000, -1744.000000)" fill="#97144D" fill-rule="nonzero">
            <g id="Group-8" transform="translate(192.000000, 1283.000000)">
                <g id="benefit1-copy-2" transform="translate(359.000000, 426.000000)">
                    <g id="Group-2" transform="translate(44.000000, 35.000000)">
                        <g id="Higher-returns" transform="translate(10.000000, 0.000000)">
                            <path d="M62.342246,55.5187166 L51.486631,55.5187166 L51.486631,18.9508021 C51.486631,18.2684492 50.8042781,17.6791444 50.1219251,17.6791444 L44.4149733,17.6791444 C46.4930481,13.3368984 48.0438503,8.93262032 49.0053476,4.2802139 L52.5101604,9.80106952 C52.7582888,10.173262 53.1304813,10.3593583 53.5336898,10.3593583 C53.7508021,10.3593583 53.9989305,10.2973262 54.1850267,10.173262 C54.7433155,9.80106952 54.9294118,9.05668449 54.5572193,8.49839572 L49.6256684,0.77540107 C49.2534759,0.217112299 48.5090909,0.0310160428 47.9508021,0.403208556 L40.2278075,5.33475936 C39.6695187,5.70695187 39.4834225,6.4513369 39.855615,7.00962567 C40.2278075,7.56791444 40.9721925,7.7540107 41.5304813,7.38181818 L46.4930481,4.21818182 C45.4695187,8.90160428 43.8566845,13.3368984 41.6545455,17.6791444 L37.9016043,17.6791444 C37.2192513,17.6791444 36.8780749,18.2684492 36.8780749,18.9508021 L36.8780749,25.6502674 C33.4663102,29.8994652 29.8374332,33.6213904 25.6812834,36.7229947 C25.2160428,36.7540107 24.7818182,37.0641711 24.626738,37.4673797 C17.7411765,42.3679144 9.73903743,45.5935829 1.20962567,46.8962567 C0.527272727,46.9893048 0.0620320856,47.6096257 0.186096257,48.2919786 C0.279144385,48.8812834 0.806417112,49.315508 1.39572193,49.315508 C1.45775401,49.315508 1.5197861,49.315508 1.58181818,49.315508 C9.89411765,48.0438503 17.7101604,45.0352941 24.5336898,40.4759358 L24.5336898,48.3850267 L13.4609626,48.3850267 C12.7786096,48.3850267 12.4064171,48.7882353 12.4064171,49.4705882 L12.4064171,55.5187166 L1.27165775,55.5187166 C0.589304813,55.5187166 0.0620320856,56.0770053 0.0620320856,56.7593583 C0.0620320856,57.4417112 0.620320856,58 1.27165775,58 L13.4919786,58 L25.7122995,58 L25.7433155,58 L37.9636364,58 L50.1839572,58 L62.342246,58 C63.0245989,58 63.5518717,57.4417112 63.5518717,56.7593583 C63.5518717,56.0770053 63.0245989,55.5187166 62.342246,55.5187166 Z M36.9090909,29.5582888 L36.9090909,36.5989305 L29.5582888,36.5989305 C32.1326203,34.4278075 34.7379679,32.1636364 36.9090909,29.5582888 Z M14.8877005,55.5187166 L14.8877005,50.5561497 L24.5026738,50.5561497 L24.5026738,55.5187166 L14.8877005,55.5187166 Z M26.9839572,39.0802139 L36.9090909,39.0802139 L36.9090909,55.5187166 L26.9839572,55.5187166 L26.9839572,39.0802139 Z M39.3903743,55.5187166 L39.3903743,37.9016043 L39.3903743,26.3016043 C39.3903743,26.115508 39.3903743,25.9294118 39.3903743,25.7122995 L39.3903743,20.1604278 L42.4299465,20.1604278 C42.4299465,20.1604278 42.4299465,20.1604278 42.4299465,20.1604278 C42.4299465,20.1604278 42.4299465,20.1604278 42.4299465,20.1604278 L49.0053476,20.1604278 L49.0053476,55.5187166 L39.3903743,55.5187166 Z" id="Shape"></path>
                        </g>
                    </g>
                </g>
            </g>
        </g>
    </g>
</svg>