<svg width="40" height="40" viewBox="0 0 40 40" fill="none" xmlns="http://www.w3.org/2000/svg">
                    <rect width="40" height="40" rx="20" fill="#E3EBF6"></rect>
                    <path fill-rule="evenodd" clip-rule="evenodd" d="M22.2067 13.5862C18.5503 13.5862 15.5862 16.5503 15.5862 20.2067C15.5862 23.8631 18.5503 26.8272 22.2067 26.8272C23.3282 26.8272 24.3846 26.5484 25.3103 26.0562C25.757 25.8187 26.1733 25.5315 26.5517 25.2021C27.946 23.9883 28.8272 22.2004 28.8272 20.2067C28.8272 18.213 27.946 16.4251 26.5517 15.2114C26.1733 14.8819 25.757 14.5948 25.3103 14.3573C24.3846 13.8651 23.3282 13.5862 22.2067 13.5862ZM14.3448 20.2067C14.3448 15.8647 17.8647 12.3448 22.2067 12.3448C26.5487 12.3448 30.0686 15.8647 30.0686 20.2067C30.0686 24.5487 26.5487 28.0686 22.2067 28.0686C17.8647 28.0686 14.3448 24.5487 14.3448 20.2067Z" fill="#2A394E"></path>
                    <path fill-rule="evenodd" clip-rule="evenodd" d="M26.4679 25.7134C26.7324 25.4954 27.1236 25.533 27.3416 25.7975L30.083 29.1228C30.3011 29.3873 30.2634 29.7785 29.9989 29.9965C29.7344 30.2146 29.3432 30.1769 29.1252 29.9124L26.3838 26.5872C26.1657 26.3227 26.2034 25.9315 26.4679 25.7134Z" fill="#2A394E"></path>
                    <path d="M19.1034 28.6897C19.1034 29.1467 18.7329 29.5172 18.2759 29.5172C17.8188 29.5172 17.4483 29.1467 17.4483 28.6897C17.4483 28.2326 17.8188 27.8621 18.2759 27.8621C18.7329 27.8621 19.1034 28.2326 19.1034 28.6897Z" fill="#2A394E"></path>
                    <path fill-rule="evenodd" clip-rule="evenodd" d="M12.4828 9.24138H24.069C24.7546 9.24138 25.3103 9.79716 25.3103 10.4828V14.3573C25.757 14.5948 26.1733 14.8819 26.5517 15.2114V10.4828C26.5517 9.11157 25.4402 8 24.069 8H12.4828C11.1116 8 10 9.11157 10 10.4828V29.5172C10 30.8884 11.1116 32 12.4828 32H24.069C25.4402 32 26.5517 30.8884 26.5517 29.5172V25.2021C26.1733 25.5315 25.757 25.8187 25.3103 26.0562V29.5172C25.3103 30.2028 24.7546 30.7586 24.069 30.7586H12.4828C11.7972 30.7586 11.2414 30.2028 11.2414 29.5172V10.4828C11.2414 9.79716 11.7972 9.24138 12.4828 9.24138Z" fill="#2A394E"></path>
                    <path d="M24.5003 18.2359H23.8107C23.7651 17.8414 23.6258 17.4722 23.4049 17.1863H24.5003C24.7627 17.1863 24.9751 16.9929 24.9751 16.7341C24.9751 16.4751 24.7626 16.2763 24.5003 16.2763H20.786C20.7724 16.2763 20.7593 16.2759 20.7453 16.2759C20.7363 16.2759 20.7272 16.2763 20.7182 16.2763H18.9475C18.6851 16.2763 18.4727 16.4752 18.4727 16.7341C18.4727 16.9929 18.6851 17.1863 18.9475 17.1863H21.0533C21.7183 17.2341 22.4149 17.488 22.5984 18.2359H18.9475C18.6851 18.2359 18.4727 18.4458 18.4727 18.7048C18.4727 18.9637 18.6851 19.1736 18.9475 19.1736H22.5511C22.3269 19.7647 21.711 20.1252 20.8551 20.1252H19.9108H19.908H19.3573C19.1016 20.1252 18.8942 20.3299 18.8942 20.5823C18.8942 20.8348 19.1016 21.0395 19.3573 21.0395H19.9015C19.9037 21.0397 19.9057 21.0408 19.908 21.0408H20.7673C21.701 21.0758 22.1163 21.4754 22.3544 22.5687C22.5407 23.3808 22.6778 23.9098 22.7857 24.2266C22.8665 24.5197 23.0265 24.9613 23.304 25.2251C23.4125 25.3281 23.5524 25.3793 23.6919 25.3793C23.8387 25.3793 23.9854 25.3227 24.0953 25.2099C24.2966 25.0034 24.3002 24.6838 24.1158 24.4703C24.1149 24.4677 24.1153 24.465 24.114 24.4624C23.9436 24.1506 23.7376 23.314 23.4862 22.253C23.2864 21.3902 22.9131 20.8529 22.3474 20.6142C23.0577 20.3451 23.5463 19.8304 23.7378 19.1735H24.5003C24.7626 19.1735 24.9751 18.9636 24.9751 18.7047C24.9751 18.4458 24.7627 18.2359 24.5003 18.2359Z" fill="#2A394E"></path>
                  </svg>