<svg width="40" height="40" viewBox="0 0 40 40" fill="none" xmlns="http://www.w3.org/2000/svg">
                    <rect width="40" height="40" rx="20" fill="#E3EBF6"></rect>
                    <path fill-rule="evenodd" clip-rule="evenodd" d="M19.1283 31.1559V20.5894H20.3086V31.1559H19.1283Z" fill="#2A394E"></path>
                    <path fill-rule="evenodd" clip-rule="evenodd" d="M15.7541 25.9589C16.7634 25.9589 17.5817 25.1406 17.5817 24.1312C17.5817 23.1219 16.7634 22.3036 15.7541 22.3036C14.7447 22.3036 13.9264 23.1219 13.9264 24.1312C13.9264 25.1406 14.7447 25.9589 15.7541 25.9589ZM15.7541 26.8853C17.2751 26.8853 18.5081 25.6523 18.5081 24.1312C18.5081 22.6102 17.2751 21.3772 15.7541 21.3772C14.233 21.3772 13 22.6102 13 24.1312C13 25.6523 14.233 26.8853 15.7541 26.8853Z" fill="#2A394E"></path>
                    <path fill-rule="evenodd" clip-rule="evenodd" d="M23.8397 25.9589C22.8303 25.9589 22.0121 25.1406 22.0121 24.1312C22.0121 23.1219 22.8303 22.3036 23.8397 22.3036C24.8491 22.3036 25.6673 23.1219 25.6673 24.1312C25.6673 25.1406 24.8491 25.9589 23.8397 25.9589ZM23.8397 26.8853C22.3187 26.8853 21.0856 25.6523 21.0856 24.1312C21.0856 22.6102 22.3187 21.3772 23.8397 21.3772C25.3607 21.3772 26.5938 22.6102 26.5938 24.1312C26.5938 25.6523 25.3607 26.8853 23.8397 26.8853Z" fill="#2A394E"></path>
                    <path fill-rule="evenodd" clip-rule="evenodd" d="M19.6604 28.9406L16.6921 25.9722L17.3281 25.3362L20.2964 28.3045L19.6604 28.9406Z" fill="#2A394E"></path>
                    <path fill-rule="evenodd" clip-rule="evenodd" d="M19.9295 28.9406L22.8978 25.9722L22.2617 25.3362L19.2934 28.3045L19.9295 28.9406Z" fill="#2A394E"></path>
                    <path fill-rule="evenodd" clip-rule="evenodd" d="M24.62 31.9999H14.3906V30.8196H24.62V31.9999Z" fill="#2A394E"></path>
                    <circle cx="19.6884" cy="14.6884" r="5.93841" stroke="#2A394E" stroke-width="1.5"></circle>
                    <path d="M21.9503 12.9095H21.408C21.3722 12.5994 21.2627 12.309 21.089 12.0843H21.9503C22.1566 12.0843 22.3236 11.9322 22.3236 11.7287C22.3236 11.525 22.1566 11.3688 21.9503 11.3688H19.0298C19.0191 11.3688 19.0088 11.3684 18.9979 11.3684C18.9908 11.3684 18.9836 11.3688 18.9765 11.3688H17.5843C17.378 11.3688 17.2109 11.5251 17.2109 11.7287C17.2109 11.9322 17.378 12.0843 17.5843 12.0843H19.24C19.7629 12.1218 20.3106 12.3215 20.4549 12.9095H17.5843C17.378 12.9095 17.2109 13.0746 17.2109 13.2782C17.2109 13.4817 17.378 13.6468 17.5843 13.6468H20.4177C20.2414 14.1116 19.7572 14.395 19.0842 14.395H18.3417H18.3395H17.9065C17.7054 14.395 17.5424 14.5559 17.5424 14.7544C17.5424 14.953 17.7054 15.1139 17.9065 15.1139H18.3344C18.3361 15.1141 18.3377 15.1149 18.3395 15.1149H19.0152C19.7493 15.1425 20.0758 15.4567 20.263 16.3163C20.4095 16.9548 20.5173 17.3707 20.6022 17.6198C20.6657 17.8503 20.7915 18.1975 21.0096 18.4049C21.095 18.4859 21.205 18.5262 21.3147 18.5262C21.4301 18.5262 21.5455 18.4816 21.6318 18.393C21.7901 18.2306 21.793 17.9793 21.6479 17.8114C21.6473 17.8094 21.6476 17.8072 21.6465 17.8053C21.5126 17.56 21.3506 16.9023 21.153 16.068C20.9958 15.3897 20.7023 14.9672 20.2576 14.7795C20.816 14.5679 21.2002 14.1632 21.3508 13.6467H21.9503C22.1566 13.6467 22.3236 13.4816 22.3236 13.2781C22.3236 13.0745 22.1566 12.9095 21.9503 12.9095Z" fill="#2A394E"></path>
                  </svg>