<svg width="40" height="40" viewBox="0 0 40 40" fill="none" xmlns="http://www.w3.org/2000/svg">
                    <rect width="40" height="40" rx="20" fill="#E3EBF6"></rect>
                    <path fill-rule="evenodd" clip-rule="evenodd" d="M18.7675 14.1494C18.7675 12.7033 19.9121 11.4828 21.3762 11.4828C22.8404 11.4828 23.985 12.7033 23.985 14.1494V16.0812C24.0059 16.0807 24.0269 16.0805 24.0479 16.0805C24.8791 16.0805 25.6088 16.4764 26.0831 17.0804C26.2868 17.028 26.5 17 26.7196 17C27.5507 17 28.2804 17.3959 28.7548 17.9999C28.9584 17.9475 29.1717 17.9195 29.3913 17.9195C30.8554 17.9195 32 19.1401 32 20.5862V25.6437C32 28.8646 29.4563 31.5287 26.2743 31.5287H24.1878C22.8893 31.5287 21.6688 31.0047 20.7586 30.065L14.4169 23.516C13.5852 22.6572 13.5852 21.273 14.4169 20.4142C15.5212 19.2752 17.3008 19.1422 18.5539 20.1129L18.7675 20.2783V14.1494ZM21.3762 13.1379C20.8758 13.1379 20.4227 13.5671 20.4227 14.1494V23.6527L17.5407 21.4218C17.0401 21.0338 16.3538 21.0219 15.8396 21.3696C15.7567 21.4256 15.6783 21.491 15.6059 21.5657C15.3957 21.7827 15.3957 22.1475 15.6059 22.3645L17.931 24.7656L21.9476 28.9135C22.5514 29.5369 23.3453 29.8736 24.1878 29.8736H26.2743C28.4928 29.8736 30.3448 28.0007 30.3448 25.6437V20.5862C30.3448 20.0038 29.8917 19.5747 29.3913 19.5747C29.2014 19.5747 29.0233 19.6338 28.8717 19.7386L27.9711 20.3614L27.6177 19.3251C27.4795 18.9199 27.1155 18.6552 26.7196 18.6552C26.5298 18.6552 26.3516 18.7142 26.2 18.8191L25.2995 19.4419L24.946 18.4056C24.8078 18.0004 24.4438 17.7356 24.0479 17.7356C23.8793 17.7356 23.7214 17.7821 23.5835 17.8649L22.3298 18.6178V14.1494C22.3298 13.5671 21.8767 13.1379 21.3762 13.1379Z" fill="#2A394E"></path>
                    <path fill-rule="evenodd" clip-rule="evenodd" d="M14.6207 10.6552H11.3103C10.3962 10.6552 9.65517 11.3962 9.65517 12.3103V15.6207C9.65517 16.5348 10.3962 17.2759 11.3103 17.2759H14.6207C15.5348 17.2759 16.2759 16.5348 16.2759 15.6207V12.3103C16.2759 11.3962 15.5348 10.6552 14.6207 10.6552ZM11.3103 9C9.48209 9 8 10.4821 8 12.3103V15.6207C8 17.4489 9.48209 18.931 11.3103 18.931H14.6207C16.4489 18.931 17.931 17.4489 17.931 15.6207V12.3103C17.931 10.4821 16.4489 9 14.6207 9H11.3103Z" fill="#2A394E"></path>
                    <path fill-rule="evenodd" clip-rule="evenodd" d="M11.3103 22.7931H14.6207C15.5348 22.7931 16.2759 23.5341 16.2759 24.4483V27.7586C16.2759 28.6727 15.5348 29.4138 14.6207 29.4138H11.3103C10.3962 29.4138 9.65517 28.6727 9.65517 27.7586V24.4483C9.65517 23.5341 10.3962 22.7931 11.3103 22.7931ZM8 24.4483C8 22.62 9.48209 21.1379 11.3103 21.1379H14.6207C15.0511 21.1379 15.4624 21.2201 15.8396 21.3696C15.7567 21.4256 15.6783 21.491 15.6059 21.5657C15.3957 21.7827 15.3957 22.1475 15.6059 22.3645L17.931 24.7656V27.7586C17.931 29.5869 16.4489 31.069 14.6207 31.069H11.3103C9.48209 31.069 8 29.5869 8 27.7586V24.4483Z" fill="#2A394E"></path>
                  </svg>