<svg width="40" height="40" viewBox="0 0 40 40" fill="none" xmlns="http://www.w3.org/2000/svg">
                  <rect width="40" height="40" rx="20" fill="#E3EBF6"></rect>
                  <g clip-path="url(#clip0_10884_87985)">
                    <path d="M20.1028 8.00006C20.4958 8.00006 20.8828 8.02556 21.2428 8.08556C21.5974 8.13202 21.9472 8.20931 22.2883 8.31656C22.6303 8.42006 22.9648 8.54906 23.2993 8.71106C23.6248 8.86556 23.9593 9.05456 24.2938 9.26006C24.8593 9.62006 25.4158 9.91106 25.9828 10.1436C27.099 10.5903 28.2793 10.8561 29.4793 10.9311C30.0883 10.9746 30.7138 11.0001 31.3648 11.0001V17.0001C31.3648 18.1401 31.2193 19.2201 30.9283 20.2491C30.6488 21.2634 30.2516 22.2415 29.7448 23.1636C29.2402 24.0843 28.6431 24.9513 27.9628 25.7511C27.2721 26.569 26.5242 27.3369 25.7248 28.0491C24.9148 28.7633 24.0617 29.427 23.1703 30.0366C22.2793 30.6546 21.3793 31.2291 20.4793 31.7511L20.1193 31.9656L19.7593 31.7511C18.8341 31.2154 17.9304 30.6435 17.0503 30.0366C16.1539 29.4339 15.3003 28.7698 14.4958 28.0491C13.6969 27.3369 12.9495 26.569 12.2593 25.7511C11.5808 24.9479 10.9811 24.0814 10.4683 23.1636C9.9702 22.2374 9.57341 21.2603 9.2848 20.2491C8.99196 19.1912 8.84757 18.0977 8.8558 17.0001V11.0001C9.5083 11.0001 10.1338 10.9746 10.7428 10.9311C11.3423 10.8894 11.9379 10.8037 12.5248 10.6746C13.0993 10.5456 13.6738 10.3746 14.2393 10.1436C14.8261 9.90673 15.3887 9.61387 15.9193 9.26906C16.5793 8.84006 17.2483 8.52356 17.9083 8.31506C18.6191 8.09716 19.3594 7.99089 20.1028 8.00006ZM29.8558 12.4746C28.7203 12.4195 27.5955 12.2296 26.5048 11.9091C25.4199 11.5854 24.3866 11.1092 23.4358 10.4946C22.9426 10.1709 22.4071 9.91694 21.8443 9.74006C21.2821 9.57016 20.6975 9.48621 20.1103 9.49106C19.5187 9.48723 18.9298 9.57114 18.3628 9.74006C17.7992 9.9112 17.2643 10.1655 16.7758 10.4946C15.8234 11.1125 14.7874 11.5909 13.6993 11.9151C12.6358 12.2241 11.5228 12.4131 10.3558 12.4821V17.0076C10.3558 18.0021 10.4848 18.9531 10.7428 19.8696C11.0056 20.7781 11.3678 21.6549 11.8228 22.4841C12.2832 23.3219 12.8259 24.1118 13.4428 24.8421C14.0683 25.5786 14.7358 26.2641 15.4558 26.9151C16.1758 27.5676 16.9303 28.1676 17.7193 28.7241C18.5158 29.2821 19.3138 29.7876 20.1103 30.2496C20.9259 29.7748 21.7211 29.2658 22.4938 28.7241C23.288 28.1693 24.0465 27.5651 24.7648 26.9151C25.4848 26.2641 26.1538 25.5786 26.7793 24.8421C27.3963 24.1118 27.9389 23.3219 28.3993 22.4841C28.8523 21.6559 29.2091 20.7787 29.4628 19.8696C29.7286 18.939 29.861 17.9754 29.8558 17.0076V12.4746Z" fill="#2A394E"></path>
                    <path fill-rule="evenodd" clip-rule="evenodd" d="M25.6962 15.0636L25.0362 14.4966L24.4272 14.5491L17.8872 22.2711L15.6597 19.0911L15.0597 18.9891L14.3652 19.4856L14.2617 20.0856L17.1252 24.1746L17.4507 24.3546L18.1362 24.3966L18.4872 24.2436L25.7397 15.6711L25.6962 15.0636Z" fill="#2A394E"></path>
                  </g>
                  <defs>
                    <clipPath id="clip0_10884_87985">
                      <rect width="24" height="24" fill="white" transform="translate(8 8)"></rect>
                    </clipPath>
                  </defs>
                </svg>