<svg width="48" height="48" viewBox="0 0 48 48" fill="none" xmlns="http://www.w3.org/2000/svg">
<path d="M36.6036 11.4062C39.1931 15.2104 37.3431 22.5342 32.0722 28.4309C29.5753 31.0944 26.8007 33.0908 24.12 34.2327C24.1443 35.0317 24.2375 35.8271 24.3986 36.61C26.9295 35.1063 29.2071 33.2125 31.1473 30.9984C37.4351 23.9605 39.7478 15.4963 36.6036 11.4062Z" fill="#9EA0A2"/>
<path d="M36.0484 10.8363L36.6035 11.4069C36.4064 11.1098 36.1554 10.8521 35.8635 10.6472C33.4576 8.26937 29.2048 8.55453 25.0433 10.9323C29.3899 8.74371 33.6435 8.45753 36.0484 10.8363Z" fill="black"/>
<path d="M15.0557 33.661C11.4489 30.2376 13.2069 22.2484 18.9398 15.8758C20.7165 13.9324 22.7737 12.2654 25.0432 10.9303C21.952 12.5612 19.192 14.7544 16.9049 17.3974C10.2467 24.7214 8.0269 33.7557 11.9115 37.5609C13.391 38.8925 15.333 39.3676 17.6452 39.0824C18.5773 37.9012 19.3837 36.6259 20.0511 35.2773C18.1076 35.3725 16.3503 34.8972 15.0557 33.661Z" fill="#D2562E"/>
<path d="M25.0435 10.9312C29.3904 8.74335 33.644 8.45819 36.0479 10.8347L36.605 11.4063C39.1933 15.2104 37.3433 22.535 32.0718 28.431C29.5755 31.095 26.8008 33.0914 24.1197 34.2328C24.1197 32.616 24.4897 30.5229 25.4143 27.9556C25.4143 27.9556 25.9689 26.7187 27.5416 21.2026C27.5416 21.2026 28.9284 18.349 24.9521 19.3007C24.9521 19.3007 22.4553 19.4907 18.2011 23.8659C18.2011 23.8659 16.1665 26.7195 19.8658 25.0073C19.8658 25.0073 21.9004 23.2948 21.9004 25.8625C21.9004 25.8625 22.3626 30.1425 20.0517 35.2784C18.1095 35.3737 16.3521 34.8986 15.058 33.6617C11.4512 30.2382 13.2093 22.2491 18.9422 15.8765C20.718 13.9331 22.7746 12.2662 25.0435 10.9312ZM26.8008 12.6432C25.5062 14.07 25.2287 15.7815 25.9682 16.5433C26.8008 17.2091 28.3741 16.7337 29.6677 15.4019C30.8699 13.9756 31.2399 12.2636 30.4077 11.5018C29.5755 10.74 28.0028 11.3111 26.8008 12.6432Z" fill="#BA2A2F"/>
</svg>
