<?xml version="1.0" encoding="UTF-8"?>
<svg width="37px" height="34px" viewBox="0 0 37 34" version="1.1" xmlns="http://www.w3.org/2000/svg" xmlns:xlink="http://www.w3.org/1999/xlink">
    <title>0D84DA9D-1959-4EEE-B66A-6EF2162728D8</title>
    <defs>
        <polygon id="path-1" points="0 0.0490348582 35.9125177 0.0490348582 35.9125177 13.7759293 0 13.7759293"></polygon>
    </defs>
    <g id="Product-card-icon" stroke="none" stroke-width="1" fill="none" fill-rule="evenodd">
        <g id="Product-card-icon_popup-Copy-2" transform="translate(-807.000000, -379.000000)">
            <g id="Group-17" transform="translate(529.000000, 194.000000)">
                <g id="Group-25-Copy-2" transform="translate(246.000000, 154.000000)">
                    <g id="goal_wealth" transform="translate(32.390244, 31.726079)">
                        <path d="M23.6367269,1.2894978 L33.5998666,5.91555866 L12.2426634,17.57181 L2.65725202,12.3502716 L23.6367269,1.2894978 Z M1.0841247,12.8746473 L11.9582562,18.7938722 C12.1395658,18.8925259 12.3590926,18.8925259 12.5404022,18.7938722 L35.235208,6.40438354 C35.5302805,6.24307133 35.6387107,5.87289758 35.4773985,5.5782695 C35.4156288,5.46539539 35.3200858,5.37518498 35.2036566,5.32008109 L23.8766955,0.0629917509 C23.7069399,-0.0209972503 23.5082993,-0.0209972503 23.3389881,0.0629917509 L1.09301242,11.8036765 C0.797051178,11.9636555 0.686843388,12.3329405 0.846822438,12.6289017 C0.903259492,12.7328881 0.989026038,12.8182103 1.09301242,12.8746473 L1.0841247,12.8746473 Z" id="Fill-1" fill="#97144E"></path>
                        <path d="M18.1617105,7.6887709 C20.1658925,7.6887709 21.3968424,8.51532932 21.3968424,9.10636303 C21.3968424,9.69739675 20.1658925,10.5239552 18.1617105,10.5239552 C16.1575285,10.5239552 14.9088032,9.69739675 14.9088032,9.10636303 C14.9088032,8.51532932 16.1575285,7.6887709 18.1617105,7.6887709 M18.1617105,11.7326858 C20.699156,11.7326858 22.605573,10.6039447 22.605573,9.10191917 C22.605573,7.59989365 20.6947122,6.47115257 18.1617105,6.47115257 C15.6287089,6.47115257 13.717848,7.59989365 13.717848,9.10191917 C13.717848,10.6039447 15.624265,11.7326858 18.1617105,11.7326858" id="Fill-3" fill="#97144E"></path>
                        <g id="Group-10" transform="translate(0.000000, 14.494737)">
                            <mask id="mask-2" fill="white">
                                <use xlink:href="#path-1"></use>
                            </mask>
                            <g id="Clip-9"></g>
                        </g>
                        <path d="M0.688532056,17.3273894 L12.0070498,23.3977055 C12.1870263,23.4959149 12.4047755,23.4959149 12.584752,23.3977055 L35.6395106,10.8571256 C35.9199183,10.6718165 35.9972415,10.2940882 35.8119325,10.0136805 C35.6483983,9.76704609 35.3324397,9.67328059 35.0618085,9.79059856 L12.291457,22.1711995 L1.25734646,16.2608624 C0.963162758,16.1035496 0.596544102,16.2146462 0.439231369,16.5088299 C0.281918637,16.8030136 0.392570813,17.1691879 0.687198897,17.326945 C0.687643283,17.326945 0.688087669,17.3273894 0.688532056,17.3273894" id="Fill-5" fill="#97144E"></path>
                        <path d="M0.688532056,21.9308894 L12.0070498,28.0012056 C12.1870263,28.099415 12.4047755,28.099415 12.584752,28.0012056 L35.6395106,15.4606256 C35.9199183,15.2753165 35.9972415,14.8975882 35.8119325,14.6171805 C35.6483983,14.3705461 35.3324397,14.2767806 35.0618085,14.3940986 L12.291457,26.7746995 L1.25734646,20.8643624 C0.963162758,20.7070497 0.596544102,20.8181462 0.43923137,21.1123299 C0.281918637,21.4065136 0.392570813,21.7726879 0.687198897,21.930445 C0.687643283,21.930445 0.68808767,21.9308894 0.688532056,21.9308894" id="Fill-5-Copy" fill="#97144E"></path>
                        <path d="M0.688532056,26.5343895 L12.0070498,32.6047056 C12.1870263,32.702915 12.4047755,32.702915 12.584752,32.6047056 L35.6395106,20.0641257 C35.9199183,19.8788166 35.9972415,19.5010883 35.8119325,19.2206806 C35.6483983,18.9740462 35.3324397,18.8802807 35.0618085,18.9975987 L12.291457,31.3781996 L1.25734646,25.4678625 C0.963162758,25.3105497 0.596544102,25.4216463 0.43923137,25.71583 C0.281918637,26.0100137 0.392570813,26.376188 0.687198897,26.5339451 C0.687643283,26.5339451 0.68808767,26.5343895 0.688532056,26.5343895" id="Fill-5-Copy-2" fill="#97144E"></path>
                    </g>
                </g>
            </g>
        </g>
    </g>
</svg>