<?xml version="1.0" encoding="UTF-8"?>
<svg width="32px" height="37px" viewBox="0 0 32 37" version="1.1" xmlns="http://www.w3.org/2000/svg" xmlns:xlink="http://www.w3.org/1999/xlink">
    <title>investor awareness</title>
    <g id="Page-1" stroke="none" stroke-width="1" fill="none" fill-rule="evenodd">
        <g id="investor-awareness" transform="translate(0.5389, 0.5816)" fill="#97144D" fill-rule="nonzero" stroke="#97134D" stroke-width="0.4">
            <path d="M16.3537115,10.014789 C20.1474951,10.014789 23.2229644,13.0902582 23.2229645,16.8840418 C23.225867,21.8092102 20.2080271,21.322737 20.0403694,25.8596335 L20.0331156,26.2610558 C20.0277964,27.2270632 19.2436078,28.0075783 18.2775861,28.0083616 L18.2350161,28.0107803 L18.2350161,28.3082867 C18.2334191,29.1128683 17.5815745,29.7647129 16.7769929,29.7663098 L15.9347838,29.7663098 C15.1300134,29.764979 14.4778747,29.1130567 14.476277,28.3082867 L14.476277,28.0088453 C13.9958907,28.0194381 13.532105,27.8329322 13.1927952,27.4927086 C12.8534855,27.1524851 12.6682277,26.6881994 12.6801124,26.2078433 C12.681104,25.8654894 12.6639876,25.5233225 12.6288349,25.1827766 C12.268441,21.4995026 9.48445858,21.5270763 9.48445858,16.8840418 C9.48445858,13.0902582 12.5599279,10.014789 16.3537115,10.014789 Z M17.0759506,28.0107803 L15.6353425,28.0107803 C15.6353425,28.2173417 15.6024474,28.3977805 15.723385,28.5211368 C15.7792932,28.5775567 15.8553554,28.6094089 15.9347838,28.6096631 L16.7779604,28.6096631 C16.9427092,28.6083442 17.0758655,28.4749724 17.0769181,28.3102217 L17.0759506,28.0107803 Z M18.8866276,25.7250606 L13.8256329,25.7250606 L13.8367592,26.2610558 C13.8373984,26.4186031 13.9006973,26.5694217 14.0126893,26.6802338 C14.1246813,26.791046 14.2761618,26.8527442 14.4337069,26.8517148 L18.2785536,26.8517148 C18.6065158,26.8536136 18.8728483,26.5890078 18.8755013,26.2610558 L18.8866276,25.7250606 Z M16.3561303,11.1748219 C13.2019465,11.1748219 10.6449753,13.7317931 10.6449753,16.8859768 C10.6449753,18.8952333 11.2656268,19.9008291 11.9596874,20.8613756 L12.2223324,21.2213411 C12.8382118,22.0650708 13.4579223,22.9660518 13.7148541,24.5664789 L14.7026721,24.5664789 L14.7026721,19.6075555 L14.3079319,19.6075555 C13.9873305,19.6075555 13.7274316,19.3476567 13.7274316,19.0270552 C13.7274316,18.7064538 13.9873305,18.446555 14.3079319,18.446555 L18.4043286,18.446555 C18.7249301,18.446555 18.9848289,18.7064538 18.9848289,19.0270552 C18.9848289,19.3476567 18.7249301,19.6075555 18.4043286,19.6075555 L18.0100722,19.6075555 L18.0100722,24.5664789 L18.9974064,24.5664789 C19.5846792,20.9083598 22.0672852,20.9044898 22.0672852,16.8859768 C22.0672852,13.7317931 19.510314,11.1748219 16.3561303,11.1748219 Z M16.8510067,19.6075555 L15.8612538,19.6075555 L15.8612538,24.5664789 L16.8510067,24.5664789 L16.8510067,19.6075555 Z" id="Combined-Shape"></path>
            <path d="M10.3963277,10.4579041 C10.6725793,10.6182048 10.766576,10.9721004 10.6062753,11.2483519 C10.4459746,11.5246035 10.092079,11.6186002 9.81582747,11.4582995 L6.82383244,9.73082752 C6.645129,9.62713114 6.53532157,9.43597459 6.53577216,9.22936468 C6.53622554,9.02275477 6.64686826,8.83208047 6.82602368,8.72916695 C7.00517911,8.62625343 7.22562926,8.6267357 7.40433269,8.73043209 L10.3963277,10.4579041 Z" id="Path"></path>
            <path d="M13.7201754,7.55540284 C13.8228348,7.73410627 13.8223589,7.95400321 13.7189269,8.1322606 C13.6154949,8.31051798 13.4248206,8.42005428 13.2187292,8.41960958 C13.0126377,8.41916217 12.8224394,8.30880153 12.71978,8.13009809 L10.992308,5.1366518 C10.8336103,4.86040024 10.9289065,4.50780418 11.2051581,4.34910647 C11.4814096,4.19040876 11.8340057,4.28570499 11.9927034,4.56195656 L13.7196916,7.55540284 L13.7201754,7.55540284 Z" id="Path"></path>
            <path d="M24.2562549,11.4563645 C24.0775515,11.5600609 23.8571013,11.5605432 23.6779459,11.4576296 C23.4987905,11.3547161 23.3881477,11.1640418 23.3876944,10.9574319 C23.3872438,10.750822 23.4970512,10.5596655 23.6757547,10.4559691 L26.6677497,8.72849709 C26.8464531,8.62480071 27.0669033,8.62431845 27.2460587,8.72723197 C27.4252141,8.83014549 27.5358568,9.02081978 27.5363102,9.22742968 C27.5367608,9.43403958 27.4269534,9.62519614 27.2482499,9.72889252 L24.2562549,11.4563645 L24.2562549,11.4563645 Z" id="Path"></path>
            <path d="M21.3537537,8.13009809 C21.2510942,8.30888793 21.0608498,8.41932841 20.8546835,8.4198193 C20.6485173,8.42030693 20.4577508,8.31077064 20.3542439,8.13247005 C20.2507371,7.95416946 20.2502151,7.73419269 20.3528745,7.55540284 L22.0803465,4.56340781 C22.1803273,4.37992518 22.3717467,4.26488751 22.5806901,4.26268409 C22.7896334,4.26054326 22.983403,4.3715766 23.0871767,4.55294105 C23.1909504,4.7343055 23.1884886,4.95761915 23.0807419,5.1366518 L21.3532699,8.13009809 L21.3537537,8.13009809 Z" id="Path"></path>
            <path d="M17.6158158,7.62312787 C17.6158158,7.83052064 17.5051731,8.02215948 17.3255657,8.12585587 C17.1459583,8.22955226 16.9246728,8.22955226 16.7450654,8.12585587 C16.565458,8.02215948 16.4548153,7.83052064 16.4548153,7.62312787 L16.4548153,4.16915139 C16.4548153,3.84854996 16.7147141,3.58865114 17.0353156,3.58865114 C17.355917,3.58865114 17.6158158,3.84854996 17.6158158,4.16915139 L17.6158158,7.62312787 L17.6158158,7.62312787 Z" id="Path"></path>
            <path d="M16.9525943,0.000333225077 C20.4668389,-0.0238922127 23.8618995,1.273559 26.4640908,3.63557491 C28.9698642,5.8892039 30.409946,9.09443956 30.4308425,12.4644999 C30.4308425,16.3596566 27.2646974,21.8889215 25.2619716,25.9088857 C25.0799437,26.2539494 25.0537239,26.6602679 25.1898928,27.0258649 L27.1248936,32.5522273 C27.4044633,33.3447977 27.2816178,34.2237812 26.7954676,34.9093357 C26.3093174,35.5948902 25.5204511,36.0015755 24.6800201,35.9999578 L13.2485189,35.9999578 C12.4257013,36.0053847 11.6906833,35.4864569 11.4204269,34.7092695 L10.3890715,31.8024145 C10.26892,31.441678 9.93612025,31.1944939 9.55605361,31.183698 L4.98461415,30.9737504 C4.07026627,30.9388587 3.28754103,30.3072479 3.06025583,29.4209122 L2.45266557,27.1163262 C2.27571174,26.455483 2.54543488,25.7559619 3.12024085,25.3849842 L3.39114097,25.2079316 C2.91590657,25.07336 2.49619203,24.7902731 2.19337546,24.4000688 C2.02629622,24.1426117 1.93787335,23.8420412 1.93892285,23.5351234 L1.93892285,22.3804117 L0.572328514,21.2416637 C-0.0754797072,20.7053925 -0.189475933,19.7555658 0.313038403,19.0812353 L3.66639484,14.5572033 C2.1735417,6.49357114 9.14438218,0.000333225077 16.9525943,0.000333225077 Z M14.3127694,1.42580397 C8.18897552,2.68839201 3.53287978,8.15283435 4.85109909,14.5794558 C4.88405951,14.7399657 4.8471156,14.906917 4.74951155,15.0385348 L1.2389363,19.7696118 C1.10664143,19.9529528 1.13669566,20.2070477 1.30811258,20.3544658 L2.885622,21.6688151 C2.99104433,21.756523 3.06090941,21.8780921 3.08464622,22.010979 L3.09363459,22.1124141 L3.09363459,23.5351234 C3.08720431,23.7054898 3.18730952,23.8619163 3.34470095,23.9274448 L4.82787908,24.5834101 C5.01948556,24.6708094 5.14872866,24.855127 5.16560272,25.0650483 C5.1800662,25.2449808 5.11002811,25.4195311 4.97940103,25.5393362 L4.90914912,25.5944481 L3.74814862,26.3510334 C3.58915417,26.4486698 3.51570423,26.6410292 3.56916105,26.8197873 L4.17771881,29.1219546 C4.27579901,29.518355 4.62533813,29.8013058 5.03347292,29.8146849 L9.60491238,30.0246325 C10.4561192,30.0562742 11.2004745,30.6075275 11.4789607,31.4125118 L12.5103161,34.3217855 C12.6167156,34.6371243 12.9158033,34.8466425 13.2485189,34.8391213 L24.6800201,34.8391213 C25.1464241,34.8425916 25.5851913,34.6181135 25.8551047,34.2377283 C26.1250182,33.8573431 26.1920107,33.3690614 26.0345207,32.9300362 L24.0995198,27.4036738 C23.854463,26.7280624 23.9091904,25.980004 24.2499661,25.3472517 C24.5527938,24.7415964 24.8222426,24.2172112 25.1037853,23.6686385 C26.942036,20.0961432 29.2741958,15.5537288 29.2741958,12.4625649 C29.2532766,9.41660025 27.9500538,6.52039354 25.6842855,4.48455653 C22.5977883,1.7111119 18.3741262,0.575015594 14.3127694,1.42580397 Z" id="Combined-Shape"></path>
        </g>
    </g>
</svg>