<svg width="48" height="48" viewBox="0 0 48 48" fill="none" xmlns="http://www.w3.org/2000/svg">
<path fill-rule="evenodd" clip-rule="evenodd" d="M38.728 26.7826L36.7473 26.0938L32.702 23.51L28.6566 19.5482V16.8783L25.9814 14.2084V13H24.6034L21.4165 13.6037L19.4358 16.8762L17.9716 19.5461L15.2991 22.132V23.51L13.3184 25.4907L12.6297 24.8019L7.29189 27.3857L6 28.0745V30.7444L7.46421 31.4332L10.0454 30.1418L13.4041 30.6588V33.242L15.3847 33.9308L18.0546 31.347H20.0353V32.6389L19.3497 33.9313L20.2953 35.2232L23.395 33.9313L22.7068 32.1225L23.3956 28.8499H24.6874V30.1418L26.6681 30.8306L27.3569 32.8112L28.7349 34.1031L30.1145 32.8117L34.0769 31.5188L32.785 30.2269L31.4069 27.557H30.0294L30.7182 29.5376L31.4069 30.2264L30.0289 31.4347H28.6514L27.2733 28.8499V27.4734L24.6034 24.8881L25.9814 23.5962L23.3115 21.0114L24.6034 19.7195V16.8783L25.9814 15.5864L27.9621 17.5671L27.2733 19.5477L28.6514 20.8396L31.3229 24.8019L33.9928 26.0938L37.3515 29.4525L39.3322 30.1413V31.4332H40.622L42 30.1413L39.3306 28.8499L38.728 26.7826Z" fill="#000AD2"/>
</svg>
