<svg width="48" height="48" viewBox="0 0 48 48" fill="none" xmlns="http://www.w3.org/2000/svg">
<path d="M6 36.3538C12.0309 27.9844 17.8152 19.4306 23.8461 11C20.6758 18.4707 19.0836 26.5158 19.1692 34.6309C14.7383 33.6459 9.93855 33.9537 6 36.3538Z" fill="#DA251D" stroke="#DA251D" stroke-width="0.094"/>
<path d="M33.2 24.4769H34.9229C35.5385 26.8154 36.092 29.2155 36.7075 31.5549C37.9404 29.2164 39.046 26.8163 40.215 24.4769H41.8767C41.9384 27.8616 41.9384 31.2462 42 34.6309H40.2771C40.2771 32.6002 40.2154 30.5695 40.1538 28.4771C39.1693 30.4462 38.2459 32.4773 37.1998 34.3847C36.6933 34.5168 36.1796 34.6196 35.6613 34.6925C35.1691 32.4773 34.5535 30.2631 34.0631 28.0465C33.5708 30.2617 33.0169 32.4157 32.4648 34.6313H30.6154L33.2 24.4769Z" fill="#1F317F" stroke="#1F317F" stroke-width="0.094"/>
<path d="M26.6769 33.3387C27.7847 30.5696 27.5386 27.4311 28.2752 24.5387C28.8879 24.4649 29.5042 24.4238 30.1214 24.4154C29.5675 27.4923 29.5675 30.7536 28.6446 33.7693C27.3523 35.9233 24.3978 34.6922 23.3521 32.9076C23.7215 32.6615 24.4599 32.2309 24.7677 31.9847C25.3788 32.4707 26.0161 32.9227 26.6769 33.3387Z" fill="#1F317F" stroke="#1F317F" stroke-width="0.094"/>
</svg>
