<svg width="48" height="48" viewBox="0 0 48 48" fill="none" xmlns="http://www.w3.org/2000/svg">
<path d="M8 23.7615C8 16.1616 15.1633 10 24.0011 10C32.8389 10 40 16.1616 40 23.7615C40 31.3613 32.8367 37.5229 24.0011 37.5229C15.1654 37.5229 8 31.3623 8 23.7615Z" fill="#003874"/>
<path d="M22.0578 14.4196L25.7753 13.1912L25.7934 33.2871L22.0445 34.5429L22.0578 14.4196Z" fill="#ED1C24"/>
<path d="M36.0337 25.1472C35.6848 28.0222 34.0725 30.9259 30.5513 30.9316C28.4958 30.9354 26.8899 29.528 25.7779 27.806V25.8112C27.1692 26.5027 28.47 27.2435 30.048 27.2657C31.992 27.2943 33.7492 26.5471 34.4762 25.1465L36.0337 25.1472ZM24.2645 26.9519C22.6494 28.8987 21.0884 30.8877 18.1637 30.8877C14.0329 30.8877 12.0734 26.8937 12.0734 23.5547C12.0734 20.3461 13.6049 16.5486 17.6289 16.5486C19.3747 16.5486 21.0547 17.6158 22.0564 18.745L22.0535 21.4686C21.2169 20.9055 19.3423 20.3528 18.1194 20.3327C15.5681 20.2901 13.3173 21.3962 13.3564 23.915C13.3831 25.6493 15.1013 26.8282 16.8109 26.8282C19.4296 26.8282 21.0152 24.4362 22.3409 22.621C22.7116 22.1465 23.7541 20.7521 23.9171 20.5283C25.3883 18.471 27.0921 16.5924 30.0168 16.5924C33.4617 16.5924 35.3961 19.3692 35.9433 22.2281H34.3899C33.7647 21.3008 32.5611 20.7338 31.3756 20.7338C28.6691 20.7338 27.0511 23.2238 25.6978 25.0573C25.6978 25.0573 24.6448 26.4924 24.2636 26.9519" fill="white"/>
</svg>
