<svg width="48" height="48" viewBox="0 0 48 48" fill="none" xmlns="http://www.w3.org/2000/svg">
<g clip-path="url(#clip0_291_9878)">
<circle cx="24" cy="24" r="24" fill="#1D4E9E"/>
<path d="M26.7907 39.362L26.768 39.3984L26.7722 39.421L26.7872 39.4306H26.7986L26.8158 39.425L26.8236 39.4112L26.8271 39.3975L26.8175 39.3794L26.7907 39.362Z" fill="white"/>
<path d="M26.0584 22.1574C27.5815 21.3187 28.6484 19.7484 28.6484 18.837C28.6484 18.1799 27.5815 17.6321 26.0584 17.3768V17.6321C27.277 17.8514 28.1156 18.2527 28.1156 18.5817C28.1156 18.8734 27.391 19.1655 26.3629 19.312H26.3241C26.2485 19.312 26.1336 19.312 26.0584 19.3484V22.1574ZM24.2683 17.2316C24.3821 16.8667 24.5339 16.4649 24.6871 15.9903C25.182 14.7135 24.4966 13.2173 24.3061 12.8156C24.0778 12.3774 23.5441 11.1005 23.5441 11.1005C23.2784 13.0713 22.3628 13.9468 22.0585 14.8955C21.9052 15.4069 22.135 15.9899 22.3628 16.4645C22.5161 16.7197 22.7051 17.0119 22.8592 17.2676C22.4873 17.3068 22.1182 17.3676 21.7535 17.4501V17.6694C22.1345 17.5952 22.5533 17.5229 23.0109 17.4865C23.0486 17.5584 23.1254 17.5948 23.1626 17.6694C23.392 17.9979 23.5823 18.2896 23.5823 18.7269C23.5823 19.3844 22.4393 19.3844 21.7535 19.3111V21.9738C22.4393 22.4135 23.2392 22.6679 24.0778 22.6679C24.77 22.6633 25.4503 22.4883 26.0584 22.1574V19.3484C25.3337 19.3484 24.3436 19.3116 24.0778 18.6905C23.9625 18.4712 24.0399 18.0343 24.1923 17.4501C24.8781 17.4501 25.524 17.5233 26.0584 17.6321V17.3768C25.5236 17.3049 24.9154 17.2316 24.2683 17.2316ZM21.7535 17.4501C20.3823 17.7045 19.468 18.2527 19.468 18.837C19.468 19.6401 20.3823 21.0987 21.7535 21.9738V19.3111C20.6493 19.1646 19.9247 18.8734 19.9247 18.5817C19.9247 18.2532 20.6493 17.8874 21.7535 17.6694V17.4501Z" fill="white"/>
<path d="M13.868 11.9757C13.868 11.9757 14.0959 11.1002 14.0959 10.9181C14.0959 10.6988 13.943 10.0418 14.6672 10.4435C15.3906 10.8453 15.2 11.3918 15.0483 11.7199C14.8957 12.0485 14.5142 13.1805 14.3237 13.5815L13.5238 15.6987C13.5238 15.6987 13.4482 15.8816 13.4094 15.9544C13.3717 15.9893 13.0671 17.0852 13.1816 18.2896L13.3333 19.6759C13.3333 19.6759 13.3721 19.7843 13.4865 19.6759C13.4865 19.6759 13.6391 19.6033 13.5243 18.9092C13.5243 18.9092 13.5243 17.4865 13.5631 17.1942C13.6008 16.9027 13.7536 15.9893 13.8288 15.8452C13.9053 15.6612 13.9426 15.6259 14.0954 15.2245C14.2485 14.7863 14.7433 13.5459 14.7433 13.5459C14.7433 13.5459 15.4294 12.1963 15.5044 11.8309C15.5044 11.8309 15.8102 11.1006 15.7716 10.115C15.7716 10.115 15.6949 9.8593 15.8102 9.75008C15.9619 9.64173 16.4575 9.75008 16.6476 9.89614C16.8379 10.0426 17.1817 10.3707 17.1429 10.8458C17.1051 11.2839 16.8771 12.0857 16.5713 12.8525C16.5713 12.8525 16.3049 13.4367 16.1525 13.6183C16.0387 13.7644 15.3526 15.2978 15.3526 15.3697C15.314 15.4425 15.2761 15.5535 15.1996 15.6263C15.1996 15.6263 14.8573 16.611 14.8196 16.9396C14.7429 17.3045 14.6291 17.6699 14.553 18.435C14.5138 19.1656 14.7808 20.188 14.7808 20.188C14.7808 20.188 14.8196 20.3694 14.9339 20.3694C15.0479 20.3694 15.0479 19.9687 15.0479 19.9323C15.0479 19.8595 15.0099 19.4941 14.9713 19.3116C14.9334 19.1656 14.9713 17.9251 14.9713 17.9251C14.9713 17.9251 15.0851 17.0124 15.3522 16.393C15.4662 16.1737 15.5427 15.8079 15.6945 15.4802C15.9238 14.9688 16.152 14.4942 16.152 14.4942C16.152 14.4942 16.9907 12.7428 17.0284 12.6331C17.0663 12.5239 17.486 11.4655 17.5235 10.9181C17.5235 10.4071 17.6373 10.0418 17.6373 10.0418C17.6373 10.0418 17.5608 9.64086 18.0949 9.85886C18.5897 10.0782 18.932 10.5164 18.9712 10.9177C18.9712 10.9177 19.048 11.3195 18.8947 11.3559C18.7042 11.4278 18.6277 11.3195 18.5137 11.4278C18.5137 11.4278 18.3994 11.5015 18.3994 11.6844C18.3615 11.8305 18.2477 12.3042 18.2089 12.4134C18.2089 12.5599 18.2089 12.7055 18.0949 13.1437C17.9418 13.5455 17.4856 14.8587 17.4468 14.9313C17.4468 14.9313 17.142 15.8068 17.1045 15.8812C17.1045 15.954 17.028 16.0636 16.9903 16.1364C16.9903 16.1728 16.5704 17.5946 16.5327 17.924C16.4939 18.2517 16.3799 18.8359 16.4187 19.2C16.4187 19.5658 16.5327 20.0031 16.6092 20.3321C16.6092 20.3321 16.6469 20.4422 16.7997 20.4049C16.9135 20.3685 16.6844 19.9312 16.7609 19.2737C16.8374 18.6166 16.9515 17.7039 17.028 17.4859C17.0659 17.2306 17.5228 15.9888 17.5228 15.916C17.5608 15.8447 17.9804 14.6028 18.0944 14.3841C18.171 14.1646 18.552 12.9976 18.5893 12.7788C18.6272 12.5599 18.6272 11.9757 19.2374 11.9024C19.8847 12.0849 19.8467 13.1801 19.7702 13.5808C19.7702 13.5808 19.6562 14.7131 19.2374 15.589C18.8564 16.4275 18.8938 16.4275 18.8938 16.4645C18.8938 16.5371 19.0076 17.3773 18.9704 17.7043C18.9704 18.0344 19.0081 18.3618 18.8178 19.0553C18.5893 19.7478 18.741 19.822 18.7798 19.9318C18.8564 20.0768 19.2374 20.5878 19.3514 20.8799C19.4279 21.172 19.5409 21.7563 19.5797 21.8655C19.6174 21.9388 20.0745 22.3756 20.2655 22.7042C20.4183 22.9963 20.9128 23.763 20.9516 23.8362C20.9893 23.9455 22.551 25.8434 22.9709 26.5737C23.3897 27.3027 23.7708 27.9602 23.732 28.6168C23.6942 29.1269 23.4662 29.6743 23.1604 30.1114C22.9979 30.3109 22.8054 30.4838 22.5898 30.6239C22.476 30.6968 22.209 30.8055 22.1323 30.988L21.8275 32.3026H15.8486L17.1437 30.1114C17.1437 30.1114 17.5627 29.8572 16.6484 28.762C15.7346 27.7045 14.1728 25.0403 14.1728 25.0403C14.1728 25.0403 12.7628 22.7046 12.4966 22.23C12.0778 21.6102 12.153 18.4714 12.153 17.5234C12.153 17.5234 12.0013 16.3926 12.6479 14.8956C13.2964 13.3994 13.868 11.9757 13.868 11.9757ZM34.2104 11.9757C34.2104 11.9757 34.0199 11.1002 33.9813 10.9181C33.9813 10.6988 34.1343 10.0418 33.4106 10.4435C32.7247 10.8453 32.9153 11.3918 33.0297 11.7199C33.1823 12.0485 33.5625 13.1805 33.7916 13.5815L34.5915 15.6987C34.5915 15.6987 34.668 15.8816 34.668 15.9544C34.7059 15.9893 35.0103 17.0852 34.8965 18.2896L34.7432 19.6759C34.7432 19.6759 34.7055 19.7843 34.5915 19.6759C34.5915 19.6759 34.4398 19.6033 34.5538 18.9092C34.5538 18.9092 34.5538 17.4865 34.515 17.1942C34.4762 16.9027 34.3617 15.9893 34.2479 15.8452C34.1727 15.6612 34.1339 15.6259 33.9809 15.2245C33.8668 14.7863 33.3336 13.5459 33.3336 13.5459C33.3336 13.5459 32.6478 12.1963 32.5717 11.8309C32.5717 11.8309 32.2667 11.1006 32.3051 10.115C32.3051 10.115 32.4204 9.8593 32.2671 9.75008C32.1154 9.64173 31.6578 9.75008 31.4673 9.89614C31.2768 10.0426 30.8959 10.3707 30.9336 10.8458C31.0112 11.2839 31.2002 12.0857 31.5061 12.8525C31.5061 12.8525 31.7718 13.4367 31.9249 13.6183C32.0393 13.7644 32.7247 15.2978 32.7627 15.3697C32.7627 15.4425 32.8392 15.5535 32.8765 15.6263C32.8765 15.6263 33.2202 16.611 33.2575 16.9396C33.334 17.3045 33.4858 17.6699 33.5246 18.435C33.5625 19.1656 33.2963 20.188 33.2963 20.188C33.2963 20.188 33.2575 20.3694 33.1435 20.3694C33.0297 20.3694 33.0297 19.9687 33.0297 19.9323C33.0297 19.8595 33.0674 19.4941 33.1062 19.3116C33.1442 19.1656 33.1062 17.9251 33.1062 17.9251C33.1062 17.9251 32.9909 17.0124 32.7252 16.393C32.6486 16.1737 32.5346 15.8079 32.3816 15.4802C32.1911 14.9688 31.9249 14.4942 31.9249 14.4942C31.9249 14.4942 31.125 12.7428 31.0865 12.6331C31.0485 12.5239 30.5914 11.4655 30.5526 10.9181C30.5526 10.4071 30.4396 10.0418 30.4396 10.0418C30.4396 10.0418 30.5526 9.64086 30.02 9.85886C29.4863 10.0782 29.1436 10.5164 29.1061 10.9177C29.1061 10.9177 29.0296 11.3195 29.2201 11.3559C29.3719 11.4278 29.4857 11.3195 29.5624 11.4278C29.5624 11.4278 29.6777 11.5015 29.715 11.6844C29.715 11.8305 29.8295 12.3042 29.8683 12.4134C29.906 12.5599 29.8683 12.7055 29.9821 13.1437C30.1338 13.5455 30.5914 14.8587 30.6293 14.9313C30.6293 14.9313 30.9341 15.8068 30.9729 15.8812C31.0117 15.954 31.0494 16.0636 31.0869 16.1364C31.1257 16.1728 31.5065 17.5946 31.5445 17.924C31.5822 18.2517 31.6962 18.8359 31.6962 19.2C31.6583 19.5658 31.5818 20.0031 31.5065 20.3321C31.5065 20.3321 31.43 20.4422 31.3151 20.4049C31.1634 20.3685 31.3917 19.9312 31.3151 19.2737C31.2774 18.6166 31.1257 17.7039 31.0494 17.4859C31.0117 17.2306 30.5918 15.9888 30.5532 15.916C30.5532 15.8447 30.0965 14.6028 29.9825 14.3841C29.906 14.1646 29.5628 12.9976 29.4863 12.7788C29.4495 12.5599 29.4495 11.9757 28.8391 11.9024C28.192 12.0849 28.2298 13.1801 28.3063 13.5808C28.3063 13.5808 28.4207 14.7131 28.8391 15.589C29.2589 16.4275 29.1829 16.4275 29.1829 16.4645C29.1829 16.5371 29.0673 17.3773 29.1061 17.7043C29.1061 18.0344 29.0669 18.3618 29.2589 19.0553C29.4857 19.7478 29.3339 19.822 29.2967 19.9318C29.2589 20.0768 28.8391 20.5878 28.7253 20.8799C28.6485 21.172 28.5735 21.7563 28.4972 21.8655C28.4595 21.9388 28.0019 22.3756 27.8114 22.7042C27.6584 22.9963 27.1633 23.763 27.1245 23.8362C27.0868 23.9455 25.525 25.8434 25.106 26.5737C24.6872 27.3027 24.3441 27.9602 24.3829 28.6168C24.3829 29.1269 24.6112 29.6743 24.9534 30.1114C25.106 30.2954 25.2593 30.4779 25.4871 30.6239C25.6403 30.6968 25.8682 30.8055 25.9447 30.988L26.2492 32.3026H32.2676L30.9729 30.1114C30.9729 30.1114 30.5153 29.8572 31.4305 28.762C32.3448 27.7045 33.9065 25.0403 33.9065 25.0403C33.9065 25.0403 35.3545 22.7046 35.62 22.23C36.0011 21.6102 35.9638 18.4714 35.9259 17.5234C35.9259 17.5234 36.0776 16.3926 35.4306 14.8956C35.031 13.9191 34.6244 12.946 34.2104 11.9757Z" fill="white"/>
<path d="M24.0763 44.2352C24.6479 44.1988 25.182 44.1988 25.182 44.1988C29.1045 44.1988 32.8768 42.484 35.8477 39.382C38.4003 36.7187 40 33.3247 40 30.5517V16.3927C40 13.8737 38.363 10.5165 35.7716 7.8538C32.724 4.71349 28.8767 3 24.9154 3H24.0767V3.43666H24.9154C31.201 3.43666 35.9626 7.92553 38.1725 12.0859C38.9723 13.6544 38.7053 15.1878 38.7053 16.3927V30.5512C38.7053 32.0834 38.8958 33.8348 37.9815 35.5134C37.3334 36.7547 36.5336 37.9951 35.5055 39.0888C32.6097 42.0816 28.9528 43.7238 25.182 43.7238C25.182 43.7238 24.6483 43.7617 24.0763 43.7617V44.2352ZM24.0767 3H23.0859C19.1621 3 15.2769 4.71349 12.2299 7.8538C9.6385 10.5169 8 13.8737 8 16.5379V30.66C8 33.3242 9.60057 36.7183 12.1523 39.3816C15.1247 42.4833 18.8955 44.1984 22.8193 44.1984C22.8193 44.1984 23.4297 44.2348 24.0011 44.2348L24.0763 44.2352V43.7617C23.467 43.7617 22.8189 43.7238 22.8189 43.7238C19.0477 43.7238 15.3913 42.0816 12.4954 39.0888C11.4673 37.9951 10.5909 36.79 9.94283 35.5862C9.29471 34.2366 9.41003 32.1198 9.41003 30.5512V16.3927C9.41003 14.8957 9.14298 12.9618 10.3239 11.0643C12.7232 7.19609 17.3331 3.43666 23.0859 3.43666H24.0767V3Z" fill="white"/>
<path d="M22.0588 35.3672C22.0588 35.5132 21.9446 35.6214 21.7918 35.6214C21.6401 35.6214 21.5247 35.5132 21.5247 35.3672C21.5247 35.2575 21.6401 35.1479 21.7918 35.1479C21.9446 35.1479 22.0588 35.2575 22.0588 35.3672ZM22.3259 36.0606C22.3259 36.0606 21.678 36.0242 21.106 35.9514V36.3896C21.2213 36.3896 21.3353 36.426 21.4118 36.426L21.373 37.2282H21.106V37.8857L21.2965 37.9221L21.2586 38.8349L21.8302 38.9066L22.0584 36.4993H22.2862L22.3259 36.0606ZM21.106 35.9514C20.9919 35.9514 20.8777 35.9146 20.7637 35.9146C20.4966 35.8782 20.1921 35.8054 19.8873 35.733L19.5063 35.1115L18.8581 34.9654L19.2405 35.5854C19.0875 35.5505 19.0114 35.5505 19.0114 35.5505L18.8974 35.951C18.8974 35.951 18.9741 35.9874 19.0879 35.9874L19.0114 36.3523L18.4786 36.2431C18.6691 36.097 18.7829 35.9146 18.7829 35.6957C18.7829 35.3308 18.4786 35.0391 18.0975 35.0391V35.5505C18.2116 35.5505 18.2493 35.6218 18.2493 35.6957C18.2493 35.7685 18.2116 35.8049 18.1743 35.8418H18.0975V36.6449L18.8974 36.8627L18.5538 38.4691L19.1644 38.5781L19.6972 36.1319C19.8878 36.1698 20.0783 36.2424 20.2688 36.2424L20.1544 37.1179C20.1544 37.1179 19.8494 37.0462 19.7733 37.3732C19.7356 37.6653 20.0783 37.9575 20.2309 38.1035C20.4966 38.3956 20.6872 37.9211 20.6872 37.9211V37.8482L21.106 37.8857V37.2282L20.7637 37.1927L20.9154 36.3532C20.9919 36.3896 21.0308 36.3896 21.106 36.3896V35.9514ZM18.0971 38.3235V37.2282C18.1736 37.1927 18.2488 37.1927 18.2488 37.1927L18.5159 37.5204C18.4394 37.6296 18.3256 37.7028 18.2111 37.7757C18.1732 37.7757 18.1732 38.3235 18.1732 38.3235H18.0971ZM18.0975 35.0391C17.6788 35.0391 17.3725 35.3308 17.3725 35.6961C17.3725 35.8422 17.4113 35.9878 17.5251 36.0979C17.3725 36.1328 17.258 36.2071 17.2203 36.244C17.0675 36.39 16.6866 36.7186 16.8015 37.1559C16.878 37.6305 17.372 37.8498 17.5246 37.9226H17.6014C17.6391 37.9226 17.6391 38.2147 17.6391 38.2147L18.0971 38.3235V37.2282C18.0206 37.266 17.9061 37.3024 17.8673 37.3024C17.7156 37.3372 17.5626 37.266 17.4486 37.1548C17.258 36.8627 17.6779 36.4624 18.0201 36.6085L18.0975 36.6449V35.8418C18.021 35.8418 17.9434 35.7689 17.9434 35.6957C17.9434 35.6224 18.021 35.5505 18.0975 35.5505V35.0391ZM17.1835 35.5496L17.3352 35.1479C17.3352 35.1479 16.1931 34.7459 15.0501 34.1985L14.8591 33.3964L14.3263 33.1407L14.4789 33.9427C13.7922 33.5789 13.1829 33.2124 12.8018 32.9947V34.0884C12.9551 33.907 12.9924 33.7234 12.9924 33.6153C13.1441 33.6866 13.3346 33.7978 13.4872 33.907L12.9544 34.7454C12.9544 34.7454 12.9159 34.8182 12.8014 34.8546V36.278L14.0588 34.198C14.1726 34.2708 14.2871 34.3072 14.4024 34.3805L13.1825 36.6065L13.7151 36.8622L14.9348 34.6362L15.3924 34.8551C15.6202 35.5854 15.2779 35.8034 15.2779 35.8034C15.2014 35.6209 14.8968 35.5854 14.8968 35.5854C14.8968 35.5854 14.4393 35.6582 14.5533 36.0955C14.6298 36.5352 15.0486 36.8258 15.5437 36.3876C15.9624 36.0227 16.039 35.3667 16.039 35.1108C16.153 35.1472 16.3056 35.22 16.42 35.2569L15.5057 37.5925L16.0773 37.8114L16.9522 35.4749C17.1067 35.5121 17.1835 35.5496 17.1835 35.5496ZM12.8018 32.9947C12.574 32.8122 12.4208 32.7394 12.4208 32.7394L12.116 33.0679C12.116 33.0679 12.2691 33.1407 12.4596 33.2872C12.4596 33.36 12.5352 33.8699 11.8882 33.7609H11.6597C11.6597 33.7609 11.2401 34.4921 11.6977 35.1115C12.0024 35.4753 12.6506 35.4036 12.6506 35.4036L12.2318 36.0595L12.7646 36.3517L12.8014 36.278V34.8546C12.6876 34.8911 12.498 34.8919 12.3074 34.7829C12.0024 34.5277 12.1934 34.3083 12.1934 34.3083C12.4984 34.3083 12.6876 34.236 12.8018 34.0884V32.9947ZM36.7251 35.0386L37.1439 34.6737L35.583 32.6655C35.7722 32.5205 35.8867 32.4477 35.8867 32.4477L35.6582 32.228C35.6582 32.228 35.4677 32.3744 35.1254 32.5927V33.1401L35.6209 33.7234L35.2022 34.0515L35.1254 33.9802V34.9647H35.3539C35.6587 34.9647 35.583 34.563 35.583 34.563L36.0393 34.2344L36.7251 35.0386ZM35.1254 32.5927C34.3635 33.1037 32.8774 34.016 31.1624 34.7101V35.1847L31.582 36.0231C31.62 36.242 31.5434 36.5705 31.2012 36.6433L31.1624 36.6802V37.264C31.4671 37.264 31.773 37.1912 32.001 36.8622L32.3431 37.4829L32.877 37.2636L31.7726 34.8911C32.2288 34.7086 32.6489 34.4893 33.03 34.3072L33.1052 34.4165C33.1052 34.4165 32.9147 34.563 32.6864 34.7086C32.4579 34.8546 32.3426 35.0371 32.3814 35.3284C32.3814 35.6569 32.9142 35.8762 32.9142 35.8762C32.9142 35.8762 32.839 36.2043 33.0296 36.6061C33.3718 37.2263 34.3622 36.9706 34.3622 36.9706L34.2482 36.5333L34.0199 36.5697C33.5235 36.5333 33.5235 36.1679 33.5235 36.0587C33.5623 35.9495 33.6761 35.5485 34.0572 35.5841C34.4387 35.6205 34.2855 36.0951 34.2855 36.0951L34.6665 36.278C34.781 36.1683 34.8571 36.0223 34.8571 36.0223C34.9336 35.1468 34.476 35.0726 34.0949 35.0011C33.7141 34.8915 33.3718 35.22 33.3718 35.22C33.3718 35.22 33.1813 35.3284 33.1436 35.2556C33.1048 35.1836 33.1813 35.1104 33.1813 35.1104L33.9811 34.563L33.6001 33.9423C33.7906 33.8695 33.9439 33.7598 34.0576 33.6866C34.2109 33.8342 34.5904 34.4169 34.5904 34.4169C34.5904 34.4897 34.4764 34.5266 34.5152 34.709C34.5904 34.927 34.8584 34.9647 35.1254 34.9647V33.9802L34.6297 33.3217C34.7814 33.2488 34.9344 33.1401 35.0485 33.0664L35.1254 33.1401V32.5927ZM31.1624 34.7101L30.0207 35.1479C27.7731 35.8402 25.297 36.0595 24.0773 36.096V36.4609H24.3444V36.7166C24.2679 36.753 24.1918 36.753 24.1541 36.753H24.0773V37.3004H24.1541C24.2306 37.3004 24.3444 37.3004 24.4211 37.3359L24.4588 37.9562C24.3636 38.0019 24.2596 38.0268 24.1541 38.0294H24.0773V38.5768H24.1541C24.2683 38.5768 24.4211 38.5404 24.5353 38.504L24.5733 38.9786L25.1835 38.9422L24.9929 36.424C25.4492 36.3876 25.9445 36.3512 26.4773 36.278L26.5549 36.4969C26.5549 36.4969 26.2499 36.5333 25.9833 36.5697C25.7163 36.6425 25.6022 36.7526 25.4869 37.0447C25.3731 37.3355 25.7928 37.7382 25.7928 37.7382C25.7928 37.7382 25.5645 38.0294 25.6402 38.4676C25.7167 39.161 26.7443 39.2707 26.7443 39.2707L26.822 38.8325L26.5549 38.7593C26.0973 38.5404 26.2499 38.2119 26.2879 38.1395C26.3635 38.0294 26.6306 37.7004 26.9737 37.8465C27.316 38.0294 26.9737 38.3939 26.9737 38.3939L27.2785 38.7224C27.4317 38.6496 27.5457 38.54 27.5457 38.54C27.9645 37.7377 27.5457 37.5175 27.2019 37.2995C26.8972 37.1171 26.4773 37.2995 26.4773 37.2995C26.4773 37.2995 26.2504 37.3351 26.2116 37.2631C26.2116 37.1903 26.326 37.1171 26.326 37.1171L27.2412 36.9342L27.1259 36.2039C27.2412 36.1675 27.3929 36.1675 27.5069 36.131L28.1928 38.5764L28.8021 38.4672L28.155 36.0218C28.3456 35.9863 28.4973 35.949 28.6876 35.9126C28.7643 36.1315 29.0314 36.8618 29.0314 36.8618L28.8021 37.0079C28.8021 37.0079 28.5738 37.2636 28.9161 37.4465C29.2597 37.6645 29.4875 37.7009 29.5642 37.7382C29.6028 37.7382 29.8313 37.6645 29.8313 37.3355L30.2121 37.1903L29.8313 36.6425L29.6028 36.7157L29.2969 35.7661C29.5263 35.6946 29.7545 35.6569 29.945 35.5836C30.0591 35.6201 30.2873 35.731 30.2873 35.9486C30.2496 36.3135 29.945 36.3135 29.945 36.3135L29.7933 36.496C29.7933 36.496 30.1735 37.1166 30.7449 37.2254C30.8982 37.2254 31.0106 37.264 31.1624 37.264V36.6802C30.8201 36.7166 30.7076 36.4232 30.7076 36.4232C30.7076 36.4232 30.9359 36.2771 30.9747 35.9486C30.9747 35.6942 30.8214 35.4021 30.7841 35.3279C30.8986 35.2551 31.0124 35.2196 31.1643 35.1827L31.1624 34.7101ZM24.0773 36.096C23.5825 36.1324 23.277 36.1324 23.277 36.1324L23.3158 36.4973C23.3158 36.4973 23.582 36.4973 24.0773 36.4609V36.096ZM24.0773 36.753C23.5059 36.7892 23.0488 37.1918 23.0488 37.6653C23.0488 38.141 23.5059 38.5404 24.0773 38.5768V38.0294C23.8495 37.9926 23.6581 37.8478 23.6581 37.6658C23.6581 37.4844 23.8491 37.3362 24.0773 37.3004V36.753ZM36.9922 35.0386L37.5638 34.7101C37.5638 34.7101 37.6782 34.6373 37.7532 34.7101C37.8308 34.8193 37.7155 34.8562 37.7155 34.8562C37.7155 34.8562 37.2967 35.2569 37.1827 35.2569C37.0674 35.2933 37.0301 35.2569 36.9922 35.2569C36.9922 35.2564 36.9156 35.1115 36.9922 35.0386Z" fill="white"/>
</g>
<defs>
<clipPath id="clip0_291_9878">
<rect width="48" height="48" fill="white"/>
</clipPath>
</defs>
</svg>
