<?xml version="1.0" encoding="UTF-8"?>
<svg width="30px" height="36px" viewBox="0 0 30 36" version="1.1" xmlns="http://www.w3.org/2000/svg" xmlns:xlink="http://www.w3.org/1999/xlink">
    <title>10A4CD2E-DC91-4C51-AA85-DFBC50F47D75@2x</title>
    <g id="Dropdown" stroke="none" stroke-width="1" fill="none" fill-rule="evenodd">
        <g id="Set5Dropdown_Account-Statement_drop_down" transform="translate(-480.000000, -302.000000)" fill="#9B1F55">
            <g id="Dropdown" transform="translate(0.000000, 107.000000)">
                <g id="noun_Capital-gain_3317343" transform="translate(480.000000, 195.000000)">
                    <g id="Group" fill-rule="nonzero">
                        <path d="M13.4785714,32.4 C13.3571429,32.2785714 13.2142857,32.1714286 13.0642857,32.0785714 L13.0642857,27.4714286 C13.0642857,25.8642857 12.4357143,24.3571429 11.3071429,23.2214286 C10.8714286,22.7857143 10.3642857,22.4142857 9.81428571,22.1285714 L10.8928571,21.05 C11.2714286,20.6714286 11.4714286,20.1714286 11.4714286,19.6357143 C11.4714286,19.1214286 11.2785714,18.6285714 10.9214286,18.2571429 C10.45,17.7642857 9.74285714,17.55 9.07857143,17.6857143 C9.04285714,17.6928571 9.00714286,17.7071429 8.97857143,17.7142857 L8.89285714,17.75 C8.89285714,17.75 8.88571429,17.75 8.88571429,17.7571429 C8.33571429,18 7.72857143,18.1214286 7.11428571,18.1214286 C6.47857143,18.1214286 5.84285714,17.9857143 5.27142857,17.7214286 C5.23571429,17.7071429 5.19285714,17.6928571 5.15714286,17.6857143 C4.50714286,17.5428571 3.83571429,17.7357143 3.35714286,18.1928571 C3.35714286,18.1928571 3.35,18.2 3.35,18.2 L3.31428571,18.2357143 C2.92857143,18.6071429 2.70714286,19.1071429 2.7,19.6428571 C2.69285714,20.1857143 2.9,20.6928571 3.28571429,21.0785714 L4.32857143,22.1214286 C2.35,23.1357143 1.07857143,25.1857143 1.07857143,27.4642857 L1.07857143,32.0642857 C0.45,32.4357143 0.05,33.1142857 0.05,33.8642857 C0.05,34.4142857 0.264285714,34.9428571 0.657142857,35.3428571 C0.657142857,35.3428571 0.657142857,35.3428571 0.664285714,35.35 C0.885714286,35.5714286 1.15714286,35.7428571 1.45,35.85 L1.45,35.85 C1.61428571,35.9071429 1.78571429,35.95 1.96428571,35.9642857 C2.02142857,35.9714286 2.08571429,35.9714286 2.14285714,35.9714286 L12.0071429,35.9714286 C12.0642857,35.9714286 12.1285714,35.9714286 12.1857143,35.9642857 C12.2071429,35.9642857 12.2285714,35.9571429 12.2428571,35.9571429 C12.2785714,35.95 12.3214286,35.95 12.3571429,35.9428571 C12.3857143,35.9357143 12.4071429,35.9285714 12.4285714,35.9285714 C12.4642857,35.9214286 12.4928571,35.9142857 12.5285714,35.9071429 C12.5571429,35.9 12.5857143,35.8928571 12.6142857,35.8785714 C12.6428571,35.8714286 12.6714286,35.8642857 12.6928571,35.8571429 C12.6928571,35.8571429 12.6928571,35.8571429 12.6928571,35.8571429 C12.6928571,35.8571429 12.6928571,35.8571429 12.6928571,35.8571429 L12.6928571,35.8571429 C13.5285714,35.5642857 14.0928571,34.7714286 14.0928571,33.8857143 C14.0857143,33.3357143 13.8714286,32.8071429 13.4785714,32.4 C13.4785714,32.4071429 13.4785714,32.4071429 13.4785714,32.4 Z M3.82857143,19.6785714 C3.82857143,19.45 3.92142857,19.2357143 4.09285714,19.0785714 C4.09285714,19.0785714 4.1,19.0714286 4.1,19.0714286 L4.13571429,19.0357143 C4.32857143,18.8571429 4.59285714,18.7714286 4.85,18.8142857 C5.55,19.1214286 6.32857143,19.2857143 7.1,19.2857143 C7.86428571,19.2857143 8.63571429,19.1285714 9.32142857,18.8285714 L9.34285714,18.8214286 C9.61428571,18.7785714 9.89285714,18.8785714 10.0785714,19.0714286 C10.2357143,19.2357143 10.3142857,19.4357143 10.3142857,19.6642857 C10.3142857,19.8928571 10.2285714,20.1071429 10.0642857,20.2642857 L8.62857143,21.7 C8.11428571,21.5571429 7.58571429,21.4857143 7.04285714,21.4857143 C6.5,21.4857143 5.97142857,21.5571429 5.45714286,21.7 L4.08571429,20.2857143 C3.92142857,20.1214286 3.82857143,19.9071429 3.82857143,19.6785714 Z M12.3071429,34.7785714 C12.3071429,34.7785714 12.3,34.7785714 12.3,34.7785714 C12.2071429,34.8142857 12.1,34.8285714 11.9928571,34.8285714 L2.12857143,34.8285714 C2.02142857,34.8285714 1.92142857,34.8142857 1.82142857,34.7785714 C1.67857143,34.7285714 1.56428571,34.6571429 1.45714286,34.55 C1.27857143,34.3642857 1.17857143,34.1214286 1.17857143,33.8714286 C1.17857143,33.4714286 1.43571429,33.1071429 1.81428571,32.9785714 C1.81428571,32.9785714 1.82142857,32.9785714 1.82142857,32.9785714 C1.91428571,32.9428571 2.02142857,32.9285714 2.12857143,32.9285714 L2.86428571,32.9285714 L2.86428571,31.7857143 L2.20714286,31.7857143 L2.20714286,27.4785714 C2.20714286,25.3857143 3.53571429,23.5357143 5.51428571,22.8714286 C6.00714286,22.7 6.52857143,22.6142857 7.06428571,22.6142857 C7.6,22.6142857 8.12142857,22.7 8.61428571,22.8714286 C9.31428571,23.1071429 9.96428571,23.5142857 10.4928571,24.0428571 C11.4142857,24.9642857 11.9214286,26.1857143 11.9214286,27.4785714 L11.9214286,31.7857143 L11.2571429,31.7857143 L11.2571429,32.9285714 L11.9928571,32.9285714 C12.1,32.9285714 12.2,32.9428571 12.3,32.9785714 C12.4428571,33.0285714 12.5571429,33.1 12.6642857,33.2071429 C12.8428571,33.3928571 12.9428571,33.6357143 12.9428571,33.8857143 C12.9428571,34.2928571 12.6857143,34.65 12.3071429,34.7785714 Z" id="Shape"></path>
                        <path d="M28.7857143,32.4 C28.6642857,32.2785714 28.5214286,32.1714286 28.3714286,32.0785714 L28.3714286,27.4714286 C28.3714286,25.15 27.0428571,23.1285714 25.1142857,22.1285714 L26.1928571,21.05 C26.5714286,20.6714286 26.7714286,20.1714286 26.7714286,19.6357143 C26.7714286,19.1214286 26.5785714,18.6285714 26.2214286,18.2571429 C26.2214286,18.2571429 26.2142857,18.25 26.2142857,18.25 C25.7285714,17.7571429 25.0428571,17.5428571 24.3714286,17.6857143 C24.3357143,17.6928571 24.3,17.7071429 24.2714286,17.7142857 L24.1857143,17.75 C24.1857143,17.75 24.1785714,17.75 24.1785714,17.75 C23.6142857,17.9928571 23.0214286,18.1142857 22.4071429,18.1142857 C21.7714286,18.1142857 21.1357143,17.9785714 20.5642857,17.7142857 C20.5285714,17.7 20.4857143,17.6857143 20.45,17.6785714 C19.8,17.5357143 19.1285714,17.7285714 18.65,18.1857143 C18.65,18.1857143 18.6428571,18.1928571 18.6428571,18.1928571 L18.6071429,18.2285714 C18.2214286,18.6 18,19.1 17.9928571,19.6357143 C17.9857143,20.1785714 18.1928571,20.6857143 18.5785714,21.0714286 L19.6214286,22.1142857 C17.6857143,23.1142857 16.3642857,25.1285714 16.3642857,27.4571429 L16.3642857,32.0571429 C15.7428571,32.4285714 15.3428571,33.1 15.3428571,33.8571429 C15.3428571,34.4214286 15.5571429,34.9428571 15.95,35.3428571 C16.1714286,35.5642857 16.4428571,35.7357143 16.7357143,35.8428571 C16.9571429,35.9214286 17.1857143,35.9642857 17.4285714,35.9642857 L27.2928571,35.9642857 L27.3,35.9642857 C27.5428571,35.9642857 27.7714286,35.9285714 27.9857143,35.8428571 C28.8285714,35.5571429 29.3928571,34.7642857 29.3928571,33.8714286 C29.3928571,33.3214286 29.1785714,32.8 28.7857143,32.4 Z M19.3857143,20.2857143 C19.2214286,20.1214286 19.1357143,19.9071429 19.1357143,19.6714286 C19.1357143,19.4428571 19.2285714,19.2285714 19.4,19.0714286 C19.4,19.0714286 19.4071429,19.0642857 19.4071429,19.0642857 L19.4428571,19.0285714 C19.6357143,18.85 19.9,18.7642857 20.1571429,18.8071429 C20.8571429,19.1142857 21.6357143,19.2785714 22.4071429,19.2785714 C23.1785714,19.2785714 23.9285714,19.1214286 24.6285714,18.8214286 L24.6571429,18.8142857 C24.9285714,18.7714286 25.2,18.8642857 25.4,19.0642857 C25.55,19.2285714 25.6357143,19.4285714 25.6357143,19.65 C25.6357143,19.8785714 25.55,20.0928571 25.3857143,20.25 L23.95,21.6857143 C23.4428571,21.55 22.9142857,21.4714286 22.3642857,21.4714286 C21.8142857,21.4714286 21.2857143,21.55 20.7785714,21.6857143 L19.3857143,20.2857143 Z M27.6142857,34.7785714 C27.6071429,34.7785714 27.6071429,34.7785714 27.6,34.7857143 C27.6,34.7857143 27.5928571,34.7857143 27.5928571,34.7857143 L27.5928571,34.7857143 C27.5,34.8214286 27.3928571,34.8357143 27.2857143,34.8357143 L17.4285714,34.8357143 C17.3214286,34.8357143 17.2142857,34.8214286 17.1214286,34.7857143 C16.9785714,34.7357143 16.8571429,34.6571429 16.7571429,34.5571429 C16.5785714,34.3785714 16.4785714,34.1428571 16.4785714,33.8857143 C16.4785714,33.4857143 16.7357143,33.1142857 17.1142857,32.9928571 C17.1214286,32.9928571 17.1214286,32.9928571 17.1285714,32.9857143 C17.2214286,32.95 17.3214286,32.9357143 17.4357143,32.9357143 L18.1714286,32.9357143 L18.1714286,31.7928571 L17.5,31.7928571 L17.5,27.4857143 C17.5,24.8 19.6785714,22.6214286 22.3642857,22.6214286 C25.05,22.6214286 27.2285714,24.8 27.2285714,27.4857143 L27.2285714,31.7857143 L26.5642857,31.7857143 L26.5642857,32.9285714 L27.3,32.9285714 C27.4071429,32.9285714 27.5142857,32.9428571 27.6071429,32.9785714 C27.75,33.0285714 27.8714286,33.1071429 27.9714286,33.2071429 C28.15,33.3857143 28.25,33.6214286 28.25,33.8785714 C28.25,34.2857143 27.9928571,34.6571429 27.6142857,34.7785714 Z" id="Shape"></path>
                        <path d="M2.41428571,9.07142857 L3.59285714,9.07142857 L3.59285714,15.4214286 C3.59285714,15.7357143 3.85,15.9928571 4.16428571,15.9928571 L7.74285714,15.9928571 C8.05714286,15.9928571 8.31428571,15.7357143 8.31428571,15.4214286 L8.31428571,9.07142857 L9.49285714,9.07142857 C9.71428571,9.07142857 9.91428571,8.94285714 10.0071429,8.75 C10.1,8.55 10.0785714,8.31428571 9.94285714,8.14285714 L6.49285714,3.80714286 C6.38571429,3.67142857 6.22142857,3.59285714 6.05,3.59285714 C5.87857143,3.59285714 5.71428571,3.66428571 5.60714286,3.8 L1.97857143,8.13571429 C1.83571429,8.30714286 1.80714286,8.54285714 1.9,8.74285714 C1.99285714,8.94285714 2.19285714,9.07142857 2.41428571,9.07142857 Z M6.02857143,5.07142857 L8.30714286,7.92857143 L7.74285714,7.92857143 C7.42857143,7.92857143 7.17142857,8.18571429 7.17142857,8.5 L7.17142857,14.85 L4.73571429,14.85 L4.73571429,8.5 C4.73571429,8.18571429 4.47857143,7.92857143 4.16428571,7.92857143 L3.63571429,7.92857143 L6.02857143,5.07142857 Z" id="Shape"></path>
                        <path d="M11.1642857,5.5 L12.3428571,5.5 L12.3428571,11.85 C12.3428571,12.1642857 12.6,12.4214286 12.9142857,12.4214286 L16.5071429,12.4214286 C16.8214286,12.4214286 17.0785714,12.1642857 17.0785714,11.85 L17.0785714,5.5 L18.2571429,5.5 C18.4785714,5.5 18.6785714,5.37142857 18.7714286,5.17857143 C18.8642857,4.98571429 18.8428571,4.74285714 18.7071429,4.57142857 L15.2571429,0.235714286 C15.15,0.1 14.9857143,0.0214285714 14.8142857,0.0214285714 C14.6428571,0.0214285714 14.4785714,0.0928571429 14.3714286,0.228571429 L10.7285714,4.56428571 C10.5857143,4.73571429 10.5571429,4.97142857 10.65,5.17142857 C10.7428571,5.37142857 10.9428571,5.5 11.1642857,5.5 Z M14.7928571,1.49285714 L17.0714286,4.35714286 L16.5071429,4.35714286 C16.1928571,4.35714286 15.9357143,4.61428571 15.9357143,4.92857143 L15.9357143,11.2785714 L13.4857143,11.2785714 L13.4857143,4.92857143 C13.4857143,4.61428571 13.2285714,4.35714286 12.9142857,4.35714286 L12.3928571,4.35714286 L14.7928571,1.49285714 Z" id="Shape"></path>
                        <path d="M19.9285714,9.35714286 L21.1071429,9.35714286 L21.1071429,15.7 C21.1071429,16.0142857 21.3642857,16.2714286 21.6785714,16.2714286 L25.2571429,16.2714286 C25.5714286,16.2714286 25.8285714,16.0142857 25.8285714,15.7 L25.8285714,9.35714286 L27.0071429,9.35714286 C27.2285714,9.35714286 27.4285714,9.22857143 27.5214286,9.03571429 C27.6142857,8.84285714 27.5928571,8.6 27.4571429,8.42857143 L24.0071429,4.09285714 C23.9,3.95714286 23.7357143,3.87857143 23.5642857,3.87857143 C23.3928571,3.87142857 23.2285714,3.95 23.1214286,4.08571429 L19.4928571,8.42142857 C19.35,8.59285714 19.3214286,8.82857143 19.4142857,9.02857143 C19.5071429,9.22857143 19.7071429,9.35714286 19.9285714,9.35714286 Z M23.5428571,5.35714286 L25.8214286,8.21428571 L25.2571429,8.21428571 C24.9428571,8.21428571 24.6857143,8.47142857 24.6857143,8.78571429 L24.6857143,15.1285714 L22.25,15.1285714 L22.25,8.78571429 C22.25,8.47142857 21.9928571,8.21428571 21.6785714,8.21428571 L21.15,8.21428571 L23.5428571,5.35714286 Z" id="Shape"></path>
                    </g>
                    <text id="₹" font-family="Lato-Regular, Lato" font-size="10" font-weight="normal">
                        <tspan x="19" y="33">₹</tspan>
                    </text>
                    <text id="₹" font-family="Lato-Regular, Lato" font-size="10" font-weight="normal">
                        <tspan x="4" y="33">₹</tspan>
                    </text>
                </g>
            </g>
        </g>
    </g>
</svg>