<?xml version="1.0" encoding="UTF-8"?>
<svg width="47px" height="60px" viewBox="0 0 47 60" version="1.1" xmlns="http://www.w3.org/2000/svg" xmlns:xlink="http://www.w3.org/1999/xlink">
    <title>CA4F707E-0E9C-4672-A530-D9B072AA84A7@2x</title>
    <g id="ELSS" stroke="none" stroke-width="1" fill="none" fill-rule="evenodd">
        <g id="02_ELSS" transform="translate(-430.000000, -1746.000000)" fill="#97144D" fill-rule="nonzero" stroke="#FFFFFF" stroke-width="0.5">
            <g id="Group-8" transform="translate(192.000000, 1283.000000)">
                <g id="benefit1-copy" transform="translate(179.000000, 426.000000)">
                    <g id="Group-2" transform="translate(38.000000, 38.000000)">
                        <g id="Shortest-Lock-in" transform="translate(22.000000, 0.000000)">
                            <path d="M24.7979592,57.4436735 C25.8695492,58.1170466 27.2136988,58.1864944 28.3489796,57.6271429 L42.5826531,50.6493878 C43.9349912,49.979481 44.7970879,48.6074437 44.8138776,47.0983673 L44.8138776,10.9312245 C44.7970879,9.4221481 43.9349912,8.05011084 42.5826531,7.38020408 L28.3430612,0.37877551 C27.2096434,-0.170634647 25.87346,-0.099261223 24.8050192,0.567763176 C23.7365783,1.23478758 23.085721,2.40391758 23.0816327,3.66346939 L23.0816327,7.88326531 L12.5291837,7.88326531 C11.5623468,7.87854129 10.633488,8.25930867 9.9481588,8.94130559 C9.26282964,9.62330252 8.87755102,10.5502944 8.87755102,11.5171429 L8.87755102,14.1389796 C8.87755102,14.6675869 9.1595596,15.1560401 9.61734692,15.4203438 C10.0751342,15.6846474 10.6391515,15.6846474 11.0969388,15.4203438 C11.5547261,15.1560401 11.8367347,14.6675869 11.8367347,14.1389796 L11.8367347,11.5171429 C11.839949,11.149128 12.1374953,10.8515816 12.5055102,10.8483673 L23.0816327,10.8483673 L23.0816327,47.1516327 L12.5291837,47.1516327 C12.3482097,47.1564032 12.1729109,47.0882444 12.0426919,46.9624774 C11.912473,46.8367103 11.8382599,46.6638875 11.8367347,46.4828571 L11.8367347,43.8610204 C11.8367347,43.0438644 11.1742989,42.3814286 10.3571429,42.3814286 C9.53998685,42.3814286 8.87755102,43.0438644 8.87755102,43.8610204 L8.87755102,46.4828571 C8.88080947,48.4851724 10.5031949,50.1075579 12.5055102,50.1108163 L23.0816327,50.1108163 L23.0816327,54.3306122 C23.0736459,55.5961123 23.7235618,56.7749252 24.7979592,57.4436735 Z M26.040803,3.66346939 C26.0393123,3.42157839 26.1652182,3.19674643 26.3722449,3.07163265 C26.4802122,3.00221393 26.6049746,2.96335351 26.7332653,2.95918367 C26.8403941,2.96088278 26.9456955,2.98720813 27.0410204,3.03612245 L41.2806122,10.0079592 C41.6380075,10.1774511 41.8676572,10.5357047 41.872449,10.9312245 L41.872449,47.0687755 C41.8676572,47.4642953 41.6380075,47.8225489 41.2806122,47.9920408 L41.2806122,47.9920408 L27.0410204,54.9638776 C26.8248162,55.064025 26.5726355,55.0480646 26.3707825,54.9214585 C26.1689294,54.7948524 26.0447778,54.5747701 26.040803,54.3365306 L26.040803,3.66346939 Z" id="Shape"></path>
                            <path d="M30.7755102,32.1663265 C31.5926662,32.1663265 32.255102,31.5038907 32.255102,30.6867347 L32.255102,27.3132653 C32.255102,26.4961093 31.5926662,25.8336735 30.7755102,25.8336735 C29.9583542,25.8336735 29.2959184,26.4961093 29.2959184,27.3132653 L29.2959184,30.6867347 C29.2959184,31.5038907 29.9583542,32.1663265 30.7755102,32.1663265 Z" id="Path"></path>
                            <path d="M3.46816327,23.7740816 L3.46816327,26.2302041 C1.57933018,26.4794836 0.167141633,28.0890748 0.165714286,29.9942857 L0.165714286,35.6108163 C0.165714286,37.709273 1.8668495,39.4104082 3.96530612,39.4104082 L14.1271429,39.4104082 C16.2255995,39.4104082 17.9267347,37.709273 17.9267347,35.6108163 L17.9267347,29.9942857 C17.9253073,28.0890748 16.5131188,26.4794836 14.6242857,26.2302041 L14.6242857,23.7740816 C14.6210242,20.912119 12.3017585,18.5928533 9.43979592,18.5895918 L8.65265306,18.5895918 C5.79069046,18.5928533 3.47142476,20.912119 3.46816327,23.7740816 Z M14.967551,29.9942857 L14.967551,35.6108163 C14.967551,36.0749609 14.5912875,36.4512245 14.1271429,36.4512245 L3.95938776,36.4512245 C3.49524314,36.4512245 3.11897959,36.0749609 3.11897959,35.6108163 L3.11897959,29.9942857 C3.11897959,29.5301411 3.49524314,29.1538776 3.95938776,29.1538776 L14.1271429,29.1538776 C14.5912875,29.1538776 14.967551,29.5301411 14.967551,29.9942857 L14.967551,29.9942857 Z M11.665102,23.7740816 L11.665102,26.1946939 L6.42734694,26.1946939 L6.42734694,23.7740816 C6.43059902,22.5464286 7.425,21.5520276 8.65265306,21.5487755 L9.43979592,21.5487755 C10.667449,21.5520276 11.66185,22.5464286 11.665102,23.7740816 L11.665102,23.7740816 Z" id="Shape"></path>
                        </g>
                    </g>
                </g>
            </g>
        </g>
    </g>
</svg>