<svg width="48" height="48" viewBox="0 0 48 48" fill="none" xmlns="http://www.w3.org/2000/svg">
<path d="M39.8741 19.8028C40.6061 19.5915 41.3029 19.3568 42 19.1456C41.094 21.704 37.9574 23.5818 34.5774 24.7556C35.4838 24.0749 36.6336 23.5584 37.4701 22.8312C38.5846 21.9622 39.3166 20.906 39.8741 19.8028Z" fill="#F68026" stroke="#F68026" stroke-width="0.375"/>
<path d="M8.16075 18.2541H10.4266C10.6008 19.1461 10.775 20.0146 10.9841 20.8835C11.5414 20.0146 12.0989 19.1229 12.6914 18.2541H15.0264C14.8522 19.7798 14.7476 21.3055 14.7127 22.8546H12.9702C13.1097 21.8219 13.249 20.8125 13.249 19.7798C12.4474 20.7657 11.9247 21.8454 11.2624 22.8546C10.8093 22.8546 10.3561 22.8546 9.90292 22.8311C9.76345 21.7984 9.51958 20.7421 9.34536 19.6859C8.9271 20.7186 8.68323 21.7983 8.29989 22.8311C7.74232 22.8546 7.18459 22.8546 6.62703 22.8546C7.15002 21.329 7.67284 19.8033 8.16075 18.2541ZM16.4554 18.2776C17.0828 18.2541 17.71 18.2541 18.3374 18.2541C18.0237 19.7798 17.6751 21.3055 17.3963 22.8546H15.5143C15.828 21.329 16.1764 19.8033 16.4554 18.2776V18.2776ZM19.4525 18.2541C20.742 18.3011 22.1361 18.1133 23.3907 18.4654C24.8195 19.0991 24.227 20.8598 22.4844 20.9534C22.9375 21.5637 23.3907 22.2209 23.8439 22.8546H22.0312C21.578 22.1274 21.1599 21.3759 20.6371 20.6952C20.428 21.3993 20.3234 22.1274 20.184 22.8311C19.6264 22.8546 19.0339 22.8546 18.4762 22.8546C18.7904 21.329 19.1388 19.8033 19.4525 18.2541ZM27.0152 18.2541H29.281C29.6644 19.8033 30.013 21.3289 30.4311 22.8546H28.6533C28.6184 22.526 28.5488 22.2209 28.5138 21.8924C27.7819 21.8924 27.0501 21.9159 26.3182 21.9394L25.7953 22.8548H23.9827C25.0286 21.329 26.0046 19.7798 27.0152 18.2541ZM31.7897 18.2541C33.1838 18.2776 34.6126 18.2776 36.0416 18.2541C36.0067 18.5827 35.9371 18.9114 35.9021 19.24C35.0309 19.24 34.1596 19.2165 33.2884 19.2165C33.2187 19.4981 33.1838 19.8033 33.1489 20.085C33.9156 20.085 34.6823 20.085 35.4483 20.0615C35.4134 20.3901 35.3437 20.7187 35.3088 21.0237C34.5072 21.0237 33.7056 21.0002 32.904 21.0002C32.8344 21.3053 32.7995 21.5871 32.7298 21.8687H35.3436C35.3087 22.1973 35.239 22.5259 35.1694 22.8309C33.7056 22.8544 32.2419 22.8309 30.7782 22.8544C31.1276 21.329 31.4413 19.7798 31.7899 18.2541H31.7897ZM9.032 25.0141C9.7987 25.0141 10.5306 25.0141 11.2978 25.0376C11.4373 25.6244 11.5766 26.2112 11.7161 26.8214C11.054 26.704 10.3917 26.5864 9.72955 26.4928C9.24113 26.7985 8.75255 27.1031 8.26581 27.4318C11.438 27.6195 14.6437 27.7604 17.8151 27.596C18.0938 28.5583 17.118 29.6851 15.5846 29.732C14.4346 29.8493 13.3542 29.4737 12.483 28.9809C12.7617 28.6757 13.0405 28.3471 13.3193 28.042C14.0163 28.5349 15.7241 29.0982 16.0383 28.0655C14.6788 28.0185 13.3547 28.0185 12.0305 27.9716C12.135 28.535 12.2745 29.0748 12.4487 29.6147H10.67C10.6003 29.2157 10.4957 28.8401 10.3912 28.4411H8.54409C8.29938 28.8401 8.05618 29.2153 7.81265 29.6146H5.99998C7.01071 28.089 8.02127 26.5398 9.032 25.0141Z" fill="#00447B" stroke="#00447B" stroke-width="0.375"/>
<path d="M14.0883 25.1588C15.1687 24.5485 16.8073 24.7598 17.9569 25.2058C17.7478 25.4874 17.5386 25.7926 17.3644 26.0742C16.7023 25.91 15.5517 25.3701 15.2733 26.1212C15.4824 26.5912 16.3537 26.7315 16.8765 26.9897C15.7265 26.9662 14.5415 26.9193 13.3913 26.8958C13.2171 26.2857 13.3216 25.5815 14.0883 25.1588ZM19.6542 25.0056C20.7695 24.5831 22.0938 24.8178 23.1394 25.1933C22.9652 25.4985 22.7561 25.8271 22.547 26.1322C21.9196 25.9679 21.2924 25.4985 20.6301 25.874C20.2118 26.4373 21.2225 26.6251 21.7104 26.8833C20.7346 26.9303 19.7239 26.9537 18.7481 27.0007C18.2949 26.3203 18.6086 25.3814 19.6542 25.0058V25.0056ZM24.4712 25.015H28.7926L28.5835 26.0008H25.9348C25.9348 26.1651 25.8652 26.4468 25.8652 26.6111C25.2727 26.6815 24.6802 26.7519 24.1226 26.8223C24.262 26.2124 24.3665 25.6256 24.4711 25.0153L24.4712 25.015Z" fill="#00447B" stroke="#00447B" stroke-width="0.375"/>
<path d="M29.2431 25.0147C30.5675 25.0382 31.9267 24.9677 33.2509 25.0851C31.8569 25.4841 30.428 25.8124 28.9991 26.1178C29.0689 25.7423 29.1734 25.3903 29.2431 25.0147Z" fill="#004079" stroke="#004079" stroke-width="0.375"/>
<path d="M20.4965 27.4323C25.1665 27.0801 29.9063 26.4229 34.1587 25.0147C34.0541 25.3668 33.9495 25.7188 33.845 26.0944H32.4855C32.2414 27.2445 32.0323 28.3947 31.7535 29.5448H29.8715C30.1503 28.4651 30.3247 27.3854 30.5686 26.3057C29.8019 26.4934 29.0352 26.6813 28.2336 26.8455C28.1639 27.1271 28.0594 27.4324 27.9548 27.714C27.1533 27.6866 26.35 27.6945 25.55 27.7375L25.4454 28.5825C26.3167 28.559 27.1879 28.559 28.0592 28.559C28.0243 28.7939 27.9197 29.2862 27.885 29.5448C26.4213 29.5213 24.9575 29.5213 23.5285 29.5448C23.6331 28.8641 23.8075 28.1834 23.9468 27.5031C23.6899 27.5071 23.4338 27.5228 23.1801 27.5501C23.1104 28.1134 23.1801 28.8175 22.4134 29.2165C21.089 30.0146 19.0328 29.6625 17.8482 28.9114C18.1269 28.6063 18.4406 28.3012 18.7194 27.9961C19.3119 28.2777 19.9393 28.6768 20.7407 28.5829C21.3332 28.5359 21.4727 27.8788 20.8453 27.7848C20.1133 27.7613 19.3466 27.8318 18.5794 27.8787C18.6491 27.7613 18.7189 27.5266 18.7886 27.4088C19.3526 27.4755 19.9288 27.4834 20.4965 27.4323V27.4323Z" fill="#00447B" stroke="#00447B" stroke-width="0.375"/>
<path d="M20.6725 20.3661C20.7771 19.9437 20.8816 19.5212 20.9513 19.0987C21.4392 19.1691 22.3801 19.0752 22.3454 19.5915C22.5196 20.2488 21.3695 20.3661 20.6725 20.3661ZM26.876 20.9999C27.2246 20.4131 27.5731 19.8268 27.9564 19.2629C28.0964 19.8498 28.2005 20.4131 28.305 20.9765C27.8171 20.9999 27.3639 20.9999 26.876 20.9999Z" fill="white" stroke="white" stroke-width="0.375"/>
</svg>
