<svg width="48" height="48" viewBox="0 0 48 48" fill="none" xmlns="http://www.w3.org/2000/svg">
<g clip-path="url(#clip0_1232_186)">
<rect width="48" height="48" rx="24" fill="white"/>
<path d="M48 0V48H0V0H48ZM31.9117 11.0982C23.0495 4.50535 10.1537 9.55604 7.37347 19.6966C2.90733 35.9857 23.5592 47.2349 34.9343 34.042C35.2408 33.6867 36.2554 32.3679 36.3315 31.9913C36.4551 31.3782 36.0261 30.8055 35.438 31.0954C35.1576 31.2333 34.2891 32.6994 33.9778 33.0855C29.4404 38.7137 21.4063 40.1596 15.1723 36.4527C8.93822 32.7457 6.9398 25.4661 8.9798 18.8804C9.57743 16.9533 11.943 13.964 13.5552 12.6642C19.7442 7.67049 29.0388 8.7398 33.9778 14.9156C34.3818 15.4206 35.2158 17.0554 35.8182 16.9937C36.5632 16.9176 36.3778 16.0051 36.0998 15.5251C35.3287 14.1945 33.1604 12.0261 31.9129 11.0982H31.9117ZM18.5347 20.7921V18.8911C18.0202 19.0824 14.5117 19.5612 14.3762 19.724C14.097 20.0602 15.0844 20.3442 15.2376 20.703C15.5881 21.5251 15.5038 25.0194 15.4503 26.084C15.4301 26.4891 15.322 27.9552 15.1853 28.1952C15.0487 28.4352 14.6958 28.4269 14.7327 28.7525H19.3663C19.3711 28.3949 18.985 28.4317 18.7877 28.0824C18.6713 27.8756 18.5762 27.4931 18.5477 27.2543C18.4087 26.0875 18.3921 22.9568 18.5323 21.7996C18.7248 20.204 20.9418 19.8879 21.1545 21.4408C21.2958 22.4721 21.297 26.6044 21.1414 27.6166C21.0535 28.1857 20.6768 28.3889 20.3168 28.7525H25.0693C25.099 28.4032 24.7354 28.4661 24.543 28.1501C24.4349 27.9731 24.2756 27.4693 24.2483 27.2578C24.1152 26.2396 24.0939 22.6764 24.2459 21.6915C24.3861 20.7861 25.2772 20.4321 26.1065 20.4689C26.6519 20.4939 26.9323 21.2091 26.9774 21.6772C27.0939 22.9022 27.1354 26.3347 26.9632 27.4978C26.943 27.638 26.7434 28.1727 26.6673 28.2713C26.463 28.5327 26.0614 28.3853 26.1398 28.7537H30.8923C30.9481 28.3794 30.5394 28.5279 30.3125 28.2048C29.482 27.0238 30.7105 22.1596 29.4701 20.0174C28.5576 18.4432 26.5378 18.6261 25.2499 19.6051C24.7663 19.9723 24.6249 20.6127 24.1212 20.7921C23.8135 18.682 21.2091 18.4218 19.6859 19.5065C19.1596 19.8808 18.9422 20.3311 18.537 20.7933L18.5347 20.7921ZM41.558 25.7632C41.5972 25.6729 41.716 24.0404 41.7089 23.8182C41.5592 19.2238 36.158 17.2218 32.7909 20.0174C30.7747 21.6915 30.7616 25.8618 32.6091 27.6879C33.3529 28.4234 34.5576 28.9853 35.5996 29.0935C35.8622 29.1208 37.5992 29.236 37.7002 29.2087C37.8356 29.1731 37.9176 28.977 38.0269 28.9354C39.8863 28.2309 40.4994 27.6737 41.3465 25.8618C41.3822 25.7869 41.5497 25.781 41.558 25.762V25.7632Z" fill="#332A94"/>
<path d="M31.9117 11.0982C33.1592 12.0261 35.3275 14.1944 36.0986 15.5251C36.3766 16.0051 36.562 16.9176 35.817 16.9937C35.2147 17.0554 34.3806 15.4206 33.9766 14.9156C29.0376 8.74098 19.743 7.67167 13.5541 12.6641C11.9418 13.9651 9.57624 16.9533 8.97862 18.8804C6.93743 25.4661 8.96317 32.7612 15.1711 36.4527C21.379 40.1441 29.4392 38.7148 33.9766 33.0855C34.2891 32.6982 35.1564 31.2333 35.4368 31.0954C36.0238 30.8055 36.4527 31.3782 36.3303 31.9913C36.2543 32.3679 35.2408 33.6867 34.9331 34.042C23.5592 47.2348 2.90614 35.9845 7.37228 19.6966C10.1525 9.55484 23.0483 4.50415 31.9105 11.0982H31.9117Z" fill="#F2C00D"/>
<path d="M18.5346 20.7921C18.941 20.3299 19.1584 19.8796 19.6836 19.5054C21.2067 18.4206 23.8111 18.6808 24.1188 20.7909C24.6226 20.6115 24.764 19.9711 25.2475 19.604C26.5354 18.625 28.5552 18.4408 29.4677 20.0162C30.7081 22.1572 29.4796 27.0226 30.3101 28.2036C30.537 28.5267 30.9469 28.3782 30.8899 28.7525H26.1374C26.059 28.3842 26.4606 28.5327 26.6649 28.2701C26.741 28.1727 26.9406 27.638 26.9608 27.4966C27.1319 26.3347 27.0915 22.9022 26.975 21.676C26.9311 21.2079 26.6495 20.4927 26.1042 20.4677C25.2748 20.4309 24.3838 20.7838 24.2436 21.6903C24.0915 22.6764 24.1141 26.2384 24.2459 27.2566C24.2733 27.4681 24.4337 27.9719 24.5406 28.1489C24.7331 28.4661 25.0966 28.402 25.0669 28.7513H20.3145C20.6745 28.3877 21.0511 28.1834 21.139 27.6155C21.2946 26.6032 21.2923 22.4709 21.1521 21.4396C20.9394 19.8867 18.7224 20.2028 18.5299 21.7984C18.3897 22.9557 18.4075 26.0863 18.5453 27.2531C18.5739 27.4919 18.6689 27.8745 18.7853 28.0812C18.9826 28.4305 19.3687 28.3937 19.364 28.7513H14.7303C14.6935 28.4257 15.0428 28.4376 15.183 28.1941C15.3232 27.9505 15.4277 26.4879 15.4479 26.0828C15.5014 25.0182 15.5857 21.5228 15.2352 20.7018C15.082 20.343 14.0946 20.059 14.3739 19.7228C14.5093 19.56 18.0178 19.0812 18.5323 18.8899V20.7909L18.5346 20.7921Z" fill="#FDFDFD"/>
<path d="M41.558 25.7632C41.5497 25.7822 41.381 25.7881 41.3465 25.863C40.4994 27.6736 39.8863 28.2321 38.0269 28.9366C37.9176 28.9782 37.8356 29.1742 37.7002 29.2099C37.598 29.2372 35.8622 29.122 35.5996 29.0946C34.5588 28.9865 33.3529 28.4234 32.6091 27.6891C30.7616 25.8641 30.7747 21.6927 32.7909 20.0186C36.1592 17.223 41.5592 19.2237 41.7089 23.8194C41.716 24.0416 41.5972 25.674 41.558 25.7643V25.7632ZM37.6147 27.9944C37.9152 27.3113 37.9972 25.6954 38.0246 24.897C38.0614 23.8075 38.0459 20.4107 37.4566 19.6325C37.2796 19.3996 36.9624 19.1608 36.6594 19.1465C34.6337 19.0527 34.9972 21.2768 34.9295 22.6325C34.8618 23.9881 34.6848 26.8538 35.2265 28.0408C35.558 28.7655 36.7105 29.0245 37.2558 28.522C37.2796 28.5006 37.6016 28.023 37.6147 27.9944Z" fill="#FDFDFD"/>
<path d="M37.6147 27.9944C37.6016 28.0241 37.2796 28.5006 37.2558 28.522C36.7093 29.0245 35.5568 28.7655 35.2265 28.0408C34.6848 26.8538 34.863 23.975 34.9295 22.6325C34.996 21.2899 34.6337 19.0515 36.6594 19.1465C36.9624 19.1608 37.2808 19.3996 37.4566 19.6325C38.0448 20.4095 38.0614 23.8075 38.0246 24.897C37.9972 25.6966 37.9164 27.3113 37.6147 27.9944Z" fill="#332A94"/>
</g>
<defs>
<clipPath id="clip0_1232_186">
<rect width="48" height="48" rx="24" fill="white"/>
</clipPath>
</defs>
</svg>
