<?xml version="1.0" encoding="UTF-8"?>
<svg width="46px" height="58px" viewBox="0 0 46 58" version="1.1" xmlns="http://www.w3.org/2000/svg" xmlns:xlink="http://www.w3.org/1999/xlink">
    <title>B028C074-54EB-4DC8-B6A1-B6E6E39F6B80@2x</title>
    <g id="ELSS" stroke="none" stroke-width="1" fill="none" fill-rule="evenodd">
        <g id="02_ELSS" transform="translate(-1152.000000, -1745.000000)" fill="#97144D">
            <g id="Group-8" transform="translate(192.000000, 1283.000000)">
                <g id="benefit1-copy-5" transform="translate(894.000000, 426.000000)">
                    <g id="Group-2" transform="translate(48.000000, 36.000000)">
                        <g id="Group" transform="translate(18.000000, 0.000000)">
                            <path d="M35.3043478,34.0336069 L35.3043478,34.0434783 C35.3043478,34.4592278 35.1031289,34.82798 34.7927664,35.0576595 L24.8480912,45.0023347 C24.3556909,45.4947347 23.5573526,45.4947347 23.0649523,45.0023347 C22.5725522,44.5099343 22.5725522,43.7115961 23.0649523,43.2191958 L30.9798002,35.3043478 L11.3478261,35.3043478 C5.08094533,35.3043478 0,30.2234026 0,23.9565217 L0,18.9130435 C0,18.2166845 0.564510545,17.6521739 1.26086957,17.6521739 C1.95722859,17.6521739 2.52173913,18.2166845 2.52173913,18.9130435 L2.52173913,23.9565217 C2.52173913,28.8306844 6.47366337,32.7826087 11.3478261,32.7826087 L31.0191394,32.7826087 L23.0649523,24.8284216 C22.5725522,24.3360214 22.5725522,23.537683 23.0649523,23.0452828 C23.5573526,22.5528826 24.3556909,22.5528826 24.8480912,23.0452828 L34.9350477,33.1322393 C35.1837399,33.3809314 35.3068272,33.7076641 35.3043478,34.0336069 L35.3043478,34.0336069 Z M15.1304348,12.6086957 L15.1304348,26.4782609 C15.1304348,27.1746199 14.5659242,27.7391304 13.8695652,27.7391304 C13.1732062,27.7391304 12.6086957,27.1746199 12.6086957,26.4782609 L12.6086957,11.3478261 C12.6086957,10.6514671 13.1732062,10.0869565 13.8695652,10.0869565 L44.1304348,10.0869565 C44.8267939,10.0869565 45.3913043,10.6514671 45.3913043,11.3478261 L45.3913043,56.7391304 C45.3913043,57.4354895 44.8267939,58 44.1304348,58 L13.8695652,58 C13.1732062,58 12.6086957,57.4354895 12.6086957,56.7391304 L12.6086957,41.6086957 C12.6086957,40.9123366 13.1732062,40.3478261 13.8695652,40.3478261 C14.5659242,40.3478261 15.1304348,40.9123366 15.1304348,41.6086957 L15.1304348,55.4782609 L42.8695652,55.4782609 L42.8695652,12.6086957 L15.1304348,12.6086957 Z" id="Shape" fill-rule="nonzero"></path>
                            <path d="M0.0480631272,0 L0.0480631272,0.019532 L0,0.019532 L0,2.019532 L2.29832979,2.019532 C4.38847403,2.019532 5.44115585,2.9022 5.82010824,4 L0.0480631272,4 L0.0480631272,6 L5.82010824,6 C5.4401357,7.0962 4.38636439,7.98047 2.29832979,7.98047 L1.57300253,7.98047 L1.56863112,7.98047 L1.56426195,7.98047 L0,7.98047 L0,9.398438 L0,9.98047 L0.659785214,9.98047 L7.48487008,16 L9.05787261,14.574218 L3.69218509,9.847656 C6.12200839,9.395256 7.68384973,7.7826 8.1140711,6 L11.1683168,6 L11.1683168,4 L8.1140711,4 C7.94116106,3.2808 7.56795594,2.5998 7.04355465,2 L11.1683168,2 L11.1683168,0 L0.0480631272,0 Z" id="Path"></path>
                        </g>
                    </g>
                </g>
            </g>
        </g>
    </g>
</svg>