<?xml version="1.0" encoding="UTF-8"?>
<svg width="36px" height="34px" viewBox="0 0 36 34" version="1.1" xmlns="http://www.w3.org/2000/svg" xmlns:xlink="http://www.w3.org/1999/xlink">
    <title>Proactive Alerts for timely actions@2x</title>
    <g id="Dropdown" stroke="none" stroke-width="1" fill="none" fill-rule="evenodd">
        <g id="St5-Dropdown-_Online-KYC" transform="translate(-920.000000, -158.000000)" fill="#97144D" fill-rule="nonzero">
            <g id="Group-27" transform="translate(0.000000, 96.000000)">
                <g id="Dropdown" transform="translate(498.000000, 61.000000)">
                    <g id="Start-SIP-Copy" transform="translate(422.000000, 1.000000)">
                        <g id="noun_KYC_3827268" transform="translate(0.000000, -0.000000)">
                            <path d="M18,4.50696 L21.3984,4.50696 C21.72984,4.50696 21.9984,4.2384 21.9984,3.90696 C21.9984,3.57552 21.72984,3.30696 21.3984,3.30696 L18,3.30696 C17.66856,3.30696 17.4,3.57552 17.4,3.90696 C17.4,4.2384 17.66856,4.50696 18,4.50696 Z" id="Path"></path>
                            <path d="M18,6.80736 L24.85464,6.80736 C25.18608,6.80736 25.45464,6.5388 25.45464,6.20736 C25.45464,5.87592 25.18608,5.60736 24.85464,5.60736 L18,5.60736 C17.66856,5.60736 17.4,5.87592 17.4,6.20736 C17.4,6.5388 17.66856,6.80736 18,6.80736 Z" id="Path"></path>
                            <path d="M18,9.10776 L18.864,9.10776 C19.19544,9.10776 19.464,8.8392 19.464,8.50776 C19.464,8.17632 19.19544,7.90776 18.864,7.90776 L18,7.90776 C17.66856,7.90776 17.4,8.17632 17.4,8.50776 C17.4,8.8392 17.66856,9.10776 18,9.10776 Z" id="Path"></path>
                            <path d="M22.824,8.50776 C22.824,8.17632 22.55544,7.90776 22.224,7.90776 L21.36,7.90776 C21.02856,7.90776 20.76,8.17632 20.76,8.50776 C20.76,8.8392 21.02856,9.10776 21.36,9.10776 L22.224,9.10776 C22.55544,9.10776 22.824,8.8392 22.824,8.50776 Z" id="Path"></path>
                            <path d="M22.31664,13.63224 C22.31664,16.51056 24.65832,18.85224 27.53664,18.85224 C30.41472,18.85224 32.7564,16.51056 32.7564,13.63224 C32.7564,10.75392 30.41472,8.41224 27.53664,8.41224 C24.65832,8.41224 22.31664,10.75392 22.31664,13.63224 Z M27.53664,10.09224 C29.48856,10.09224 31.0764,11.68032 31.0764,13.63224 C31.0764,15.58416 29.48856,17.17224 27.53664,17.17224 C25.58472,17.17224 23.99664,15.58416 23.99664,13.63224 C23.99664,11.68032 25.58472,10.09224 27.53664,10.09224 Z" id="Shape"></path>
                            <path d="M26.30808,15.49008 C26.4252,15.6072 26.5788,15.66576 26.7324,15.66576 C26.886,15.66576 27.03936,15.6072 27.15672,15.49008 L30.024,12.6228 C30.25848,12.38832 30.25848,12.00864 30.024,11.7744 C29.78952,11.54016 29.40984,11.53992 29.1756,11.7744 L26.7324,14.2176 L25.89768,13.38288 C25.6632,13.1484 25.28352,13.1484 25.04928,13.38288 C24.81504,13.61736 24.8148,13.99704 25.04928,14.23128 L26.30808,15.49008 Z" id="Path"></path>
                            <path d="M3.79488,8.91408 L4.5876,11.628 C4.26048,12.0276 4.11792,12.54312 4.2072,13.06032 L4.38216,14.07216 C4.48272,14.65368 4.89288,15.12864 5.43648,15.33408 L5.73,16.19328 C5.96496,16.88088 6.44592,17.46336 7.08504,17.8332 L8.08128,18.40992 C8.58144,18.69936 9.15336,18.85248 9.73536,18.85248 L9.98328,18.85248 C10.56504,18.85248 11.13696,18.69936 11.63688,18.40992 L12.6336,17.8332 C13.27248,17.46312 13.75392,16.88088 13.98864,16.19328 L14.28192,15.33432 C14.82504,15.12936 15.23592,14.65392 15.33648,14.07192 L15.5112,13.06032 C15.60168,12.53664 15.4548,12.01392 15.11856,11.6124 L15.90696,8.91432 C16.0908,8.28528 16.01136,7.6248 15.6828,7.0548 C15.39432,6.55416 14.92896,6.16872 14.382,5.96928 C14.07816,4.45416 12.70512,3.30744 11.06184,3.30744 C10.34568,3.30744 9.64824,3.45024 8.98944,3.73176 C8.06544,4.12656 6.32088,4.64856 5.0208,3.70704 C4.79232,3.54192 4.4964,3.50208 4.23336,3.60096 C3.9696,3.69984 3.77304,3.92424 3.70968,4.1988 C3.51096,5.05992 3.47232,6.11712 3.99096,7.10856 C3.69,7.66056 3.61608,8.30232 3.79488,8.91408 Z M5.88912,8.92536 L5.68224,9.38304 L5.47632,8.6784 C5.60568,8.76312 5.7432,8.84544 5.88912,8.92536 Z M13.6848,13.7628 L13.6032,13.77096 C13.2504,13.8084 12.94752,14.0484 12.82992,14.3868 L12.39864,15.65016 C12.29496,15.95352 12.07968,16.21224 11.79192,16.3788 L10.7952,16.95552 C10.55064,17.09736 10.27008,17.172 9.98328,17.172 L9.73536,17.172 C9.4488,17.172 9.16776,17.09712 8.92296,16.95552 L7.92672,16.3788 C7.63896,16.21248 7.42344,15.95352 7.32,15.65016 L6.88704,14.38296 C6.77112,14.0484 6.468,13.8084 6.11088,13.77048 L6.03384,13.76208 L5.8632,12.77424 C5.85672,12.73728 5.87208,12.69912 5.90496,12.67008 L6.17832,12.43056 C6.3828,12.25152 6.47616,11.9952 6.4596,11.74344 L7.44336,9.56592 C7.4568,9.53616 7.4748,9.50856 7.49496,9.48264 C8.7084,9.7536 10.20768,9.80592 11.65752,9.32376 C11.89896,9.24384 12.16152,9.35088 12.25896,9.56616 L13.25808,11.77752 C13.25232,12.01776 13.3452,12.25872 13.53984,12.42984 L13.81368,12.67008 C13.8468,12.69912 13.86216,12.73704 13.85568,12.77448 L13.6848,13.7628 Z M9.65016,5.27616 C10.09896,5.0844 10.57392,4.98696 11.06208,4.98696 C12.00096,4.98696 12.76488,5.71128 12.76488,6.60144 L12.76488,6.62736 C12.76488,7.014 13.02888,7.35072 13.404,7.44288 L13.72128,7.52112 C13.9404,7.57488 14.12016,7.70712 14.2272,7.89312 C14.32464,8.06232 14.34864,8.25744 14.2944,8.44272 L14.0196,9.38304 L13.78968,8.87424 C13.43424,8.08776 12.65736,7.6152 11.8272,7.6152 C11.59536,7.6152 11.3592,7.65192 11.12712,7.7292 C9.57408,8.24592 7.80312,7.9728 6.7284,7.47048 C5.84616,6.99576 5.376,6.43536 5.27136,5.69304 C6.92904,6.22392 8.65272,5.7024 9.65016,5.27616 Z" id="Shape"></path>
                            <path d="M33.5964,0.17616 L2.40336,0.17616 C1.14624,0.17616 0.12336,1.19904 0.12336,2.45616 L0.12336,24.1488 C0.12336,25.40592 1.146,26.4288 2.40336,26.4288 L12.48696,26.4288 L12.48696,31.26384 L9.3132,31.26384 C8.84928,31.26384 8.4732,31.63992 8.4732,32.10384 C8.4732,32.56776 8.84928,32.94384 9.3132,32.94384 L13.32696,32.94384 L22.62288,32.94384 L26.6868,32.94384 C27.15072,32.94384 27.5268,32.56776 27.5268,32.10384 C27.5268,31.63992 27.15072,31.26384 26.6868,31.26384 L23.46288,31.26384 L23.46288,26.4288 L33.5964,26.4288 C34.85352,26.4288 35.8764,25.40592 35.8764,24.1488 L35.8764,2.45616 C35.8764,1.19904 34.85352,0.17616 33.5964,0.17616 Z M2.40336,1.85616 L33.5964,1.85616 C33.92736,1.85616 34.1964,2.12544 34.1964,2.45616 L34.1964,20.3028 L1.80336,20.3028 L1.80336,2.45616 C1.80336,2.12544 2.07264,1.85616 2.40336,1.85616 Z M21.78288,31.26384 L14.16696,31.26384 L14.16696,26.4288 L21.78288,26.4288 L21.78288,31.26384 Z M33.5964,24.7488 L22.62288,24.7488 L13.32696,24.7488 L2.40336,24.7488 C2.07264,24.7488 1.80336,24.47976 1.80336,24.1488 L1.80336,21.98304 L34.1964,21.98304 L34.1964,24.1488 C34.1964,24.47976 33.92736,24.7488 33.5964,24.7488 Z" id="Shape"></path>
                        </g>
                    </g>
                </g>
            </g>
        </g>
    </g>
</svg>