<?xml version="1.0" encoding="UTF-8"?>
<svg width="43px" height="58px" viewBox="0 0 43 58" version="1.1" xmlns="http://www.w3.org/2000/svg" xmlns:xlink="http://www.w3.org/1999/xlink">
    <title>86C9D7D4-0E39-4201-9DFD-5C2A1EE2548E@2x</title>
    <g id="ELSS" stroke="none" stroke-width="1" fill="none" fill-rule="evenodd">
        <g id="02_ELSS" transform="translate(-965.000000, -1745.000000)" fill="#97144D">
            <g id="Group-8" transform="translate(192.000000, 1283.000000)">
                <g id="benefit1-copy-4" transform="translate(715.000000, 426.000000)">
                    <g id="Group-2" transform="translate(23.000000, 36.000000)">
                        <g id="Group" transform="translate(35.000000, 0.000000)">
                            <path d="M39.8524444,29.8899778 C39.9207556,29.4730222 40.0670444,28.4548 40.0670444,27.3805111 C40.0670444,26.2830222 39.9143111,25.2448222 39.8479333,24.8465556 C39.9143111,24.4482889 40.0670444,23.4100889 40.0670444,22.3126 C40.0670444,21.1468 39.8936889,20.0415778 39.8363333,19.7077556 C39.7802667,15.8507556 32.7300444,13.7692 26.0922667,13.7692 C19.4345111,13.7692 12.3591556,15.863 12.3462667,19.7432 C12.2831111,20.1169778 12.122,21.1816 12.122,22.3068 C12.122,23.4042889 12.2747333,24.4424889 12.3411111,24.8407556 C12.2747333,25.2390222 12.122,26.2772222 12.122,27.3747111 C12.122,28.4612444 12.2721556,29.4904222 12.3391778,29.8970667 C12.2721556,30.2992 12.1329556,31.2549111 12.1213556,32.2737778 C5.51966667,32.8267111 0.313844444,38.367 0.313844444,45.1091778 C0.314488889,52.2167556 6.09708889,58 13.2053111,58 C18.1862222,58 22.5078667,55.1547778 24.6532222,51.0090667 C25.1404222,51.0296889 25.6237556,51.0438667 26.0929111,51.0438667 C26.3223333,51.0438667 26.5466,51.0438667 26.7740889,51.0380667 C27.0228444,51.0316222 27.2709556,51.0258222 27.5139111,51.0097111 C27.6215333,51.0084222 27.7252889,51.0032667 27.8419333,50.9981111 C27.8644889,50.9981111 27.8864,50.9974667 27.9089556,50.9955333 L28.6159111,50.9452667 C28.8156889,50.9330222 29.0025778,50.9156222 29.1933333,50.8969333 C35.4773111,50.3072667 39.6152889,48.1084222 39.8228,45.2793111 C39.8427778,45.1691111 40.0689778,43.9137333 40.0689778,42.5816667 C40.0689778,41.4622667 39.9149556,40.4292222 39.8472889,40.0296667 C40.0283778,38.9006 40.0689778,38.0228667 40.0689778,37.4854 C40.0689778,36.9543778 40.0283778,36.0901778 39.8485778,34.9514444 C40.0277333,33.8262444 40.0689778,32.9517333 40.0689778,32.4155556 C40.0683333,31.3251556 39.9162444,30.2811556 39.8524444,29.8899778 Z M26.042,44.0452 C25.9524222,42.9535111 25.7236444,41.9037111 25.3775778,40.9054667 C25.6147333,40.9106222 25.8480222,40.9170667 26.0922667,40.9170667 C30.8282889,40.9170667 35.119,39.9452444 37.5962444,38.3141556 C37.6181556,38.3025556 37.6394222,38.2890222 37.6606889,38.2754889 C37.6671333,38.2709778 37.6729333,38.2664667 37.6793778,38.2619556 C37.8424222,38.1517556 37.9848444,38.0415556 38.1253333,37.9307111 C38.106,38.3972889 38.0538,39.0224 37.9255556,39.8092667 C37.9107333,39.8782222 37.903,39.9484667 37.903,40.0148444 C37.903,40.02 37.9042889,40.0245111 37.9042889,40.0296667 C37.8817333,40.7218 37.1792889,41.3320889 36.5915556,41.7245556 C36.5741556,41.7368 36.5567556,41.7484 36.5393556,41.7619333 C35.235,42.6203333 33.1811556,43.3060222 30.8115333,43.6862444 L27.5371111,44.0181333 C27.0460444,44.0400444 26.5427333,44.0464889 26.042,44.0452 Z M26.0922667,25.7378222 C30.7561111,25.7378222 35.6210222,24.7092889 38.1240444,22.7604889 C38.0828,23.7709778 37.9191111,24.6596667 37.9171778,24.6699778 C37.9152444,24.6815778 37.9158889,24.6925333 37.9146,24.7034889 C37.9113778,24.7292667 37.9094444,24.7505333 37.9075111,24.7756667 C37.9055778,24.7982222 37.9023556,24.8207778 37.9023556,24.8439778 C37.8914,25.3840222 37.4274,25.9859333 36.5902667,26.5427333 C34.4565111,27.9759778 30.4345333,28.8659556 26.0935556,28.8659556 C23.2412444,28.8659556 20.4694889,28.4786444 18.2919111,27.7768444 C18.1082444,27.7169111 17.9174889,27.6395778 17.7093333,27.5396889 L15.9590222,26.6974 C15.5633333,26.5066444 15.2565778,26.3113778 15.022,26.1012889 C14.5515556,25.6791778 14.3079556,25.2641556 14.2892667,24.8665333 C14.2892667,24.8581556 14.2886222,24.8491333 14.2886222,24.8407556 C14.2886222,24.8046667 14.2834667,24.7692222 14.2796,24.7337778 C14.2770222,24.7099333 14.2783111,24.6867333 14.2738,24.6628889 C14.2718667,24.6525778 14.1094667,23.7703333 14.0675778,22.7643556 C16.5706,24.7105778 21.4322889,25.7378222 26.0922667,25.7378222 Z M15.5994222,31.6087111 C15.5987778,31.6087111 15.5981333,31.6080667 15.5974889,31.6074222 C15.5974889,31.6074222 15.5974889,31.6074222 15.5974889,31.6074222 C14.7738889,31.0538444 14.3376,30.4931778 14.2886222,29.9312222 C14.2892667,29.9157556 14.2860444,29.8996444 14.2860444,29.8841778 L14.2860444,29.8758 C14.2860444,29.8609778 14.2821778,29.8480889 14.2815333,29.8332667 C14.2789556,29.7991111 14.2796,29.7656 14.2731556,29.7308 C14.2731556,29.7301556 14.2705778,29.7140444 14.2692889,29.7076 C14.2667111,29.6940667 14.2654222,29.6805333 14.2622,29.667 C14.2248222,29.4478889 14.1004444,28.6745556 14.0656444,27.8116444 C14.3685333,28.0365556 14.7158889,28.2440667 15.1206,28.4393333 L16.8715556,29.2822667 C17.1596222,29.4201778 17.4283556,29.5297333 17.6964444,29.6167333 C20.097,30.3907111 23.0008667,30.7999333 26.0935556,30.7999333 C30.8688889,30.7999333 35.1956889,29.8087778 37.6645556,28.1506222 C37.8334,28.0378444 37.9803333,27.9244222 38.1253333,27.811 C38.0918222,28.6610222 37.9719556,29.4221111 37.932,29.6579778 C37.9152444,29.7295111 37.9036444,29.8036222 37.9036444,29.8809556 C37.9036444,29.8848222 37.9049333,29.8893333 37.9049333,29.8932 C37.9049333,29.8964222 37.9036444,29.9002889 37.9036444,29.9035111 C37.8959111,30.4390444 37.4286889,31.0441778 36.5870444,31.6080667 C36.5857556,31.6087111 36.5844667,31.6093556 36.5831778,31.6106444 C36.4420444,31.7047333 36.2925333,31.7968889 36.1346444,31.8864667 L33.4415111,32.9775111 C31.3129111,33.5987556 28.7738,33.9274222 26.0942,33.9274222 C21.7616,33.9261333 17.7402667,33.0374444 15.5994222,31.6087111 Z M26.0929111,35.8594667 C28.9742222,35.8594667 31.7189111,35.4985778 34.0318222,34.8174 C34.0621111,34.8083778 34.0924,34.7987111 34.1214,34.7864667 L36.9163556,33.6541778 C36.9537333,33.6393556 36.9898222,33.6213111 37.0246222,33.6019778 C37.2405111,33.4814667 37.4428667,33.3570889 37.6342667,33.2294889 C37.6574667,33.2146667 37.6800222,33.1992 37.7019333,33.1824444 C37.8546667,33.0786889 37.9912889,32.9742889 38.1234,32.8705333 C38.1040667,33.3371111 38.0518667,33.9602889 37.9242667,34.7452222 C37.9242667,34.7452222 37.9242667,34.7458667 37.9242667,34.7458667 C37.9100889,34.8116 37.9017111,34.8799111 37.9017111,34.9501556 C37.9017111,34.9540222 37.903,34.9572444 37.903,34.9611111 C37.8914,35.4889111 37.4467333,36.0785778 36.6463333,36.627 C36.6244222,36.6398889 36.6031556,36.6527778 36.5825333,36.6669556 C34.4545778,38.0963333 30.4345333,38.9843778 26.0922667,38.9843778 C25.5419111,38.9843778 25.0218444,38.9669778 24.5191778,38.9412 C23.8270444,37.6768 22.9209556,36.5509556 21.8627778,35.5881556 C23.2045111,35.7647333 24.6274444,35.8594667 26.0929111,35.8594667 Z M26.0922667,15.7025333 C33.3925333,15.7025333 37.8804444,18.0496 37.903,19.7406222 C37.9023556,19.7522222 37.9017111,19.7638222 37.9017111,19.7760667 C37.8636889,21.4658 33.3802889,23.8044889 26.0922667,23.8044889 C18.8300222,23.8044889 14.3543556,21.4819111 14.2860444,19.7941111 C14.2866889,19.7689778 14.2866889,19.7444889 14.2854,19.72 C14.3440444,18.0302667 18.8216444,15.7025333 26.0922667,15.7025333 Z M13.2053111,56.0666667 C7.16364444,56.0666667 2.24846667,51.1508444 2.24846667,45.1091778 C2.24846667,39.0675111 7.16364444,34.1523333 13.2053111,34.1523333 C19.2469778,34.1523333 24.1621556,39.0675111 24.1621556,45.1091778 C24.1621556,51.1508444 19.2469778,56.0666667 13.2053111,56.0666667 Z M29.0096667,48.9726222 C28.8395333,48.9887333 28.6745556,49.0054889 28.4870222,49.0164444 L27.7968222,49.0647778 C27.7800667,49.0647778 27.7472,49.0660667 27.7304444,49.0667111 C27.6221778,49.0738 27.5177778,49.0705778 27.4095111,49.0789556 C27.1858889,49.0944222 26.9571111,49.0995778 26.7264,49.1053778 C26.5214667,49.1105827 26.3210444,49.1105827 26.1154667,49.1105827 C25.9002222,49.1111778 25.6772444,49.1053778 25.4549111,49.1008667 C25.7790667,48.1090667 25.9775556,47.0637778 26.0510222,45.9824 C26.0652,45.9824 26.0780889,45.9830444 26.0922667,45.9830444 C26.6104,45.9830444 27.1214444,45.9708 27.6769556,45.9443778 L31.0602889,45.6021778 C33.7895111,45.1658889 36.0515111,44.3964222 37.5898,43.384 C37.6168667,43.3678889 37.6490889,43.3446889 37.6819556,43.3202 C37.845,43.2106444 37.9854889,43.1004444 38.1259778,42.9896 C38.0873111,44.0168444 37.9204,44.9287333 37.9184667,44.9390444 C37.9107333,44.9809333 37.9100889,45.0221778 37.9081556,45.0640667 C37.9075111,45.0730889 37.9049333,45.0808222 37.9049333,45.0898444 C37.8611111,46.5926889 34.5228889,48.4544889 29.0096667,48.9726222 Z" id="Shape" fill-rule="nonzero"></path>
                            <path d="M9.06093974,39.3111111 L9.06093974,39.3268452 L9.02222222,39.3268452 L9.02222222,40.9379563 L10.8736546,40.9379563 C12.5573819,40.9379563 13.4053755,41.6489944 13.7106427,42.5333333 L9.06093974,42.5333333 L9.06093974,44.1444444 L13.7106427,44.1444444 C13.4045538,45.0274944 12.5556824,45.7398231 10.8736546,45.7398231 L10.2893631,45.7398231 L10.2858417,45.7398231 L10.2823221,45.7398231 L9.02222222,45.7398231 L9.02222222,46.8820751 L9.02222222,47.3509342 L9.55371587,47.3509342 L15.0517009,52.2 L16.3188418,51.0514534 L11.9964824,47.2439451 C13.9538401,46.8795118 15.2119901,45.5804278 15.5585573,44.1444444 L18.0189219,44.1444444 L18.0189219,42.5333333 L15.5585573,42.5333333 C15.4192686,41.9539778 15.1186312,41.4053944 14.6961968,40.9222222 L18.0189219,40.9222222 L18.0189219,39.3111111 L9.06093974,39.3111111 Z" id="Path"></path>
                            <path d="M26.4634667,10.9233333 C26.9977111,10.9233333 27.4301333,10.4902667 27.4301333,9.95666667 L27.4301333,3.38913333 L29.2468222,5.20582222 C29.4356444,5.39464444 29.6831111,5.48873333 29.9305778,5.48873333 C30.1780444,5.48873333 30.4255111,5.39464444 30.6143333,5.20582222 C30.9919778,4.82817778 30.9919778,4.2166 30.6143333,3.83895556 L27.0582889,0.282911111 C26.6806444,-0.0947333333 26.0690667,-0.0947333333 25.6914222,0.282911111 L22.1353778,3.83895556 C21.7577333,4.2166 21.7577333,4.82817778 22.1353778,5.20582222 C22.5130222,5.58346667 23.1246,5.58346667 23.5022444,5.20582222 L25.4968,3.21126667 L25.4968,9.95666667 C25.4968,10.4902667 25.9298667,10.9233333 26.4634667,10.9233333 Z" id="Path" fill-rule="nonzero" transform="translate(26.374856, 5.461506) scale(1, -1) translate(-26.374856, -5.461506) "></path>
                            <path d="M15.1425111,12.9217556 C15.6767556,12.9217556 16.1091778,12.4886889 16.1091778,11.9550889 L16.1091778,5.38755556 L17.9258667,7.20424444 C18.3035111,7.58188889 18.9150889,7.58188889 19.2927333,7.20424444 C19.6703778,6.8266 19.6703778,6.21502222 19.2927333,5.83737778 L15.7373333,2.28133333 C15.5562444,2.10024444 15.3100667,1.99842222 15.0535778,1.99842222 C14.7970889,1.99842222 14.5515556,2.10024444 14.3704667,2.28133333 L10.8144222,5.83737778 C10.4367778,6.21502222 10.4367778,6.8266 10.8144222,7.20424444 C11.0032444,7.39306667 11.2507111,7.48715556 11.4981778,7.48715556 C11.7456444,7.48715556 11.9931111,7.39306667 12.1819333,7.20424444 L14.1764889,5.20968889 L14.1764889,11.9550889 C14.1758444,12.4886889 14.6082667,12.9217556 15.1425111,12.9217556 Z" id="Path" fill-rule="nonzero" transform="translate(15.053578, 7.460089) scale(1, -1) translate(-15.053578, -7.460089) "></path>
                            <path d="M38.3798889,2.28133333 C38.0022444,1.90368889 37.3906667,1.90368889 37.0130222,2.28133333 L33.4569778,5.83737778 C33.0793333,6.21502222 33.0793333,6.8266 33.4569778,7.20424444 C33.8346222,7.58188889 34.4462,7.58188889 34.8238444,7.20424444 L36.8184,5.20968889 L36.8184,11.9550889 C36.8184,12.4886889 37.2508222,12.9217556 37.7850667,12.9217556 C38.3193111,12.9217556 38.7517333,12.4886889 38.7517333,11.9550889 L38.7517333,5.38755556 L40.5684222,7.20424444 C40.7572444,7.39306667 41.0047111,7.48715556 41.2521778,7.48715556 C41.4996444,7.48715556 41.7471111,7.39306667 41.9359333,7.20424444 C42.3135778,6.8266 42.3135778,6.21502222 41.9359333,5.83737778 L38.3798889,2.28133333 Z" id="Path" fill-rule="nonzero" transform="translate(37.696456, 7.459928) scale(1, -1) translate(-37.696456, -7.459928) "></path>
                        </g>
                    </g>
                </g>
            </g>
        </g>
    </g>
</svg>