<svg width="48" height="48" viewBox="0 0 48 48" fill="none" xmlns="http://www.w3.org/2000/svg">
<path d="M32.6642 27.0491L34.5962 23.3661L31.8793 22.2491L31.5774 24.6642L31.8793 25.0868L31.5774 27.2302L32.6642 27.0491Z" fill="#0E2446"/>
<path d="M34.4151 29.1019L35.7736 27.9245L37.2528 24.4528L35.1094 23.5472L33.117 29.1924L31.7283 30.3396L29.9774 33.449H31.7283L34.4151 29.1019Z" fill="#0E2446"/>
<path d="M24.1509 39.8792C28.649 39.8792 33.5396 37.8867 36.3773 34.2037H11.8943C15.366 38.4603 20.1962 39.8792 24.1509 39.8792Z" fill="#0E2446"/>
<path d="M26.7773 33.4491H28.9811L31.3056 29.1019L30.883 28.2868L26.7773 33.4491Z" fill="#0E2446"/>
<path d="M9.20755 23.4566C9.20755 16.483 15.1547 8.99623 24.2717 8.99623C30.6415 8.99623 35.8943 13.0415 37.7358 17.7811L30.5207 15.7887L24.1207 12.1962L20.9509 11.683L19.5019 14.7623L18.3245 15.366L16.5132 19.9547C16.5132 19.8641 15.2453 20.4981 15.2453 20.4981C15.2453 20.4981 12.5585 27.683 11.2 31.3358C10.1736 29.4641 9.20755 27.4717 9.20755 23.4566ZM15.0641 25.9623L16.2717 22.6113L16.966 22.2792L14.2189 30.7019L12.2566 33.449H13.1019L16.3924 29.4943L17.9623 23.366L18.566 24.2113C18.3245 27.049 18.4151 26.3547 18.234 27.9245L14.2792 33.449H15.2151L19.0792 30.5207L19.3207 30.6113L17.8717 33.449H22.1283L28.6792 29.0717L30.6717 21.766L35.5019 21.5245L33.6302 20.317L23.034 18.5358C20.7094 16.0604 20.6189 15.9396 20.6189 15.9396L23.3962 16.1811L21.4038 14.3396V12.4377L24 12.9208L31.1245 17.0566L39.3358 19.2906C38.4906 15.4264 33.5396 8 24.1811 8C14.4604 8 8 15.9396 8 23.4566C8 28.4679 9.66038 31.366 11.1698 33.4792C12.1962 31.1547 14.1585 26.4151 14.1585 26.4151L15.0641 25.9623Z" fill="#0E2446"/>
<path d="M36.8302 28.1057L33.4491 33.449H37.0113C38.7387 31.0816 39.7735 28.2803 40 25.3585L37.8566 24.6038L36.8302 28.1057Z" fill="#0E2446"/>
</svg>
