<svg width="48" height="48" viewBox="0 0 48 48" fill="none" xmlns="http://www.w3.org/2000/svg">
<path d="M39.445 16.0039C40.2448 16.0039 41.045 16.007 41.8452 16C41.9728 16 42.0022 16.0286 41.9999 16.1546C41.9941 17.4141 41.9964 18.6732 41.9964 19.9327C41.9912 19.9368 41.9853 19.9399 41.9789 19.9417C41.9725 19.9435 41.9658 19.9441 41.9592 19.9433C41.9526 19.9425 41.9463 19.9404 41.9405 19.9371C41.9347 19.9338 41.9297 19.9294 41.9256 19.9242C41.8704 19.5996 41.8384 19.2714 41.8302 18.9422C41.7432 18.1072 41.3703 17.3278 40.7748 16.736C40.4939 16.4632 40.1479 16.2667 39.7697 16.1651C39.6604 16.1496 39.5539 16.1185 39.4535 16.0727C39.4482 16.0686 39.4437 16.0635 39.4404 16.0577C39.4371 16.0518 39.4349 16.0454 39.4341 16.0387C39.4333 16.032 39.4339 16.0253 39.4358 16.0188C39.4376 16.0124 39.4408 16.0064 39.445 16.0012" fill="#FCFCFC"/>
<path d="M37.6581 16.4054C37.7269 16.2827 37.7621 16.1441 37.7602 16.0034H38.8836C38.8878 16.0087 38.8909 16.0148 38.8927 16.0213C38.8945 16.0278 38.895 16.0346 38.8941 16.0413C38.8932 16.048 38.891 16.0545 38.8876 16.0603C38.8842 16.0661 38.8797 16.0712 38.8743 16.0753C38.5153 16.1655 38.1633 16.2818 37.8213 16.4232C37.7964 16.4399 37.7664 16.4474 37.7366 16.4443C37.7068 16.4412 37.679 16.4277 37.6581 16.4062" fill="#FDFDFD"/>
<path d="M41.9562 19.9345H41.9983V21.0575C41.9291 21.0842 41.8873 21.1635 41.8023 21.1596C41.76 20.9873 41.7754 20.8059 41.846 20.6431C41.876 20.5512 41.885 20.4537 41.8723 20.3578C41.8866 20.214 41.8305 20.0563 41.9558 19.9326" fill="#FDFDFD"/>
<path d="M38.8786 16.0479C38.8833 16.0335 38.8855 16.0185 38.8851 16.0034H39.4472C39.446 16.0184 39.4475 16.0335 39.4518 16.0479C39.3691 16.109 39.269 16.142 39.1662 16.142C39.0633 16.142 38.9632 16.109 38.8805 16.0479" fill="#989696"/>
<path d="M38.8786 16.0481H39.4519C39.8292 16.0902 40.1917 16.2191 40.5109 16.4246C40.8302 16.6302 41.0975 16.9068 41.292 17.2329C41.7166 17.9039 41.9432 18.6811 41.9457 19.4751C41.9515 19.6297 41.9542 19.7809 41.958 19.9336C41.9531 20.0802 41.9484 20.2266 41.9437 20.3727C41.9004 20.4601 41.9437 20.5594 41.9051 20.6472C41.8711 20.8178 41.8373 20.9883 41.8038 21.1586C41.4726 22.412 40.835 23.5634 39.9482 24.5091C39.037 25.5015 37.9058 26.2664 36.6453 26.7424C36.3869 26.8511 36.1224 26.9449 35.8532 27.0234C35.7423 27.0532 35.7129 27.0822 35.7659 27.1869C35.9314 27.5452 36.0549 27.9214 36.1339 28.308C36.1725 28.3962 36.1284 28.4955 36.1725 28.5829C36.1837 29.77 35.4918 30.4771 34.4805 30.8722C33.9226 31.0387 33.3505 31.1527 32.7714 31.2128C32.6311 31.2387 32.4884 31.2549 32.3462 31.2754C32.2565 31.314 32.156 31.2719 32.0671 31.314L31.7845 31.3283C31.6612 31.3697 31.5282 31.3164 31.4056 31.3651L30.6104 31.3794C30.5104 31.4042 30.4058 31.4042 30.3058 31.3794L29.5075 31.3655C29.3688 31.3137 29.2199 31.3724 29.0804 31.3268L28.7966 31.3129C28.7081 31.2711 28.608 31.3129 28.5187 31.2742C27.6457 31.1968 26.7798 31.0533 25.9286 30.8447C25.3232 30.7098 24.7256 30.5274 24.1322 30.3348C23.4139 30.1029 22.7018 29.8543 22.0014 29.576C21.4126 29.3421 20.8362 29.0754 20.2579 28.816C19.6086 28.5028 18.9215 28.2753 18.2137 28.1391C18.01 28.1308 17.8079 28.0992 17.6114 28.0448C17.4714 27.9941 17.3218 28.0517 17.1811 28.0061H16.8719C16.7315 28.0509 16.5819 27.9926 16.442 28.0448C15.445 28.1268 14.4933 28.4969 13.7027 29.1098C13.6902 29.1402 13.6692 29.1664 13.6423 29.1853C13.6154 29.2042 13.5836 29.215 13.5508 29.2165C12.9637 29.6992 12.3298 30.1219 11.6585 30.4783C10.9303 30.9024 10.1539 31.2377 9.34596 31.4772C8.94754 31.5949 8.52443 31.6009 8.12283 31.4946C7.92833 31.4355 7.75269 31.3265 7.61339 31.1784C7.47408 31.0304 7.37596 30.8484 7.3288 30.6507C7.32222 30.6306 7.29633 30.6174 7.27932 30.6008C7.25319 30.5636 7.23515 30.5213 7.22637 30.4767C7.21758 30.4321 7.21823 30.3861 7.22829 30.3418C7.27274 30.2107 7.22327 30.0712 7.26695 29.9398C7.33933 29.4627 7.5637 29.0216 7.90673 28.6822C8.41171 28.1332 8.96478 27.6304 9.55935 27.18C9.7185 27.0355 9.86779 26.8805 10.0062 26.7161H8.82563C8.72125 26.6681 8.60566 26.7203 8.5009 26.6774C8.06871 26.6397 7.64998 26.5081 7.27403 26.2916C6.89808 26.0751 6.574 25.779 6.32447 25.4241C6.14679 25.1816 6.03752 24.8958 6.00807 24.5966C5.97862 24.2974 6.03009 23.9957 6.15708 23.7232C6.52742 22.8607 7.26695 22.584 8.09963 22.4347C8.24963 22.4081 8.40116 22.3922 8.55193 22.3713C8.75463 22.3443 8.96002 22.3443 9.16272 22.3713C9.93417 22.4289 10.6797 22.675 11.3337 23.0881C11.5563 23.232 11.7349 23.4345 11.8498 23.6733C12.0246 23.3737 12.1834 23.0911 12.3524 22.814C12.856 21.9726 13.4262 21.1729 14.0576 20.4226C14.4466 19.9609 14.8653 19.5249 15.3109 19.1175C16.6923 17.813 18.4465 16.9722 20.3286 16.7122C20.4547 16.696 20.5795 16.6736 20.7052 16.6535C20.8281 16.6109 20.9611 16.6658 21.0836 16.6148H22.0574C22.1811 16.6647 22.3149 16.6106 22.4393 16.6535L22.6713 16.6674C22.7432 16.706 22.8279 16.6674 22.8998 16.706C23.4627 16.7888 24.016 16.9278 24.5512 17.1208C24.9668 17.3049 25.3569 17.5318 25.7496 17.7541C25.8563 17.7521 25.9093 17.824 25.9557 17.904L26.718 18.6072C26.7928 18.6439 26.859 18.6959 26.9123 18.7599C26.9656 18.8239 27.0048 18.8985 27.0273 18.9787C27.0242 19.0495 27.0721 19.085 27.1243 19.1179C27.2006 19.1845 27.258 19.2701 27.2905 19.3661L27.7374 20.1903C27.9137 20.3889 28.0229 20.6381 28.0494 20.9023C28.0776 21.0638 28.134 21.219 28.216 21.3608C28.2594 21.4303 28.2892 21.5075 28.3037 21.5881C28.3433 21.7939 28.4109 21.9934 28.5048 22.1808C28.6207 22.2341 28.567 22.3586 28.6138 22.4413C28.6103 22.4486 28.6095 22.4569 28.6115 22.4647C28.6135 22.4725 28.6181 22.4794 28.6246 22.4842C28.7501 22.6532 28.8334 22.8498 28.8674 23.0575C29.0884 23.7008 29.5127 24.2548 30.0762 24.6359C30.1122 24.6362 30.1474 24.6472 30.1772 24.6675C30.207 24.6878 30.2301 24.7165 30.2436 24.75C30.2756 24.7892 30.3153 24.8216 30.3602 24.8451C30.4051 24.8685 30.4544 24.8826 30.5049 24.8864C30.544 24.8849 30.583 24.8925 30.6186 24.9086C30.6542 24.9248 30.6856 24.9491 30.7102 24.9796C31.0292 25.1347 31.377 25.2218 31.7315 25.2355C31.8927 25.1709 32.0334 25.3039 32.19 25.2823C32.5889 25.3211 32.9914 25.2682 33.3667 25.1276C33.4702 25.0423 33.5988 24.9933 33.7328 24.9881C34.1329 24.8093 34.4827 24.5347 34.7515 24.1886C34.7863 24.1059 34.7901 24.0054 34.891 23.9625L35.002 23.7139C35.0437 23.6304 34.9962 23.5148 35.0963 23.4526L35.1566 23.2071C35.1976 23.0525 35.128 22.8778 35.2474 22.7386C35.2498 22.7042 35.2521 22.6698 35.2544 22.6358C35.1659 22.5043 35.2842 22.3984 35.2981 22.2793L35.3105 21.9983C35.3626 21.8572 35.3039 21.7064 35.3491 21.5649C35.3535 21.4361 35.3579 21.3072 35.3623 21.1784C35.4009 21.0709 35.3584 20.9553 35.3982 20.8486C35.4034 20.737 35.4084 20.6253 35.4133 20.5134C35.4554 20.4249 35.4133 20.3248 35.4519 20.2355C35.5099 20.1041 35.4307 19.9548 35.5053 19.8253C35.4446 19.7268 35.5269 19.6545 35.5521 19.5717C35.5575 19.5288 35.5629 19.4863 35.5683 19.4434C35.5575 19.2207 35.6101 18.9996 35.7198 18.8055C35.7874 18.6208 35.855 18.436 35.9228 18.2512C35.9291 18.1317 35.9812 18.0191 36.0681 17.9369L36.1304 17.8546C36.1449 17.7873 36.173 17.7237 36.2129 17.6676C36.2527 17.6115 36.3036 17.5641 36.3623 17.5283C36.4609 17.3656 36.5869 17.221 36.7346 17.1011C36.7814 17.0563 36.805 16.9882 36.8726 16.9647C37.1055 16.7405 37.3686 16.5502 37.6543 16.3991C38.0407 16.2188 38.4524 16.0983 38.8751 16.0419" fill="#2B2A28"/>
<path d="M28.0517 20.9059L27.7397 20.1938C27.8629 20.2595 27.9644 20.3594 28.0319 20.4815C28.0994 20.6037 28.1301 20.7428 28.1201 20.882C28.1159 20.8959 28.0753 20.8982 28.0517 20.9063" fill="#FDFDFD"/>
<path d="M27.0303 18.9824L26.7211 18.6113C26.8166 18.5939 26.8962 18.4501 27.0071 18.5645C27.132 18.6932 27.0709 18.8398 27.0303 18.9824Z" fill="#FDFDFD"/>
<path d="M35.7222 18.8124C35.6931 19.0294 35.6424 19.243 35.5706 19.4499C35.4523 19.25 35.5389 19.0474 35.5687 18.8472C35.5865 18.7258 35.6645 18.7973 35.7233 18.8124" fill="#FDFDFD"/>
<path d="M28.8701 23.0613C28.7622 22.8828 28.6805 22.6897 28.6274 22.488C28.8048 22.6384 28.9857 22.7872 28.8701 23.0613Z" fill="#FDFDFD"/>
<path d="M32.1928 25.2862C32.0384 25.298 31.8831 25.282 31.7343 25.239C31.7486 25.1617 31.6902 25.0457 31.7857 25.0113C31.9017 24.9688 31.9129 25.0925 31.938 25.166C31.9836 25.2986 32.1313 25.2 32.1932 25.287" fill="#FDFDFD"/>
<path d="M35.2505 22.7432C35.2487 22.9036 35.218 23.0623 35.1597 23.2117C35.1516 23.1634 35.1597 23.102 35.1322 23.0695C34.9795 22.8866 35.1009 22.8116 35.2505 22.7432Z" fill="#FDFDFD"/>
<path d="M35.3012 22.2838C35.314 22.4044 35.2989 22.5263 35.2571 22.6402C35.0437 22.5269 35.0449 22.518 35.3012 22.2838Z" fill="#FDFDFD"/>
<path d="M36.3666 17.5346L36.1347 17.8609C36.0307 17.6224 36.2081 17.5849 36.3666 17.5346Z" fill="#FDFDFD"/>
<path d="M36.0701 17.9435C36.042 18.0565 35.9927 18.1631 35.9248 18.2578C35.8285 18.0861 35.8621 17.974 36.0701 17.9435Z" fill="#FDFDFD"/>
<path d="M33.736 24.9921C33.625 25.0636 33.5003 25.1111 33.3699 25.1316C33.4407 24.9511 33.5713 24.9271 33.736 24.9921Z" fill="#FDFDFD"/>
<path d="M36.878 16.971C36.8517 17.0328 36.8021 17.0818 36.74 17.1075C36.7752 17.0332 36.6418 16.9459 36.7462 16.8852C36.8166 16.8446 36.8359 16.9374 36.8776 16.9706" fill="#FDFDFD"/>
<path d="M25.9584 17.9081L25.7524 17.7581C25.9136 17.6703 25.9391 17.6889 25.9584 17.9081Z" fill="#FDFDFD"/>
<path d="M9.16356 22.3767H8.55277C8.7506 22.3082 8.96573 22.3082 9.16356 22.3767Z" fill="#FCFCFC"/>
<path d="M30.7133 24.9831C30.6362 24.9765 30.5638 24.9436 30.508 24.8899C30.5363 24.8358 30.5684 24.777 30.6414 24.8076C30.7145 24.8381 30.7129 24.9143 30.7137 24.9831" fill="#FDFDFD"/>
<path d="M35.0994 23.4571C35.0949 23.5517 35.062 23.6427 35.0051 23.7184C35.0186 23.6249 34.8389 23.4617 35.0994 23.4571Z" fill="#FDFDFD"/>
<path d="M34.8941 23.9666C34.8718 24.0544 34.8231 24.1332 34.7545 24.1923C34.7982 24.115 34.6219 23.9024 34.8941 23.9666Z" fill="#FDFDFD"/>
<path d="M7.26775 29.9417C7.26775 30.0778 7.26775 30.214 7.26775 30.3503C7.24571 30.3851 7.23102 30.4331 7.17342 30.4002C7.24764 30.2564 7.18463 30.084 7.26775 29.9417Z" fill="#FCFCFC"/>
<path d="M35.5548 19.5781C35.5393 19.6628 35.5235 19.7474 35.508 19.8317C35.3271 19.7111 35.474 19.6508 35.5548 19.5781Z" fill="#FDFDFD"/>
<path d="M28.6165 22.445L28.5075 22.1845C28.7394 22.1895 28.5902 22.3538 28.6165 22.445Z" fill="#FDFDFD"/>
<path d="M35.3523 21.5691C35.3693 21.7147 35.3562 21.8622 35.3136 22.0025C35.3256 21.8583 35.2649 21.7071 35.3523 21.5691Z" fill="#FDFDFD"/>
<path d="M27.294 19.3699L27.1278 19.1217C27.156 19.1249 27.1832 19.1342 27.2075 19.1489C27.2318 19.1637 27.2526 19.1836 27.2684 19.2072C27.2843 19.2308 27.2947 19.2576 27.2992 19.2857C27.3036 19.3138 27.3018 19.3425 27.294 19.3699Z" fill="#FDFDFD"/>
<path d="M7.17261 30.4001L7.26694 30.3502C7.29431 30.4314 7.29925 30.5185 7.28124 30.6022C7.18073 30.5694 7.16875 30.489 7.17261 30.4001Z" fill="#FDFDFD"/>
<path d="M35.4013 20.8545C35.4151 20.9656 35.4028 21.0783 35.3654 21.1839C35.3326 21.1332 35.3183 21.0728 35.3248 21.0128C35.3314 20.9528 35.3584 20.8969 35.4013 20.8545Z" fill="#FDFDFD"/>
<path d="M27.6926 19.5567C27.6916 19.5733 27.6845 19.589 27.6725 19.6007C27.6606 19.6124 27.6447 19.6191 27.628 19.6197C27.5894 19.6197 27.5584 19.598 27.5689 19.5613C27.5743 19.5463 27.583 19.5327 27.5943 19.5214C27.6055 19.5101 27.6192 19.5014 27.6342 19.496C27.6729 19.4863 27.6899 19.5196 27.6922 19.5567" fill="#FDFDFD"/>
<path d="M16.4439 28.0467C16.5828 28.0025 16.7297 27.9893 16.8742 28.0081C16.737 28.0935 16.5877 28.0363 16.4439 28.0467Z" fill="#FCFCFC"/>
<path d="M17.1827 28.0093C17.3271 27.9903 17.4739 28.0035 17.6126 28.048C17.4692 28.0387 17.32 28.0959 17.1827 28.0093Z" fill="#FCFCFC"/>
<path d="M29.0804 31.3275C29.2233 31.3139 29.3675 31.327 29.5056 31.3662C29.3633 31.3565 29.2145 31.4137 29.0804 31.3275Z" fill="#FCFCFC"/>
<path d="M13.5523 29.2179C13.565 29.1877 13.5859 29.1616 13.6127 29.1428C13.6396 29.124 13.6711 29.1132 13.7039 29.1116C13.6996 29.2128 13.7216 29.352 13.5523 29.2179Z" fill="#FDFDFD"/>
<path d="M22.9013 16.7096C22.823 16.7232 22.7424 16.7096 22.6729 16.671C22.7364 16.6609 22.7983 16.6423 22.8569 16.6157C23.0046 16.5616 22.9021 16.6675 22.9013 16.7081" fill="#FDFDFD"/>
<path d="M22.4397 16.6588C22.3112 16.6721 22.1814 16.659 22.0582 16.6201C22.1854 16.6317 22.3195 16.5749 22.4397 16.6588Z" fill="#FDFDFD"/>
<path d="M21.0848 16.6214C20.9624 16.6595 20.8336 16.6727 20.706 16.6601C20.8255 16.5773 20.9584 16.6322 21.0848 16.6214Z" fill="#FDFDFD"/>
<path d="M31.4057 31.3649C31.5279 31.3255 31.6571 31.313 31.7845 31.3282C31.6651 31.4097 31.5321 31.3564 31.4057 31.3649Z" fill="#FCFCFC"/>
<path d="M30.2463 24.7538C30.1799 24.7346 30.1213 24.6946 30.0793 24.6397C30.2014 24.5802 30.2552 24.6212 30.2463 24.7538Z" fill="#FDFDFD"/>
<path d="M8.50171 26.6815C8.61148 26.6705 8.72232 26.6837 8.82644 26.7201C8.71781 26.7135 8.60222 26.7615 8.50171 26.6815Z" fill="#FCFCFC"/>
<path d="M7.05664 30.5212C7.04426 30.5328 7.02802 30.5618 7.01024 30.5626C6.96115 30.5645 6.96888 30.5204 6.97159 30.4911C6.97391 30.4721 6.99594 30.4397 7.00599 30.4404C7.04465 30.4447 7.05934 30.4741 7.05586 30.5208" fill="#FDFDFD"/>
<path d="M30.3059 31.3789H30.6101C30.5656 31.4104 30.5125 31.4272 30.458 31.4272C30.4035 31.4272 30.3504 31.4104 30.3059 31.3789Z" fill="#FCFCFC"/>
<path d="M32.0671 31.3139C32.1544 31.274 32.2514 31.2606 32.3462 31.2752C32.2619 31.3525 32.161 31.3081 32.0671 31.3139Z" fill="#FCFCFC"/>
<path d="M28.5187 31.2759C28.6132 31.2627 28.7094 31.2761 28.7967 31.3145C28.7031 31.3099 28.6034 31.3532 28.5187 31.2759Z" fill="#FCFCFC"/>
<path d="M36.1718 28.5831C36.1369 28.4959 36.1236 28.4016 36.1331 28.3082C36.2074 28.3913 36.1668 28.4903 36.1718 28.5831Z" fill="#FCFCFC"/>
<path d="M28.3064 21.5922C28.2568 21.526 28.2264 21.4473 28.2187 21.3649C28.3153 21.4148 28.3188 21.5002 28.3064 21.5922Z" fill="#FDFDFD"/>
<path d="M35.4546 20.2418C35.4691 20.3361 35.4556 20.4326 35.416 20.5194C35.4214 20.4262 35.3773 20.3261 35.4546 20.2418Z" fill="#FDFDFD"/>
<path d="M41.9035 20.6484C41.8914 20.5552 41.9047 20.4605 41.9422 20.3743C41.9379 20.4667 41.9789 20.5676 41.9035 20.6484Z" fill="#FCFCFC"/>
<path d="M33.4155 26.0165C33.0614 26.4949 32.6385 26.9184 32.1607 27.2733C31.2332 27.9319 30.1281 28.2944 28.9907 28.3132C27.2705 28.3843 25.619 27.9973 23.9753 27.5648C22.2604 27.1136 20.5637 26.5933 18.8338 26.1982C17.6541 25.9179 16.454 25.7315 15.2448 25.6408C14.1779 25.5596 13.105 25.6092 12.0501 25.7884C11.8101 25.831 11.9195 25.6848 11.9496 25.6002C12.2739 24.7048 12.6664 23.8357 13.1237 23.0004C13.713 21.8872 14.4618 20.8662 15.3465 19.9697C16.4457 18.82 17.8396 17.9945 19.3762 17.5833C20.4067 17.2975 21.4848 17.2248 22.5444 17.3696C23.604 17.5145 24.6229 17.8738 25.539 18.4257C26.4198 18.9902 27.0894 19.8299 27.4437 20.8143C27.8132 21.7 28.1109 22.6146 28.5195 23.4837C28.9641 24.4288 29.5103 25.2866 30.4911 25.7745C31.2966 26.1324 32.1951 26.225 33.0568 26.0389C33.1236 26.0289 33.1901 26.0153 33.2574 26.0088C33.3107 26.0082 33.3641 26.0109 33.4171 26.0169" fill="#00A543"/>
<path d="M41.6871 20.043C41.3616 22.9949 37.7954 26.1896 34.4194 26.1962C34.5179 25.7422 34.6963 25.3093 34.9463 24.9178C35.3789 24.2713 35.6282 23.5197 35.6677 22.7429C35.796 21.7308 35.7929 20.706 35.97 19.6986C36.0208 19.3968 36.0952 19.0995 36.1926 18.8095C36.6225 17.5627 37.5433 16.9423 38.8102 16.7664C38.8689 16.7579 38.9288 16.7552 38.9868 16.7432C39.253 16.6846 39.5291 16.6888 39.7933 16.7556C40.0575 16.8224 40.3025 16.9498 40.5088 17.1278C41.0354 17.5272 41.412 18.0924 41.5777 18.7321C41.589 18.7594 41.5898 18.7899 41.58 18.8178C41.5701 18.8456 41.5503 18.8688 41.5243 18.8829C41.3659 18.999 41.2558 19.1694 41.2151 19.3615C41.1087 19.5557 40.9411 19.7094 40.7383 19.7986C40.5356 19.8878 40.3091 19.9076 40.094 19.8548C39.8347 19.7709 39.5971 19.6309 39.3981 19.4446C39.3139 19.3731 39.2385 19.29 39.1523 19.2223C39.0502 19.1404 38.9111 19.0619 38.8071 19.145C38.7325 19.2038 38.843 19.3255 38.8809 19.4156C38.9675 19.6192 39.0792 19.8111 39.2134 19.987C39.3915 20.2623 39.6638 20.4632 39.9794 20.5522C40.2949 20.6412 40.6321 20.6122 40.9278 20.4706C41.1975 20.3574 41.4538 20.2148 41.6921 20.0453" fill="#FEEE00"/>
<path d="M30.7674 30.6005C28.0486 30.6933 25.474 30.0361 22.9523 29.1083C21.6213 28.6181 20.3035 28.0901 18.9621 27.632C17.9551 27.2608 16.8739 27.1361 15.809 27.2684C14.744 27.4007 13.7261 27.7861 12.8406 28.3924C12.0856 28.8837 11.3554 29.4141 10.5706 29.8614C9.7961 30.3316 8.91013 30.5866 8.00414 30.6001C7.93607 30.6028 7.86789 30.5994 7.80041 30.5901C7.61679 30.5557 7.54025 30.4559 7.65661 30.2854C8.78077 28.6371 10.1156 27.2701 12.1649 26.8105C13.4223 26.5389 14.7147 26.4678 15.9943 26.5998C18.0045 26.7858 19.9212 27.39 21.8541 27.9177C23.3355 28.3611 24.8406 28.7213 26.3623 28.9966C28.1835 29.2803 29.9726 29.2513 31.6874 28.467C31.995 28.3224 32.2943 28.1608 32.5839 27.983C32.8974 27.7923 33.2491 27.6732 33.6139 27.6343C33.9787 27.5953 34.3476 27.6374 34.6942 27.7576C35.4655 28.0023 35.6518 28.7395 35.1148 29.3515C34.5659 29.945 33.8282 30.3299 33.0273 30.4405C32.2788 30.5547 31.5223 30.6087 30.7651 30.602" fill="#FEEE00"/>
<path d="M8.6304 23.339C9.34529 23.3061 10.0572 23.4508 10.7025 23.7604C10.8944 23.8432 11.0646 23.9694 11.1996 24.129C11.3346 24.2886 11.4308 24.4774 11.4806 24.6804C11.5092 24.7743 11.5051 24.875 11.4691 24.9663C11.4331 25.0575 11.3672 25.1339 11.2823 25.183C10.849 25.47 10.3573 25.6569 9.84271 25.73C9.18881 25.8582 8.5129 25.8153 7.88044 25.6055C7.2755 25.4073 6.77193 24.9806 6.47716 24.4164C6.43638 24.3577 6.41882 24.2859 6.42789 24.215C6.43696 24.1441 6.47201 24.0791 6.52626 24.0325C6.83368 23.7353 7.22233 23.5359 7.64308 23.4596C7.96619 23.3789 8.29815 23.3391 8.63118 23.3409" fill="#FEEE00"/>
<path d="M21.5298 18.3524C22.0041 18.3553 22.4779 18.3864 22.9485 18.4456C23.0792 18.4607 23.1066 18.4997 23.0606 18.6203C22.9976 18.7858 22.9922 18.998 22.8821 19.1151C22.7464 19.2593 22.5546 19.0912 22.3876 19.0653C21.3498 18.9466 20.2986 19.0395 19.2977 19.3386C18.8725 19.4453 18.8844 19.4461 18.8609 19.0073C18.8504 18.8113 18.9281 18.7417 19.0994 18.6907C19.8891 18.462 20.7076 18.3481 21.5298 18.3524Z" fill="#2B2A28"/>
<path d="M38.6903 17.5739C38.8651 17.5847 38.9849 17.6655 38.9872 17.8518C38.9902 17.8906 38.9845 17.9296 38.9707 17.9659C38.9569 18.0023 38.9353 18.0352 38.9074 18.0623C38.8795 18.0893 38.8459 18.1099 38.8092 18.1226C38.7724 18.1353 38.7333 18.1397 38.6946 18.1356C38.658 18.1388 38.6211 18.1343 38.5863 18.1224C38.5515 18.1105 38.5197 18.0914 38.4928 18.0663C38.4659 18.0413 38.4445 18.0109 38.4302 17.977C38.4158 17.9432 38.4087 17.9067 38.4093 17.87C38.4008 17.6844 38.5086 17.592 38.6903 17.5739Z" fill="#332F1A"/>
</svg>
