<svg width="48" height="48" viewBox="0 0 48 48" fill="none" xmlns="http://www.w3.org/2000/svg">
<path d="M41.9976 20.1773C41.9526 20.1846 41.9642 20.2254 41.9528 20.2525C41.8764 20.4592 41.7293 20.6322 41.5376 20.7407C41.3459 20.8492 41.1219 20.8863 40.9054 20.8454C40.712 20.8147 40.5337 20.7226 40.3968 20.5826C40.2599 20.4427 40.1717 20.2623 40.1453 20.0683C40.1091 19.8549 40.1492 19.6356 40.2586 19.4488C40.368 19.2621 40.5396 19.1198 40.7435 19.047C40.7706 19.0358 40.8118 19.0477 40.8186 19.0023H41.2899C41.4711 19.0198 41.6407 19.0996 41.7696 19.2282C41.8986 19.3567 41.979 19.526 41.997 19.7072L41.9976 20.1773Z" fill="#211B18"/>
<path d="M41.9972 19.7073C41.9464 19.5408 41.8553 19.3893 41.7321 19.2664C41.6088 19.1434 41.4572 19.0528 41.2905 19.0024C41.5 19.0024 41.7096 19.0061 41.919 19.0002C41.9875 18.9982 42.0018 19.0125 41.9998 19.0807C41.9939 19.2894 41.9976 19.4981 41.9976 19.7067" fill="#FCFCFC"/>
<path d="M10.3998 21.9332C10.4882 21.7802 10.6066 21.6466 10.7478 21.5404C10.889 21.4342 11.0502 21.3574 11.2216 21.3148C12.0965 21.1162 12.8447 21.7313 12.8464 22.6531C12.8501 24.5523 12.8472 26.4509 12.848 28.3505C12.8484 28.4872 12.8374 28.6236 12.8153 28.7584C12.7578 29.0573 12.5975 29.3267 12.3623 29.5198C12.127 29.7129 11.8316 29.8177 11.5272 29.8158C11.2228 29.814 10.9287 29.7057 10.6957 29.5098C10.4628 29.3138 10.3058 29.0426 10.2519 28.743C10.1889 28.3468 10.2453 27.9482 10.2146 27.5466C10.1967 27.5466 10.1736 27.5394 10.1613 27.5477C8.93989 28.3852 7.4266 27.9747 6.60846 26.729C6.18707 26.0744 5.97557 25.3066 6.00225 24.5285C6.02892 23.7504 6.2925 22.999 6.75773 22.3747C6.97519 22.0709 7.25715 21.8189 7.58342 21.6368C7.90969 21.4546 8.27219 21.3469 8.64497 21.3214C9.23033 21.285 9.80836 21.4671 10.2672 21.8325C10.3089 21.8636 10.3507 21.8952 10.3996 21.9319" fill="#201A17"/>
<path d="M26.678 24.6419C26.678 25.3075 26.678 25.9731 26.678 26.6386C26.6874 26.9172 26.6082 27.1916 26.4518 27.4223C26.2954 27.6531 26.0697 27.8282 25.8074 27.9225C25.5439 28.0159 25.2571 28.0211 24.9903 27.9375C24.7235 27.8538 24.4911 27.6858 24.3279 27.4587C24.2459 27.3523 24.2027 27.3949 24.1305 27.4502C23.6516 27.8326 23.0458 28.0198 22.4346 27.9741C21.8235 27.9285 21.2522 27.6534 20.8353 27.2041C20.0354 26.3649 19.7491 25.3481 19.8717 24.2073C19.9414 23.3619 20.3245 22.5731 20.9456 21.9954C21.3641 21.5892 21.9162 21.3494 22.4987 21.3209C23.0812 21.2924 23.6541 21.4772 24.1102 21.8406C24.2059 21.9136 24.2422 21.93 24.325 21.815C24.4834 21.5888 24.7113 21.4205 24.9741 21.3357C25.2368 21.2508 25.5201 21.2541 25.7809 21.3449C26.0434 21.4289 26.2722 21.5948 26.4336 21.8183C26.5949 22.0418 26.6805 22.3111 26.6776 22.5868C26.6791 23.2719 26.6776 23.9571 26.6776 24.6422" fill="#201A17"/>
<path d="M27.4218 24.6384C27.4218 23.9534 27.4202 23.2682 27.4218 22.5832C27.4189 22.3176 27.4979 22.0574 27.648 21.8382C27.7981 21.619 28.0121 21.4513 28.2608 21.3579C28.512 21.2599 28.7878 21.2442 29.0486 21.3128C29.3093 21.3815 29.5415 21.5312 29.7118 21.7402C29.8163 21.8654 29.8679 21.849 29.9832 21.768C31.0911 20.988 32.7897 21.2359 33.5323 22.2782C33.7532 22.5875 33.8699 22.9592 33.8654 23.3393C33.8675 24.4353 33.8675 25.5313 33.8654 26.6274C33.873 26.8091 33.8428 26.9904 33.7766 27.1598C33.7105 27.3291 33.6099 27.4829 33.4811 27.6113C33.3524 27.7397 33.1984 27.84 33.0289 27.9057C32.8593 27.9714 32.678 28.0012 32.4963 27.9931C31.2464 27.9988 29.9965 27.9991 28.7465 27.9941C28.57 27.9989 28.3943 27.9675 28.2305 27.9017C28.0666 27.8359 27.918 27.7372 27.7938 27.6116C27.6696 27.486 27.5726 27.3363 27.5086 27.1717C27.4447 27.0071 27.4152 26.8312 27.422 26.6547C27.4203 25.9828 27.422 25.3107 27.422 24.6388" fill="#201A17"/>
<path d="M13.4761 23.695C13.5061 23.2728 13.429 22.7885 13.5154 22.3097C13.5779 22.0072 13.746 21.7369 13.9897 21.5471C14.2333 21.3573 14.5366 21.2604 14.8452 21.2738C15.1505 21.2851 15.4419 21.4047 15.6671 21.6111C15.8924 21.8176 16.0369 22.0975 16.0747 22.4007C16.1353 23.0249 16.0855 23.6527 16.101 24.2777C16.1033 24.3761 16.061 24.3996 15.9721 24.3971C15.8087 24.3926 15.6449 24.3949 15.4815 24.3971C15.4454 24.3929 15.4089 24.3965 15.3744 24.4076C15.3398 24.4187 15.308 24.437 15.2811 24.4613C15.2542 24.4856 15.2327 24.5154 15.2182 24.5487C15.2037 24.5819 15.1965 24.6179 15.197 24.6542C15.1941 24.6919 15.1992 24.7298 15.2119 24.7654C15.2246 24.8011 15.2446 24.8336 15.2707 24.8611C15.2967 24.8885 15.3282 24.9101 15.3632 24.9246C15.3981 24.9391 15.4357 24.946 15.4736 24.9451C15.6431 24.9555 15.8138 24.9524 15.9837 24.9466C16.0788 24.9433 16.1089 24.9771 16.1054 25.0703C16.0994 25.2332 16.1054 25.3964 16.1047 25.5595C16.1017 25.5956 16.1061 25.6319 16.1176 25.6662C16.1291 25.7006 16.1475 25.7322 16.1716 25.7592C16.1957 25.7862 16.2251 25.8079 16.2579 25.8232C16.2907 25.8385 16.3263 25.8469 16.3625 25.8479C16.4002 25.8494 16.4378 25.8433 16.473 25.8299C16.5083 25.8166 16.5404 25.7962 16.5676 25.7701C16.5948 25.744 16.6165 25.7127 16.6313 25.678C16.6461 25.6433 16.6538 25.606 16.6538 25.5683C16.6631 25.4058 16.6616 25.2421 16.6546 25.0793C16.6503 24.9801 16.6769 24.9402 16.7837 24.9463C16.9337 24.9552 17.0848 24.952 17.2352 24.9476C17.4372 24.9416 17.5665 24.8245 17.5618 24.6599C17.5571 24.4985 17.4408 24.4017 17.2375 24.3967C17.087 24.3929 16.9362 24.3896 16.7861 24.3978C16.679 24.4038 16.6551 24.3615 16.6557 24.2627C16.6601 23.6626 16.6482 23.0622 16.6624 22.4623C16.6763 21.8667 17.2128 21.3389 17.841 21.2744C18.1424 21.2501 18.443 21.33 18.6926 21.5005C18.9423 21.6711 19.1259 21.9221 19.2128 22.2117C19.2377 22.2923 19.2517 22.3758 19.2546 22.4601C19.2568 23.4184 19.3023 24.3798 19.242 25.3342C19.1771 26.3643 18.7724 27.2698 17.7619 27.7052C16.6875 28.1682 15.5951 28.1531 14.5984 27.4625C13.9681 27.0257 13.6968 26.3543 13.5574 25.6262C13.439 25.0063 13.4889 24.3786 13.4767 23.6948" fill="#201A17"/>
<path d="M35.9133 25.3655C35.9133 24.9284 35.9076 24.4914 35.9165 24.0545C35.9194 23.9183 35.8832 23.8829 35.7452 23.8824C35.0416 23.8797 34.5253 23.51 34.3756 22.9168C34.3247 22.7238 34.3186 22.5217 34.3578 22.326C34.397 22.1304 34.4804 21.9462 34.6018 21.7878C34.7231 21.6293 34.8791 21.5008 35.0579 21.4119C35.2366 21.3231 35.4333 21.2763 35.6328 21.2752C35.9131 21.2639 35.9195 21.2638 35.9118 20.9846C35.8965 20.4275 36.0535 19.9545 36.5598 19.6547C37.4262 19.1412 38.4818 19.7309 38.5352 20.7565C38.5437 20.9191 38.4804 21.1222 38.5569 21.2346C38.6378 21.3537 38.8588 21.2684 39.0186 21.2991C39.6199 21.4147 40.0837 21.8955 40.1125 22.4589C40.1429 22.7666 40.062 23.0749 39.8843 23.3279C39.7066 23.5808 39.444 23.7616 39.1442 23.8373C39.0058 23.8768 38.8615 23.8923 38.7178 23.8829C38.5743 23.8721 38.5317 23.9107 38.5332 24.0614C38.5417 24.9157 38.5398 25.7703 38.5364 26.6247C38.5474 26.9104 38.4655 27.1919 38.303 27.4271C38.1406 27.6623 37.9064 27.8385 37.6354 27.9295C36.7709 28.2063 35.9315 27.5885 35.9143 26.657C35.9062 26.2266 35.9129 25.796 35.9129 25.3655" fill="#201A17"/>
<path d="M41.0652 20.7232C40.8544 20.7201 40.6532 20.6347 40.5046 20.4851C40.3561 20.3356 40.2719 20.1338 40.2702 19.923C40.2743 19.712 40.3604 19.5109 40.5102 19.3623C40.6601 19.2137 40.862 19.1293 41.073 19.127C41.2836 19.1335 41.4836 19.2204 41.6321 19.3697C41.7806 19.5191 41.8663 19.7197 41.8715 19.9303C41.8662 20.1413 41.7791 20.342 41.6285 20.49C41.4779 20.6379 41.2758 20.7216 41.0647 20.7232" fill="#FEFEFE"/>
<path d="M9.07093 24.3963C9.35806 24.3963 9.64519 24.3934 9.93233 24.3971C10.1528 24.4 10.2601 24.4956 10.2566 24.6735C10.2534 24.8405 10.1299 24.9469 9.92273 24.948C9.35496 24.9508 8.78727 24.9508 8.21969 24.948C8.01407 24.9466 7.89583 24.8353 7.89777 24.6638C7.89972 24.4923 8.00072 24.4009 8.21023 24.3977C8.49611 24.3931 8.7838 24.3963 9.07093 24.3963Z" fill="#FEFEFD"/>
<path d="M9.35085 23.8326C9.35017 23.905 9.32204 23.9744 9.27215 24.0268C9.22225 24.0792 9.15432 24.1108 9.08208 24.115C9.04632 24.1161 9.0107 24.11 8.9773 24.0972C8.94389 24.0844 8.91336 24.0651 8.88748 24.0404C8.8616 24.0157 8.84088 23.9861 8.82653 23.9533C8.81217 23.9205 8.80446 23.8852 8.80385 23.8495C8.80136 23.8137 8.80628 23.7778 8.81832 23.7441C8.83035 23.7103 8.84923 23.6794 8.87377 23.6533C8.89832 23.6271 8.92799 23.6064 8.96094 23.5922C8.99389 23.5781 9.02941 23.571 9.06525 23.5712C9.13765 23.5689 9.20809 23.595 9.2615 23.6439C9.31491 23.6928 9.34703 23.7607 9.35099 23.8331" fill="#FCFCFC"/>
<path d="M9.06384 25.7742C8.99179 25.7696 8.92435 25.7371 8.87578 25.6837C8.82721 25.6303 8.80131 25.5601 8.80356 25.4879C8.80352 25.4521 8.8109 25.4167 8.82521 25.3839C8.83953 25.3511 8.86048 25.3216 8.88674 25.2973C8.913 25.273 8.94401 25.2544 8.97782 25.2426C9.01162 25.2309 9.04749 25.2262 9.08318 25.229C9.15522 25.2316 9.22343 25.2621 9.27325 25.3143C9.32306 25.3664 9.35056 25.4359 9.34986 25.508C9.34343 25.5799 9.31057 25.6469 9.25762 25.6961C9.20467 25.7452 9.13538 25.773 9.06314 25.7741" fill="#FCFCFC"/>
<path d="M22.8365 24.3961C23.1238 24.3961 23.4109 24.3935 23.6982 24.397C23.9046 24.3995 24.032 24.5099 24.0287 24.6726C24.0254 24.8352 23.8961 24.9469 23.6897 24.9479C23.1283 24.9507 22.5669 24.9507 22.0054 24.9479C21.7891 24.947 21.6514 24.8317 21.6535 24.6645C21.6555 24.5052 21.7863 24.3988 21.9941 24.3966C22.2749 24.3936 22.5556 24.3959 22.8362 24.3959" fill="#FDFDFD"/>
<path d="M30.3718 24.6655C30.1452 24.4404 29.9258 24.2256 29.71 24.0071C29.557 23.8518 29.5468 23.7083 29.674 23.582C29.7954 23.4615 29.9505 23.4734 30.1037 23.6222C30.282 23.7949 30.4654 23.9638 30.629 24.1498C30.7382 24.2741 30.8029 24.2482 30.9003 24.1423C31.064 23.9647 31.2397 23.798 31.4128 23.6293C31.5723 23.4734 31.7338 23.4605 31.8563 23.5886C31.9787 23.7168 31.9655 23.8545 31.8086 24.0135C31.6249 24.1995 31.4448 24.3891 31.2506 24.5642C31.1544 24.6508 31.1742 24.6945 31.2556 24.7706C31.4417 24.9446 31.6196 25.1272 31.799 25.3084C31.9639 25.4753 31.982 25.6226 31.8572 25.751C31.7348 25.8771 31.5733 25.8607 31.4121 25.7028C31.235 25.5287 31.0504 25.3608 30.8872 25.1741C30.7822 25.0542 30.724 25.0801 30.6308 25.1814C30.4628 25.3639 30.2822 25.535 30.105 25.7087C29.9543 25.8566 29.7946 25.8733 29.6737 25.7579C29.5435 25.6335 29.5568 25.4784 29.7178 25.3155C29.9329 25.0979 30.1513 24.8834 30.3716 24.6647" fill="#FEFEFE"/>
<path d="M37.4443 23.8338C37.4443 24.1259 37.4466 24.4193 37.4437 24.712C37.4477 24.7507 37.4437 24.7899 37.4318 24.827C37.4199 24.8641 37.4005 24.8984 37.3747 24.9276C37.3488 24.9568 37.3173 24.9803 37.2819 24.9967C37.2465 25.013 37.2081 25.0219 37.1692 25.0226C37.1315 25.0211 37.0945 25.012 37.0603 24.9961C37.0261 24.9802 36.9954 24.9577 36.97 24.9298C36.9445 24.902 36.9248 24.8694 36.912 24.8339C36.8992 24.7984 36.8936 24.7608 36.8954 24.7231C36.891 24.1311 36.891 23.5391 36.8954 22.947C36.8944 22.9093 36.9009 22.8717 36.9146 22.8364C36.9283 22.8012 36.9489 22.7691 36.9751 22.7419C37.0013 22.7147 37.0327 22.693 37.0674 22.6781C37.1021 22.6631 37.1395 22.6552 37.1773 22.6549C37.2145 22.6567 37.2511 22.666 37.2847 22.6822C37.3183 22.6983 37.3484 22.721 37.3732 22.749C37.3979 22.7769 37.4168 22.8095 37.4288 22.8449C37.4408 22.8802 37.4456 22.9176 37.443 22.9548C37.4464 23.247 37.4438 23.5404 37.4439 23.8331" fill="#FEFEFE"/>
<path d="M37.4409 25.5315C37.4418 25.6036 37.4147 25.6732 37.3652 25.7257C37.3158 25.7782 37.2479 25.8095 37.1759 25.8129C37.1036 25.8105 37.0349 25.7813 36.9829 25.7311C36.9308 25.6809 36.8993 25.6132 36.8943 25.5411C36.8954 25.469 36.9246 25.4001 36.9756 25.3491C37.0266 25.2982 37.0956 25.2691 37.1677 25.2681C37.2034 25.2656 37.2392 25.2706 37.2729 25.2828C37.3065 25.295 37.3373 25.3142 37.3631 25.339C37.3889 25.3638 37.4092 25.3938 37.4227 25.4269C37.4362 25.4601 37.4426 25.4957 37.4415 25.5315" fill="#FCFCFC"/>
<path d="M41.1693 19.9971C41.2949 20.1211 41.4003 20.264 41.4818 20.4207C41.3232 20.4528 41.3241 20.4521 41.2535 20.3397C41.1978 20.2518 41.1434 20.1633 41.0817 20.0798C41.0556 20.0498 41.0212 20.0282 40.9828 20.0178C40.9444 20.0074 40.9038 20.0088 40.8662 20.0217C40.7706 20.0424 40.8383 20.131 40.8175 20.1843C40.783 20.2696 40.8997 20.4347 40.7468 20.4375C40.5753 20.4407 40.6725 20.2693 40.6658 20.1804C40.6503 19.9733 40.6645 19.7639 40.6592 19.5555C40.6569 19.468 40.6731 19.4221 40.7748 19.4313C40.8786 19.4407 40.9843 19.429 41.0879 19.4396C41.2397 19.4552 41.3958 19.4784 41.423 19.6721C41.4492 19.8575 41.3332 19.942 41.1692 19.9969" fill="#211B18"/>
<path d="M40.8208 19.7059C40.7861 19.5652 40.8659 19.5442 40.9815 19.5562C41.1023 19.5687 41.2635 19.5517 41.2634 19.7183C41.2634 19.9176 41.0764 19.8673 40.9524 19.8891C40.7908 19.9169 40.8133 19.8049 40.8208 19.7059Z" fill="#F7F6F6"/>
</svg>
