<svg width="48" height="48" viewBox="0 0 48 48" fill="none" xmlns="http://www.w3.org/2000/svg">
<path fill-rule="evenodd" clip-rule="evenodd" d="M24.1708 8C25.8448 8.00014 27.4541 8.64668 28.6628 9.80474C29.8716 10.9628 30.5866 12.5429 30.6584 14.2153C30.7303 15.8878 30.1536 17.5234 29.0486 18.7809C27.9436 20.0384 26.3957 20.8206 24.7279 20.9644V15.9666C25.0729 15.8362 25.3612 15.589 25.5426 15.2679C25.7241 14.9468 25.7871 14.5723 25.7209 14.2095C25.6546 13.8467 25.4632 13.5186 25.1799 13.2824C24.8967 13.0463 24.5396 12.9169 24.1708 12.9169C23.802 12.9169 23.4449 13.0463 23.1616 13.2824C22.8784 13.5186 22.687 13.8467 22.6207 14.2095C22.5544 14.5723 22.6175 14.9468 22.7989 15.2679C22.9803 15.589 23.2686 15.8362 23.6136 15.9666V20.9644C21.9458 20.8206 20.3979 20.0384 19.2929 18.7809C18.188 17.5234 17.6112 15.8878 17.6831 14.2153C17.755 12.5429 18.4699 10.9628 19.6787 9.80474C20.8875 8.64668 22.4968 8.00014 24.1708 8Z" fill="#0085D3"/>
<path fill-rule="evenodd" clip-rule="evenodd" d="M16.5027 20.173C18.1788 20.1707 19.791 20.8164 21.0021 21.9751C22.2132 23.1339 22.9294 24.7159 23.0011 26.3906C23.0728 28.0652 22.4944 29.7027 21.3868 30.9607C20.2791 32.2187 18.7281 32.9998 17.0579 33.1408V28.1423C17.4042 28.0124 17.6939 27.7651 17.8764 27.4435C18.059 27.1219 18.1229 26.7464 18.0569 26.3825C17.9909 26.0186 17.7992 25.6894 17.5153 25.4523C17.2315 25.2153 16.8734 25.0855 16.5035 25.0855C16.1337 25.0855 15.7756 25.2153 15.4917 25.4523C15.2078 25.6894 15.0162 26.0186 14.9502 26.3825C14.8842 26.7464 14.9481 27.1219 15.1306 27.4435C15.3132 27.7651 15.6029 28.0124 15.9492 28.1423V33.1408C14.2791 32.9998 12.7282 32.2188 11.6206 30.961C10.513 29.7032 9.93445 28.0659 10.0059 26.3914C10.0774 24.7169 10.7933 23.1349 12.0041 21.976C13.2148 20.8171 14.8267 20.1711 16.5027 20.173Z" fill="#0085D3"/>
<path fill-rule="evenodd" clip-rule="evenodd" d="M37.9991 26.6699C37.999 28.2954 37.3894 29.8618 36.2906 31.0597C35.1918 32.2576 33.6837 32.9999 32.0642 33.1401V28.1416C32.4092 28.0112 32.6975 27.7639 32.879 27.4428C33.0604 27.1218 33.1235 26.7472 33.0572 26.3844C32.9909 26.0216 32.7995 25.6936 32.5162 25.4574C32.233 25.2212 31.8759 25.0919 31.5071 25.0919C31.1383 25.0919 30.7812 25.2212 30.4979 25.4574C30.2147 25.6936 30.0233 26.0216 29.957 26.3844C29.8907 26.7472 29.9538 27.1218 30.1352 27.4428C30.3167 27.7639 30.605 28.0112 30.9499 28.1416V33.1401C29.6934 33.0324 28.4954 32.5612 27.5022 31.7841C26.5089 31.007 25.7634 29.9576 25.3565 28.7639C24.9497 27.5702 24.8991 26.2839 25.211 25.0619C25.5229 23.84 26.1838 22.7353 27.113 21.8826C28.0422 21.0299 29.1995 20.4662 30.4437 20.2602C31.6879 20.0542 32.9651 20.2149 34.1196 20.7226C35.274 21.2303 36.2556 22.0631 36.9447 23.1193C37.6338 24.1755 38.0005 25.4095 38 26.6706" fill="#0085D3"/>
<path fill-rule="evenodd" clip-rule="evenodd" d="M19.3983 39.7276H28.6368C25.7101 36.925 24.3791 33.323 23.9515 29.2707C23.5579 33.145 21.9663 36.8002 19.3983 39.7276Z" fill="#0085D3"/>
</svg>
