<svg fill="none" xmlns="http://www.w3.org/2000/svg" viewBox="15.17 14.46 53.55 51.22">
                <g filter="url(#filter0_dd_1_60547)">
                  <path d="M41.0768 16.9574C41.4626 16.2951 42.4193 16.2951 42.8051 16.9574L49.5549 28.5461C50.2614 29.7591 51.4453 30.6192 52.8172 30.9163L65.9246 33.7547C66.6737 33.9169 66.9693 34.8268 66.4587 35.3983L57.5229 45.3989C56.5876 46.4457 56.1354 47.8374 56.2768 49.234L57.6278 62.577C57.705 63.3395 56.931 63.9019 56.2296 63.5928L43.9572 58.1848C42.6726 57.6187 41.2093 57.6187 39.9247 58.1848L27.6523 63.5928C26.9509 63.9019 26.1769 63.3395 26.2541 62.577L27.6051 49.2341C27.7465 47.8374 27.2943 46.4457 26.359 45.3989L17.4232 35.3983C16.9126 34.8268 17.2082 33.9169 17.9573 33.7547L31.0646 30.9163C32.4366 30.6192 33.6205 29.7591 34.327 28.5461L41.0768 16.9574Z" fill="url(#paint0_linear_1_60547)" stroke="url(#paint1_linear_1_60547)" stroke-width="4"></path>
                  <g filter="url(#filter1_d_1_60547)">
                    <path d="M41.08 35.4571C41.467 34.802 42.4148 34.802 42.8019 35.4571L44.4371 38.2246C44.5793 38.4653 44.8159 38.6355 45.0893 38.6939L48.2422 39.3669C48.9961 39.5278 49.2921 40.4453 48.7744 41.0164L46.6403 43.3708C46.4498 43.581 46.3575 43.8623 46.3865 44.1445L46.7105 47.2996C46.7887 48.0603 46.0188 48.6236 45.3173 48.319L42.3393 47.0254C42.0852 46.915 41.7966 46.915 41.5425 47.0254L38.5645 48.319C37.8631 48.6236 37.0932 48.0603 37.1713 47.2996L37.4954 44.1445C37.5244 43.8623 37.4321 43.581 37.2415 43.3708L35.1075 41.0164C34.5897 40.4453 34.8857 39.5278 35.6396 39.3669L38.7925 38.6939C39.066 38.6355 39.3025 38.4653 39.4447 38.2246L41.08 35.4571Z" fill="white"></path>
                    <path d="M41.1666 39.242L41.9409 37.9316L42.7152 39.242C43.1419 39.9642 43.8515 40.4747 44.6718 40.6498L46.126 40.9602L45.1585 42.0276C44.5868 42.6583 44.31 43.5021 44.3969 44.3489L44.5463 45.8035L43.1362 45.1909C42.3737 44.8598 41.5081 44.8598 40.7457 45.1909L39.3355 45.8035L39.4849 44.3489C39.5719 43.5021 39.295 42.6583 38.7233 42.0276L37.7559 40.9602L39.2101 40.6498C40.0304 40.4747 40.7399 39.9642 41.1666 39.242L39.4447 38.2246L41.1666 39.242Z" stroke="white" stroke-width="4" stroke-linecap="round"></path>
                  </g>
                </g>
                <defs>
                  <filter id="filter0_dd_1_60547" x="-3.5" y="-4.5" width="90" height="88" filterUnits="userSpaceOnUse" color-interpolation-filters="sRGB">
                    <feFlood flood-opacity="0" result="BackgroundImageFix"></feFlood>
                    <feColorMatrix in="SourceAlpha" type="matrix" values="0 0 0 0 0 0 0 0 0 0 0 0 0 0 0 0 0 0 127 0" result="hardAlpha"></feColorMatrix>
                    <feOffset dx="3" dy="2"></feOffset>
                    <feGaussianBlur stdDeviation="6"></feGaussianBlur>
                    <feComposite in2="hardAlpha" operator="out"></feComposite>
                    <feColorMatrix type="matrix" values="0 0 0 0 0 0 0 0 0 0 0 0 0 0 0 0 0 0 0.28 0"></feColorMatrix>
                    <feBlend mode="normal" in2="BackgroundImageFix" result="effect1_dropShadow_1_60547"></feBlend>
                    <feColorMatrix in="SourceAlpha" type="matrix" values="0 0 0 0 0 0 0 0 0 0 0 0 0 0 0 0 0 0 127 0" result="hardAlpha"></feColorMatrix>
                    <feOffset dx="-3" dy="-2"></feOffset>
                    <feGaussianBlur stdDeviation="6"></feGaussianBlur>
                    <feComposite in2="hardAlpha" operator="out"></feComposite>
                    <feColorMatrix type="matrix" values="0 0 0 0 1 0 0 0 0 1 0 0 0 0 1 0 0 0 0.25 0"></feColorMatrix>
                    <feBlend mode="normal" in2="effect1_dropShadow_1_60547" result="effect2_dropShadow_1_60547"></feBlend>
                    <feBlend mode="normal" in="SourceGraphic" in2="effect2_dropShadow_1_60547" result="shape"></feBlend>
                  </filter>
                  <filter id="filter1_d_1_60547" x="34.8475" y="34.9658" width="16.0618" height="16.2499" filterUnits="userSpaceOnUse" color-interpolation-filters="sRGB">
                    <feFlood flood-opacity="0" result="BackgroundImageFix"></feFlood>
                    <feColorMatrix in="SourceAlpha" type="matrix" values="0 0 0 0 0 0 0 0 0 0 0 0 0 0 0 0 0 0 127 0" result="hardAlpha"></feColorMatrix>
                    <feOffset dx="0.9375" dy="1.875"></feOffset>
                    <feGaussianBlur stdDeviation="0.46875"></feGaussianBlur>
                    <feComposite in2="hardAlpha" operator="out"></feComposite>
                    <feColorMatrix type="matrix" values="0 0 0 0 0 0 0 0 0 0 0 0 0 0 0 0 0 0 0.16 0"></feColorMatrix>
                    <feBlend mode="normal" in2="BackgroundImageFix" result="effect1_dropShadow_1_60547"></feBlend>
                    <feBlend mode="normal" in="SourceGraphic" in2="effect1_dropShadow_1_60547" result="shape"></feBlend>
                  </filter>
                  <linearGradient id="paint0_linear_1_60547" x1="12.5" y1="11.3411" x2="54.7988" y2="78.1574" gradientUnits="userSpaceOnUse">
                    <stop stop-color="#CD9A00"></stop>
                    <stop offset="1" stop-color="#FFEF65"></stop>
                  </linearGradient>
                  <linearGradient id="paint1_linear_1_60547" x1="12.5" y1="11.3411" x2="54.7988" y2="78.1574" gradientUnits="userSpaceOnUse">
                    <stop stop-color="#FFEF65"></stop>
                    <stop offset="1" stop-color="#CD9A00"></stop>
                  </linearGradient>
                </defs>
              </svg>