<svg width="48" height="48" viewBox="0 0 48 48" fill="none" xmlns="http://www.w3.org/2000/svg">
<mask id="mask0_70_19499" style="mask-type:luminance" maskUnits="userSpaceOnUse" x="4" y="20" width="40" height="11">
<path d="M43.8993 20.042H4V30.5938H43.8993V20.042Z" fill="white"/>
</mask>
<g mask="url(#mask0_70_19499)">
<path fill-rule="evenodd" clip-rule="evenodd" d="M4 20.042H8.00438V21.2581H6.86277V24.1807H5.18686L5.20146 21.2581H4V20.042Z" fill="#1866AC"/>
<path fill-rule="evenodd" clip-rule="evenodd" d="M7.59961 24.1807L9.18793 20.042H10.9003L12.5266 24.1807H10.9252L10.0624 21.7208L9.22443 24.1807H7.59961Z" fill="#1866AC"/>
<path fill-rule="evenodd" clip-rule="evenodd" d="M12.1533 20.042H16.1577V21.2581H15.0146V24.1807H13.3387L13.3548 21.2581H12.1533V20.042Z" fill="#1866AC"/>
<path fill-rule="evenodd" clip-rule="evenodd" d="M15.7529 24.1807L17.3413 20.042H19.0537L20.6785 24.1807H19.0785L18.2157 21.7208L17.3777 24.1807H15.7529Z" fill="#1866AC"/>
<path fill-rule="evenodd" clip-rule="evenodd" d="M9.80001 30.3892C9.82045 30.3761 9.84088 30.3615 9.86132 30.3469L9.91534 30.3104L9.73139 29.7819L9.65256 29.8301C9.56351 29.8783 9.47154 29.9104 9.36789 29.9075C9.29198 29.9046 9.24964 29.8739 9.22628 29.8024C9.20147 29.725 9.20585 29.6447 9.20877 29.5644C9.22774 29.1104 9.24672 28.6564 9.26424 28.2024C9.273 27.9863 9.25986 27.7732 9.19417 27.5644C9.14161 27.3965 9.0584 27.2462 8.92701 27.1265C8.75329 26.9659 8.54015 26.8987 8.31096 26.8783C8.16935 26.8651 8.02774 26.871 7.8876 26.8987C7.68906 26.9381 7.51826 27.0272 7.37665 27.1703C7.21315 27.3367 7.11242 27.5396 7.03504 27.7571C7.00585 27.8389 6.98395 27.9221 6.95767 28.0053C6.95475 28.0141 6.92701 28.125 6.91972 28.1323C6.91388 28.1235 6.91972 28.0097 6.91826 28.0009C6.91534 27.9688 6.91534 27.9352 6.91388 27.9016C6.90658 27.7221 6.88322 27.5454 6.81899 27.3761C6.71388 27.0987 6.51096 26.9411 6.22191 26.8914C6.05548 26.8637 5.8876 26.8637 5.72118 26.9002C5.55329 26.9352 5.40147 27.0068 5.27008 27.1177C5.0876 27.2695 4.96351 27.4637 4.87738 27.6812C4.83943 27.7776 4.81023 27.8783 4.77957 27.979L4.70804 28.2111L4.72556 27.8681C4.72994 27.7776 4.73286 27.687 4.73724 27.5951C4.746 27.3878 4.75475 27.1819 4.76497 26.9746C4.76497 26.9615 4.76497 26.9498 4.76497 26.9338C4.75183 26.9338 4.74308 26.9338 4.73432 26.9338C4.50366 26.944 4.27446 26.9557 4.04381 26.9659C4.03797 26.9659 4.03359 26.9659 4.03067 26.9659H4.00293V27.0082C4.00293 28.1644 4.00293 29.3177 4.00293 30.4724V30.5119H4.77081C4.80293 30.5119 4.81947 30.4963 4.82045 30.4651C4.82775 30.0053 4.85548 29.5469 4.92264 29.0914C4.96351 28.8184 5.01753 28.5498 5.10804 28.2885C5.16935 28.1119 5.24527 27.9411 5.36643 27.7965C5.47154 27.671 5.60001 27.5863 5.77081 27.5776C5.98541 27.5673 6.13139 27.6651 6.20147 27.8666C6.2438 27.9878 6.2584 28.1119 6.2584 28.2389C6.2584 28.4535 6.25256 28.6666 6.24672 28.8812C6.2365 29.2783 6.22482 29.6739 6.21315 30.071L6.20001 30.5148H6.30366C6.47592 30.5133 6.64818 30.5133 6.82045 30.5148H7.00293V30.4943C7.00293 30.487 7.00293 30.4783 7.00293 30.4651C7.00293 30.4491 7.00293 30.4345 7.00293 30.4184L7.01315 30.0943C7.03066 29.6827 7.06716 29.2724 7.13869 28.8666C7.17665 28.6506 7.22628 28.4374 7.3022 28.2301C7.35913 28.0724 7.43066 27.9206 7.54015 27.7907C7.6438 27.6681 7.77081 27.5878 7.93723 27.5805C8.16935 27.5703 8.31826 27.6754 8.38103 27.8987C8.42045 28.0403 8.42628 28.1863 8.42045 28.3323C8.41169 28.5746 8.40001 28.817 8.38979 29.0593C8.37957 29.2768 8.37081 29.4958 8.36059 29.7133C8.35329 29.8549 8.35475 29.9965 8.38979 30.1352C8.45256 30.379 8.6292 30.5381 8.87592 30.5732C9.03796 30.5965 9.20001 30.5892 9.36059 30.5615C9.51972 30.5338 9.66716 30.4812 9.80147 30.3951L9.80001 30.3892Z" fill="#6CB043"/>
<path fill-rule="evenodd" clip-rule="evenodd" d="M14.1269 30.3399L14.1473 30.3239L14.067 30.0976C14.0495 30.048 14.0335 29.9983 14.0159 29.9487C13.9999 29.902 13.9824 29.8538 13.9634 29.8027C13.9473 29.8115 13.9371 29.8173 13.9269 29.8231C13.8305 29.8772 13.7298 29.9209 13.6159 29.9166C13.5459 29.9136 13.4991 29.883 13.4845 29.8144C13.4699 29.7501 13.4626 29.6845 13.4626 29.6188C13.4626 28.7458 13.4626 27.8742 13.4626 27.0012C13.4626 26.9954 13.4626 26.991 13.4626 26.9852V26.9764C13.4626 26.9764 13.4626 26.9706 13.4626 26.9691C13.4626 26.9633 13.4626 26.9589 13.4626 26.956V26.937L12.6393 26.972V27.2538C12.6393 27.2976 12.6364 27.3399 12.6349 27.3823C12.6218 27.7195 12.594 28.0538 12.5444 28.3881C12.5035 28.6611 12.4495 28.9326 12.359 29.1939C12.2977 29.372 12.2218 29.5428 12.1006 29.6888C11.9736 29.8407 11.8174 29.9224 11.613 29.8961C11.4597 29.8772 11.3517 29.8012 11.2918 29.6582C11.2393 29.5312 11.2218 29.3969 11.2232 29.2626C11.2291 28.8596 11.2393 28.4567 11.2481 28.0553C11.2568 27.7282 11.2656 27.4012 11.2758 27.0728L11.2802 26.9355L11.121 26.9443C11.0086 26.9487 10.8962 26.9545 10.7838 26.9589L10.4349 26.972L10.4276 27.2626C10.4276 27.2845 10.4276 27.3063 10.4262 27.3282C10.4159 27.7049 10.4057 28.0801 10.397 28.4567C10.3897 28.775 10.3809 29.0932 10.378 29.4115C10.3765 29.6129 10.4086 29.8085 10.4831 29.9969C10.6057 30.3063 10.8291 30.5005 11.159 30.5647C11.3838 30.6085 11.6072 30.5983 11.8276 30.5385C12.0116 30.4888 12.1707 30.3954 12.305 30.2596C12.4466 30.1166 12.5473 29.9487 12.6189 29.7618C12.6729 29.6202 12.7108 29.4742 12.7561 29.3297C12.7619 29.3107 12.7867 29.2363 12.7926 29.245C12.797 29.2509 12.7999 29.3268 12.7999 29.3385C12.7999 29.5341 12.7999 29.7297 12.7999 29.9239C12.7999 30.0407 12.8174 30.1531 12.8597 30.2626C12.9269 30.4363 13.0524 30.5399 13.2364 30.5735C13.3488 30.5939 13.4612 30.5896 13.5736 30.5735C13.7605 30.5501 13.9269 30.4801 14.0772 30.3706C14.0918 30.3604 14.1064 30.3487 14.121 30.337C14.121 30.337 14.1225 30.3355 14.124 30.3341L14.1269 30.3399Z" fill="#61AD44"/>
<path fill-rule="evenodd" clip-rule="evenodd" d="M21.1533 30.3399L21.1737 30.3239L21.0934 30.0976C21.0759 30.048 21.0598 29.9983 21.0423 29.9487C21.0262 29.902 21.0087 29.8538 20.9897 29.8027C20.9737 29.8115 20.9635 29.8173 20.9532 29.8231C20.8569 29.8772 20.7562 29.9209 20.6423 29.9166C20.5722 29.9136 20.5255 29.883 20.5109 29.8144C20.4963 29.7501 20.489 29.6845 20.489 29.6188C20.489 28.7458 20.489 27.8742 20.489 27.0012C20.489 26.9954 20.489 26.991 20.489 26.9852V26.9764C20.489 26.9764 20.489 26.9706 20.489 26.9691C20.489 26.9633 20.489 26.9589 20.489 26.956V26.937L19.6657 26.972V27.2538C19.6657 27.2976 19.6627 27.3399 19.6613 27.3823C19.6481 27.7195 19.6204 28.0538 19.5708 28.3881C19.5299 28.6611 19.4759 28.9326 19.3854 29.1939C19.3241 29.372 19.2481 29.5428 19.127 29.6888C19 29.8407 18.8438 29.9224 18.6394 29.8961C18.4861 29.8772 18.3781 29.8012 18.3182 29.6582C18.2657 29.5312 18.2481 29.3969 18.2496 29.2626C18.2554 28.8596 18.2657 28.4567 18.2744 28.0553C18.2832 27.7282 18.2919 27.4012 18.3022 27.0728L18.3065 26.9355L18.1474 26.9443C18.035 26.9487 17.9226 26.9545 17.8102 26.9589L17.4613 26.972L17.454 27.2626C17.454 27.2845 17.454 27.3063 17.4525 27.3282C17.4423 27.7049 17.4321 28.0801 17.4233 28.4567C17.416 28.775 17.4073 29.0932 17.4043 29.4115C17.4029 29.6129 17.435 29.8085 17.5095 29.9969C17.6321 30.3063 17.8554 30.5005 18.1854 30.5647C18.4102 30.6085 18.6335 30.5983 18.854 30.5385C19.0379 30.4888 19.197 30.3954 19.3314 30.2596C19.473 30.1166 19.5737 29.9487 19.6452 29.7618C19.6992 29.6202 19.7372 29.4742 19.7824 29.3297C19.7883 29.3107 19.8131 29.2363 19.8189 29.245C19.8233 29.2509 19.8262 29.3268 19.8262 29.3385C19.8262 29.5341 19.8262 29.7297 19.8262 29.9239C19.8262 30.0407 19.8438 30.1531 19.8861 30.2626C19.9533 30.4363 20.0788 30.5399 20.2627 30.5735C20.3751 30.5939 20.4876 30.5896 20.6 30.5735C20.7868 30.5501 20.9533 30.4801 21.1036 30.3706C21.1182 30.3604 21.1328 30.3487 21.1474 30.337C21.1474 30.337 21.1489 30.3355 21.1503 30.3341L21.1533 30.3399Z" fill="#29A148"/>
<path fill-rule="evenodd" clip-rule="evenodd" d="M16.8653 30.3309C16.8653 30.3309 16.8785 30.3222 16.8843 30.3178L16.9661 30.2623L16.9588 30.2404C16.9588 30.2404 16.9588 30.236 16.9573 30.2346C16.9544 30.2273 16.9515 30.22 16.9485 30.2127L16.9296 30.1587C16.9135 30.1134 16.8989 30.0696 16.8843 30.0244C16.8493 29.9236 16.8142 29.8229 16.7763 29.7163C16.7515 29.7295 16.731 29.7397 16.7106 29.7499C16.5033 29.8565 16.2858 29.9193 16.0507 29.9017C15.8901 29.8886 15.788 29.8127 15.7369 29.6609C15.6989 29.5455 15.6945 29.4258 15.6945 29.3076C15.6945 28.8317 15.6945 28.3558 15.6945 27.8798V27.6112H15.9179C16.1836 27.6112 16.4493 27.6112 16.715 27.6112C16.7193 27.6112 16.7237 27.6112 16.7266 27.6112H16.7544V27.5849C16.7544 27.5849 16.7558 27.5776 16.7558 27.5718C16.7602 27.4156 16.7646 27.2579 16.7704 27.1017V27.0974C16.7704 27.0682 16.7719 27.039 16.7734 27.0098C16.7734 27.001 16.7734 26.9952 16.7734 26.9893V26.9601H16.7544C16.7471 26.9601 16.7383 26.9601 16.7252 26.9601C16.4099 26.9601 16.0931 26.9601 15.7777 26.9601H15.6931V26.9426C15.6931 26.9426 15.6931 26.9266 15.6931 26.912V26.8258C15.6931 26.6258 15.6931 26.4273 15.6931 26.2273V26.1528L15.5617 26.1616C15.4668 26.166 15.3704 26.1703 15.2756 26.1747C15.2055 26.1776 15.1339 26.182 15.0639 26.1864L14.988 26.1893L14.9836 26.2711C14.9807 26.3032 14.9763 26.3368 14.9734 26.3689C14.9675 26.4346 14.9602 26.4988 14.9544 26.5645L14.9193 26.9601H14.6522C14.6274 26.9587 14.6026 26.9587 14.5777 26.9587H14.569C14.5091 26.9587 14.4493 26.9587 14.3894 26.9587C14.385 26.9587 14.3821 26.9587 14.3792 26.9587H14.3515L14.331 27.42C14.3281 27.4725 14.3252 27.5266 14.3223 27.5791C14.3223 27.5849 14.3223 27.5879 14.3223 27.5937V27.6112H14.6872C14.731 27.6112 14.7748 27.6112 14.8186 27.6112C14.8259 27.6112 14.8332 27.6112 14.8376 27.6112H14.861V27.6404C14.861 27.6404 14.861 27.6433 14.861 27.6448V27.655C14.861 27.8068 14.861 27.9601 14.861 28.112C14.861 28.5674 14.861 29.0244 14.8639 29.4798C14.8653 29.6696 14.8901 29.8579 14.9558 30.0375C15.0128 30.1952 15.1018 30.328 15.2434 30.4229C15.3953 30.5266 15.5675 30.5689 15.7485 30.5791C15.9763 30.5922 16.2011 30.5806 16.4245 30.5236C16.5836 30.4828 16.7296 30.4185 16.8653 30.3309Z" fill="#46A549"/>
<path fill-rule="evenodd" clip-rule="evenodd" d="M23.8951 27.693C23.8805 27.9061 23.8732 28.1207 23.8513 28.3339C23.8323 28.5105 23.8046 28.6871 23.7695 28.8609C23.717 29.1193 23.6382 29.3689 23.4878 29.5893C23.4002 29.7178 23.2936 29.8258 23.1433 29.8755C22.9447 29.9397 22.7535 29.928 22.5856 29.7893C22.5009 29.7193 22.4557 29.6214 22.4236 29.5178C22.3725 29.3499 22.3637 29.1762 22.3622 29.055C22.3622 28.7499 22.3944 28.5032 22.4805 28.2652C22.5433 28.0915 22.6323 27.9324 22.7622 27.7966C22.9564 27.5922 23.1929 27.5076 23.4717 27.5309C23.5535 27.5382 23.6338 27.5528 23.7097 27.5777C23.7506 27.5908 23.79 27.6068 23.8279 27.6273C23.8425 27.6346 23.8571 27.6419 23.8703 27.6506C23.8703 27.6506 23.8717 27.6506 23.8732 27.6521L23.8936 27.6652V27.6798C23.8936 27.6798 23.8936 27.6871 23.8936 27.6915L23.8951 27.693ZM25.2892 30.3441L25.3228 30.3193L25.317 30.3003C25.317 30.3003 25.3155 30.2944 25.3141 30.2901C25.2805 30.1952 25.2498 30.1003 25.2163 30.0054C25.1944 29.9412 25.1725 29.8784 25.1476 29.8098C25.1214 29.8229 25.1009 29.8331 25.0805 29.8419C25.0002 29.8769 24.9184 29.909 24.8279 29.9017C24.7535 29.8959 24.7082 29.8565 24.698 29.782C24.6907 29.7266 24.6863 29.6696 24.6863 29.6127C24.6863 28.8258 24.6863 28.0375 24.6863 27.2506C24.6863 27.2433 24.6863 27.2375 24.6849 27.2317V27.2068L24.6513 27.1893C24.6206 27.1718 24.5885 27.1558 24.5564 27.1397H24.5549V27.1382C24.5141 27.1178 24.4732 27.0988 24.4309 27.0798C24.3987 27.0652 24.3666 27.0521 24.333 27.0404C24.133 26.9631 23.9243 26.912 23.7053 26.8901C23.4338 26.8638 23.1666 26.874 22.9024 26.9485C22.552 27.0477 22.26 27.236 22.0265 27.5134C21.7462 27.8477 21.5987 28.239 21.5433 28.6667C21.5053 28.9674 21.5141 29.2667 21.5754 29.5645C21.6177 29.7689 21.6892 29.9601 21.8104 30.1324C21.9433 30.3207 22.1199 30.4492 22.3389 30.5163C22.6046 30.5981 22.8732 30.5981 23.1418 30.5295C23.463 30.4492 23.6965 30.2536 23.863 29.9718C23.9257 29.8638 23.9739 29.7514 24.0133 29.6331L24.0338 29.5704C24.0367 29.5616 24.0396 29.5528 24.0411 29.5441C24.0425 29.5368 24.0455 29.5295 24.0484 29.5236L24.0892 29.3981V29.6127C24.0892 29.7251 24.0892 29.839 24.0892 29.9514C24.0892 30.0477 24.098 30.1441 24.1257 30.236C24.1725 30.3952 24.2673 30.5076 24.4309 30.5528C24.5637 30.5893 24.698 30.582 24.8309 30.5587C24.9608 30.5353 25.0805 30.4886 25.19 30.4185C25.2075 30.4068 25.225 30.3966 25.2411 30.3835C25.2586 30.3704 25.2746 30.3587 25.2922 30.3441H25.2892Z" fill="#209A48"/>
<path fill-rule="evenodd" clip-rule="evenodd" d="M27.4103 30.3016L27.3767 30.2096C27.3548 30.1483 27.3329 30.0855 27.311 30.0242C27.2832 29.9469 27.257 29.871 27.2278 29.7892C27.184 29.8111 27.1446 29.833 27.1037 29.8534C27.0161 29.8958 26.9241 29.922 26.8249 29.9045C26.7679 29.8958 26.7241 29.8651 26.7124 29.8082C26.6993 29.7469 26.692 29.6826 26.692 29.6199C26.6905 29.1527 26.692 28.6855 26.692 28.2184V25.3264V25.3045C26.692 25.2943 26.692 25.2855 26.692 25.2797V25.2578L26.5971 25.2637C26.3767 25.2753 26.1548 25.287 25.9343 25.2972L25.8672 25.3001V25.3381C25.8672 25.3381 25.8672 25.3396 25.8672 25.341C25.8672 26.814 25.8672 28.287 25.8672 29.7615C25.8672 29.8987 25.8789 30.0345 25.9227 30.1658C25.9811 30.3439 26.0949 30.4695 26.2745 30.5308C26.3942 30.5717 26.5183 30.5761 26.6438 30.5746C26.8964 30.5702 27.1285 30.5074 27.3329 30.3615H27.3343C27.3519 30.3498 27.3679 30.3366 27.3854 30.322L27.4103 30.3031V30.3016Z" fill="#009849"/>
<path fill-rule="evenodd" clip-rule="evenodd" d="M31.4406 25.3644L31.3778 25.3367C31.3544 25.3265 31.3296 25.3163 31.3048 25.3075C31.2698 25.2944 31.2333 25.2827 31.1968 25.2725C31.1515 25.2593 31.1033 25.2491 31.0566 25.2418C30.8011 25.1995 30.5486 25.2053 30.2989 25.2856C30.0566 25.363 29.861 25.5061 29.715 25.7163C29.553 25.9513 29.48 26.2155 29.4581 26.4958C29.4479 26.617 29.4479 26.7396 29.4479 26.8623V26.9542H29.4187C29.4157 26.9542 29.4114 26.9542 29.4084 26.9542C29.2785 26.9542 29.1486 26.9542 29.0187 26.9542H28.9398V26.9805C28.9398 26.9805 28.9384 26.9936 28.9369 27.0039C28.9369 27.0374 28.934 27.0725 28.9325 27.1061L28.9062 27.6053H29.1062C29.2099 27.6053 29.3121 27.6053 29.4157 27.6053C29.4187 27.6053 29.423 27.6053 29.426 27.6053H29.4508L29.4479 27.7221C29.4479 28.6331 29.4479 29.5426 29.4479 30.4535C29.4479 30.5061 29.4406 30.5017 29.4975 30.5017C29.7413 30.5017 29.9865 30.5017 30.2303 30.5017C30.2887 30.5017 30.2814 30.5061 30.2814 30.4506C30.2814 29.5557 30.2814 28.6608 30.2814 27.7674V27.6053H30.4625C30.6917 27.6053 30.9223 27.6053 31.1515 27.6053C31.1544 27.6053 31.1588 27.6053 31.1617 27.6053H31.1953V27.5688C31.1953 27.5688 31.1968 27.5659 31.1968 27.5644C31.1968 27.5469 31.1968 27.5309 31.1982 27.5134L31.2011 27.4593C31.207 27.3075 31.2157 27.1557 31.2216 27.0024C31.2216 26.9922 31.2216 26.9834 31.2216 26.9761V26.9528H31.0566C30.8479 26.9528 30.6406 26.9528 30.4318 26.9528L30.2814 26.9557V26.9294C30.2814 26.9294 30.28 26.9177 30.2814 26.9104C30.2844 26.8141 30.2814 26.7177 30.2844 26.6214C30.2887 26.4798 30.3077 26.3396 30.3632 26.2082C30.4464 26.0112 30.5938 25.9031 30.8099 25.8915C30.9238 25.8856 31.0347 25.9031 31.1442 25.9353C31.1924 25.9498 31.2391 25.9644 31.2887 25.9805C31.2917 25.9717 31.2931 25.9659 31.2946 25.9615C31.3398 25.779 31.3836 25.5966 31.4303 25.4155L31.4435 25.3659L31.4406 25.3644Z" fill="#008A85"/>
<path fill-rule="evenodd" clip-rule="evenodd" d="M35.3635 30.1618C35.3373 30.0844 35.311 30.0071 35.2833 29.9297C35.2672 29.883 35.2497 29.8363 35.2322 29.7852C35.2015 29.8027 35.1767 29.8173 35.1519 29.829C35.0687 29.8713 34.9811 29.9034 34.8847 29.899C34.8161 29.8961 34.7708 29.8655 34.7562 29.7983C34.7417 29.737 34.7344 29.6728 34.7344 29.61C34.7329 28.9691 34.7344 28.3282 34.7344 27.6874C34.7344 27.4479 34.7344 27.2071 34.7344 26.9676C34.7344 26.9662 34.7344 26.9647 34.7344 26.9633V26.9311L34.7022 26.9326C34.4716 26.9443 34.2424 26.953 34.0117 26.9633H34C33.9898 26.9633 33.9796 26.9633 33.9694 26.9647C33.965 26.9647 33.9606 26.9647 33.9562 26.9647H33.9198V27.0903C33.9095 27.5224 33.8818 27.9516 33.8176 28.3793C33.7781 28.6509 33.7227 28.9209 33.6336 29.1808C33.5723 29.356 33.4979 29.5253 33.3781 29.6698C33.2438 29.8319 33.0774 29.9107 32.8657 29.8742C32.7913 29.8611 32.7241 29.8348 32.6687 29.7837C32.5825 29.7049 32.549 29.5998 32.5271 29.4903C32.5022 29.3662 32.4993 29.2406 32.5022 29.1136C32.5168 28.5676 32.5314 28.0231 32.546 27.4771C32.5504 27.3078 32.5548 27.137 32.5606 26.9676C32.5606 26.9618 32.5606 26.956 32.5606 26.9501V26.9297H32.5402C32.5358 26.9297 32.5314 26.9297 32.5256 26.9297C32.2862 26.9414 32.0468 26.9501 31.8073 26.9618H31.7738C31.7723 26.9618 31.7694 26.9618 31.7679 26.9618C31.765 26.9618 31.7621 26.9618 31.7592 26.9618H31.7227V26.9895C31.7227 26.9954 31.7227 27.0012 31.7227 27.01C31.7037 27.7574 31.6847 28.5034 31.6672 29.2509C31.6614 29.4625 31.676 29.6713 31.7373 29.8742C31.7884 30.0406 31.8657 30.191 31.9913 30.3122C32.1592 30.4742 32.3665 30.5457 32.5942 30.5633C32.7329 30.5735 32.8716 30.5676 33.0103 30.5414C33.1913 30.5063 33.3562 30.4348 33.5008 30.318C33.6964 30.1589 33.8219 29.9501 33.9095 29.7165C33.93 29.6611 33.9489 29.6056 33.965 29.5487L34.0103 29.3968C34.019 29.3676 34.0278 29.3384 34.0365 29.3092L34.0789 29.1735V29.318C34.0789 29.318 34.0789 29.3224 34.0789 29.3253C34.0789 29.3399 34.0789 29.3545 34.0789 29.3706V29.3837C34.0789 29.5589 34.0789 29.7341 34.0789 29.9078C34.0789 30.0231 34.0964 30.1341 34.1373 30.2421C34.2044 30.4173 34.3314 30.5209 34.5168 30.553C34.6278 30.5735 34.7387 30.5676 34.8511 30.553C35.019 30.5311 35.1723 30.4728 35.3095 30.3808C35.3314 30.3662 35.3533 30.3501 35.3752 30.3341L35.3781 30.3311C35.3796 30.3297 35.3825 30.3282 35.384 30.3268L35.4205 30.2976L35.3665 30.156L35.3635 30.1618Z" fill="#007F95"/>
<path fill-rule="evenodd" clip-rule="evenodd" d="M39.7523 30.2962L39.7318 30.2408C39.6822 30.0948 39.6311 29.9488 39.58 29.8028C39.58 29.8013 39.58 29.7999 39.5786 29.7984L39.5698 29.7751L39.5304 29.8013L39.4734 29.8335C39.3902 29.8758 39.3041 29.905 39.2092 29.9006C39.1391 29.8977 39.0866 29.8641 39.0676 29.794C39.0559 29.7517 39.0486 29.7064 39.0486 29.6612C39.0486 29.5648 39.0545 29.4685 39.0574 29.3721C39.0705 28.9999 39.0822 28.6276 39.0968 28.2554C39.1041 28.0641 39.1012 27.8743 39.0588 27.6875C39.0296 27.5532 38.9815 27.4247 38.9056 27.3094C38.7596 27.0846 38.5494 26.9561 38.2895 26.9035C38.1026 26.8656 37.9158 26.8641 37.7275 26.9035C37.5508 26.94 37.3946 27.0145 37.2559 27.1298C37.0807 27.2758 36.9581 27.4597 36.872 27.667C36.8282 27.7707 36.7975 27.8802 36.7625 27.9867L36.6968 28.2072L36.7041 28.0422C36.7041 28.0422 36.7041 28.0349 36.7041 28.032C36.7085 27.9035 36.7143 27.7751 36.7202 27.6481C36.7231 27.5794 36.726 27.5108 36.7289 27.4437V27.4393C36.7348 27.3181 36.7391 27.1984 36.745 27.0773L36.7523 26.9327L36.5391 26.9429C36.3917 26.9502 36.2442 26.9575 36.0953 26.9634H36.0837C36.0676 26.9634 36.0515 26.9648 36.0369 26.9663C36.0311 26.9663 36.0253 26.9663 36.0209 26.9663H35.9902V28.7327C35.9902 29.3094 35.9902 29.886 35.9902 30.4612C35.9902 30.4919 35.9975 30.4991 36.0282 30.4991C36.272 30.4991 36.5172 30.4991 36.761 30.4991C36.7932 30.4991 36.8034 30.4918 36.8048 30.4568C36.8092 30.0904 36.8296 29.7254 36.872 29.3619C36.9099 29.0276 36.9654 28.6962 37.0676 28.3751C37.1275 28.1882 37.2005 28.0057 37.3172 27.8466C37.4486 27.667 37.6136 27.5532 37.8486 27.5765C38.0121 27.5926 38.1275 27.6729 38.1888 27.8262C38.2384 27.9502 38.2545 28.0816 38.253 28.213C38.2501 28.4437 38.2413 28.6729 38.2326 28.9035C38.2238 29.1561 38.2136 29.4101 38.2034 29.6627C38.1975 29.8145 38.1932 29.9663 38.2326 30.1167C38.2647 30.2408 38.3216 30.3488 38.4223 30.432C38.5362 30.5254 38.672 30.5605 38.8151 30.5692C38.9698 30.578 39.1245 30.5692 39.2764 30.5342C39.418 30.5021 39.5494 30.4451 39.6661 30.3619C39.6895 30.3459 39.7114 30.3283 39.7348 30.3094L39.7523 30.2948V30.2962Z" fill="#0E74A3"/>
<path fill-rule="evenodd" clip-rule="evenodd" d="M42.4613 27.7469C42.4453 27.9761 42.4336 28.2067 42.4088 28.4345C42.3767 28.7294 42.3183 29.0184 42.2073 29.2943C42.1431 29.4534 42.0628 29.6009 41.9402 29.7235C41.7518 29.9133 41.4876 29.9512 41.2613 29.8549C41.1504 29.8067 41.0788 29.7191 41.0292 29.6111C40.9752 29.4958 40.9533 29.3717 40.9416 29.2461C40.9329 29.16 40.9314 29.0739 40.927 28.9877C40.9314 28.7454 40.9621 28.506 41.0438 28.2768C41.127 28.0418 41.2511 27.833 41.4555 27.6812C41.6321 27.5483 41.8321 27.5089 42.0482 27.5279C42.1402 27.5366 42.2277 27.5542 42.3124 27.5863C42.3475 27.5994 42.381 27.614 42.4146 27.6315L42.4701 27.6607L42.4613 27.7454V27.7469ZM43.8993 30.3133V30.3089L43.8628 30.2067C43.8204 30.0856 43.7781 29.9629 43.7372 29.8403V29.8374L43.7256 29.8082L43.711 29.8155C43.711 29.8155 43.7051 29.8184 43.7022 29.8199C43.6161 29.8666 43.5241 29.9002 43.4248 29.9002C43.3358 29.9002 43.2847 29.8564 43.2745 29.7688C43.2672 29.7162 43.2642 29.6622 43.2642 29.6082C43.2642 28.1775 43.2642 26.7454 43.2642 25.3148V25.2593L43.2058 25.2622C43.2058 25.2622 43.1986 25.2622 43.1942 25.2622C43.1445 25.2651 43.0934 25.268 43.0438 25.271H43.0102V25.2724C42.8453 25.2812 42.6818 25.2899 42.5168 25.2987C42.5168 25.2987 42.5153 25.2987 42.5139 25.2987C42.5066 25.2987 42.4993 25.2987 42.4949 25.2987H42.4686V26.9133L42.4088 26.9045C42.4044 26.9045 42.4 26.9045 42.3956 26.9031H42.3927C42.3854 26.9016 42.3781 26.9002 42.3708 26.8987L42.2993 26.8899C42.1168 26.8695 41.9329 26.8666 41.7504 26.8899C41.5241 26.9177 41.3095 26.9819 41.1095 27.0914C40.7329 27.2958 40.4715 27.6053 40.2993 27.9921C40.1869 28.2432 40.1256 28.5075 40.1051 28.7819C40.0818 29.0972 40.0993 29.4096 40.1869 29.7162C40.2336 29.8783 40.3051 30.0301 40.4088 30.1644C40.6088 30.4242 40.8818 30.5454 41.2029 30.5688C41.3402 30.579 41.4759 30.5731 41.6117 30.5483C41.7723 30.5191 41.9226 30.4637 42.0584 30.3746C42.2453 30.252 42.3781 30.087 42.4759 29.8943L42.5781 29.6461L42.6613 29.3921V29.7089L42.6584 29.7118C42.6584 29.8053 42.6584 29.8987 42.6599 29.9921C42.6628 30.071 42.6715 30.1498 42.6905 30.2257C42.7387 30.4096 42.8569 30.5235 43.0467 30.56C43.1533 30.5804 43.2599 30.5746 43.3679 30.56C43.5007 30.5425 43.6219 30.5002 43.7329 30.4359C43.7606 30.4199 43.7869 30.4023 43.8131 30.3848C43.8321 30.3717 43.8511 30.3571 43.8701 30.3425L43.9051 30.3148L43.8993 30.3133Z" fill="#1866AC"/>
<path fill-rule="evenodd" clip-rule="evenodd" d="M9.80001 30.3892C9.82045 30.3761 9.84088 30.3615 9.86132 30.3469L9.91534 30.3104L9.73139 29.7819L9.65256 29.8301C9.56351 29.8783 9.47154 29.9104 9.36789 29.9075C9.29198 29.9046 9.24964 29.8739 9.22628 29.8024C9.20147 29.725 9.20585 29.6447 9.20877 29.5644C9.22774 29.1104 9.24672 28.6564 9.26424 28.2024C9.273 27.9863 9.25986 27.7732 9.19417 27.5644C9.14161 27.3965 9.0584 27.2462 8.92701 27.1265C8.75329 26.9659 8.54015 26.8987 8.31096 26.8783C8.16935 26.8651 8.02774 26.871 7.8876 26.8987C7.68906 26.9381 7.51826 27.0272 7.37665 27.1703C7.21315 27.3367 7.11242 27.5396 7.03504 27.7571C7.00585 27.8389 6.98395 27.9221 6.95767 28.0053C6.95475 28.0141 6.92701 28.125 6.91972 28.1323C6.91388 28.1235 6.91972 28.0097 6.91826 28.0009C6.91534 27.9688 6.91534 27.9352 6.91388 27.9016C6.90658 27.7221 6.88322 27.5454 6.81899 27.3761C6.71388 27.0987 6.51096 26.9411 6.22191 26.8914C6.05548 26.8637 5.8876 26.8637 5.72118 26.9002C5.55329 26.9352 5.40147 27.0068 5.27008 27.1177C5.0876 27.2695 4.96351 27.4637 4.87738 27.6812C4.83943 27.7776 4.81023 27.8783 4.77957 27.979L4.70804 28.2111L4.72556 27.8681C4.72994 27.7776 4.73286 27.687 4.73724 27.5951C4.746 27.3878 4.75475 27.1819 4.76497 26.9746C4.76497 26.9615 4.76497 26.9498 4.76497 26.9338C4.75183 26.9338 4.74308 26.9338 4.73432 26.9338C4.50366 26.944 4.27446 26.9557 4.04381 26.9659C4.03797 26.9659 4.03359 26.9659 4.03067 26.9659H4.00293V27.0082C4.00293 28.1644 4.00293 29.3177 4.00293 30.4724V30.5119H4.77081C4.80293 30.5119 4.81947 30.4963 4.82045 30.4651C4.82775 30.0053 4.85548 29.5469 4.92264 29.0914C4.96351 28.8184 5.01753 28.5498 5.10804 28.2885C5.16935 28.1119 5.24527 27.9411 5.36643 27.7965C5.47154 27.671 5.60001 27.5863 5.77081 27.5776C5.98541 27.5673 6.13139 27.6651 6.20147 27.8666C6.2438 27.9878 6.2584 28.1119 6.2584 28.2389C6.2584 28.4535 6.25256 28.6666 6.24672 28.8812C6.2365 29.2783 6.22482 29.6739 6.21315 30.071L6.20001 30.5148H6.30366C6.47592 30.5133 6.64818 30.5133 6.82045 30.5148H7.00293V30.4943C7.00293 30.487 7.00293 30.4783 7.00293 30.4651C7.00293 30.4491 7.00293 30.4345 7.00293 30.4184L7.01315 30.0943C7.03066 29.6827 7.06716 29.2724 7.13869 28.8666C7.17665 28.6506 7.22628 28.4374 7.3022 28.2301C7.35913 28.0724 7.43066 27.9206 7.54015 27.7907C7.6438 27.6681 7.77081 27.5878 7.93723 27.5805C8.16935 27.5703 8.31826 27.6754 8.38103 27.8987C8.42045 28.0403 8.42628 28.1863 8.42045 28.3323C8.41169 28.5746 8.40001 28.817 8.38979 29.0593C8.37957 29.2768 8.37081 29.4958 8.36059 29.7133C8.35329 29.8549 8.35475 29.9965 8.38979 30.1352C8.45256 30.379 8.6292 30.5381 8.87592 30.5732C9.03796 30.5965 9.20001 30.5892 9.36059 30.5615C9.51972 30.5338 9.66716 30.4812 9.80147 30.3951L9.80001 30.3892Z" fill="#43AC32"/>
<path fill-rule="evenodd" clip-rule="evenodd" d="M14.1269 30.3399L14.1473 30.3239L14.067 30.0976C14.0495 30.048 14.0335 29.9983 14.0159 29.9487C13.9999 29.902 13.9824 29.8538 13.9634 29.8027C13.9473 29.8115 13.9371 29.8173 13.9269 29.8231C13.8305 29.8772 13.7298 29.9209 13.6159 29.9166C13.5459 29.9136 13.4991 29.883 13.4845 29.8144C13.4699 29.7501 13.4626 29.6845 13.4626 29.6188C13.4626 28.7458 13.4626 27.8742 13.4626 27.0012C13.4626 26.9954 13.4626 26.991 13.4626 26.9852V26.9764C13.4626 26.9764 13.4626 26.9706 13.4626 26.9691C13.4626 26.9633 13.4626 26.9589 13.4626 26.956V26.937L12.6393 26.972V27.2538C12.6393 27.2976 12.6364 27.3399 12.6349 27.3823C12.6218 27.7195 12.594 28.0538 12.5444 28.3881C12.5035 28.6611 12.4495 28.9326 12.359 29.1939C12.2977 29.372 12.2218 29.5428 12.1006 29.6888C11.9736 29.8407 11.8174 29.9224 11.613 29.8961C11.4597 29.8772 11.3517 29.8012 11.2918 29.6582C11.2393 29.5312 11.2218 29.3969 11.2232 29.2626C11.2291 28.8596 11.2393 28.4567 11.2481 28.0553C11.2568 27.7282 11.2656 27.4012 11.2758 27.0728L11.2802 26.9355L11.121 26.9443C11.0086 26.9487 10.8962 26.9545 10.7838 26.9589L10.4349 26.972L10.4276 27.2626C10.4276 27.2845 10.4276 27.3063 10.4262 27.3282C10.4159 27.7049 10.4057 28.0801 10.397 28.4567C10.3897 28.775 10.3809 29.0932 10.378 29.4115C10.3765 29.6129 10.4086 29.8085 10.4831 29.9969C10.6057 30.3063 10.8291 30.5005 11.159 30.5647C11.3838 30.6085 11.6072 30.5983 11.8276 30.5385C12.0116 30.4888 12.1707 30.3954 12.305 30.2596C12.4466 30.1166 12.5473 29.9487 12.6189 29.7618C12.6729 29.6202 12.7108 29.4742 12.7561 29.3297C12.7619 29.3107 12.7867 29.2363 12.7926 29.245C12.797 29.2509 12.7999 29.3268 12.7999 29.3385C12.7999 29.5341 12.7999 29.7297 12.7999 29.9239C12.7999 30.0407 12.8174 30.1531 12.8597 30.2626C12.9269 30.4363 13.0524 30.5399 13.2364 30.5735C13.3488 30.5939 13.4612 30.5896 13.5736 30.5735C13.7605 30.5501 13.9269 30.4801 14.0772 30.3706C14.0918 30.3604 14.1064 30.3487 14.121 30.337C14.121 30.337 14.1225 30.3355 14.124 30.3341L14.1269 30.3399Z" fill="#38AA34"/>
<path fill-rule="evenodd" clip-rule="evenodd" d="M21.1533 30.3399L21.1737 30.3239L21.0934 30.0976C21.0759 30.048 21.0598 29.9983 21.0423 29.9487C21.0262 29.902 21.0087 29.8538 20.9897 29.8027C20.9737 29.8115 20.9635 29.8173 20.9532 29.8231C20.8569 29.8772 20.7562 29.9209 20.6423 29.9166C20.5722 29.9136 20.5255 29.883 20.5109 29.8144C20.4963 29.7501 20.489 29.6845 20.489 29.6188C20.489 28.7458 20.489 27.8742 20.489 27.0012C20.489 26.9954 20.489 26.991 20.489 26.9852V26.9764C20.489 26.9764 20.489 26.9706 20.489 26.9691C20.489 26.9633 20.489 26.9589 20.489 26.956V26.937L19.6657 26.972V27.2538C19.6657 27.2976 19.6627 27.3399 19.6613 27.3823C19.6481 27.7195 19.6204 28.0538 19.5708 28.3881C19.5299 28.6611 19.4759 28.9326 19.3854 29.1939C19.3241 29.372 19.2481 29.5428 19.127 29.6888C19 29.8407 18.8438 29.9224 18.6394 29.8961C18.4861 29.8772 18.3781 29.8012 18.3182 29.6582C18.2657 29.5312 18.2481 29.3969 18.2496 29.2626C18.2554 28.8596 18.2657 28.4567 18.2744 28.0553C18.2832 27.7282 18.2919 27.4012 18.3022 27.0728L18.3065 26.9355L18.1474 26.9443C18.035 26.9487 17.9226 26.9545 17.8102 26.9589L17.4613 26.972L17.454 27.2626C17.454 27.2845 17.454 27.3063 17.4525 27.3282C17.4423 27.7049 17.4321 28.0801 17.4233 28.4567C17.416 28.775 17.4073 29.0932 17.4043 29.4115C17.4029 29.6129 17.435 29.8085 17.5095 29.9969C17.6321 30.3063 17.8554 30.5005 18.1854 30.5647C18.4102 30.6085 18.6335 30.5983 18.854 30.5385C19.0379 30.4888 19.197 30.3954 19.3314 30.2596C19.473 30.1166 19.5737 29.9487 19.6452 29.7618C19.6992 29.6202 19.7372 29.4742 19.7824 29.3297C19.7883 29.3107 19.8131 29.2363 19.8189 29.245C19.8233 29.2509 19.8262 29.3268 19.8262 29.3385C19.8262 29.5341 19.8262 29.7297 19.8262 29.9239C19.8262 30.0407 19.8438 30.1531 19.8861 30.2626C19.9533 30.4363 20.0788 30.5399 20.2627 30.5735C20.3751 30.5939 20.4876 30.5896 20.6 30.5735C20.7868 30.5501 20.9533 30.4801 21.1036 30.3706C21.1182 30.3604 21.1328 30.3487 21.1474 30.337C21.1474 30.337 21.1489 30.3355 21.1503 30.3341L21.1533 30.3399Z" fill="#02A34F"/>
<path fill-rule="evenodd" clip-rule="evenodd" d="M16.8653 30.3309C16.8653 30.3309 16.8785 30.3222 16.8843 30.3178L16.9661 30.2623L16.9588 30.2404C16.9588 30.2404 16.9588 30.236 16.9573 30.2346C16.9544 30.2273 16.9515 30.22 16.9485 30.2127L16.9296 30.1587C16.9135 30.1134 16.8989 30.0696 16.8843 30.0244C16.8493 29.9236 16.8142 29.8229 16.7763 29.7163C16.7515 29.7295 16.731 29.7397 16.7106 29.7499C16.5033 29.8565 16.2858 29.9193 16.0507 29.9017C15.8901 29.8886 15.788 29.8127 15.7369 29.6609C15.6989 29.5455 15.6945 29.4258 15.6945 29.3076C15.6945 28.8317 15.6945 28.3558 15.6945 27.8798V27.6112H15.9179C16.1836 27.6112 16.4493 27.6112 16.715 27.6112C16.7193 27.6112 16.7237 27.6112 16.7266 27.6112H16.7544V27.5849C16.7544 27.5849 16.7558 27.5776 16.7558 27.5718C16.7602 27.4156 16.7646 27.2579 16.7704 27.1017V27.0974C16.7704 27.0682 16.7719 27.039 16.7734 27.0098C16.7734 27.001 16.7734 26.9952 16.7734 26.9893V26.9601H16.7544C16.7471 26.9601 16.7383 26.9601 16.7252 26.9601C16.4099 26.9601 16.0931 26.9601 15.7777 26.9601H15.6931V26.9426C15.6931 26.9426 15.6931 26.9266 15.6931 26.912V26.8258C15.6931 26.6258 15.6931 26.4273 15.6931 26.2273V26.1528L15.5617 26.1616C15.4668 26.166 15.3704 26.1703 15.2756 26.1747C15.2055 26.1776 15.1339 26.182 15.0639 26.1864L14.988 26.1893L14.9836 26.2711C14.9807 26.3032 14.9763 26.3368 14.9734 26.3689C14.9675 26.4346 14.9602 26.4988 14.9544 26.5645L14.9193 26.9601H14.6522C14.6274 26.9587 14.6026 26.9587 14.5777 26.9587H14.569C14.5091 26.9587 14.4493 26.9587 14.3894 26.9587C14.385 26.9587 14.3821 26.9587 14.3792 26.9587H14.3515L14.331 27.42C14.3281 27.4725 14.3252 27.5266 14.3223 27.5791C14.3223 27.5849 14.3223 27.5879 14.3223 27.5937V27.6112H14.6872C14.731 27.6112 14.7748 27.6112 14.8186 27.6112C14.8259 27.6112 14.8332 27.6112 14.8376 27.6112H14.861V27.6404C14.861 27.6404 14.861 27.6433 14.861 27.6448V27.655C14.861 27.8068 14.861 27.9601 14.861 28.112C14.861 28.5674 14.861 29.0244 14.8639 29.4798C14.8653 29.6696 14.8901 29.8579 14.9558 30.0375C15.0128 30.1952 15.1018 30.328 15.2434 30.4229C15.3953 30.5266 15.5675 30.5689 15.7485 30.5791C15.9763 30.5922 16.2011 30.5806 16.4245 30.5236C16.5836 30.4828 16.7296 30.4185 16.8653 30.3309Z" fill="#21A73E"/>
<path fill-rule="evenodd" clip-rule="evenodd" d="M23.8951 27.693C23.8805 27.9061 23.8732 28.1207 23.8513 28.3339C23.8323 28.5105 23.8046 28.6871 23.7695 28.8609C23.717 29.1193 23.6382 29.3689 23.4878 29.5893C23.4002 29.7178 23.2936 29.8258 23.1433 29.8755C22.9447 29.9397 22.7535 29.928 22.5856 29.7893C22.5009 29.7193 22.4557 29.6214 22.4236 29.5178C22.3725 29.3499 22.3637 29.1762 22.3622 29.055C22.3622 28.7499 22.3944 28.5032 22.4805 28.2652C22.5433 28.0915 22.6323 27.9324 22.7622 27.7966C22.9564 27.5922 23.1929 27.5076 23.4717 27.5309C23.5535 27.5382 23.6338 27.5528 23.7097 27.5777C23.7506 27.5908 23.79 27.6068 23.8279 27.6273C23.8425 27.6346 23.8571 27.6419 23.8703 27.6506C23.8703 27.6506 23.8717 27.6506 23.8732 27.6521L23.8936 27.6652V27.6798C23.8936 27.6798 23.8936 27.6871 23.8936 27.6915L23.8951 27.693ZM25.2892 30.3441L25.3228 30.3193L25.317 30.3003C25.317 30.3003 25.3155 30.2944 25.3141 30.2901C25.2805 30.1952 25.2498 30.1003 25.2163 30.0054C25.1944 29.9412 25.1725 29.8784 25.1476 29.8098C25.1214 29.8229 25.1009 29.8331 25.0805 29.8419C25.0002 29.8769 24.9184 29.909 24.8279 29.9017C24.7535 29.8959 24.7082 29.8565 24.698 29.782C24.6907 29.7266 24.6863 29.6696 24.6863 29.6127C24.6863 28.8258 24.6863 28.0375 24.6863 27.2506C24.6863 27.2433 24.6863 27.2375 24.6849 27.2317V27.2068L24.6513 27.1893C24.6206 27.1718 24.5885 27.1558 24.5564 27.1397H24.5549V27.1382C24.5141 27.1178 24.4732 27.0988 24.4309 27.0798C24.3987 27.0652 24.3666 27.0521 24.333 27.0404C24.133 26.9631 23.9243 26.912 23.7053 26.8901C23.4338 26.8638 23.1666 26.874 22.9024 26.9485C22.552 27.0477 22.26 27.236 22.0265 27.5134C21.7462 27.8477 21.5987 28.239 21.5433 28.6667C21.5053 28.9674 21.5141 29.2667 21.5754 29.5645C21.6177 29.7689 21.6892 29.9601 21.8104 30.1324C21.9433 30.3207 22.1199 30.4492 22.3389 30.5163C22.6046 30.5981 22.8732 30.5981 23.1418 30.5295C23.463 30.4492 23.6965 30.2536 23.863 29.9718C23.9257 29.8638 23.9739 29.7514 24.0133 29.6331L24.0338 29.5704C24.0367 29.5616 24.0396 29.5528 24.0411 29.5441C24.0425 29.5368 24.0455 29.5295 24.0484 29.5236L24.0892 29.3981V29.6127C24.0892 29.7251 24.0892 29.839 24.0892 29.9514C24.0892 30.0477 24.098 30.1441 24.1257 30.236C24.1725 30.3952 24.2673 30.5076 24.4309 30.5528C24.5637 30.5893 24.698 30.582 24.8309 30.5587C24.9608 30.5353 25.0805 30.4886 25.19 30.4185C25.2075 30.4068 25.225 30.3966 25.2411 30.3835C25.2586 30.3704 25.2746 30.3587 25.2922 30.3441H25.2892Z" fill="#00995F"/>
<path fill-rule="evenodd" clip-rule="evenodd" d="M27.4103 30.3016L27.3767 30.2096C27.3548 30.1483 27.3329 30.0855 27.311 30.0242C27.2832 29.9469 27.257 29.871 27.2278 29.7892C27.184 29.8111 27.1446 29.833 27.1037 29.8534C27.0161 29.8958 26.9241 29.922 26.8249 29.9045C26.7679 29.8958 26.7241 29.8651 26.7124 29.8082C26.6993 29.7469 26.692 29.6826 26.692 29.6199C26.6905 29.1527 26.692 28.6855 26.692 28.2184V25.3264V25.3045C26.692 25.2943 26.692 25.2855 26.692 25.2797V25.2578L26.5971 25.2637C26.3767 25.2753 26.1548 25.287 25.9343 25.2972L25.8672 25.3001V25.3381C25.8672 25.3381 25.8672 25.3396 25.8672 25.341C25.8672 26.814 25.8672 28.287 25.8672 29.7615C25.8672 29.8987 25.8789 30.0345 25.9227 30.1658C25.9811 30.3439 26.0949 30.4695 26.2745 30.5308C26.3942 30.5717 26.5183 30.5761 26.6438 30.5746C26.8964 30.5702 27.1285 30.5074 27.3329 30.3615H27.3343C27.3519 30.3498 27.3679 30.3366 27.3854 30.322L27.4103 30.3031V30.3016Z" fill="#009372"/>
<path fill-rule="evenodd" clip-rule="evenodd" d="M31.4406 25.3644L31.3778 25.3367C31.3544 25.3265 31.3296 25.3163 31.3048 25.3075C31.2698 25.2944 31.2333 25.2827 31.1968 25.2725C31.1515 25.2593 31.1033 25.2491 31.0566 25.2418C30.8011 25.1995 30.5486 25.2053 30.2989 25.2856C30.0566 25.363 29.861 25.5061 29.715 25.7163C29.553 25.9513 29.48 26.2155 29.4581 26.4958C29.4479 26.617 29.4479 26.7396 29.4479 26.8623V26.9542H29.4187C29.4157 26.9542 29.4114 26.9542 29.4084 26.9542C29.2785 26.9542 29.1486 26.9542 29.0187 26.9542H28.9398V26.9805C28.9398 26.9805 28.9384 26.9936 28.9369 27.0039C28.9369 27.0374 28.934 27.0725 28.9325 27.1061L28.9062 27.6053H29.1062C29.2099 27.6053 29.3121 27.6053 29.4157 27.6053C29.4187 27.6053 29.423 27.6053 29.426 27.6053H29.4508L29.4479 27.7221C29.4479 28.6331 29.4479 29.5426 29.4479 30.4535C29.4479 30.5061 29.4406 30.5017 29.4975 30.5017C29.7413 30.5017 29.9865 30.5017 30.2303 30.5017C30.2887 30.5017 30.2814 30.5061 30.2814 30.4506C30.2814 29.5557 30.2814 28.6608 30.2814 27.7674V27.6053H30.4625C30.6917 27.6053 30.9223 27.6053 31.1515 27.6053C31.1544 27.6053 31.1588 27.6053 31.1617 27.6053H31.1953V27.5688C31.1953 27.5688 31.1968 27.5659 31.1968 27.5644C31.1968 27.5469 31.1968 27.5309 31.1982 27.5134L31.2011 27.4593C31.207 27.3075 31.2157 27.1557 31.2216 27.0024C31.2216 26.9922 31.2216 26.9834 31.2216 26.9761V26.9528H31.0566C30.8479 26.9528 30.6406 26.9528 30.4318 26.9528L30.2814 26.9557V26.9294C30.2814 26.9294 30.28 26.9177 30.2814 26.9104C30.2844 26.8141 30.2814 26.7177 30.2844 26.6214C30.2887 26.4798 30.3077 26.3396 30.3632 26.2082C30.4464 26.0112 30.5938 25.9031 30.8099 25.8915C30.9238 25.8856 31.0347 25.9031 31.1442 25.9353C31.1924 25.9498 31.2391 25.9644 31.2887 25.9805C31.2917 25.9717 31.2931 25.9659 31.2946 25.9615C31.3398 25.779 31.3836 25.5966 31.4303 25.4155L31.4435 25.3659L31.4406 25.3644Z" fill="#008A85"/>
<path fill-rule="evenodd" clip-rule="evenodd" d="M35.3635 30.1618C35.3373 30.0844 35.311 30.0071 35.2833 29.9297C35.2672 29.883 35.2497 29.8363 35.2322 29.7852C35.2015 29.8027 35.1767 29.8173 35.1519 29.829C35.0687 29.8713 34.9811 29.9034 34.8847 29.899C34.8161 29.8961 34.7708 29.8655 34.7562 29.7983C34.7417 29.737 34.7344 29.6728 34.7344 29.61C34.7329 28.9691 34.7344 28.3282 34.7344 27.6874C34.7344 27.4479 34.7344 27.2071 34.7344 26.9676C34.7344 26.9662 34.7344 26.9647 34.7344 26.9633V26.9311L34.7022 26.9326C34.4716 26.9443 34.2424 26.953 34.0117 26.9633H34C33.9898 26.9633 33.9796 26.9633 33.9694 26.9647C33.965 26.9647 33.9606 26.9647 33.9562 26.9647H33.9198V27.0903C33.9095 27.5224 33.8818 27.9516 33.8176 28.3793C33.7781 28.6509 33.7227 28.9209 33.6336 29.1808C33.5723 29.356 33.4979 29.5253 33.3781 29.6698C33.2438 29.8319 33.0774 29.9107 32.8657 29.8742C32.7913 29.8611 32.7241 29.8348 32.6687 29.7837C32.5825 29.7049 32.549 29.5998 32.5271 29.4903C32.5022 29.3662 32.4993 29.2406 32.5022 29.1136C32.5168 28.5676 32.5314 28.0231 32.546 27.4771C32.5504 27.3078 32.5548 27.137 32.5606 26.9676C32.5606 26.9618 32.5606 26.956 32.5606 26.9501V26.9297H32.5402C32.5358 26.9297 32.5314 26.9297 32.5256 26.9297C32.2862 26.9414 32.0468 26.9501 31.8073 26.9618H31.7738C31.7723 26.9618 31.7694 26.9618 31.7679 26.9618C31.765 26.9618 31.7621 26.9618 31.7592 26.9618H31.7227V26.9895C31.7227 26.9954 31.7227 27.0012 31.7227 27.01C31.7037 27.7574 31.6847 28.5034 31.6672 29.2509C31.6614 29.4625 31.676 29.6713 31.7373 29.8742C31.7884 30.0406 31.8657 30.191 31.9913 30.3122C32.1592 30.4742 32.3665 30.5457 32.5942 30.5633C32.7329 30.5735 32.8716 30.5676 33.0103 30.5414C33.1913 30.5063 33.3562 30.4348 33.5008 30.318C33.6964 30.1589 33.8219 29.9501 33.9095 29.7165C33.93 29.6611 33.9489 29.6056 33.965 29.5487L34.0103 29.3968C34.019 29.3676 34.0278 29.3384 34.0365 29.3092L34.0789 29.1735V29.318C34.0789 29.318 34.0789 29.3224 34.0789 29.3253C34.0789 29.3399 34.0789 29.3545 34.0789 29.3706V29.3837C34.0789 29.5589 34.0789 29.7341 34.0789 29.9078C34.0789 30.0231 34.0964 30.1341 34.1373 30.2421C34.2044 30.4173 34.3314 30.5209 34.5168 30.553C34.6278 30.5735 34.7387 30.5676 34.8511 30.553C35.019 30.5311 35.1723 30.4728 35.3095 30.3808C35.3314 30.3662 35.3533 30.3501 35.3752 30.3341L35.3781 30.3311C35.3796 30.3297 35.3825 30.3282 35.384 30.3268L35.4205 30.2976L35.3665 30.156L35.3635 30.1618Z" fill="#007F95"/>
<path fill-rule="evenodd" clip-rule="evenodd" d="M39.7523 30.2962L39.7318 30.2408C39.6822 30.0948 39.6311 29.9488 39.58 29.8028C39.58 29.8013 39.58 29.7999 39.5786 29.7984L39.5698 29.7751L39.5304 29.8013L39.4734 29.8335C39.3902 29.8758 39.3041 29.905 39.2092 29.9006C39.1391 29.8977 39.0866 29.8641 39.0676 29.794C39.0559 29.7517 39.0486 29.7064 39.0486 29.6612C39.0486 29.5648 39.0545 29.4685 39.0574 29.3721C39.0705 28.9999 39.0822 28.6276 39.0968 28.2554C39.1041 28.0641 39.1012 27.8743 39.0588 27.6875C39.0296 27.5532 38.9815 27.4247 38.9056 27.3094C38.7596 27.0846 38.5494 26.9561 38.2895 26.9035C38.1026 26.8656 37.9158 26.8641 37.7275 26.9035C37.5508 26.94 37.3946 27.0145 37.2559 27.1298C37.0807 27.2758 36.9581 27.4597 36.872 27.667C36.8282 27.7707 36.7975 27.8802 36.7625 27.9867L36.6968 28.2072L36.7041 28.0422C36.7041 28.0422 36.7041 28.0349 36.7041 28.032C36.7085 27.9035 36.7143 27.7751 36.7202 27.6481C36.7231 27.5794 36.726 27.5108 36.7289 27.4437V27.4393C36.7348 27.3181 36.7391 27.1984 36.745 27.0773L36.7523 26.9327L36.5391 26.9429C36.3917 26.9502 36.2442 26.9575 36.0953 26.9634H36.0837C36.0676 26.9634 36.0515 26.9648 36.0369 26.9663C36.0311 26.9663 36.0253 26.9663 36.0209 26.9663H35.9902V28.7327C35.9902 29.3094 35.9902 29.886 35.9902 30.4612C35.9902 30.4919 35.9975 30.4991 36.0282 30.4991C36.272 30.4991 36.5172 30.4991 36.761 30.4991C36.7932 30.4991 36.8034 30.4918 36.8048 30.4568C36.8092 30.0904 36.8296 29.7254 36.872 29.3619C36.9099 29.0276 36.9654 28.6962 37.0676 28.3751C37.1275 28.1882 37.2005 28.0057 37.3172 27.8466C37.4486 27.667 37.6136 27.5532 37.8486 27.5765C38.0121 27.5926 38.1275 27.6729 38.1888 27.8262C38.2384 27.9502 38.2545 28.0816 38.253 28.213C38.2501 28.4437 38.2413 28.6729 38.2326 28.9035C38.2238 29.1561 38.2136 29.4101 38.2034 29.6627C38.1975 29.8145 38.1932 29.9663 38.2326 30.1167C38.2647 30.2408 38.3216 30.3488 38.4223 30.432C38.5362 30.5254 38.672 30.5605 38.8151 30.5692C38.9698 30.578 39.1245 30.5692 39.2764 30.5342C39.418 30.5021 39.5494 30.4451 39.6661 30.3619C39.6895 30.3459 39.7114 30.3283 39.7348 30.3094L39.7523 30.2948V30.2962Z" fill="#0E74A3"/>
<path fill-rule="evenodd" clip-rule="evenodd" d="M42.4613 27.7469C42.4453 27.9761 42.4336 28.2067 42.4088 28.4345C42.3767 28.7294 42.3183 29.0184 42.2073 29.2943C42.1431 29.4534 42.0628 29.6009 41.9402 29.7235C41.7518 29.9133 41.4876 29.9512 41.2613 29.8549C41.1504 29.8067 41.0788 29.7191 41.0292 29.6111C40.9752 29.4958 40.9533 29.3717 40.9416 29.2461C40.9329 29.16 40.9314 29.0739 40.927 28.9877C40.9314 28.7454 40.9621 28.506 41.0438 28.2768C41.127 28.0418 41.2511 27.833 41.4555 27.6812C41.6321 27.5483 41.8321 27.5089 42.0482 27.5279C42.1402 27.5366 42.2277 27.5542 42.3124 27.5863C42.3475 27.5994 42.381 27.614 42.4146 27.6315L42.4701 27.6607L42.4613 27.7454V27.7469ZM43.8993 30.3133V30.3089L43.8628 30.2067C43.8204 30.0856 43.7781 29.9629 43.7372 29.8403V29.8374L43.7256 29.8082L43.711 29.8155C43.711 29.8155 43.7051 29.8184 43.7022 29.8199C43.6161 29.8666 43.5241 29.9002 43.4248 29.9002C43.3358 29.9002 43.2847 29.8564 43.2745 29.7688C43.2672 29.7162 43.2642 29.6622 43.2642 29.6082C43.2642 28.1775 43.2642 26.7454 43.2642 25.3148V25.2593L43.2058 25.2622C43.2058 25.2622 43.1986 25.2622 43.1942 25.2622C43.1445 25.2651 43.0934 25.268 43.0438 25.271H43.0102V25.2724C42.8453 25.2812 42.6818 25.2899 42.5168 25.2987C42.5168 25.2987 42.5153 25.2987 42.5139 25.2987C42.5066 25.2987 42.4993 25.2987 42.4949 25.2987H42.4686V26.9133L42.4088 26.9045C42.4044 26.9045 42.4 26.9045 42.3956 26.9031H42.3927C42.3854 26.9016 42.3781 26.9002 42.3708 26.8987L42.2993 26.8899C42.1168 26.8695 41.9329 26.8666 41.7504 26.8899C41.5241 26.9177 41.3095 26.9819 41.1095 27.0914C40.7329 27.2958 40.4715 27.6053 40.2993 27.9921C40.1869 28.2432 40.1256 28.5075 40.1051 28.7819C40.0818 29.0972 40.0993 29.4096 40.1869 29.7162C40.2336 29.8783 40.3051 30.0301 40.4088 30.1644C40.6088 30.4242 40.8818 30.5454 41.2029 30.5688C41.3402 30.579 41.4759 30.5731 41.6117 30.5483C41.7723 30.5191 41.9226 30.4637 42.0584 30.3746C42.2453 30.252 42.3781 30.087 42.4759 29.8943L42.5781 29.6461L42.6613 29.3921V29.7089L42.6584 29.7118C42.6584 29.8053 42.6584 29.8987 42.6599 29.9921C42.6628 30.071 42.6715 30.1498 42.6905 30.2257C42.7387 30.4096 42.8569 30.5235 43.0467 30.56C43.1533 30.5804 43.2599 30.5746 43.3679 30.56C43.5007 30.5425 43.6219 30.5002 43.7329 30.4359C43.7606 30.4199 43.7869 30.4023 43.8131 30.3848C43.8321 30.3717 43.8511 30.3571 43.8701 30.3425L43.9051 30.3148L43.8993 30.3133Z" fill="#1866AC"/>
</g>
</svg>
