<svg width="48" height="48" viewBox="0 0 48 48" fill="none" xmlns="http://www.w3.org/2000/svg">
<g clip-path="url(#clip0_291_13575)">
<circle cx="24" cy="24" r="24" fill="#F36A10"/>
<path fill-rule="evenodd" clip-rule="evenodd" d="M28.6353 32.2025L30.0932 30.4988L30.7053 30.5018L32.2494 32.0874L30.7264 33.6104L30.08 33.5936L28.6353 32.2025ZM24.2175 32.2025L25.6754 30.4988L26.2887 30.5018L27.8316 32.0874L26.3104 33.6104L25.6658 33.5942L24.2175 32.2025ZM19.8858 32.2025L21.3456 30.4988L21.9589 30.5018L23.5018 32.0874L21.9788 33.6104L21.3323 33.5936L19.8858 32.2025ZM15.3572 32.2025L16.8133 30.4988L17.4266 30.5018L18.9701 32.0874L17.4501 33.611L16.8025 33.5936L15.3572 32.2025ZM13.7787 33.6116L14.812 32.5736L15.7946 33.6116H13.7787ZM18.5381 33.6116L19.5695 32.5736L20.557 33.6116H18.5381ZM22.8662 33.6116L23.8994 32.5736L24.8838 33.6116H22.8662ZM27.0563 33.6116L28.0877 32.5736L29.0775 33.611L27.0563 33.6116ZM31.6397 33.6116L32.676 32.5736L33.6604 33.6116H31.6397ZM31.4982 30.4789L32.7633 31.744L33.9682 30.4789H31.4982ZM26.8231 30.4789L28.0883 31.744L29.2932 30.4789H26.8231ZM22.5812 30.4789L23.8464 31.744L25.0513 30.4789H22.5812ZM18.2791 30.4789L19.5442 31.744L20.7492 30.4789H18.2791ZM13.5197 30.4789L14.7848 31.744L15.9898 30.4789H13.5197ZM35.8184 30.5361H34.7665L33.2001 32.0983L34.5375 33.4327H35.825L35.8184 30.5361ZM11.8292 30.5361H12.8853L14.4439 32.0983L13.1124 33.4309H11.825L11.8292 30.5361ZM17.0561 39.4434L18.414 41.0526H29.589L31.0951 39.3928C30.6409 39.3958 30.1914 39.3976 29.7378 39.3976C29.4132 39.1697 29.026 39.048 28.6294 39.0492C28.2328 39.0504 27.8464 39.1744 27.5232 39.4042C26.7417 39.6761 25.8918 39.6791 25.1085 39.4127C24.1974 39.0818 23.1982 39.0865 22.2902 39.4259C22.0425 39.5593 21.7658 39.6295 21.4845 39.6304C21.2031 39.6312 20.9259 39.5626 20.6775 39.4308C20.3549 39.1986 19.9671 39.0745 19.5697 39.076C19.1723 39.0775 18.7855 39.2046 18.4646 39.4392L17.0561 39.4434ZM12.378 34.7129H35.728L32.2277 38.2072H29.9384C29.5306 38.0085 29.0829 37.9053 28.6293 37.9053C28.1756 37.9053 27.7279 38.0085 27.3201 38.2072C27.0199 38.3736 26.6823 38.461 26.339 38.461C25.9958 38.461 25.6581 38.3736 25.3579 38.2072C25.0035 38.042 24.6172 37.9565 24.2262 37.9565C23.8352 37.9565 23.4489 38.042 23.0945 38.2072C22.5069 38.4112 21.8676 38.4112 21.2799 38.2072C20.9191 37.9776 20.5003 37.8557 20.0726 37.8557C19.6449 37.8557 19.2261 37.9776 18.8653 38.2072H15.6427L12.378 34.7129ZM19.4744 24.1459H28.5311V25.202L35.825 29.2294H11.825L19.4762 25.5062L19.4744 24.1459ZM16.6531 21.4776H31.2463L32.1036 23.1374H15.5964L16.6531 21.4776ZM32.3506 21.1276C33.7895 20.8653 35.1814 20.3904 36.4805 19.7184C38.0468 20.6123 39.2816 21.9893 40 23.6434C37.5353 22.5638 34.9733 21.7214 32.3488 21.1276M15.6494 21.1276C14.2111 20.8651 12.8199 20.3902 11.5213 19.7184C9.95525 20.6131 8.72012 21.9898 8 23.6434C10.4651 22.5647 13.027 21.7223 15.6512 21.1276M30.5921 20.5251C31.7639 19.2345 32.8561 17.8739 33.8628 16.4507C36.5787 16.1368 38.4125 16.6983 39.6554 17.858C36.5663 18.497 33.5349 19.3891 30.5921 20.5251ZM17.4103 20.5251C16.239 19.2329 15.1458 17.872 14.1366 16.4495C11.4256 16.1356 9.59048 16.6971 8.35304 17.8568C11.4398 18.4967 14.4688 19.3888 17.4097 20.5239M29.4866 14.0855C29.5622 16.2314 29.0408 18.3562 27.9804 20.2233H28.9859L36.5305 11.2684C34.3825 10.6659 32.0345 11.6054 29.4866 14.0855ZM18.5177 14.0849C18.4396 16.231 18.9612 18.3564 20.0238 20.2227H19.0219L11.4719 11.2684C13.6199 10.6659 15.9685 11.6048 18.5177 14.0849ZM25.6899 20.1588C31.7675 13.4421 25.1398 10.8774 23.9669 7C23.1439 10.6262 16.1633 13.4427 22.2408 20.1588H25.6899Z" fill="#00408F"/>
</g>
<defs>
<clipPath id="clip0_291_13575">
<rect width="48" height="48" fill="white"/>
</clipPath>
</defs>
</svg>
