<?xml version="1.0" encoding="UTF-8"?>
<svg width="36px" height="34px" viewBox="0 0 36 34" version="1.1" xmlns="http://www.w3.org/2000/svg" xmlns:xlink="http://www.w3.org/1999/xlink">
    <title>77EA02E7-EE3D-4E19-A7E4-564021393C30@2x</title>
    <g id="Dropdown" stroke="none" stroke-width="1" fill="none" fill-rule="evenodd">
        <g id="Set5Dropdown_NAV,-Dividend-and-Others" transform="translate(-480.000000, -144.000000)" fill="#97144D" fill-rule="nonzero">
            <g id="Dropdown" transform="translate(0.000000, 107.000000)">
                <g id="noun_Value_3304461" transform="translate(480.000000, 38.000000)">
                    <path d="M24.04,10 L21.95,7.155 C21.795,6.935 21.795,6.935 21.58,6.82 C22.245,6.645 22.245,6.645 22.6475,6.245 C23.05,5.845 23.05,5.845 23.15,5.3 L23.15,5.3 L24.265,5.3 L24.265,4.605 L23.16,4.605 C23.105,4.26 23.105,4.26 22.9275,3.99 C22.75,3.72 22.75,3.72 22.4,3.535 L22.4,3.535 L24.265,3.535 L24.265,2.835 L19.605,2.835 L19.605,3.56 L20.585,3.56 C21.315,3.56 21.315,3.56 21.73,3.8325 C22.145,4.105 22.145,4.105 22.24,4.605 L22.24,4.605 L19.595,4.605 L19.595,5.3 L22.22,5.3 C22.095,5.77 22.095,5.77 21.6725,6.055 C21.25,6.34 21.25,6.34 20.545,6.34 L20.545,6.34 L19.605,6.34 L19.605,7.01 L20.445,7.01 C20.65,7.01 20.65,7.01 20.7475,7.0625 C20.845,7.115 20.845,7.115 20.93,7.235 L20.93,7.235 L22.79,9.795 C22.915,10 22.915,10 23.175,10 L23.175,10 L24.04,10 Z M22,13 C25.5898509,13 28.5,10.0898509 28.5,6.5 C28.5,2.91014913 25.5898509,0 22,0 C18.4101491,0 15.5,2.91014913 15.5,6.5 C15.5040427,10.088175 18.411825,12.9959573 22,13 Z M22,0.928571429 C25.077015,0.928571429 27.5714286,3.42298497 27.5714286,6.5 C27.5714286,9.57701503 25.077015,12.0714286 22,12.0714286 C18.922985,12.0714286 16.4285714,9.57701503 16.4285714,6.5 C16.4320767,3.42443806 18.9244381,0.932076696 22,0.928571429 Z" id="Shape" stroke="#97144D" stroke-width="0.5"></path>
                    <g id="Group" transform="translate(0.000000, 12.000000)">
                        <path d="M23.8242573,14.1431848 C24.7118219,14.1431848 26.0176015,13.3407665 27.5962605,11.8357879 C28.3909755,11.0781644 29.2342518,10.1661595 30.1532192,9.08758235 C31.0856948,7.99315083 33.6204442,4.80381609 33.8659239,4.51523539 C34.5147963,3.75243504 34.3584507,2.84856911 33.5950079,2.26277904 C32.7926014,1.64709207 31.7505651,1.72056958 30.957119,2.63870461 C29.4679107,4.36193988 27.6618101,6.3241431 25.5383106,8.52611894 C24.8419538,9.24821049 23.7332669,8.26028685 24.3706289,7.48562643 C24.6357827,7.16335397 24.7826087,6.76139362 24.7826087,6.33479007 C24.7826087,5.3425059 23.9847329,4.53465478 23.0045162,4.52173913 L13.8589607,4.52173913 C12.5635389,4.52173913 11.0489011,5.2425639 10.0275322,6.3023331 C8.87065257,7.50270776 7.94536461,8.53428536 7.25320257,9.39426593 L10.1389449,14.1431848 L23.8242573,14.1431848 Z M29.7728528,1.61526969 C31.1230083,0.0529391826 33.1041343,-0.0867567826 34.5478313,1.0209928 C35.9872488,2.12545871 36.3195431,4.04652003 35.058145,5.52939238 C34.8353395,5.79131779 32.300073,8.9813031 31.3446326,10.1026882 C30.3933458,11.219198 29.5151322,12.1689876 28.6762828,12.9686856 C26.8242488,14.7342801 25.2390548,15.7084022 23.8242573,15.7084022 C18.000217,15.7084022 13.6321868,15.7084022 10.7201667,15.7084022 C9.74862261,15.7084022 6.19165628,8.21546946 6.42269765,7.94030257 C7.08982868,7.1457593 7.91548043,6.23824454 8.90052647,5.2161639 C10.2021767,3.86557563 12.1123323,2.95652174 13.8589607,2.95652174 L20.5173137,2.95652174 C21.6389026,2.95652174 21.6389026,2.95652174 23.0147735,2.95658894 C24.5779891,2.97707915 25.8831054,4.05875696 26.2468712,5.51193859 C27.5759486,4.09630021 28.7513325,2.79732035 29.7728528,1.61526969 Z" id="Shape"></path>
                        <path d="M4.44215687,17.9584391 L8.09433078,17.9584391 L8.09433078,8.04539565 L4.44215687,8.04539565 L4.44215687,17.9584391 Z M3.92041774,6.48017826 L8.61606991,6.48017826 C9.19236704,6.48017826 9.65954817,6.94735939 9.65954817,7.52365652 L9.65954817,18.4801783 C9.65954817,19.0564754 9.19236704,19.5236565 8.61606991,19.5236565 L3.92041774,19.5236565 C3.34412061,19.5236565 2.87693948,19.0564754 2.87693948,18.4801783 L2.87693948,7.52365652 C2.87693948,6.94735939 3.34412061,6.48017826 3.92041774,6.48017826 Z" id="Shape" transform="translate(6.268244, 13.001917) rotate(-30.000000) translate(-6.268244, -13.001917) "></path>
                        <path d="M17.5008484,4.52173913 C17.0686256,4.52173913 16.7182397,4.17135327 16.7182397,3.73913043 C16.7182397,3.3069076 17.0686256,2.95652174 17.5008484,2.95652174 L22.9565217,2.95652174 C24.8294874,2.95652174 26.3478261,4.4748604 26.3478261,6.34782609 C26.3478261,8.22079177 24.8294874,9.73913043 22.9565217,9.73913043 L17.7391304,9.73913043 C17.3069076,9.73913043 16.9565217,9.38874457 16.9565217,8.95652174 C16.9565217,8.5242989 17.3069076,8.17391304 17.7391304,8.17391304 L22.9565217,8.17391304 C23.9650417,8.17391304 24.7826087,7.35634605 24.7826087,6.34782609 C24.7826087,5.33930612 23.9650417,4.52173913 22.9565217,4.52173913 L17.5008484,4.52173913 Z" id="Path"></path>
                    </g>
                </g>
            </g>
        </g>
    </g>
</svg>