<svg width="500" height="190" viewBox="0 0 500 190" fill="none" xmlns="http://www.w3.org/2000/svg">
<path d="M111.527 167.552C152.03 157.99 177.113 117.402 167.551 76.8991C157.989 36.3959 117.402 11.3129 76.8993 20.8747C36.3965 30.4366 11.3137 71.024 20.8755 111.527C30.4372 152.03 71.0242 177.113 111.527 167.552Z" fill="#5367FF"/>
<path d="M167.55 76.8973C166.187 71.1063 164.183 65.6352 161.641 60.5176L161.625 60.5344L114.169 104.404C111.207 107.148 106.796 107.62 103.311 105.583L83.1441 93.7652C79.8783 91.8629 75.7876 92.1491 72.8248 94.4891C60.3339 104.371 28.3492 129.673 27.8947 130.043C43.6682 159.301 77.6225 175.563 111.526 167.55C152.029 157.988 177.112 117.4 167.55 76.8973Z" fill="#00F3BB"/>
<path d="M235.179 90.8813C226.753 90.8813 219.928 88.2767 214.708 83.0729C209.482 77.8638 206.867 71.3281 206.867 63.4499V63.2994C206.867 55.679 209.531 49.1757 214.863 43.7947C220.191 38.4083 226.914 35.7178 235.023 35.7178C239.599 35.7178 243.498 36.3139 246.725 37.5061C249.947 38.6983 253.046 40.5134 256.01 42.9569L249.926 50.0458C247.638 48.1178 245.334 46.6786 243.025 45.7388C240.71 44.799 237.918 44.3317 234.642 44.3317C229.648 44.3317 225.454 46.1737 222.044 49.8577C218.639 53.5417 216.936 57.9721 216.936 63.1544V63.3049C216.936 68.8417 218.655 73.4009 222.086 76.9829C225.518 80.5648 229.992 82.3531 235.501 82.3531C240.598 82.3531 244.991 81.0052 248.685 78.3147V68.3314H234.723V60.1793H257.965V82.5841C251.36 88.1209 243.772 90.8921 235.19 90.8921L235.179 90.8813Z" fill="#44475B"/>
<path d="M270.458 89.9683V49.7343H279.899V58.7993C282.809 51.9414 287.669 48.6657 294.484 48.9718V58.724H293.937C289.673 58.724 286.268 60.0829 283.717 62.8002C281.171 65.5176 279.893 69.4701 279.893 74.6471V89.9631H270.452L270.458 89.9683Z" fill="#44475B"/>
<path fill-rule="evenodd" clip-rule="evenodd" d="M306.356 84.8235C310.517 88.862 315.716 90.8813 321.956 90.8813C328.196 90.8813 333.497 88.8351 337.712 84.7483C341.923 80.6615 344.033 75.7211 344.033 69.9265V69.776C344.033 63.9869 341.939 59.0571 337.755 54.9918C333.572 50.9265 328.357 48.8965 322.117 48.8965C315.877 48.8965 310.652 50.9425 306.441 55.0293C302.231 59.1161 300.126 64.0837 300.126 69.9265V70.0768C300.126 75.8659 302.204 80.7851 306.366 84.8235H306.356ZM331.161 79.1095C328.873 81.5745 325.855 82.8044 322.112 82.8044C318.369 82.8044 315.533 81.5478 313.143 79.0345C310.754 76.5212 309.556 73.487 309.556 69.9265V69.776C309.556 66.1672 310.7 63.133 312.988 60.6681C315.275 58.2031 318.267 56.9734 321.956 56.9734C325.646 56.9734 328.61 58.23 331.005 60.7433C333.395 63.2566 334.592 66.3177 334.592 69.9265V70.0768C334.592 73.6319 333.448 76.6447 331.161 79.1043V79.1095Z" fill="#44475B"/>
<path d="M362.695 90.2693L349.356 49.729H359.028L367.298 77.3109L376.422 49.5732H384.536L393.66 77.3109L402.086 49.729H411.602L398.107 90.2693H389.606L380.401 62.7627L371.121 90.2693H362.695V90.2693Z" fill="#44475B"/>
<path d="M430.184 90.2693L416.845 49.729H426.517L434.787 77.3109L443.911 49.5732H452.025L461.149 77.3109L469.575 49.729H479.091L465.596 90.2693H457.095L447.89 62.7627L438.605 90.2693H430.184Z" fill="#44475B"/>
<path d="M207.144 151.041H211.511V132.023L219.416 144.499H219.56L227.537 131.947V151.041H231.977V124.416H227.248L219.56 137.006L211.872 124.416H207.144V151.041Z" fill="#44475B"/>
<path d="M248.839 151.459C255.444 151.459 259.703 147.465 259.703 139.516V124.416H255.263V139.744C255.263 144.651 252.845 147.123 248.911 147.123C244.94 147.123 242.522 144.499 242.522 139.554V124.416H238.082V139.744C238.082 147.465 242.269 151.459 248.839 151.459Z" fill="#44475B"/>
<path d="M271.969 151.041H276.409V128.752H284.458V124.416H263.92V128.752H271.969V151.041Z" fill="#44475B"/>
<path d="M299.42 151.459C306.025 151.459 310.284 147.465 310.284 139.516V124.416H305.845V139.744C305.845 144.651 303.426 147.123 299.492 147.123C295.522 147.123 293.103 144.499 293.103 139.554V124.416H288.664V139.744C288.664 147.465 292.851 151.459 299.42 151.459Z" fill="#44475B"/>
<path d="M313.296 151.041H317.844L320.443 144.613H332.39L334.953 151.041H339.645L328.528 124.226H324.413L313.296 151.041ZM322.067 140.467L326.398 129.817L330.766 140.467H322.067Z" fill="#44475B"/>
<path d="M343.978 151.041H361.7V146.781H348.417V124.416H343.978V151.041Z" fill="#44475B"/>
<path d="M377.111 151.041H381.551V140.201H394.292V135.941H381.551V128.676H395.916V124.416H377.111V151.041Z" fill="#44475B"/>
<path d="M411.157 151.459C417.762 151.459 422.022 147.465 422.022 139.516V124.416H417.582V139.744C417.582 144.651 415.164 147.123 411.229 147.123C407.259 147.123 404.841 144.499 404.841 139.554V124.416H400.401V139.744C400.401 147.465 404.588 151.459 411.157 151.459Z" fill="#44475B"/>
<path d="M428.116 151.041H432.483V132.099L446.415 151.041H450.133V124.416H445.766V142.825L432.23 124.416H428.116V151.041Z" fill="#44475B"/>
<path d="M456.631 151.041H466.052C473.993 151.041 479.479 145.221 479.479 137.728V137.652C479.479 130.159 473.993 124.416 466.052 124.416H456.631V151.041ZM466.052 128.676C471.358 128.676 474.823 132.517 474.823 137.728V137.804C474.823 143.015 471.358 146.781 466.052 146.781H461.071V128.676H466.052Z" fill="#44475B"/>
</svg>
